<?xml version="1.0" encoding="UTF-8" standalone="no"?>
<!-- Created with Inkscape (http://www.inkscape.org/) -->

<svg
   width="70.84478mm"
   height="89.780991mm"
   viewBox="0 0 70.84478 89.780991"
   version="1.1"
   id="svg1"
   xml:space="preserve"
   sodipodi:docname="arm-design.svg"
   inkscape:version="1.4 (86a8ad7, 2024-10-11)"
   xmlns:inkscape="http://www.inkscape.org/namespaces/inkscape"
   xmlns:sodipodi="http://sodipodi.sourceforge.net/DTD/sodipodi-0.dtd"
   xmlns="http://www.w3.org/2000/svg"
   xmlns:svg="http://www.w3.org/2000/svg"><sodipodi:namedview
     id="namedview1"
     pagecolor="#505050"
     bordercolor="#eeeeee"
     borderopacity="1"
     inkscape:showpageshadow="0"
     inkscape:pageopacity="0"
     inkscape:pagecheckerboard="0"
     inkscape:deskcolor="#505050"
     inkscape:document-units="mm"
     showguides="true"
     inkscape:zoom="2.0334082"
     inkscape:cx="311.54591"
     inkscape:cy="696.61371"
     inkscape:window-width="1920"
     inkscape:window-height="1009"
     inkscape:window-x="-8"
     inkscape:window-y="-8"
     inkscape:window-maximized="1"
     inkscape:current-layer="layer1"><inkscape:page
       x="0"
       y="0"
       width="70.84478"
       height="89.780991"
       id="page2"
       margin="0"
       bleed="0" /></sodipodi:namedview><defs
     id="defs1" /><g
     inkscape:label="Calque 1"
     inkscape:groupmode="layer"
     id="layer1"
     transform="translate(-102.37903,-99.600514)"><g
       id="g247"
       transform="translate(19.055909,-87.362414)"><path
         id="path210"
         style="fill:#d45500;fill-opacity:1;stroke-width:1.48697;stroke-linecap:round;stroke-linejoin:round;paint-order:markers stroke fill"
         d="m 391.73438,710.74415 c -0.15917,-0.006 -0.31838,-0.004 -0.48047,0.006 -4.60285,0.30335 -7.53425,4.62147 -9.23437,8.46875 -3.82013,8.98615 -4.3459,18.88352 -5.66211,28.44141 -0.14517,1.47996 -0.81812,3.83595 1.17187,4.38476 3.64356,0.74273 7.33491,0.75827 10.93945,1.63672 1.6262,0.33959 3.97579,0.0207 4.1875,-2.02734 1.97267,-8.24379 3.10087,-16.67076 4.27149,-25.0586 0.27845,-3.8653 0.89156,-7.87565 -0.0781,-11.68359 -0.69946,-2.25493 -2.72772,-4.07606 -5.11523,-4.16797 z m -62.1543,29.44922 c -0.0903,-10e-4 -0.18396,0.0157 -0.2832,0.0586 -2.95452,0.91896 -6.38249,2.72438 -6.74219,6.16992 -0.68501,4.2418 -0.73287,8.60287 -0.33594,12.87305 0.24323,1.376 1.82788,1.53681 2.91016,1.08789 3.57444,-0.78447 7.33001,-1.09213 10.76758,-2.27148 0.82971,-1.49563 0.13719,-3.4757 -0.0508,-5.14258 -1.00614,-4.42199 -1.77027,-9.43677 -5.48633,-12.5 -0.26773,-0.10636 -0.50836,-0.27211 -0.7793,-0.27539 z m 34.01563,19.1582 c -2.57434,10e-4 -5.41669,1.35647 -6.42969,3.81446 -0.0594,1.91645 2.34942,2.38346 3.76563,2.92187 3.55406,0.82845 7.7547,0.84814 10.69531,-1.63281 1.44162,-0.65556 0.69177,-2.20797 -0.45899,-2.69141 -2.26622,-1.33247 -4.9052,-2.42081 -7.57226,-2.41211 z m -14.79883,3.83985 c -0.15243,-7.7e-4 -0.30442,0.002 -0.45703,0.006 -2.62027,0.12109 -5.66127,0.70636 -7.3711,2.85937 -0.78096,1.68449 1.39625,2.63724 2.6543,3.09961 3.81345,1.13338 8.124,-0.58914 10.66406,-3.49609 0.73375,-1.449 -1.14676,-2.21236 -2.30468,-2.19532 -1.05623,-0.14708 -2.11854,-0.2681 -3.18555,-0.27343 z m 16.38867,21.82031 c -2.10217,0.003 -4.20506,0.0111 -6.30664,0.006 -4.5268,0.12139 -9.10592,-0.22157 -13.59961,0.36133 -2.62903,0.8173 -2.81852,4.05547 -2.54101,6.33789 0.49154,3.4516 1.70389,7.3393 4.79492,9.3125 3.04303,0.97153 6.314,0.0319 9.4082,-0.23242 5.0817,-0.86877 10.31721,-1.25002 15.20508,-2.97266 2.95427,-1.12323 3.0465,-4.86945 2.45312,-7.47852 -0.47901,-2.00438 -1.4133,-4.0948 -3.10937,-5.3164 -2.10084,-0.0209 -4.20251,-0.021 -6.30469,-0.0176 z m 23.52149,52.61133 c -2.89558,0.33953 -3.54475,4.08279 -2.5293,6.34375 0.6312,1.97861 2.57818,4.18938 4.85742,3.27344 2.98758,-1.10946 3.82386,-5.36264 1.5957,-7.60352 -0.96832,-1.13348 -2.3774,-2.08052 -3.92382,-2.01367 z m -58.375,4.73047 c -3.47008,0.14224 -5.69078,4.66593 -3.55665,7.46093 1.26652,2.02003 4.54887,2.89924 6.11915,0.73438 1.73946,-2.34354 1.62853,-6.66378 -1.3379,-7.98047 -0.38864,-0.15201 -0.80762,-0.22382 -1.2246,-0.21484 z m 41.9082,1.01562 c -0.16431,0.002 -0.33077,0.0101 -0.49805,0.0293 -2.66944,-0.14626 -4.88782,2.28729 -4.63672,4.91992 -0.26363,2.86762 2.39168,5.66431 5.32618,5.04492 2.66693,-0.32891 4.73064,-2.87765 4.37109,-5.5625 -0.0224,-2.53442 -2.09788,-4.45457 -4.5625,-4.43164 z m -22.89063,2.00391 c -3.64576,0.0893 -5.83628,4.56261 -4.16211,7.65625 1.0685,2.4226 4.08994,4.29703 6.62891,2.82812 3.22048,-1.40183 4.58818,-6.11474 2,-8.71679 -1.16838,-1.1302 -2.83772,-1.81334 -4.4668,-1.76758 z m 39.29688,15.41797 c -7.91111,2.14615 -15.63142,5.28256 -23.87695,5.8164 -8.90325,0.73267 -17.91205,0.40357 -26.82813,0.2461 -1.80802,0.74 -2.1143,3.05583 -2.97266,4.60547 -2.93272,6.80534 -4.90657,14 -5.80273,21.35742 -0.16354,0.24111 -0.0864,1.93219 -0.4707,1.27148 -1.09527,-1.45338 -1.69091,-3.44287 -3.27539,-4.44531 -1.81183,-0.34288 -1.92212,2.10636 -2.05079,3.33984 -0.18368,2.95642 -0.28237,6.02782 0.34766,8.9043 1.14097,1.00489 2.9993,0.14402 4.43945,0.30859 8.07686,-0.2921 16.20396,-1.10184 23.91602,-3.65234 14.58686,-4.56459 28.49254,-12.02884 39.30469,-22.96094 1.01411,-1.30411 2.99902,-2.1527 3.31054,-3.8125 -1.55772,-3.54977 -3.33032,-7.04298 -5.07226,-10.51953 -0.31824,-0.19217 -0.54635,-0.55723 -0.96875,-0.45898 z m 148.5332,27.32422 c -2.06597,1.30161 0.89247,3.34442 1.67383,4.52343 0.85988,1.01236 2.8294,3.52825 3.50781,4.1836 -9.27939,-4.71792 -20.08203,-6.48076 -30.33007,-4.59961 -2.18817,1.26564 0.68437,2.89495 2.10937,2.93164 2.72348,0.80962 5.50811,1.40041 8.22266,2.24219 -12.27596,1.05173 -24.83672,5.02312 -33.5586,14.125 -3.81865,4.00837 -7.66582,8.33757 -9.99804,13.37695 0.47929,2.35981 3.03597,0.32699 4.17382,-0.38867 -2.74457,5.05492 -6.21396,9.99076 -7.5996,15.61133 0.95656,2.35154 3.64006,-0.2669 4.98437,-0.89454 1.58052,-1.01049 3.09824,-2.11581 4.70117,-3.09179 -5.4326,7.8974 -8.76948,17.20725 -10.17578,26.63476 1.06386,2.40089 3.09449,-0.62088 3.86719,-1.70507 0.89604,-1.09365 2.84534,-4.17914 2.92578,-3.82618 -2.30395,5.88466 -4.33348,12.26881 -7.12891,17.71094 -1.37431,-9.33155 -0.53028,-18.88427 1.88086,-28.01758 0.28333,-2.33311 -2.5965,-1.15891 -3.39843,-0.0644 -1.2246,1.06348 -0.0229,-2.02409 -0.14258,-2.6543 0.51216,-4.35803 2.61128,-8.57514 2.73242,-13.01562 -1.1819,-0.98742 -1.68426,-1.06677 -0.57227,-2.79102 1.39049,-3.91279 3.82099,-7.54697 4.81446,-11.51367 -2.34825,-1.40964 -0.77126,-1.40807 0.75,-2.12109 1.89519,-1.53977 4.20677,-3.70359 4.24414,-6.26954 -1.90756,-3.18107 -6.14571,-3.87312 -9.30469,-5.33593 -3.98209,-1.09648 -8.31843,-3.35234 -12.47266,-2.01953 -2.25207,1.4 -0.21572,4.24518 1.86914,4.38476 3.24742,1.07268 6.62335,1.69098 9.9043,2.64844 -3.28911,2.45236 -7.6713,3.72476 -10.2793,6.93359 0.21911,2.34297 3.78142,1.88467 5.41602,2.78516 1.90126,0.35042 4.25166,1.05904 1.51367,2.48437 -3.39661,3.03538 -7.64132,5.22587 -10.71875,8.49024 1.06178,2.13013 4.39108,1.07211 6.40039,1.85937 1.63244,0.0641 2.80134,0.87722 1.10352,2.03907 -2.43793,3.11752 -5.95056,5.4329 -8.07227,8.70117 1.37824,2.08468 5.27821,2.64498 5.69531,5.51562 -1.7598,3.99926 -5.96686,6.41448 -8.05273,10.125 1.61531,1.9399 4.97691,0.675 7.33594,1.32032 1.80233,-0.24891 1.68772,0.68134 0.61328,1.76562 -3.47929,4.96661 -8.37375,8.93204 -11.70899,13.88867 -1.89631,8.85859 -5.22502,17.33713 -8.72461,25.69141 -0.47505,2.23694 2.4662,1.67804 3.05079,0.19336 5.20677,-5.14534 6.39477,-12.5192 8.71093,-19.12891 2.8484,-4.03008 6.77256,-7.85922 10.18555,-11.0039 0.31203,6.02842 0.47439,12.69285 -3.60351,17.62109 -1.06958,0.95518 -1.43539,3.61799 0.6621,3.14258 1.64619,-0.26895 4.22576,-1.79499 5.24415,-1.70117 -3.32983,5.30923 -8.8148,8.80354 -14.13282,11.76359 -1.40072,1.973 1.78314,2.6358 3.17383,2.1739 2.32183,-0.1718 4.6287,-0.5502 6.88477,-1.125 -4.88196,4.2694 -10.38382,9.1947 -17.31641,8.9043 -5.42213,0.3937 -11.29556,-0.601 -16.16992,2.3964 -1.92201,0.8496 2.03148,-1.937 2.47851,-2.6425 11.82695,-10.94923 17.44435,-27.09188 19.21094,-42.76952 1.14018,-15.73426 0.54419,-31.58974 2.3711,-47.24024 1.08163,-6.38615 2.86233,-12.70963 4.91601,-18.8789 -0.49925,-2.3462 -3.71915,-0.91931 -5.39648,-0.8086 -4.14216,1.20171 -3.95212,6.4974 -5.05664,9.84766 -4.14517,19.90301 -2.21515,40.4331 -4.74415,60.51367 -2.61134,16.71967 -10.87265,33.38473 -25.55078,42.64643 -3.52517,1.529 -7.40359,-0.5453 -10.9375,-1.1133 -5.61923,-1.6062 -11.03672,-4.3337 -15.50586,-8.1054 13.28627,-5.22933 24.4689,-16.00389 29.00196,-29.68359 6.02287,-16.64174 5.57688,-34.64745 6.60156,-52.07226 -0.29956,-1.72005 0.9694,-5.17943 -1.47266,-5.56836 -2.62755,1.96121 -3.36627,5.70542 -5.0039,8.46679 -1.47839,3.17034 -2.87478,6.37586 -4.31641,9.5625 2.00398,-7.39313 5.84864,-14.50152 5.99805,-22.27929 -0.37413,-5.94407 -0.48027,-12.14237 -2.44336,-17.79883 -1.98765,-1.6408 -2.61317,1.80548 -2.92188,3.16406 -0.37796,1.31229 -0.51848,3.72683 -1.26367,1.29883 -1.67544,-1.96942 -3.49606,1.20487 -4.53125,2.37109 -11.83094,15.03785 -29.32374,24.44432 -47.07031,30.79102 -11.31975,4.26269 -23.49263,5.57808 -35.59571,5.40234 -1.66403,-0.43907 -3.45788,0.98891 -2.02148,2.5586 2.21507,2.98491 0.0647,1.51014 -1.73828,0.29882 -1.89959,-0.71404 -4.08816,-3.69322 -6.1875,-2.24023 -0.70331,2.8251 1.34751,5.74381 2.12695,8.42578 4.01532,9.32729 9.9045,17.71416 16.39063,25.47656 -2.57355,-0.69569 -5.07804,-2.97368 -7.78711,-2.47851 -1.22626,2.12481 1.75802,4.07436 2.65625,5.84765 6.74715,9.32243 16.06125,16.44139 26.33984,21.48047 -3.89468,0.1112 -8.05656,-0.78403 -11.81836,0.30079 -1.55418,2.0972 1.92196,3.24127 3.28125,4.09757 7.47658,3.812 15.73665,5.7484 23.94141,7.2578 -4.10184,0.6652 -8.61962,0.1749 -12.43164,1.834 0.22256,2.5072 3.54992,3.5703 5.3789,5.045 9.58481,5.9311 20.49565,9.5332 31.55079,11.4687 -3.70779,1.5023 -7.86647,1.1879 -11.47266,2.8125 -1.04857,2.3911 2.7922,2.7327 4.27734,3.5234 12.50335,4.2792 26.53905,3.5333 38.94336,-0.4629 -2.76029,2.3252 -5.81737,4.3159 -8.43945,6.793 -0.47466,2.7169 3.10074,1.2611 4.51563,1.0879 12.07961,-2.5502 22.8095,-9.2167 32.35351,-16.8184 -1.90936,3.7584 -4.90294,6.9857 -6.32812,10.9512 0.92802,2.369 3.56448,-0.1479 4.76367,-1.0058 6.90219,-5.7424 13.56936,-11.9355 18.87695,-19.2129 -0.19894,2.5798 -1.77375,5.4417 -0.76953,7.9297 2.13798,1.1017 3.2511,-2.2132 4.38477,-3.4571 4.59776,-7.1709 8.6814,-14.8867 11.78125,-22.71086 7.22865,4.63976 15.7321,8.50126 24.59961,7.77926 5.79884,-0.2144 12.02423,0.2328 17.42968,-2.168 1.95069,-1.7487 -1.37356,-3.25832 -2.74218,-3.83587 -1.60583,-0.87848 3.42127,-1.1882 4.42773,-1.92774 14.91562,-5.06166 26.04126,-17.68498 33.32813,-31.21875 5.93329,-11.22787 9.0598,-24.01688 7.90039,-36.73437 -0.45349,-3.01743 0.0534,-6.67395 -1.9336,-9.19141 -2.43049,-0.92496 -2.39201,2.93334 -3.17968,4.36328 -0.44245,0.96116 -1.32256,5.30273 -1.53321,4.49024 -0.76098,-11.1141 -3.58495,-22.52669 -10.23633,-31.62891 -2.59842,-2.35469 -2.07632,1.96665 -1.56836,3.57813 0.0245,1.35838 0.73181,4.77744 0.0469,4.48828 -5.53321,-7.80929 -13.35524,-14.47961 -22.76563,-16.80078 z m 11.09375,22.51367 c 0.28036,2.49976 -1.85076,5.36198 -0.59375,7.74219 3.48537,1.82854 7.39867,3.27151 10.45118,5.8164 1.16046,1.02697 3.13466,2.15887 3.43554,3.59375 -3.14147,2.1527 -7.3941,1.54744 -10.61328,3.11719 -0.91833,1.76546 1.75775,3.34213 2.45313,4.80859 8.51456,11.69637 4.59557,30.00797 -7.98438,37.19141 -9.75115,5.97096 -22.78726,3.77894 -31.11719,-3.57227 -11.85436,-9.87264 -16.89063,-27.41107 -10.76757,-41.6582 -4.15314,14.51784 0.68162,31.58576 12.55664,41.10547 6.50708,5.0027 15.41481,7.73441 23.39843,4.84766 11.19865,-3.00573 18.94173,-15.2216 16.45118,-26.63868 -1.26475,-9.77733 -9.23843,-18.53881 -19.25782,-19.4375 -10.7801,-1.59159 -21.55742,8.39797 -20.2207,19.32813 0.70464,9.39391 11.854,16.83366 20.54492,12.37695 6.73367,-2.93146 8.14015,-13.59905 1.73438,-17.60937 -3.92823,-2.90494 -11.3645,0.33985 -10.54492,5.50195 0.63541,1.92279 2.99786,3.21315 4.94531,2.53711 -3.44346,3.30117 -8.3537,-3.04692 -5.90625,-6.40234 3.64388,-6.08247 14.14434,-5.18481 16.45312,1.63476 3.53437,8.18108 -3.87574,18.10345 -12.66015,17.48047 -11.2531,-0.22093 -18.98554,-13.18441 -15.40235,-23.46484 1.83142,-7.13473 8.55891,-11.50469 15.27344,-13.37305 4.09262,-2.47623 4.52125,-8.06067 7.86914,-11.29297 2.26902,-2.82514 6.09188,-3.47566 9.50195,-3.63281 z m -177.00586,35.53711 c 7.57903,0.28396 13.76437,6.3155 16.87696,12.98437 2.28048,1.47999 2.69913,-2.63604 3.93164,-4.03906 2.55608,-4.41235 7.42991,-8.09761 12.58984,-7.75977 1.27798,6.61545 -2.30065,12.96612 -6.74414,17.71485 -1.07927,2.29083 2.58165,2.66217 3.92773,3.63672 0.9972,0.59805 2.66693,1.21901 3.11133,2.12109 -3.30866,3.04804 -7.49751,5.31452 -12.14062,4.87305 -4.10563,-0.19699 -8.23315,0.2816 -11.87305,2.30078 -7.52201,2.02011 -15.54224,-4.84497 -14.96289,-12.57227 -0.29049,-3.64047 2.95036,-8.72615 7.00391,-6.66211 1.35489,0.68374 2.78091,2.65128 3.02148,3.58204 -1.55083,-2.73555 -6.02865,-3.91536 -7.77539,-0.74219 -2.92105,5.34764 0.27519,12.18658 5.58594,14.60156 4.51355,1.9991 10.47327,-0.23749 12.18164,-5.00977 2.28777,-4.4854 1.28617,-10.06646 -0.72266,-14.47851 -3.72726,-7.21743 -12.9632,-12.20082 -20.76367,-8.41016 -9.07535,4.2723 -12.04693,16.44339 -7.58789,25.06055 2.40105,5.19725 6.3109,9.54252 10.61523,13.24805 -8.53067,-4.83255 -14.44433,-14.53625 -13.5039,-24.39453 0.35347,-7.85154 6.39969,-16.13532 14.74804,-16.00782 0.31492,-0.009 0.63015,-0.0257 0.94532,-0.0254 0.51715,-0.0337 1.02988,-0.0404 1.53515,-0.0215 z"
         transform="scale(0.26458333)" /><path
         id="path220"
         style="fill:#008000;fill-opacity:1;stroke-width:1.05145;stroke-linecap:round;stroke-linejoin:round;paint-order:markers stroke fill"
         d="m 411.89649,889.14845 c -1.42803,0.48319 -2.10261,2.06732 -3.07227,3.12109 -7.91875,11.0093 -19.08455,19.25471 -31.17382,25.28711 -10.81541,5.44843 -22.44559,9.84829 -34.64454,10.57617 -5.76735,0.40478 -11.51537,-0.0509 -17.30078,-0.006 -1.46775,0.42898 -0.68724,2.13924 -0.59375,3.19141 0.16276,1.9174 1.15083,3.985 3.1543,4.51953 3.14326,0.85848 6.46132,0.74609 9.69336,0.8086 5.30648,-0.0828 10.63087,-0.45866 15.79297,-1.76368 14.23874,-3.30533 27.80402,-9.31533 40.0957,-17.18945 6.5398,-4.34657 12.76258,-9.41179 17.45508,-15.76172 1.50636,-2.24445 2.93989,-4.66595 3.5332,-7.32226 -0.11406,-1.80226 -1.03689,-3.47285 -1.92187,-5.00977 -0.23378,-0.3165 -0.62389,-0.49948 -1.01758,-0.45117 z m -22.78906,2.94336 c -0.17053,0.003 -0.34313,0.0256 -0.51953,0.0723 -0.98957,0.85198 -0.42869,2.35204 -0.45313,3.50391 0.48009,3.47294 1.07542,7.00494 2.47461,10.23828 0.60424,1.33477 2.46384,1.28211 3.38281,0.30664 2.57428,-2.23277 5.0584,-4.63597 7.08789,-7.38086 0.73576,-0.76843 0.38633,-1.94787 -0.61718,-2.25 -3.38088,-1.71132 -6.90717,-3.17153 -10.50391,-4.36328 -0.28849,-0.0804 -0.56735,-0.13145 -0.85156,-0.12695 z m 61.24219,9.74023 c -0.0383,-9.7e-4 -0.0767,-7.1e-4 -0.11524,0.002 -3.10569,0.77438 -6.03061,2.18436 -8.94531,3.49023 -0.88743,0.40282 -2.48647,1.07902 -1.83203,2.32617 1.40956,1.32335 3.25275,2.14427 4.84961,3.23828 1.1644,0.57039 2.29759,1.7211 3.67578,1.53125 1.56428,-0.96741 1.79995,-3.05364 2.43359,-4.63672 0.41828,-1.63625 1.19823,-3.25528 1.19531,-4.95898 -0.14518,-0.56117 -0.687,-0.97753 -1.26171,-0.99219 z m -73.77344,0.56055 c -0.0502,-3.4e-4 -0.10172,0.003 -0.15235,0.008 -1.56054,0.31482 -1.40682,2.29548 -1.7832,3.49219 -0.52084,3.1508 -1.28642,6.37015 -0.89258,9.57422 0.15623,1.29591 1.69119,1.7185 2.71289,1.10156 3.90005,-1.74306 7.5915,-3.95184 11.16992,-6.27734 0.96212,-0.42841 1.57126,-1.84173 0.50196,-2.51367 -3.33093,-2.04342 -6.9034,-3.70978 -10.53711,-5.14258 -0.32898,-0.11227 -0.66848,-0.23984 -1.01953,-0.24219 z m 85.2539,3.31445 c -1.51337,0.25377 -1.51482,2.15425 -2.0039,3.29492 -0.35892,1.67662 -1.32285,3.40973 -0.85156,5.14649 0.53543,1.27538 2.04152,0.71373 2.93164,0.21289 2.68426,-1.3621 5.44212,-2.70419 7.78906,-4.60547 0.84943,-0.73228 0.27198,-2.04299 -0.7461,-2.2207 -2.31032,-0.77788 -4.69057,-1.56714 -7.11914,-1.82813 z m -103.23242,4.30078 c -0.0683,-0.004 -0.13814,-0.004 -0.20703,0.004 -1.45986,0.40574 -1.66893,2.22978 -2.2168,3.42188 -1.1618,3.52244 -2.19868,7.10104 -2.8789,10.75 -0.083,1.29737 1.4323,1.30351 2.27343,0.82812 4.70071,-1.47129 9.41664,-3.04997 13.78321,-5.35547 1.20368,-0.89638 -0.12349,-2.07865 -0.91992,-2.70312 -2.973,-2.39282 -5.90247,-4.91561 -9.24024,-6.78907 -0.18783,-0.0818 -0.38877,-0.14391 -0.59375,-0.15625 z m 186.77539,1.99219 c -0.0406,4.1e-4 -0.0807,0.002 -0.12304,0.006 -3.63135,1.14626 -6.80246,3.82715 -8.5293,7.24609 -0.93563,1.03329 -1.66694,3.82649 0.58984,3.51758 3.65262,-1.90593 7.10874,-4.70534 9.18164,-8.32812 0.59861,-0.99743 0.14082,-2.45402 -1.11914,-2.44141 z m -208.06445,2.03125 c -1.50228,0.41426 -1.72534,2.28422 -2.35938,3.48828 -0.93556,2.57682 -2.09327,5.13011 -2.54883,7.84375 -0.0567,1.50806 1.7434,1.6504 2.84766,1.78907 3.53493,0.15262 7.14271,0.34362 10.62891,-0.38086 1.07087,-0.1614 2.74459,-0.99754 2.05273,-2.32422 -2.11638,-3.22646 -5.05006,-5.81499 -7.73828,-8.55274 -0.86263,-0.69976 -1.64571,-1.89767 -2.88281,-1.86328 z m 94.91797,0.66992 c -1.54119,-0.0503 -1.94419,1.72638 -1.88867,2.94336 0.0536,1.61662 -0.4575,3.67713 0.87695,4.91407 1.34773,0.90615 2.65884,-0.63907 3.64062,-1.40821 1.05612,-1.05972 2.46676,-1.89783 3.16407,-3.24609 0.11402,-1.43882 -1.71189,-1.61987 -2.66407,-2.17383 -1.02234,-0.3706 -2.03202,-0.9414 -3.1289,-1.0293 z m 28.20117,2.53516 c -1.19832,0.0134 -2.51764,0.44298 -2.81445,1.74023 -0.63166,2.76502 -1.06198,5.61929 -1.0293,8.45899 0.10543,1.28445 1.71546,1.53574 2.58984,0.82617 3.37757,-2.26849 6.69221,-4.64348 9.94922,-7.08398 0.8883,-0.49654 1.85814,-1.88416 0.68164,-2.63086 -2.34411,-0.98744 -4.97214,-1.07806 -7.48242,-1.27539 -0.46389,-0.0178 -0.92843,-0.019 -1.39258,-0.0176 -0.16294,-0.0137 -0.33076,-0.0195 -0.50195,-0.0176 z m 87.16406,3.40039 c -2.76521,0.10117 -5.8864,0.19787 -8.11132,2.0625 -1.16625,0.98707 -0.68291,2.8573 0.60546,3.48633 2.7471,1.46723 5.92466,1.91456 8.98829,2.21289 2.50045,-7.8e-4 5.10385,0.26186 7.52734,-0.4707 0.99044,-0.26302 2.4536,-1.15724 1.71484,-2.35352 -1.99135,-2.61759 -5.26411,-3.83289 -8.33789,-4.65625 -0.77951,-0.19859 -1.58207,-0.29674 -2.38672,-0.28125 z m -101.48047,2.45703 c -0.029,3.8e-4 -0.0569,0.003 -0.0859,0.006 -1.6926,0.47718 -2.88305,1.96661 -4.24414,3.00586 -0.94572,0.96845 -2.28625,1.80693 -2.61915,3.19141 0.14699,1.27121 1.49881,1.94754 2.29883,2.81836 1.16976,0.89646 2.44644,2.00002 3.97461,2.07812 1.40119,-0.46668 1.54149,-2.26169 1.73242,-3.51562 0.086,-2.29617 0.33321,-4.6431 -0.0273,-6.91797 -0.16891,-0.40607 -0.59379,-0.67171 -1.0293,-0.66602 z m 14.25196,7.76563 c -1.24576,0.001 -2.48872,0.0153 -3.72657,0.0645 -0.14809,0.0503 -0.29526,0.10204 -0.44335,0.15234 -0.80513,1.12186 -0.16315,2.64755 -0.31641,3.94532 0.14503,1.75525 -0.1147,3.61103 0.41016,5.30078 0.5613,1.11127 1.91382,0.67809 2.61914,-0.0195 2.88009,-2.1628 5.82885,-4.35442 8.12695,-7.15235 0.65486,-0.71123 0.79482,-2.16308 -0.4375,-2.28125 -2.07268,0.0239 -4.15616,-0.0119 -6.23242,-0.01 z m -28.91407,5.09375 c -1.59324,0.16491 -1.55807,2.14747 -1.63476,3.3457 -0.0112,1.99518 -0.18469,4.0313 0.13867,6.00195 0.6383,1.1468 1.89093,0.30996 2.58398,-0.29297 1.48951,-1.21968 3.31461,-2.16783 4.41602,-3.7832 0.70313,-1.65322 -1.20374,-2.71266 -2.27344,-3.57031 -0.99078,-0.65198 -1.97341,-1.67548 -3.23047,-1.70117 z m 25.94336,6.89453 -0.14062,0.002 c -1.46326,0.12959 -1.18256,1.94148 -1.26172,2.96875 -0.0509,2.92056 -0.26843,5.86517 -0.0215,8.77539 0.44833,1.11306 1.76677,0.63873 2.34179,-0.0859 2.29965,-2.10042 4.75761,-4.1023 6.66602,-6.57617 0.769,-1.03475 -0.0201,-2.37449 -1.13086,-2.71875 -2.09207,-0.91792 -4.22029,-1.87047 -6.45313,-2.36523 z m -12.26367,3.85351 c -0.1685,-0.008 -0.34633,0.0253 -0.52148,0.10547 -2.84938,1.99648 -5.6298,4.19671 -7.93555,6.79688 -0.65845,1.27163 1.07341,1.95532 1.79102,2.75781 2.00504,1.62655 3.93008,3.391 6.11328,4.77344 1.31499,0.41548 1.70416,-1.22824 1.69531,-2.19727 0.0793,-3.74734 0.23541,-7.52439 -0.14648,-11.25781 -0.0629,-0.56656 -0.49058,-0.95463 -0.9961,-0.97852 z m -42.61719,1.79493 c -3.05061,0.10201 -5.97525,1.67517 -7.74023,4.16601 -2.52747,3.4961 -3.75109,7.73727 -4.67969,11.89649 -0.24196,0.90099 -0.25005,2.23642 0.85547,2.54687 1.47866,0.32026 2.68993,-0.91624 3.87891,-1.58398 2.99099,-1.84752 5.62597,-4.33968 7.29883,-7.45899 1.37986,-2.56337 2.33845,-5.52187 1.99218,-8.45703 -0.16164,-0.73731 -0.87999,-1.15877 -1.60547,-1.10937 z m 59.49024,11.0625 c -0.36571,-0.002 -0.73237,0.003 -1.09766,0.004 -1.63992,-0.0302 -3.58333,0.1171 -4.53906,1.66797 -1.26045,1.90413 -1.09819,4.33003 -1.36523,6.50977 -0.34227,1.03698 0.69745,2.31707 1.74023,1.58984 2.58394,-2.31698 4.93064,-4.91453 7.16406,-7.57227 0.84685,-0.73065 0.35573,-2.23109 -0.80664,-2.16406 -0.36464,-0.0258 -0.72999,-0.0334 -1.0957,-0.0351 z m -33.0625,1.30078 c -0.0433,4.5e-4 -0.0857,0.004 -0.12891,0.01 -1.38428,0.33542 -1.26289,2.1256 -1.68554,3.20117 -0.53306,2.46356 -1.32222,4.93612 -1.47657,7.44141 0.30181,1.32747 1.83343,0.61696 2.66211,0.20703 2.52733,-1.24096 5.06121,-2.56188 7.32813,-4.2207 0.96837,-1.116 -0.66809,-2.08369 -1.39649,-2.8125 -1.61313,-1.27797 -3.09984,-2.79323 -4.91797,-3.76953 -0.12459,-0.0378 -0.25478,-0.058 -0.38476,-0.0566 z m -34.48047,7.15625 c -2.26003,0.0157 -4.15813,1.61011 -5.61328,3.19726 -0.82238,0.8356 -1.37979,2.38488 -0.30469,3.26172 1.17245,0.83148 2.71143,0.43132 4.05273,0.5 3.06265,-0.16119 6.35705,-0.48734 8.9004,-2.36328 0.81667,-0.53788 1.38949,-1.75823 0.59179,-2.5625 -1.43648,-1.50818 -3.68259,-1.65702 -5.625,-1.94141 -0.59233,-0.0587 -1.18781,-0.0933 -1.7832,-0.0879 -0.0737,-0.003 -0.14585,-0.004 -0.21875,-0.004 z m 71.30664,5.33984 c -0.0553,-0.004 -0.11035,-0.003 -0.16601,0.002 -1.44495,0.32252 -2.25145,1.79993 -3.30079,2.72657 -2.33482,2.63943 -5.00371,5.33357 -5.73046,8.91601 -0.38316,1.74822 -1.06664,3.5597 -0.79102,5.36133 0.66075,1.34868 2.42826,0.61417 3.29883,-0.10547 3.7073,-2.86588 7.17799,-6.71744 7.73828,-11.5625 0.0962,-1.56052 0.53785,-3.27175 -0.0918,-4.76172 -0.2047,-0.33156 -0.5703,-0.55104 -0.95703,-0.57617 z m -23.23828,1.43359 c -2.45068,0.46655 -4.67008,1.75914 -6.88086,2.86915 -1.23629,0.5614 -2.38415,1.97951 -1.65625,3.36523 1.09021,2.52263 2.13283,5.13373 3.75781,7.36523 0.75194,1.01766 2.35972,0.66461 2.78321,-0.47265 1.39039,-3.40087 2.38569,-6.96565 3.26757,-10.5293 0.29042,-1.02561 0.1609,-2.65116 -1.27148,-2.59766 z m -20.17188,6.01954 c -0.18543,-0.007 -0.37512,0.0232 -0.53906,0.0684 -1.25199,1.15852 -1.8143,2.90309 -2.80469,4.2832 -0.92818,1.68714 -2.17577,3.25788 -2.91406,5.01758 -0.26487,1.01203 1.00525,1.49729 1.76172,1.03515 2.64039,-0.45278 5.40446,-0.0262 7.98242,-0.81445 1.56248,-0.68144 1.07322,-2.66493 0.4336,-3.83398 -1.06295,-1.89798 -2.03375,-3.9023 -3.40625,-5.5918 -0.14639,-0.11028 -0.32824,-0.15666 -0.51368,-0.16406 z m 41.04493,11.11718 c -0.58016,0.003 -1.1846,0.0648 -1.61719,0.008 -2.03224,0.17209 -4.27802,0.11266 -6.06641,1.21875 -2.13862,1.795 -4.14653,3.84731 -5.61523,6.23242 -0.63614,1.01224 0.53863,2.16214 1.57617,1.70514 3.80091,-1.27918 7.29454,-3.34907 10.68555,-5.46295 0.981,-0.74439 2.17834,-1.3375 2.8457,-2.39844 0.0603,-1.15111 -0.84167,-1.3084 -1.80859,-1.30274 z m -51.32227,2.75977 v 0.004 c -1.72146,0.72954 -3.02493,2.21783 -4.49609,3.34765 -0.96918,1.00967 -2.48469,1.79705 -2.77539,3.26959 0.13412,1.4221 1.91061,1.6449 2.96679,2.1503 1.3976,0.3911 3.3275,1.3175 4.50586,-0.01 0.85386,-1.626 0.72861,-3.58938 0.97656,-5.37503 -0.049,-1.10055 0.54343,-2.77197 -0.74609,-3.35547 -0.14332,-0.006 -0.28849,-0.0326 -0.43164,-0.0312 z m 18.41211,4.69141 c -2.58154,0.12916 -5.24207,0.0935 -7.74609,0.77343 -1.27526,0.8979 -0.99391,2.7324 -1.40039,4.0703 -0.29016,2.0928 -0.86529,4.1764 -0.93555,6.2852 0.24508,1.2993 1.91069,1.1158 2.63476,0.3437 3.19855,-2.6078 6.10292,-5.5792 8.86719,-8.6386 0.72392,-0.6789 1.45297,-2.2019 0.16016,-2.71099 -0.50917,-0.15002 -1.0553,-0.11312 -1.58008,-0.12304 z m 15.57031,3.50783 c -1.46386,0.032 -2.97141,0.3288 -3.99219,1.4707 -1.43377,1.3523 -3.07793,2.6391 -4.01953,4.3789 0.24714,1.5971 2.28096,1.1435 3.45508,1.2519 3.6303,-0.027 7.28749,0.04 10.89844,-0.1914 2.30971,-1.2742 4.77814,-2.3634 6.91211,-3.9316 0.84862,-0.8048 -0.0645,-2.0219 -1.07813,-1.9356 -3.82513,-0.5308 -7.68789,-0.9866 -11.55273,-1.0429 -0.20578,0 -0.41392,0 -0.62305,0 z"
         transform="scale(0.26458333)" /><path
         id="path246"
         style="fill:#d40000;fill-opacity:1;stroke-width:0.743486;stroke-linecap:round;stroke-linejoin:round;paint-order:markers stroke fill"
         d="m 396.50977,874.04493 c -0.18412,0.004 -0.37909,0.0605 -0.58203,0.0957 -3.89702,2.74096 -7.09589,6.3658 -10.9375,9.19531 -12.67028,9.88075 -27.75886,16.64849 -43.61719,19.35156 -5.49482,0.94859 -11.0818,1.16983 -16.64844,1.07422 -1.75277,0.50273 -0.64083,2.67403 -0.66015,3.99219 0.56928,3.9003 1.492,7.73493 2.39258,11.56836 -1.95577,-0.98459 -3.55558,-2.57865 -5.53907,-3.48828 -1.66497,-0.17356 -1.46022,1.91499 -1.05468,2.93554 0.74772,2.69513 1.43023,5.45494 2.33789,8.07617 1.11197,1.02455 2.93462,0.28673 4.30859,0.4629 2.1676,0.42642 2.56536,-2.12126 3.53516,-3.4668 2.4902,-4.45584 4.68591,-9.2964 7.0625,-13.66211 3.90012,3.3618 6.62675,7.85475 10.45898,11.33008 1.03073,0.88242 2.47022,2.81322 3.95508,1.71679 1.37432,-2.47293 1.87964,-5.37586 2.86719,-8.02734 0.9721,-2.80731 1.6132,-5.72568 2.90625,-8.37695 3.7468,2.42936 6.99356,5.5669 10.6582,8.12695 1.10993,0.57518 2.49597,2.71673 3.69922,1.35742 1.19709,-4.54926 1.56621,-9.31642 2.48633,-13.9414 0.28712,-0.83129 0.19551,-2.40992 0.83984,-2.80079 4.15011,1.72867 7.86398,4.46491 12.13477,5.87696 1.79877,-0.006 1.14853,-2.17894 1.01953,-3.29297 -0.58583,-3.95498 -1.37563,-7.99767 -1.1211,-11.9707 5.12121,1.69829 10.03463,4.08139 15.30274,5.30078 1.6147,-0.27447 2.3836,-2.11703 3.58789,-3.125 1.96993,-2.35916 4.26677,-4.55896 5.76953,-7.24414 -0.12904,-2.13676 -2.14429,-3.56569 -3.44727,-5.08008 -0.95688,-0.7221 -1.91468,-2.42892 -3.3125,-1.85742 -1.10272,1.13045 -0.16481,2.92276 -0.14648,4.30468 0.48314,1.62662 -0.75814,-0.2605 -1.24609,-0.66015 -2.26944,-2.41837 -4.38012,-5.00852 -6.49024,-7.54688 -0.16207,-0.17855 -0.33541,-0.22821 -0.51953,-0.22461 z m 40.4375,34.1836 c -0.17624,-0.0123 -0.34753,0.0121 -0.50976,0.14258 -1.41895,1.19146 -3.39154,2.01353 -4.23829,3.74218 -0.0927,1.71363 2.082,2.14539 3.18555,3.00196 1.39254,0.84874 3.1124,1.60651 4.28125,2.58398 -2.7841,2.87168 -5.9493,5.39962 -8.85742,8.1582 -1.00388,2.26038 -0.85403,4.88301 -0.75781,7.3086 0.9242,1.6627 3.03026,2.33906 4.4414,3.59375 1.69861,1.23847 3.43749,2.38029 4.94727,3.81054 -2.926,3.021 -6.89539,4.92304 -9.63281,8.13868 -1.39,2.76183 -1.01232,6.02664 -1.46875,9.01172 -0.48633,2.06064 2.08489,2.70938 3.20117,3.95117 2.24617,1.80662 4.59211,3.56535 6.65625,5.52148 -4.33872,2.99034 -9.37759,4.80233 -13.70508,7.78711 -1.95964,1.61547 -0.90003,4.35957 0.0137,6.25 1.52593,3.36465 3.25492,6.63245 4.82031,9.97852 -4.22461,0.43567 -8.56031,0.59738 -12.80859,0.94531 -1.97847,0.86723 -1.73117,3.49858 -2.23828,5.26172 -0.42964,2.48711 -0.85105,4.97477 -1.27539,7.46287 -3.86475,-0.062 -7.43225,-1.7147 -11.24219,-2.2187 -1.63508,-0.1486 -3.48165,0.772 -4.26562,2.1972 0.0223,1.62 2.07305,2.0767 3.13671,2.9356 4.68911,2.5597 9.84069,4.3045 15.07422,5.3437 1.39931,0.3893 3.0474,-0.4051 3.09961,-1.9843 0.98983,-3.8136 1.42312,-7.7724 2.71875,-11.46098 1.07829,-0.8371 2.70354,-0.41372 3.96875,-0.76172 3.13996,-0.39113 6.34112,-0.48735 9.45703,-0.87891 1.36963,-1.09399 2.11129,-2.93527 3.0625,-4.43945 0.49922,-1.8264 -1.0437,-3.48626 -1.61914,-5.12891 -1.50267,-3.08188 -3.07921,-6.08706 -4.44531,-9.23437 3.92368,-2.54353 8.50883,-4.2585 12.13672,-7.31836 1.70521,-1.86127 1.79317,-4.57413 2.34375,-6.92188 -0.38613,-1.69306 -2.43152,-2.37738 -3.52148,-3.63671 -2.86864,-2.49043 -5.84978,-4.86521 -8.54493,-7.54688 3.54901,-3.47516 7.98282,-5.9938 11.23047,-9.77344 1.26658,-1.8995 1.79264,-4.65904 0.65821,-6.73242 -2.49056,-3.10267 -6.23525,-4.94487 -8.95313,-7.80078 3.14674,-3.5944 7.5206,-6.12267 10.22266,-10.14648 0.98308,-1.62437 1.76411,-4.16517 -0.13672,-5.4668 -3.06029,-2.24917 -6.6029,-3.73383 -9.89453,-5.60352 -0.18362,-0.0117 -0.36478,-0.06 -0.54102,-0.0723 z"
         transform="scale(0.26458333)" /><path
         style="fill:#000000;stroke-width:0.492655"
         d="m 109.29506,276.64762 c -0.68896,-0.16539 -0.69014,-0.24869 -0.0102,-0.71907 l 0.54382,-0.37618 -1.55402,-0.0896 c -2.63942,-0.15214 -4.76339,-0.7666 -6.73463,-1.94829 -1.74556,-1.04641 -2.07256,-1.54671 -1.01093,-1.54671 0.839,0 0.69491,-0.18164 -0.56283,-0.70947 -2.40858,-1.01081 -4.24502,-2.27215 -5.26836,-3.61852 -0.35805,-0.47106 -0.78002,-0.84924 -1.15849,-1.03826 -1.47392,-0.73611 -3.89006,-3.06984 -3.8039,-3.67415 0.0361,-0.253 0.10636,-0.27516 0.74128,-0.23367 l 0.70144,0.0458 -1.33692,-1.28321 c -1.66398,-1.59713 -3.19428,-3.61513 -4.060601,-5.35469 -0.649541,-1.30427 -0.745352,-1.85201 -0.293642,-1.67867 0.863533,0.33137 0.864383,0.33904 -0.196091,-1.76823 -1.231968,-2.44805 -1.852604,-4.2416 -1.937346,-5.59865 -0.0703,-1.12582 0.0267,-1.27858 0.622883,-0.98116 0.479152,0.23904 0.482462,0.1902 0.07382,-1.08925 -0.470752,-1.4739 -0.727218,-2.87548 -0.727218,-3.97421 0,-1.19637 0.184888,-1.36032 0.829473,-0.73557 0.69488,0.67351 0.813846,0.54713 0.514997,-0.54708 -0.37425,-1.37028 -0.231139,-4.38944 0.277379,-5.85168 0.514219,-1.47863 0.938556,-1.72979 1.331926,-0.78832 0.10442,0.24992 0.21761,0.42663 0.25154,0.3927 0.0339,-0.0339 0.3266,-0.90545 0.65039,-1.93672 0.32377,-1.03127 0.61686,-1.96302 0.65129,-2.07056 0.0429,-0.13383 -0.185,-0.33062 -0.7222,-0.62372 -1.02501,-0.55924 -1.23646,-0.95286 -1.13864,-2.1196 0.0637,-0.7604 0.0343,-0.92906 -0.239896,-1.37536 -0.595023,-0.96841 -0.379768,-2.12161 0.531686,-2.84838 l 0.3532,-0.28163 -0.11595,-1.31281 c -0.0638,-0.72204 -0.067,-1.51067 -0.007,-1.75252 0.26232,-1.06124 0.25795,-1.09186 -0.28262,-1.97504 -1.642104,-2.68288 -1.719135,-3.04009 -1.847334,-8.56666 -0.05737,-2.47336 -0.172138,-4.93694 -0.255032,-5.47463 -0.08289,-0.53769 -0.160611,-2.0041 -0.17271,-3.2587 -0.02567,-2.66222 0.110482,-3.24718 0.987753,-4.24381 0.635653,-0.72214 1.154133,-0.97013 2.028293,-0.97013 1.53122,0 2.33549,1.27952 3.15445,5.01841 l 0.34261,1.56418 0.38136,-0.0382 c 0.20975,-0.021 0.94956,-0.0513 1.64402,-0.0673 1.08063,-0.0249 1.30613,-0.069 1.56418,-0.30558 0.88043,-0.80721 2.45548,-1.15867 3.53862,-0.78961 l 0.59207,0.20174 0.0738,-0.67367 c 0.0406,-0.37052 0.16282,-1.58285 0.27165,-2.69407 0.44237,-4.51657 1.3185,-7.33524 2.73211,-8.78974 1.4547,-1.49678 3.37851,-1.51513 4.09307,-0.039 0.78495,1.62149 0.81977,3.05283 0.19893,8.17704 -0.30685,2.53255 -0.49013,4.69334 -0.5369,6.32945 -0.0806,2.8195 -0.10781,2.70826 0.99951,4.08279 2.44647,3.03681 2.06442,4.83614 -2.11842,9.97713 l -0.8402,1.03266 0.26016,0.58815 c 0.21664,0.48973 0.24659,0.75319 0.17901,1.57431 l -0.0812,0.98615 0.53279,0.30417 c 0.74516,0.4254 1.0924,1.22224 0.96921,2.22415 -0.11482,0.93384 -0.11491,1.30365 -4.9e-4,2.43491 l 0.0932,0.92243 -0.4946,0.40769 -0.4946,0.40769 0.24716,0.55993 c 0.32511,0.73655 1.00995,1.89752 1.40182,2.37642 l 0.31312,0.38265 0.0901,-0.48041 c 0.0496,-0.26444 0.16719,-0.48042 0.26155,-0.48042 0.68003,0 2.69112,2.06476 3.90872,4.01302 0.38795,0.62075 0.59956,0.61636 0.60258,-0.0125 0.011,-2.30162 1.88888,1.36248 2.41513,4.71249 0.10875,0.69225 0.22223,1.3288 0.25217,1.41455 0.0342,0.0981 0.38316,-0.0662 0.94108,-0.44325 0.48765,-0.32954 1.35645,-0.81796 1.93067,-1.08537 4.2015,-1.95662 7.74294,-1.87898 11.74132,0.25741 l 1.18522,0.63328 0.41802,-0.32714 c 0.22991,-0.17993 1.00237,-0.63311 1.71657,-1.00705 1.25175,-0.65539 1.44723,-0.85593 0.83435,-0.85593 -0.52551,0 -0.64876,-0.33494 -0.26461,-0.7191 0.82509,-0.82509 3.14548,-1.5639 5.41913,-1.72545 l 1.36865,-0.0973 -0.4888,-0.28888 c -0.91111,-0.53847 -0.45622,-0.81907 1.32784,-0.81907 1.95169,0 4.90671,0.94354 6.31205,2.01545 0.66094,0.50413 0.75049,0.41284 0.4107,-0.41869 -0.29825,-0.72991 -0.2996,-0.7506 -0.0515,-0.79176 0.61213,-0.10155 2.44875,1.38347 3.59889,2.90992 0.51608,0.68493 1.1736,1.90993 1.57422,2.93284 l 0.12762,0.32587 0.14128,-0.35846 c 0.2649,-0.67208 0.7404,-0.28706 1.38778,1.12373 0.8256,1.79917 1.04106,2.97614 1.04106,5.68697 0,2.69522 -0.14561,3.63895 -0.92511,5.99602 -1.60904,4.86545 -4.39015,8.30649 -9.03595,11.18012 l -0.31528,0.19502 0.35594,0.18649 c 0.19576,0.10257 0.33312,0.25603 0.30523,0.34104 -0.13939,0.42487 -2.13717,1.35588 -3.84892,1.79367 -3.00048,0.76739 -6.10008,0.55484 -8.57342,-0.58791 l -0.97288,-0.4495 -0.17234,0.28571 c -0.0948,0.15714 -0.53633,0.93093 -0.98121,1.71954 -1.95307,3.46208 -5.23856,7.13846 -5.84105,6.53597 -0.0639,-0.0639 0.0953,-0.55546 0.46807,-1.44526 0.0287,-0.0685 -0.29393,0.15653 -0.71691,0.49995 -2.5863,2.09981 -6.03217,3.83828 -6.62793,3.34384 -0.18028,-0.14962 -0.18382,-0.20206 -0.0258,-0.38279 0.32936,-0.37672 0.65329,-1.10344 0.45581,-1.02258 -1.46821,0.60115 -2.79228,1.06319 -3.66343,1.27835 -1.24457,0.30739 -3.91371,0.4415 -4.7572,0.23902 z m 4.87974,-1.56073 c 2.45131,-0.64397 4.97528,-2.06084 7.87824,-4.42258 l 0.56077,-0.45622 -0.43665,0.78209 c -0.24016,0.43015 -0.78315,1.30259 -1.20665,1.93875 -0.4235,0.63617 -0.74329,1.18338 -0.71064,1.21602 0.0327,0.0327 0.48975,-0.22166 1.0158,-0.56513 1.22513,-0.79992 3.77328,-3.33378 4.68348,-4.65722 0.82528,-1.19996 0.90743,-1.10008 0.52807,0.642 -0.13952,0.64068 -0.22705,1.19242 -0.19451,1.22608 0.0759,0.0785 0.59557,-0.57395 1.38922,-1.74395 0.74096,-1.09232 2.00552,-3.57149 2.43566,-4.7751 l 0.30479,-0.85287 0.8547,0.56137 c 1.02225,0.67142 2.52748,1.27237 3.89563,1.55531 1.88706,0.39025 5.91927,0.0282 6.57702,-0.59053 0.0526,-0.0495 -0.2918,-0.25887 -0.76544,-0.4652 l -0.86115,-0.37516 1.27517,-0.35651 c 2.40621,-0.67272 4.26317,-1.83529 6.22593,-3.8978 4.18779,-4.40066 6.26721,-11.20938 4.90794,-16.07026 -0.20178,-0.72157 -0.32311,-0.60764 -0.62471,0.58657 -0.14938,0.59145 -0.38692,1.39798 -0.52787,1.79228 l -0.25629,0.71692 -0.0121,-0.65174 c -0.0388,-2.0931 -0.67265,-5.03394 -1.43779,-6.67035 -0.53288,-1.13969 -1.28565,-2.32281 -1.40316,-2.2053 -0.0394,0.0393 9.8e-4,0.49805 0.0895,1.01936 0.0886,0.52131 0.14107,1.14587 0.11668,1.38792 l -0.0443,0.44008 -0.62928,-0.92342 c -1.17267,-1.7208 -2.96441,-3.11771 -4.95971,-3.86678 -0.49304,-0.1851 -0.91875,-0.31423 -0.94603,-0.28696 -0.0272,0.0273 0.40649,0.51349 0.9639,1.0805 0.55742,0.567 1.14579,1.21784 1.30749,1.4463 l 0.29401,0.41538 -0.88285,-0.50763 c -1.96667,-1.13081 -4.55513,-1.67361 -6.83551,-1.43341 -0.66907,0.0705 -1.28982,0.12916 -1.37944,0.13041 -0.47752,0.007 -0.039,0.22809 0.84727,0.4279 0.55561,0.12525 1.45012,0.36501 1.98781,0.53279 l 0.97761,0.30505 -0.78209,0.086 c -3.4505,0.37944 -5.38163,0.9937 -7.36468,2.34255 -1.33807,0.91015 -3.00236,2.76583 -3.96603,4.42214 -0.43082,0.74049 -0.41836,0.74503 0.44663,0.16293 0.37287,-0.25092 0.72952,-0.45622 0.79256,-0.45622 0.063,0 -0.18289,0.45459 -0.54649,1.0102 -0.83857,1.28136 -1.83941,3.35258 -1.78597,3.69606 0.0358,0.23004 0.20255,0.14791 1.33494,-0.65751 1.70996,-1.21621 1.80947,-1.21952 1.00489,-0.0334 -0.68415,1.00859 -1.21401,2.08673 -1.69309,3.44507 -0.43376,1.22979 -0.87723,3.19571 -0.74967,3.32327 0.0961,0.0961 -0.002,0.21426 1.05439,-1.26828 1.05521,-1.48082 1.17185,-1.61179 1.04463,-1.17313 -0.23193,0.79975 -1.57814,4.32826 -1.98923,5.21393 -0.44678,0.96256 -0.4555,0.97159 -0.56606,0.58656 -0.48706,-1.69618 -0.39755,-4.46208 0.21621,-6.68059 0.40298,-1.45662 0.40848,-1.42882 -0.18885,-0.95573 -0.27916,0.2211 -0.54312,0.40199 -0.58657,0.40199 -0.22702,0 0.22336,-2.45092 0.71066,-3.86728 0.28457,-0.82712 0.26758,-0.91192 -0.13909,-0.69428 -0.26173,0.14007 -0.27683,0.12803 -0.19097,-0.15237 0.15237,-0.49767 0.71669,-1.81549 1.11956,-2.61444 0.46547,-0.92308 0.46805,-1.08774 0.0207,-1.32212 l -0.35535,-0.18619 0.58069,-0.11484 c 0.48496,-0.0959 0.66162,-0.22169 1.07161,-0.763 0.27,-0.35649 0.49121,-0.71749 0.49157,-0.80222 0.002,-0.374 -1.514,-1.1051 -3.4599,-1.669 -1.4992,-0.43445 -2.05413,-0.434 -2.25271,0.002 -0.18365,0.40305 -0.10938,0.43866 2.06352,0.98969 0.82445,0.20908 1.55545,0.39787 1.62446,0.41954 0.069,0.0217 -0.65349,0.46636 -1.60552,0.98818 -0.95204,0.52182 -1.70338,0.97636 -1.66965,1.01009 0.0337,0.0337 0.49225,0.16968 1.01895,0.30212 0.52669,0.13244 1.12667,0.3058 1.33329,0.38524 0.36729,0.14122 0.37035,0.1503 0.13759,0.40749 -0.13093,0.14468 -0.9012,0.74046 -1.71172,1.32394 -0.81052,0.58349 -1.47367,1.10885 -1.47367,1.16747 0,0.0586 0.21996,0.1077 0.4888,0.10909 0.63155,0.003 1.7616,0.29645 1.82021,0.47228 0.0589,0.1768 -1.50083,1.86159 -2.10343,2.27202 -0.25547,0.174 -0.46405,0.34569 -0.46351,0.38154 4.9e-4,0.0359 0.29127,0.22526 0.64607,0.42093 0.3548,0.19566 0.73904,0.49913 0.85387,0.67439 0.28834,0.44006 0.0608,0.85131 -1.20304,2.17414 l -0.986,1.03203 h 1.24791 c 0.68635,0 1.28386,0.0582 1.32779,0.12925 0.13107,0.21208 -0.68485,1.28282 -2.0867,2.73842 l -1.31813,1.36865 -0.23515,1.04279 c -0.33922,1.50425 -1.01093,3.4561 -1.69951,4.9384 -0.32924,0.70875 -0.5704,1.31687 -0.53591,1.35136 0.0345,0.0345 0.35668,-0.23909 0.71597,-0.60795 0.81579,-0.83755 1.37897,-2.0013 1.70357,-3.52025 0.30672,-1.43528 0.43012,-1.64546 1.69004,-2.87848 0.54941,-0.53769 1.15938,-1.17561 1.35549,-1.41761 0.1961,-0.242 0.39813,-0.39843 0.44895,-0.34762 0.0508,0.0508 0.0899,0.77672 0.0868,1.61314 -0.006,1.72599 -0.19305,2.42394 -0.92088,3.44369 -0.24316,0.3407 -0.44212,0.64865 -0.44212,0.68432 0,0.16544 0.52891,0.0303 1.2894,-0.32949 0.45825,-0.21679 0.86042,-0.36692 0.8937,-0.33364 0.0333,0.0333 -0.19501,0.42506 -0.50731,0.8706 -0.69558,0.99234 -1.83562,1.94154 -3.03377,2.52592 l -0.90177,0.43981 0.49388,0.0926 c 0.45477,0.0853 2.1165,-0.15955 2.71089,-0.39948 0.82395,-0.33257 -0.97704,1.31959 -2.27673,2.0886 -1.27615,0.75508 -1.74927,0.85746 -3.87394,0.83836 l -1.90755,-0.0171 -0.64713,0.39584 c -0.35592,0.21771 -0.88176,0.43579 -1.16853,0.48461 l -0.52139,0.0888 0.84726,-0.64844 c 2.93608,-2.24708 4.87267,-5.83824 5.74826,-10.65946 0.21618,-1.19038 0.2802,-2.3634 0.37705,-6.90846 0.0987,-4.63359 0.15843,-5.70491 0.38858,-6.97363 0.27556,-1.51905 0.77042,-3.44033 1.117,-4.33672 0.1045,-0.27029 0.19001,-0.55442 0.19001,-0.63139 0,-0.1559 -1.21558,-0.0355 -1.58152,0.15666 -0.32611,0.17123 -0.88058,2.45658 -1.29385,5.33284 -0.0773,0.53769 -0.22059,3.47052 -0.31851,6.51741 -0.16299,5.07109 -0.2069,5.67767 -0.51897,7.16916 -0.98444,4.70489 -2.8764,7.91902 -6.04466,10.2689 l -0.95899,0.71129 -0.89616,-0.0883 c -1.11869,-0.11023 -2.49257,-0.48608 -3.58129,-0.97974 -1.01783,-0.4615 -2.84513,-1.70398 -2.70214,-1.83733 0.057,-0.0531 0.42616,-0.22938 0.82046,-0.3917 2.35331,-0.96882 4.72626,-2.99467 5.86039,-5.00317 1.13631,-2.01237 1.86903,-4.30276 2.27512,-7.11178 0.34564,-2.39085 0.73665,-10.55821 0.50547,-10.55821 -0.12633,0 -1.36827,2.51384 -2.0607,4.17114 -0.37641,0.90092 -1.4723,3.12836 -1.53914,3.12836 -0.0219,0 0.50603,-1.62772 1.17317,-3.61716 l 1.21301,-3.61717 0.002,-1.52497 c 9.8e-4,-1.48426 -0.39246,-4.19013 -0.6478,-4.45239 -0.0598,-0.0614 -0.1769,0.23184 -0.26018,0.65173 -0.0833,0.4199 -0.22718,1.0274 -0.31977,1.35001 l -0.16835,0.58657 -0.10102,-0.69049 c -0.12701,-0.8682 -0.34231,-0.86029 -0.97706,0.0359 -2.38738,3.3707 -7.64099,6.74345 -13.36187,8.57818 -2.64756,0.84908 -3.77534,1.03863 -6.68534,1.12358 l -2.64455,0.0772 0.4517,0.7495 c 0.24844,0.41223 0.42281,0.74951 0.38748,0.74951 -0.12544,0 -0.64618,-0.30669 -1.58121,-0.93126 -1.350399,-0.90202 -1.388333,-0.87658 -0.93078,0.62424 0.55854,1.83209 2.3636,4.87631 4.02597,6.78979 0.4677,0.53835 0.93175,1.09037 1.03123,1.2267 0.20134,0.27595 0.24719,0.29159 -1.72868,-0.5898 -0.42115,-0.18785 -0.78775,-0.34156 -0.81467,-0.34156 -0.32807,0 0.94453,1.75157 2.33976,3.22038 1.29663,1.36501 2.88454,2.52623 4.71526,3.44823 l 1.56418,0.78775 -2.11816,-0.0788 c -1.36272,-0.0507 -2.11816,-0.0329 -2.11816,0.0501 0,0.2049 0.91088,0.75312 2.03113,1.22245 1.34336,0.5628 3.12656,1.05351 5.07285,1.39601 0.8603,0.15139 1.5786,0.2892 1.59622,0.30626 0.0176,0.017 -0.8329,0.10291 -1.89005,0.19079 -2.08123,0.17302 -2.639,0.25675 -2.639,0.39618 0,0.16967 2.41118,1.68278 3.3942,2.13 1.85664,0.84468 5.53088,1.91122 6.61003,1.91874 1.06574,0.007 -1.0056,0.67214 -2.67214,0.85753 -0.44807,0.0498 -0.81468,0.13448 -0.81468,0.18808 0,0.0536 0.28397,0.21962 0.63105,0.36893 3.07851,1.32434 7.78977,1.31367 11.10436,-0.0252 1.02208,-0.41284 0.85739,-0.21737 -0.9461,1.12291 -0.77233,0.57397 -1.40423,1.0908 -1.40423,1.14852 0,0.13679 0.74494,0.0282 1.91432,-0.27898 z M 97.71902,261.5235 c -0.93763,-0.37003 -2.17778,-1.35244 -2.8588,-2.26467 -2.33302,-3.12506 -1.77013,-7.35175 1.1719,-8.79959 1.05242,-0.51793 2.83301,-0.47288 3.99905,0.10115 1.02019,0.50224 2.16108,1.65513 2.53317,2.55981 0.13524,0.32882 0.28621,0.59808 0.33548,0.59834 0.0493,2.8e-4 0.27684,-0.37986 0.5057,-0.84473 0.59687,-1.21241 1.41448,-1.93252 2.6046,-2.29401 1.10161,-0.33461 1.34228,-0.26069 1.40173,0.43048 0.10319,1.19968 -0.57055,2.94172 -1.51362,3.91366 -0.66428,0.68461 -0.65349,0.72608 0.27794,1.06904 0.34574,0.12731 0.78156,0.36302 0.96849,0.52381 l 0.33987,0.29234 -0.4471,0.41047 c -1.10905,1.01817 -2.41092,1.37739 -4.11645,1.13582 -0.59,-0.0836 -0.73214,-0.0551 -1.17313,0.23483 -2.1453,1.41046 -5.13842,-0.34759 -5.16372,-3.03299 -0.0123,-1.30107 0.69113,-2.22762 1.69196,-2.22879 0.61017,-4.9e-4 1.27002,0.6242 1.46133,1.38392 0.19329,0.76764 0.13159,0.82007 -0.26186,0.22251 -0.70106,-1.06471 -1.40162,-1.16349 -1.94389,-0.27409 -1.04705,1.71732 1.30733,4.34676 3.15028,3.51834 2.57466,-1.15732 1.95149,-5.6527 -0.97131,-7.00685 -2.55742,-1.18487 -5.04047,0.274 -5.5935,3.28635 -0.37974,2.06841 1.04233,4.8017 3.4123,6.55864 0.50277,0.37271 0.91412,0.70144 0.91412,0.7305 0,0.0662 0.0533,0.0827 -0.72454,-0.22429 z m 7.92628,-4.12624 c 1.00507,-0.44561 0.71129,-0.81596 -0.807,-1.01737 -0.68317,-0.0906 -1.02308,0.0308 -1.60444,0.57299 -0.38692,0.36088 -0.45421,0.6116 -0.19552,0.72851 0.35918,0.16231 2.00446,-0.017 2.60696,-0.28413 z m -1.01234,-2.34566 c 1.22153,-0.82616 1.98801,-2.0931 2.0616,-3.40772 0.0248,-0.4428 0.007,-0.46455 -0.3538,-0.42575 -1.27679,0.1374 -2.09306,1.10441 -2.66822,3.16096 -0.43711,1.56289 -0.39729,1.59077 0.96042,0.67251 z m 34.58349,3.28843 c -3.06322,-0.74277 -5.73462,-3.57888 -6.62404,-7.03244 -0.65723,-2.55197 -0.12309,-5.76016 1.23709,-7.43032 0.31141,-0.38239 0.31006,-0.37065 -0.0642,0.56034 -2.85437,7.10096 3.04475,15.23366 9.33302,12.86677 3.56292,-1.34109 4.92188,-5.18719 3.11116,-8.80515 -1.56428,-3.12556 -5.78564,-3.92633 -8.10088,-1.53669 -2.06109,2.12732 -1.62062,5.35937 0.9022,6.62004 2.12499,1.06187 4.46558,-0.17812 4.44995,-2.3575 -0.009,-1.19423 -0.65698,-2.0175 -1.69909,-2.15727 -1.26037,-0.16906 -2.45588,1.22624 -1.57769,1.84135 0.34358,0.24065 0.89965,0.2649 1.11589,0.0487 0.25807,-0.25808 0.3384,-0.006 0.10943,0.34363 -0.43613,0.66561 -1.49574,0.57017 -2.00146,-0.18028 -0.8151,-1.20952 0.13187,-2.6614 1.85165,-2.8389 2.87841,-0.29707 4.15467,3.29725 1.95266,5.49925 -2.60341,2.60342 -7.235,0.15986 -7.22677,-3.81274 0.005,-2.43316 1.37589,-4.30184 3.6661,-4.99747 1.13965,-0.34616 1.21918,-0.41633 1.66024,-1.46498 0.78237,-1.86015 1.79938,-2.71538 3.26201,-2.74312 l 0.73001,-0.0138 -0.0458,0.58657 c -0.0252,0.32261 -0.12862,0.78621 -0.22983,1.03021 -0.1012,0.24401 -0.16857,0.45414 -0.1497,0.46698 0.0189,0.0128 0.39335,0.15479 0.83219,0.31547 1.43242,0.52447 3.30859,1.9598 3.13909,2.4015 -0.10035,0.26152 -1.28692,0.6394 -2.29104,0.72961 l -0.83067,0.0746 0.52485,0.63418 c 1.12877,1.36391 1.5937,2.68153 1.59117,4.50938 -0.007,4.66461 -4.12799,7.93318 -8.62756,6.84212 z m 8.15112,-13.12207 c 0.23166,-0.11894 0.23166,-0.13082 0,-0.39135 -0.43822,-0.49282 -1.73424,-1.0139 -2.52003,-1.01322 -1.29087,9.9e-4 -2.28018,0.42427 -2.0128,0.8609 0.38229,0.62429 3.61949,1.01257 4.53283,0.54367 z m -3.68089,-2.40959 c 0.46394,-0.41915 0.87802,-1.14698 0.7343,-1.29069 -0.0793,-0.0793 -0.76281,0.24869 -1.28843,0.61812 -0.42705,0.30015 -1.15267,1.3737 -1.15267,1.70537 0,0.21408 0.0767,0.19188 0.61406,-0.17787 0.33774,-0.23237 0.82947,-0.61708 1.09274,-0.85493 z m -32.85106,23.54217 c 0.43485,-2.2847 0.35107,-2.12438 1.16804,-2.23512 0.39217,-0.0532 1.23117,-0.13215 1.86445,-0.17554 l 1.15142,-0.0789 0.37352,-0.58899 0.37352,-0.58898 -0.90578,-1.80812 c -0.49818,-0.99446 -0.90578,-1.8338 -0.90578,-1.86519 0,-0.0314 0.72142,-0.4398 1.60315,-0.90755 0.88174,-0.46776 1.70244,-0.96018 1.82379,-1.09427 0.17544,-0.19386 0.48351,-1.28666 0.48351,-1.71516 0,-0.0469 -0.73321,-0.69173 -1.62936,-1.433 -0.89614,-0.74125 -1.62935,-1.41446 -1.62935,-1.496 0,-0.0815 0.70677,-0.6936 1.5706,-1.36012 1.64162,-1.26665 1.8224,-1.50696 1.81242,-2.40923 -0.006,-0.53705 -0.0262,-0.5605 -1.30349,-1.51406 -0.71359,-0.53272 -1.29744,-1.04198 -1.29744,-1.1317 0,-0.0897 0.51324,-0.60025 1.14055,-1.1345 1.44239,-1.22844 1.65751,-1.47117 1.85796,-2.09647 0.19632,-0.6124 0.15184,-0.65622 -1.61013,-1.58628 l -1.1534,-0.60883 -0.54113,0.38032 c -0.29761,0.20917 -0.54112,0.43618 -0.54112,0.50446 0,0.0683 0.46742,0.36793 1.03871,0.66589 0.57129,0.29795 1.05868,0.60165 1.08308,0.67488 0.0244,0.0732 -0.54167,0.6424 -1.25797,1.26484 l -1.30234,1.13171 -0.0908,0.84751 c -0.0533,0.4982 -0.0398,0.88182 0.0329,0.93073 0.068,0.0458 0.6954,0.48479 1.39424,0.97561 1.48349,1.04188 1.51333,0.85615 -0.35921,2.23597 -1.35518,0.99859 -1.34129,0.97486 -1.44961,2.47661 l -0.0752,1.04279 1.37297,1.07885 c 0.75512,0.59338 1.37296,1.12549 1.37296,1.18248 0,0.12213 -1.47269,0.96926 -2.89688,1.66636 -1.48338,0.72606 -1.49113,0.79165 -0.3601,3.0494 l 0.90689,1.81032 -0.42172,0.0639 c -0.23195,0.0351 -1.09313,0.098 -1.91374,0.13976 -0.8206,0.0417 -1.51608,0.0999 -1.5455,0.12936 -0.0294,0.0294 -0.17481,0.79744 -0.32308,1.7067 l -0.26959,1.6532 -0.7267,-0.0673 c -0.39968,-0.037 -1.10306,-0.19478 -1.56306,-0.35059 -0.86084,-0.2916 -1.19279,-0.2835 -1.63492,0.0399 -0.2433,0.17795 -0.22509,0.20597 0.38546,0.59317 1.17247,0.74355 4.23449,1.72322 4.53561,1.45112 0.0569,-0.0514 0.21969,-0.70392 0.36168,-1.44993 z m 2.22547,-0.24762 c 0.84364,-0.82095 1.29261,-1.34795 1.21406,-1.42506 -0.10177,-0.0999 -2.22851,0.0653 -2.37588,0.18458 -0.0448,0.0363 -0.42046,2.16162 -0.4207,2.38022 -3.7e-4,0.33113 0.27421,0.13338 1.58252,-1.13974 z m 7.52018,0.32464 0.95612,-0.52097 -1.15164,-0.15172 c -0.6334,-0.0834 -1.55008,-0.15678 -2.03707,-0.16294 -0.87917,-0.0111 -0.89001,-0.007 -1.53159,0.5932 -0.35539,0.33242 -0.64616,0.66079 -0.64616,0.7297 0,0.0762 0.67722,0.10735 1.72711,0.0795 l 1.72711,-0.0458 z m -11.51761,-1.96449 c 0.0509,-0.54302 0.0652,-1.01461 0.0318,-1.04799 -0.0764,-0.0764 -1.78825,1.37696 -1.78825,1.5183 0,0.12678 1.00011,0.49242 1.38593,0.5067 0.25243,0.009 0.28646,-0.0804 0.37048,-0.97701 z m 11.73463,-0.41525 c 0.94225,-0.47083 2.0204,-1.18322 2.0204,-1.33499 0,-0.11896 -1.40345,-0.009 -1.92285,0.15095 -0.37088,0.11405 -1.59655,1.44849 -1.59655,1.73821 0,0.12979 0.50064,-0.0553 1.499,-0.55417 z m -9.21148,-2.11884 c 1.41965,-0.003 1.4416,-0.10146 0.40383,-1.80686 l -0.26787,-0.44019 -0.48726,0.83124 c -0.268,0.45718 -0.60144,1.00439 -0.74099,1.21601 -0.23901,0.36245 -0.2399,0.37946 -0.0153,0.29328 0.13112,-0.0503 0.62955,-0.0924 1.1076,-0.0935 z m 10.66611,-0.95188 c 0.41715,-0.45643 0.72348,-0.948 0.86627,-1.39011 0.2311,-0.71558 0.2992,-1.82716 0.11193,-1.82716 -0.26691,0 -1.8179,1.80025 -2.02142,2.34627 -0.24901,0.66809 -0.47306,1.78495 -0.37728,1.88073 0.13781,0.13781 0.80545,-0.33676 1.4205,-1.00973 z m -5.12454,-2.1419 c 0.24949,-0.84675 0.15546,-0.87146 -1.08442,-0.2849 -1.27217,0.60183 -1.24167,0.51876 -0.63552,1.73085 0.85995,1.71962 0.76331,1.80086 1.71994,-1.44595 z m -2.0348,-3.06152 c -0.0461,-0.14481 -1.58478,-1.3912 -1.64414,-1.33184 -0.0933,0.0933 -0.63788,2.46876 -0.58625,2.55721 0.0656,0.11242 2.27063,-1.09902 2.23039,-1.22537 z m 6.33568,-0.19718 c 0.39303,-0.41223 0.84136,-0.91081 0.9963,-1.10796 l 0.2817,-0.35846 h -0.71193 c -0.99684,0 -1.21339,0.21957 -1.31765,1.33607 -0.0452,0.48392 -0.0554,0.87985 -0.0226,0.87985 0.0328,0 0.38114,-0.33728 0.77417,-0.7495 z m -3.5638,-3.16095 c 0,-0.93199 -0.0346,-1.69453 -0.0768,-1.69453 -0.18111,0 -2.11535,1.62748 -2.05339,1.72773 0.10793,0.17464 1.92381,1.65716 2.03246,1.65936 0.0538,9.8e-4 0.0978,-0.76057 0.0978,-1.69256 z m 4.95983,-1.70686 c 0.097,-0.1813 0.0712,-0.2673 -0.10917,-0.36384 -0.30803,-0.16486 -1.62867,-0.66647 -1.7549,-0.66655 -0.0538,-3e-5 -0.0978,0.6512 -0.0978,1.44719 v 1.44726 l 0.91738,-0.81332 c 0.50456,-0.44733 0.97456,-0.92016 1.04444,-1.05074 z m -7.49346,-1.69122 c 0.1895,-0.20939 0.15882,-0.26152 -0.4092,-0.69524 -0.91151,-0.69599 -0.96762,-0.65846 -0.96762,0.64719 v 1.11606 l 0.58598,-0.42082 c 0.32229,-0.23145 0.67816,-0.52268 0.79084,-0.64719 z m 6.78738,-1.06635 c 0.5512,-0.44807 1.08787,-0.94665 1.1926,-1.10796 l 0.19042,-0.29328 h -1.31938 -1.31938 v 1.10796 c 0,0.63099 0.0546,1.10796 0.12678,1.10796 0.0697,0 0.57777,-0.3666 1.12896,-0.81468 z M 92.064,247.4106 c 6.99383,-1.13535 15.28911,-5.91552 17.13073,-9.87162 0.17924,-0.38502 0.32646,-0.77218 0.32716,-0.86034 0.002,-0.2592 -0.40862,-1.20836 -0.52283,-1.20836 -0.0576,0 -0.38534,0.39593 -0.72828,0.87984 -1.7632,2.48803 -4.631,4.82132 -8.0528,6.55191 -4.4797,2.26563 -7.78463,3.09439 -11.79086,2.95672 l -2.26753,-0.0779 0.0849,0.5312 c 0.1271,0.7948 0.28327,0.99246 0.89185,1.12876 0.84731,0.18977 3.67951,0.17242 4.92761,-0.0302 z m 25.97849,-0.95848 c 0.10273,-0.62157 0.10788,-1.98781 0.007,-1.98781 -0.20744,0 -1.61818,1.23923 -1.61706,1.42047 0.001,0.21246 1.10183,1.05614 1.37765,1.05614 0.0831,0 0.18748,-0.21996 0.23192,-0.4888 z m 3.71465,-1.31311 c 0.26124,-0.20244 0.92957,-0.67902 1.48518,-1.05907 0.55561,-0.38004 1.0102,-0.73701 1.0102,-0.79327 0,-0.14993 -1.69201,-0.41018 -2.35622,-0.36241 -0.63623,0.0458 -0.6081,-0.0163 -0.83094,1.83333 -0.10563,0.87672 -0.0131,0.92771 0.69178,0.38142 z M 87.2021,244.17102 c 0.29501,-0.51976 0.84083,-1.57183 1.21294,-2.33793 l 0.67656,-1.3929 0.36407,0.26917 c 0.20024,0.14804 0.71719,0.71619 1.14879,1.26255 1.03843,1.31458 2.07018,2.32011 2.21718,2.16082 0.11628,-0.12599 0.31714,-0.72771 1.05323,-3.15524 0.29177,-0.96221 0.46296,-1.33607 0.61175,-1.33607 0.11364,0 0.5372,0.28358 0.94123,0.63017 0.96974,0.83186 2.6648,2.11046 2.72202,2.05325 0.0249,-0.0249 0.18751,-0.98169 0.36132,-2.12616 0.33738,-2.22143 0.40817,-2.51249 0.61114,-2.51249 0.0712,0 0.69994,0.32019 1.39717,0.71151 1.32881,0.74581 1.89908,1.00536 1.996,0.90844 0.0319,-0.0319 -0.0169,-0.45339 -0.10847,-0.93671 -0.27056,-1.4287 -0.37491,-3.15985 -0.19048,-3.15985 0.0863,0 1.03884,0.35053 2.1168,0.77897 1.43459,0.57016 2.02018,0.74671 2.18471,0.65866 0.28588,-0.153 2.14419,-2.3064 2.19885,-2.54801 0.0456,-0.20173 -1.36105,-1.719 -1.48177,-1.59828 -0.042,0.042 -0.007,0.42882 0.0777,0.85961 0.0848,0.43079 0.13247,0.84814 0.10604,0.92744 -0.0391,0.11734 -1.98124,-2.09279 -2.31366,-2.62471 -0.0602,-0.0964 -0.43041,0.36357 -0.95844,0.87705 -4.59842,4.47172 -11.206605,7.07361 -17.297915,7.08087 l -0.932923,0.0125 0.0608,0.54904 c 0.04882,0.44085 0.23043,1.382 0.40961,2.0908 0.17918,0.7088 0.32578,1.31721 0.32578,1.35203 0,0.11031 -0.8287,-0.35558 -1.322235,-0.74335 -0.761255,-0.59811 -0.763181,-0.58671 -0.217985,1.28876 l 0.27472,0.94502 h 0.6095 0.60951 z m 4.12678,0.83928 c 0.28087,-0.0499 0.53288,-0.15729 0.56,-0.23865 0.0271,-0.0814 -0.54211,-0.7557 -1.26495,-1.49852 -1.05446,-1.0836 -1.33877,-1.31194 -1.43824,-1.15508 -0.31207,0.49218 -1.06715,2.60794 -0.99647,2.79214 0.0858,0.22365 2.08536,0.2874 3.13966,0.10011 z m 5.02165,-1.31639 c 0.67697,-0.26859 1.24427,-0.5424 1.26065,-0.60848 0.0299,-0.12046 -2.3302,-1.93146 -2.70399,-2.07489 -0.15685,-0.0602 -0.28838,0.21451 -0.62028,1.29544 -0.23166,0.75451 -0.45454,1.57719 -0.49527,1.82819 l -0.0741,0.45637 0.70106,-0.20415 c 0.38557,-0.11227 1.25493,-0.42389 1.93189,-0.69248 z m 18.75261,-0.32989 0.61157,-0.57889 -0.71692,-0.31807 c -0.8365,-0.37112 -0.90754,-0.32123 -0.91044,0.63945 -0.003,1.03766 0.15047,1.0766 1.01579,0.25751 z m -14.63918,-1.55067 c 1.32695,-0.71392 2.15075,-1.23541 2.15075,-1.36151 0,-0.16914 -2.98256,-1.59261 -3.06329,-1.462 -0.14487,0.23441 -0.45612,2.11001 -0.45612,2.74862 0,0.78972 0.0363,0.79171 1.36866,0.0749 z m 22.62627,-0.62089 c 0.6487,-0.36569 1.14204,-0.70231 1.0963,-0.74804 -0.15141,-0.15141 -1.95269,-0.64538 -2.04372,-0.56046 -0.0491,0.0458 -0.20669,0.50859 -0.35016,1.02836 -0.32342,1.17177 -0.295,1.1779 1.29758,0.28014 z m -4.18706,-0.93189 c 0.15456,-0.51976 0.31087,-1.04767 0.34735,-1.17313 0.0412,-0.14182 -0.004,-0.22811 -0.12005,-0.22811 -0.19778,0 -1.73848,0.61205 -2.35862,0.93698 l -0.36942,0.19356 0.9501,0.60787 c 0.52256,0.33432 1.022,0.60786 1.10986,0.60786 0.0879,0 0.28622,-0.42526 0.44078,-0.94503 z m -13.90442,-1.52196 c 0.56824,-0.56824 1.00784,-1.11081 0.97689,-1.20572 -0.0455,-0.13953 -2.6463,-1.24147 -3.00248,-1.27211 -0.24522,-0.0211 0.21139,2.58993 0.5741,3.28288 0.19557,0.37362 0.36902,0.27742 1.45149,-0.80505 z m -14.05021,-0.66515 c 4.42981,-0.9247 9.00304,-3.252 11.90916,-6.06053 l 1.352,-1.30661 -0.66784,-1.38456 -0.66784,-1.38457 -1.75373,0.57432 c -2.82525,0.92524 -4.27366,1.13408 -7.95583,1.14716 -1.7206,0.006 -3.28426,-0.0327 -3.47482,-0.0861 -0.33801,-0.0949 -0.36129,-0.0621 -0.95416,1.34249 -0.68901,1.63234 -1.15473,3.33564 -1.34602,4.92286 -0.17896,1.48481 -0.27789,1.53057 -0.88753,0.41046 -0.1939,-0.35625 -0.42394,-0.64773 -0.5112,-0.64773 -0.19194,0 -0.303644,1.11941 -0.216533,2.16986 l 0.06104,0.73602 1.90491,-0.0805 c 1.11406,-0.047 2.44607,-0.19344 3.20839,-0.35257 z m 2.42147,-12.10858 c 0.73448,-0.73448 0.39971,-1.83769 -0.61952,-2.04153 -1.15631,-0.23126 -1.82417,1.18207 -0.96472,2.04153 0.26005,0.26004 0.51155,0.38102 0.79212,0.38102 0.28058,0 0.53207,-0.12098 0.79212,-0.38102 z m 5.91222,-0.86246 c 0.50875,-0.77645 0.0439,-1.75815 -0.8288,-1.75039 -0.8485,0.008 -1.31712,0.69352 -1.04241,1.52588 0.2761,0.83662 1.38311,0.96944 1.87121,0.22451 z m -11.33909,-0.21936 c 0.26824,-0.38297 0.26107,-1.25486 -0.0128,-1.5575 -0.48876,-0.54006 -1.47881,-0.001 -1.47881,0.80442 0,0.83712 1.05845,1.37151 1.49162,0.75308 z m 15.74917,-1.11154 c 0.52078,-0.57789 0.37342,-1.32327 -0.35612,-1.80129 -0.93623,-0.61344 -1.46358,0.87668 -0.63448,1.79282 0.27128,0.29976 0.7246,0.30364 0.9906,0.008 z m -7.7656,-12.35927 c 2.48904,-0.38616 2.86287,-0.5311 2.97998,-1.15534 0.13018,-0.6939 -0.0481,-1.59595 -0.39509,-1.99928 l -0.3063,-0.35601 h -3.38666 c -3.14745,0 -3.40603,0.0175 -3.66097,0.24831 -0.56842,0.51455 -0.21106,2.51676 0.60082,3.36629 0.4255,0.44523 0.66718,0.4392 4.16822,-0.10397 z m -2.95767,-8.47273 c 0.8121,-0.54787 0.7888,-0.65851 -0.15834,-0.75177 -0.90106,-0.0887 -1.62979,0.0345 -2.1258,0.35953 -0.41001,0.26865 -0.40529,0.35305 0.0355,0.63587 0.5389,0.34574 1.53498,0.23782 2.24861,-0.24363 z m 4.83762,-0.60171 c 0.62778,-0.35283 0.62963,-0.43022 0.0177,-0.7378 -1.27058,-0.63867 -2.09523,-0.62708 -2.86558,0.0403 -0.41829,0.36237 -0.34744,0.49149 0.4247,0.77414 0.79749,0.29193 1.82521,0.25943 2.42313,-0.0766 z M 87.2805,200.71208 c 0.72697,-0.11721 1.3744,-0.26013 1.43873,-0.3176 0.14411,-0.12875 -0.24012,-2.13095 -0.58667,-3.05722 -0.13743,-0.36731 -0.39638,-0.80547 -0.57544,-0.97369 l -0.32558,-0.30586 -0.61184,0.25357 c -0.944354,0.39138 -1.124296,0.80744 -1.188938,2.74899 -0.05795,1.74063 -0.0039,2.06907 0.319246,1.94502 0.114802,-0.044 0.803522,-0.176 1.530492,-0.29321 z m 16.37864,-1.77191 c 0.1683,-0.39051 1.0063,-5.46952 1.18181,-7.16279 0.2572,-2.48141 -0.1175,-3.49318 -1.29365,-3.49318 -1.23117,0 -2.31691,1.53507 -2.94569,4.16474 -0.25726,1.07591 -0.84669,5.36567 -0.85342,6.21102 -5e-4,0.0871 0.44638,0.17638 1.1394,0.22742 0.62731,0.0462 1.31652,0.13793 1.5316,0.20384 0.70637,0.21646 1.10234,0.16822 1.23995,-0.15105 z"
         id="path209"
         sodipodi:nodetypes="cscsssssssscsssssssssssssscsccscccssssssscsssscsssssssscsccssccccsscssscscssscssssccssssssscssssscsssscssssssssscccscssssssssscsssscssssscssccscsscsscsscsscssssssssssssssssssssssscsscscssssssssscsscssscscscsssssssscsssssscsssccsscssssssscssscssssssssssccssscsssscsssssssssscssssssssccsssssccsssssssssssscsssccsssssssssssssssscsscsscsssscssscssssssccsscssscscccsscssssssssssscccsssssssscssssscssssscccssscsssscccsscsssssssssssscccssssccssscsssscsssscssssssssssssssssssssscssssscsscccsssscsssssscsssscccssssscssssccssscscsccssscsscscssssssssssscssssscscsccsssssccccssssssscssccsssscscsssssssssssssssscsssssssssscccsccsssssccsssssssscssssssscssccssscscsssssssssssssssssscsscssssscsss" /></g></g></svg>
