<?xml version="1.0" encoding="UTF-8" standalone="no"?>
<!-- Created with Inkscape (http://www.inkscape.org/) -->

<svg
   width="70.975159mm"
   height="78.096634mm"
   viewBox="0 0 70.975159 78.096634"
   version="1.1"
   id="svg1"
   xml:space="preserve"
   sodipodi:docname="arm-design.svg"
   inkscape:version="1.4 (86a8ad7, 2024-10-11)"
   xmlns:inkscape="http://www.inkscape.org/namespaces/inkscape"
   xmlns:sodipodi="http://sodipodi.sourceforge.net/DTD/sodipodi-0.dtd"
   xmlns="http://www.w3.org/2000/svg"
   xmlns:svg="http://www.w3.org/2000/svg"><sodipodi:namedview
     id="namedview1"
     pagecolor="#505050"
     bordercolor="#eeeeee"
     borderopacity="1"
     inkscape:showpageshadow="0"
     inkscape:pageopacity="0"
     inkscape:pagecheckerboard="0"
     inkscape:deskcolor="#505050"
     inkscape:document-units="mm"
     showguides="true"
     inkscape:zoom="2.0334082"
     inkscape:cx="311.54591"
     inkscape:cy="696.61371"
     inkscape:window-width="1920"
     inkscape:window-height="1009"
     inkscape:window-x="-8"
     inkscape:window-y="-8"
     inkscape:window-maximized="1"
     inkscape:current-layer="layer1"><inkscape:page
       x="0"
       y="-9.0261593e-13"
       width="70.975159"
       height="78.096626"
       id="page2"
       margin="0"
       bleed="0" /></sodipodi:namedview><defs
     id="defs1" /><g
     inkscape:label="Calque 1"
     inkscape:groupmode="layer"
     id="layer1"
     transform="translate(-26.632337,-110.2855)"><g
       id="g170"
       inkscape:export-filename="g170.svg"
       inkscape:export-xdpi="96"
       inkscape:export-ydpi="96"
       transform="rotate(-63.599176,132.41673,99.882511)"><path
         id="path162"
         style="fill:#c3570d;fill-opacity:1;stroke-width:1.05145;stroke-linecap:round;stroke-linejoin:round;paint-order:markers stroke fill"
         d="m 139.18555,117.80469 c -14.09234,2.29485 -26.24597,11.29156 -35.27735,22.00976 -9.965106,12.14996 -17.214344,27.55499 -16.400386,43.56251 0.04601,3.1611 1.039025,6.88304 1.316406,9.54882 -1.525788,-0.79996 -2.518751,-3.01591 -4.394531,-2.83984 -1.541972,1.13136 -0.399962,3.46716 -0.330079,5.04883 2.428451,10.95713 8.521158,21.2102 17.67578,27.85156 1.7697,1.34779 3.67161,2.51142 5.63867,3.54688 -7.08271,7.34817 -13.274527,15.7284 -17.398434,25.09179 -0.441283,1.76507 1.863452,1.73831 2.605469,0.61914 1.695601,-1.3006 3.879033,-3.22397 5.363281,-4.00781 -5.030304,9.13872 -9.013112,19.22581 -9.400391,29.74805 0.34669,1.86382 2.482177,0.7197 2.718751,-0.59375 1.730247,-3.36032 3.755458,-6.55995 5.896484,-9.67188 -2.711303,9.90207 -3.070026,20.3361 -2.052734,30.50977 0.649191,3.27328 1.116073,6.71152 2.621093,9.71484 1.792011,1.31141 2.21742,-1.53408 2.382811,-2.71093 0.56047,-2.82855 0.95121,-5.68919 1.56446,-8.50782 1.68339,13.88755 7.87157,27.55141 18.29882,37.04297 0.96934,0.77664 2.72298,2.87224 3.77149,1.08399 -0.28451,-3.15981 -1.87788,-6.12221 -2.38867,-9.2793 -0.15809,-0.82587 -0.63084,-2.39745 -0.54102,-2.76172 7.95693,10.8266 17.71472,20.94152 30.17578,26.44141 2.1099,-0.16894 0.78579,-2.6797 0.43555,-3.84571 -1.06676,-3.06442 -2.26297,-6.08238 -3.46485,-9.0957 5.75387,7.64988 11.77101,15.59743 20.13477,20.54883 0.95191,0.86659 3.42128,0.96515 2.91406,-0.88477 -1.74479,-3.75849 -4.44961,-7.62136 -5.98828,-11.06836 8.48956,7.25771 18.86151,12.12116 29.78516,14.35743 2.64034,0.43872 5.52671,1.63275 8.1582,0.75195 1.38863,-1.77554 -1.79215,-2.72044 -2.66015,-3.85547 -0.75485,-0.77932 -3.74049,-2.72041 -3.16016,-2.83789 11.31527,3.36509 23.31348,4.3297 35.02734,2.98438 1.42087,-0.57157 4.11016,-0.43518 4.15235,-2.35352 -2.62738,-2.12689 -5.95142,-3.48628 -8.70313,-5.4707 9.46793,0.7433 19.18657,0.50672 28.36133,-2.14258 2.05688,-1.68568 -1.56452,-2.56223 -2.76367,-3.11719 -2.8614,-1.22956 -5.64568,-2.51841 -8.39063,-4.04102 10.94987,0.026 22.44546,-1.55537 31.81641,-7.58593 1.32787,-1.16625 -0.38676,-2.71219 -1.75,-2.375 -2.71457,-0.0881 -5.42743,0.12887 -8.14258,0.0879 9.95397,-4.78756 19.3124,-11.60936 25.72266,-20.70899 -0.0892,-1.98377 -2.02191,-3.62584 -2.83399,-5.47461 -7.53975,-12.49001 -12.47234,-26.45462 -13.95898,-40.9414 -0.017,-1.50625 -0.64923,-3.49491 -2.55664,-3.01953 -6.92555,0.80854 -13.79591,-0.63108 -20.44141,-2.39063 -1.83947,-0.45328 -3.67287,-0.92636 -5.50195,-1.41992 1.56285,-0.84495 3.41688,-0.79071 4.99805,-1.40039 1.3265,-1.62395 -1.26883,-2.63579 -2.48828,-3.01563 -6.69212,-2.40026 -14.0277,-1.93527 -20.93555,-0.88086 -0.77818,0.0374 -3.26463,1.15876 -2.58594,0.49805 1.40578,-1.48823 3.8109,-2.30889 4.45898,-4.35547 -0.42567,-2.04407 -3.00255,-0.69747 -4.32031,-0.52539 -6.92925,1.93265 -14.2359,4.0492 -19.40625,9.36328 -4.3755,4.03906 -8.50496,8.33205 -12.75586,12.5 4.52916,-5.83365 9.64301,-11.23815 13.79102,-17.35351 0.52002,-1.75901 -1.72431,-1.68717 -2.63477,-0.87696 -11.9687,6.16245 -24.01381,12.35122 -35.0332,20.13086 -11.18297,7.9259 -21.40874,18.69828 -24.57031,32.42969 -1.57879,5.64098 -1.09273,11.57205 -1.14258,17.31641 -8.53702,-3.91085 -15.79371,-10.56754 -20.29297,-18.77539 1.05767,-9.28386 4.18281,-18.35898 9.72656,-25.90039 8.14467,-11.26061 19.52692,-19.73689 31.93946,-25.83008 14.60552,-7.67239 29.86454,-14.84486 41.98437,-26.29492 1.50896,-1.35157 2.90838,-3.36101 1.83984,-5.42969 -0.61487,-1.36913 -0.83988,-4.11346 -2.85351,-3.83594 -1.6017,1.72203 -3.31133,3.48934 -5.16992,5.05273 -6.63296,6.18806 -14.17421,11.52326 -22.35157,15.5254 -13.62849,7.36595 -28.34029,13.34006 -39.87695,23.97265 -9.55806,8.63302 -17.56885,19.79993 -19.61133,32.76953 -0.64609,-3.05327 1.25313,-6.41127 -1.08008,-9.06445 -2.69332,-5.08168 -6.2926,-10.29786 -5.6875,-16.35547 0.0415,-3.95433 0.79112,-7.86916 2.05664,-11.60937 0.81169,3.51584 1.67174,7.44131 4.26368,10.05468 2.16539,-0.22925 0.89073,-3.13905 1.24218,-4.59179 0.0578,-5.26383 1.51917,-10.68598 4.3125,-15.23438 0.39888,2.16404 -0.23866,4.81321 1.00196,6.7793 1.89446,1.13085 2.67448,-1.82657 3.45312,-2.98047 2.96888,-5.20333 8.58705,-8.05647 13.98242,-10.03906 -1.78405,4.13706 -2.85634,8.6314 -4.66796,12.7832 -2.15656,4.21471 -6.87927,6.12279 -9.66797,9.8457 -2.32439,2.83772 -4.5828,6.15198 -5.04883,9.84571 0.33683,1.73843 2.44723,0.9081 2.9707,-0.26953 5.42006,-7.13091 11.86956,-13.43622 18.92774,-18.9375 1.6027,-4.81339 3.02068,-9.80106 5.28711,-14.40625 0.58656,-1.22263 1.15753,-2.45748 1.89648,-3.57813 1.53387,2.42425 2.5192,5.2896 4.31641,7.55859 2.03714,0.61711 1.99397,-2.33555 2.6582,-3.55468 1.02569,-2.72513 2.00832,-5.66302 3.80859,-7.94336 2.78322,-0.63262 4.75614,1.85704 7.04297,2.79297 2.11435,-0.32583 1.5294,-3.17309 2.21094,-4.6836 0.86363,-2.70671 1.78674,-6.05869 3.22266,-8.14844 1.89014,1.76542 3.23431,3.99538 4.68164,6.0879 1.97426,1.09854 2.2979,-1.90199 2.44922,-3.17188 0.68457,-3.969 1.12491,-7.92783 2.18945,-11.81641 2.60476,1.97536 4.3005,4.83793 6.56445,7.12696 2.1635,0.71528 1.738,-2.3276 1.86133,-3.59571 0.11097,-3.2504 -0.007,-6.81861 0.45898,-9.87109 3.04708,3.4816 5.83204,7.40432 9.42774,10.27734 1.33452,-0.4245 2.74844,-2.38132 2.53516,-3.78711 -3.4674,-5.29738 -8.19304,-9.67239 -13.01172,-13.72265 -1.26172,-0.89009 -3.52148,-2.51239 -4.63672,-0.5586 -1.07578,1.88119 -2.84946,3.77166 -2.87696,5.9629 0.3041,1.27107 1.11202,2.80067 -0.65039,1.74804 -2.02693,0.078 -2.89762,2.58443 -4.26953,3.78711 -1.99297,2.44175 -3.93529,4.93285 -6.10937,7.21875 0.27319,-2.85647 -2.67588,-1.23805 -3.42969,0.25977 -3.28073,3.20593 -7.20699,6.51137 -10.88281,8.85547 0.0639,-1.4134 1.55609,-3.98473 -0.50196,-4.50782 -2.6015,1.2547 -4.35523,3.87031 -6.73437,5.52149 -5.42821,4.54168 -12.04836,7.37749 -18.79688,9.32422 4.26592,-5.29613 9.00493,-10.26388 13.73828,-15.17774 -1.24079,2.68537 -3.025,5.20879 -3.8125,8.0625 0.64683,2.12737 2.9559,0.19349 3.91797,-0.61523 6.63516,-5.42832 12.6822,-11.74676 16.82422,-19.3125 -0.1685,3.60001 -1.56992,7.21143 -1.23047,10.8164 1.16292,1.7371 2.75394,-0.86394 3.70313,-1.77734 3.27254,-3.85685 6.48491,-8.76864 8.9082,-12.5918 0.25121,1.551 -1.35076,3.80368 0.42383,4.75782 1.85757,-0.35288 2.2733,-2.81783 3.38477,-4.1211 5.26572,-8.5377 8.03485,-18.61795 7.26757,-28.66211 -0.27976,-6.57917 -2.20704,-12.95903 -4.71093,-19.00781 2.82421,2.56387 4.90171,5.95561 7.85351,8.37891 2.07153,0.26271 1.2975,-2.27398 0.78711,-3.35938 -3.18212,-9.42527 -9.39187,-17.82678 -17.64453,-23.41406 3.56874,0.7573 6.92646,2.22603 10.44922,3.12109 2.01298,-0.76413 0.0149,-2.62232 -0.9375,-3.38672 -6.45822,-6.31006 -14.97824,-10.28462 -23.92774,-11.36914 -2.16545,-0.0941 1.16693,-0.83792 1.81836,-1.18554 1.67915,-0.82149 4.18743,-0.70687 5.35157,-2.38086 0.23454,-2.19125 -2.75624,-1.68041 -4.16602,-1.85157 -6.44598,-0.15988 -13.03549,-0.26321 -19.19727,1.94532 -3.654,1.09878 -7.26212,2.36182 -10.77734,3.84765 2.34262,-2.65323 5.60618,-4.44949 7.68945,-7.29687 0.30868,-0.79757 -0.42469,-1.56457 -1.22851,-1.45508 z m -2.78516,25.49219 c 9.64739,-0.0765 18.99584,5.84489 22.88282,14.70703 7.14961,15.15992 1.28961,34.6266 -12.12696,44.24023 -2.5861,1.90734 -5.47282,3.424 -8.54687,4.37305 14.82139,-7.20433 24.39207,-24.42386 21.54297,-40.82031 -1.53021,-9.59373 -8.98797,-17.90989 -18.46875,-20.19336 -9.67175,-2.71369 -20.40877,2.1872 -25.51954,10.65429 -3.7937,5.49067 -4.8703,12.56012 -3.28515,18.9961 2.60172,9.6367 13.56907,16.67697 23.33984,13.45312 6.46097,-1.9605 11.95923,-7.83968 11.93945,-14.83203 0.40131,-7.09727 -5.09737,-14.47078 -12.49609,-14.66211 -6.39169,-0.3049 -12.72454,6.69027 -10.03125,12.97071 1.67456,3.7919 7.5212,6.29961 10.76953,3.02929 1.76938,-2.20245 -0.11383,-5.60836 -2.32617,-6.23437 2.47382,-0.73329 4.57171,2.32692 4.34766,4.58398 -0.50367,4.05463 -5.34286,5.98257 -8.82227,4.32813 -4.87337,-1.76765 -7.7198,-7.60609 -5.74023,-12.48242 1.5178,-5.03394 6.99354,-8.17932 12.11132,-7.56055 3.55599,-0.20449 7.12953,1.07135 9.46485,3.82617 6.49563,6.63589 5.3187,18.16737 -1.1875,24.37305 -5.01277,5.26468 -13.18321,7.0324 -19.97852,4.22851 -2.82428,-0.82808 -5.35486,-3.96054 -8.49023,-2.57617 -4.0179,1.67408 -8.32647,3.46975 -12.76172,2.42774 -2.61152,-0.46833 -4.810719,-2.09343 -6.667969,-3.90821 1.779256,-1.93129 4.234249,-3.08458 6.552739,-4.08789 0.0627,-2.05249 -1.71513,-3.75253 -2.20899,-5.76367 -1.450832,-3.82689 -1.744894,-7.98442 -1.546874,-12.04102 3.685714,0.90822 6.419244,3.74614 9.626954,5.55274 2.11348,0.19012 1.4226,-2.58838 1.64062,-3.93164 1.42971,-12.69846 13.24778,-22.90104 25.98633,-22.65039 z m 179.75586,24.76953 c -2.50421,0.0569 -4.43128,2.47307 -3.35937,4.95703 2.11146,8.74859 3.54057,18.5126 -0.85547,26.75781 -3.71864,8.34106 -9.84802,16.23979 -9.31055,25.83789 0.0359,3.24618 -0.17768,6.70105 1.00977,9.76172 2.46944,0.9431 2.48343,-3.10325 3.56055,-4.56054 3.53388,-8.39248 10.44169,-14.61332 17.38671,-20.1836 1.4998,-1.45386 -2.9149,-2.57121 -0.35546,-2.35351 4.64905,0.22155 6.04116,-5.10585 7.16992,-8.59766 2.49723,-8.72621 3.32279,-19.50703 -3.1211,-26.79102 -2.90922,-3.18496 -7.35143,-4.84312 -11.61718,-4.80664 -0.17136,-0.0178 -0.34087,-0.0253 -0.50782,-0.0215 z m 40.49805,31.67383 c -6.23129,0.16088 -11.9168,3.15037 -17.09766,6.35547 -2.36725,1.52299 -4.82498,2.9627 -6.9375,4.83398 -0.82257,0.53819 -0.58977,1.93214 0.45704,1.96875 2.04314,0.0505 4.06517,-0.32337 6.07031,-0.66797 -0.87613,0.5308 -2.07097,0.80648 -2.58203,1.75977 -0.3424,1.20756 1.07161,1.78728 1.78711,2.46679 2.71802,2.4392 4.47003,5.76398 5.86132,9.0918 1.02001,2.46356 1.58435,5.07466 1.95118,7.73047 0.34664,1.93694 2.09583,3.12935 3.17773,4.65234 2.95296,3.70756 4.24027,8.38434 4.76367,13.04102 0.11297,1.47873 0.87079,2.78997 1.87891,3.84375 2.46975,2.92798 3.12871,6.86601 3.33203,10.57422 0.22113,1.96118 0.0757,4.00574 0.68164,5.90234 0.61459,1.08193 1.48596,2.03168 1.82422,3.26367 0.86468,2.26125 0.60263,4.73797 0.9043,7.08008 0.23507,0.93202 1.42104,0.80288 1.99023,0.2461 4.27548,-2.59145 8.35836,-6.20773 9.8125,-11.15821 0.5524,-1.9284 0.68679,-4.00351 0.37695,-5.98242 -0.26938,-1.09928 -1.56601,-1.32818 -2.50195,-1.00586 -1.29406,0.30104 -2.57504,0.60339 -3.89258,0.86524 3.90136,-2.93772 7.45965,-6.95012 8.23047,-11.9336 0.30828,-3.16385 0.15599,-6.44407 -0.87695,-9.47265 -0.21659,-0.88692 -1.12685,-1.83004 -2.08008,-1.2793 -2.21115,1.2312 -4.3092,2.68336 -6.68164,3.60937 -1.02805,0.4344 -2.07748,0.82208 -3.15039,1.13086 4.25263,-2.59047 8.10725,-6.15214 10.24805,-10.71289 1.13279,-2.40151 1.57699,-5.09807 1.24414,-7.73437 -0.32296,-3.63877 -2.53385,-6.77797 -4.99414,-9.3418 -0.44637,-0.79103 -1.58862,-0.90638 -2.06836,-0.084 -3.1267,3.73953 -6.86833,7.08641 -11.50782,8.79296 -0.80999,0.35509 -0.36204,0.0574 0.0859,-0.24414 3.27365,-2.38589 6.33377,-5.23485 8.37305,-8.77148 1.95,-3.34573 2.6664,-7.43398 1.62891,-11.19727 -0.73518,-3.30499 -3.234,-6.20796 -6.53711,-7.12304 -1.21894,-0.3722 -2.49952,-0.51778 -3.77149,-0.5 z m -24.70312,50.43554 c -0.14154,-0.003 -0.28443,0.002 -0.42774,0.0156 -3.25765,0.0511 -6.10868,2.25942 -7.86523,4.86523 -1.2942,2.00308 -0.53151,4.45623 0.13086,6.53321 1.49955,4.53378 3.17904,9.04171 5.46093,13.24609 0.49055,1.06224 1.43337,1.97108 2.65821,2.01758 3.45188,0.33676 6.72519,-1.3474 9.39453,-3.37891 0.94435,-0.66055 1.56861,-1.75193 1.42773,-2.92578 -0.2695,-3.69659 -1.59533,-7.22666 -2.99804,-10.625 -1.37871,-3.03399 -2.77691,-6.19076 -5.14063,-8.60156 -0.71552,-0.69671 -1.64986,-1.12237 -2.64062,-1.14649 z m -41.91211,8.70899 c -2.6736,0.0502 -5.31588,2.21628 -5.32422,5.00391 -0.26496,2.2127 1.21132,4.34252 3.2539,5.11523 2.38862,0.90234 5.26561,-0.4457 6.28907,-2.75 1.16207,-2.24075 0.72081,-5.55454 -1.6875,-6.78125 -0.77504,-0.40763 -1.65642,-0.60904 -2.53125,-0.58789 z m -41.15625,3.67383 c 0.75028,-0.0285 1.50581,-0.025 2.26367,0.0156 1.85255,0.0284 3.71969,0.081 5.53906,0.46094 -7.58177,7.67634 -15.24767,15.45893 -20.68945,24.86914 -5.74431,9.39025 -9.30754,19.90487 -12.4961,30.35547 -2.35868,3.73028 -6.99181,5.02613 -10.87695,6.55859 -5.04773,1.67619 -10.34528,2.65065 -15.65625,2.89649 0.31029,-7.01527 2.45329,-13.76912 4.62305,-20.36328 5.9747,-16.39321 16.85782,-31.75152 32.32617,-40.2461 4.66238,-2.51968 9.71479,-4.34734 14.9668,-4.54687 z m 47.32421,15.13867 c -0.13645,0.002 -0.2735,0.0111 -0.41015,0.0254 -2.10079,0.028 -3.95235,1.62319 -4.79102,3.47266 -0.37486,1.20365 -0.3246,2.53519 -0.0937,3.76367 0.70584,2.33264 3.16327,4.26762 5.66211,3.63086 3.30177,-0.62448 5.76823,-4.46477 4.4375,-7.67188 -0.77158,-1.88979 -2.75793,-3.24754 -4.80469,-3.2207 z m 8.32813,17.16211 c -0.0663,-7.6e-4 -0.13291,1.5e-4 -0.19922,0.002 -2.68861,0.0155 -5.22278,2.4366 -4.9707,5.19336 -0.15779,2.50267 2.3029,4.7305 4.7793,4.41406 2.10009,-0.0799 3.95958,-1.6814 4.70898,-3.58398 0.88993,-2.57385 -0.95915,-5.71781 -3.72266,-5.98242 -0.19725,-0.0265 -0.3967,-0.0407 -0.5957,-0.043 z"
         transform="scale(0.26458333)" /><path
         style="fill:#000000;fill-opacity:1;stroke-width:0.305062"
         d="m 53.969479,96.586811 c -2.328204,-0.193031 -5.238344,-0.947285 -6.888272,-1.785303 -0.381999,-0.194023 -0.379498,-0.174819 0.06055,0.467855 0.409882,0.598627 0.435202,0.709627 0.191549,0.840016 -0.753686,0.40336 -4.238594,-0.932297 -5.532058,-2.120267 -0.128827,-0.118312 -0.317264,-0.1683 -0.716529,-0.19006 -1.59334,-0.08684 -4.244757,-1.572458 -6.314085,-3.53786 -0.684071,-0.649734 -0.738342,-0.653129 -0.417264,-0.02611 0.606677,1.184852 -0.04329,1.207866 -1.798859,0.06369 -2.247393,-1.464744 -3.94906,-3.393319 -5.13322,-5.817727 l -0.374524,-0.766789 -0.09628,0.645716 c -0.05296,0.355144 -0.09899,0.654794 -0.102348,0.665892 -0.07996,0.266115 -0.640326,-0.263039 -1.088676,-1.028041 -1.188095,-2.02718 -1.765852,-4.342233 -1.903862,-7.628572 -0.0037,-0.08897 -0.726383,0.999627 -0.726383,1.094221 0,0.146744 -0.282732,0.152128 -0.426721,0.0081 -0.650606,-0.650585 -0.596732,-4.431552 0.103111,-7.236641 0.299449,-1.200328 0.299479,-1.199953 -0.01556,-0.762509 -1.256673,1.74429 -1.493096,0.477508 -0.418698,-2.24332 0.864577,-2.189492 2.049682,-4.274168 3.599733,-6.332092 0.57071,-0.757738 0.601186,-0.608764 -0.252713,-1.235499 -2.832685,-2.079141 -4.776297,-6.263306 -4.799177,-10.331593 -0.0058,-1.034015 0.05726,-1.34656 0.305276,-1.51216 0.148931,-0.09945 0.216564,-0.07168 0.460003,0.18891 0.194721,0.208467 0.235172,0.225456 0.240145,0.100893 0.0034,-0.08239 0.01769,-0.22243 0.03179,-0.311215 0.01434,-0.08879 0.04701,-0.492147 0.073,-0.896357 0.442859,-6.889279 6.045172,-14.184239 12.636497,-16.454459 3.138875,-1.081116 6.592483,-0.991733 5.393284,0.139584 -0.249541,0.235422 -0.2525,0.244846 -0.06052,0.193522 2.140133,-0.572211 6.294865,0.409555 7.650134,1.807734 0.433341,0.44705 0.350364,0.516458 -0.649141,0.542876 -1.016193,0.02688 -1.035625,0.05088 -0.334196,0.413582 2.313195,1.196146 4.664613,3.869613 5.247496,5.966119 0.223336,0.803256 -0.152257,0.989761 -0.817323,0.405842 -0.375531,-0.329739 -0.43212,-0.249626 -0.162171,0.229669 0.882514,1.566976 1.467867,3.819533 1.398405,5.381332 -0.06391,1.437218 -0.478307,1.889808 -0.992855,1.084402 -0.331969,-0.519634 -0.325837,-0.53669 -0.298595,0.827062 0.02196,1.100341 -0.0913,2.214416 -0.273458,2.689074 -0.02715,0.07086 0.172665,0.243473 0.565067,0.488035 2.504621,1.561061 4.359032,3.765513 5.236727,6.225202 0.745632,2.089523 0.986021,5.416683 0.531906,7.361634 -0.127333,0.545442 -0.133312,0.542961 0.6111,0.253906 3.375177,-1.310596 8.617853,-1.377551 6.031811,-0.07703 -0.387429,0.194831 -0.408051,0.3581 -0.04902,0.387801 2.533755,0.209614 4.811196,0.865906 5.623576,1.620569 0.307716,0.285831 0.282518,0.369848 -0.193196,0.644502 l -0.415159,0.239699 0.556403,0.125417 c 0.77983,0.175774 1.828237,0.246466 2.64556,0.178385 l 0.695511,-0.05793 v -0.355739 c 0,-0.621805 0.375196,-0.93892 1.522992,-1.287261 1.38306,-0.419745 2.545133,-0.800285 3.319869,-1.087156 0.768116,-0.284419 1.193617,-0.281112 1.505299,0.01168 0.518178,0.486819 0.561589,0.0737 0.187704,-1.787057 -0.753991,-3.752499 -0.368027,-6.16334 1.429613,-8.929561 1.751362,-2.694989 1.958346,-4.651447 0.888524,-8.398644 -0.587428,-2.057561 2.162524,-3.050072 4.839261,-1.746584 2.09776,1.021531 3.135764,2.90058 3.135612,5.676211 -9.2e-5,1.47305 -0.01495,1.575139 -0.458417,3.167335 -0.311468,1.118086 -0.318912,1.110594 0.580045,0.582992 2.918133,-1.712658 5.110645,-2.134233 6.758011,-1.299437 1.250724,0.633785 2.063562,2.144987 2.074331,3.856458 l 0.0055,0.859129 0.384104,0.31123 c 1.472992,1.193553 2.068992,3.426684 1.421282,5.325427 l -0.19612,0.574911 0.19585,0.309424 c 0.92223,1.457172 0.96079,3.709687 0.088,5.135535 l -0.23249,0.379775 0.16845,0.666094 c 0.55561,2.197106 -0.426259,4.276144 -2.700223,5.717572 -0.385202,0.244162 -1.204903,0.774498 -1.821556,1.178525 -3.1994,2.096182 -6.710848,3.101847 -9.438164,2.703061 -0.668117,-0.09769 -0.869549,-0.04755 -1.454598,0.362136 -0.01403,0.0098 0.01617,0.17258 0.06711,0.3617 0.246612,0.915836 -0.710703,1.87633 -3.178656,3.189208 -1.766981,0.939982 -2.262798,0.960015 -3.204799,0.129502 l -0.368942,-0.325297 -1.003197,1.01287 c -0.551736,0.55708 -1.266496,1.234373 -1.588367,1.505097 -0.706188,0.594036 -0.710337,0.614249 -0.114246,0.560198 0.901886,-0.08178 1.055271,0.252384 0.464701,1.012535 -1.260944,1.623043 -3.61099,2.977934 -6.202218,3.575816 -0.59664,0.137659 -0.584346,0.189169 0.09341,0.39101 1.025772,0.305483 1.131842,0.584942 0.390846,1.029496 -1.0028,0.601592 -2.783539,1.128062 -4.580508,1.354199 -1.289253,0.162244 -1.233976,0.133663 -0.776841,0.401565 1.796664,1.052901 -2.952482,2.162506 -7.940309,1.855205 l -0.766804,-0.04724 0.384043,0.347893 c 0.427727,0.387444 0.481571,0.596817 0.182701,0.710444 -0.30317,0.115271 -1.754046,0.158281 -2.698305,0.07999 z m -0.343683,-1.529719 c -0.01464,-0.04304 -0.305123,-0.291398 -0.645176,-0.551912 -0.7111,-0.544786 -1.682082,-1.39443 -1.682082,-1.471895 0,-0.02895 0.446153,0.08199 0.991421,0.246524 3.279449,0.989564 7.642569,1.275983 9.662873,0.634325 0.460736,-0.146329 0.449265,-0.206417 -0.09094,-0.476025 -0.612198,-0.30555 -1.949163,-1.123391 -2.290131,-1.4009 l -0.242128,-0.19708 0.363207,0.06648 c 0.748195,0.136942 2.815784,0.251539 3.67249,0.203546 2.053038,-0.115011 4.823429,-0.643458 4.260528,-0.812697 -0.876443,-0.263513 -3.385793,-1.491446 -3.532314,-1.728519 -0.02532,-0.04122 0.569337,-0.07348 1.389344,-0.07536 2.637842,-0.006 4.813972,-0.461223 6.680312,-1.397367 1.523327,-0.764092 1.479032,-0.815187 -0.645725,-0.744861 -0.998713,0.03306 -1.733485,0.02706 -1.730953,-0.01412 0.0031,-0.03935 0.574493,-0.349708 1.271255,-0.689682 2.322956,-1.133434 4.084964,-2.523452 5.694045,-4.49193 l 0.472175,-0.577647 -0.318637,-0.50579 c -2.308009,-3.66357 -3.701777,-7.430981 -4.098723,-11.079097 -0.156741,-1.440509 0.0088,-1.257676 -1.048834,-1.158186 -1.425251,0.134068 -2.487904,-0.02916 -5.809603,-0.892481 l -1.210731,-0.314662 0.520253,-0.247927 c 0.286148,-0.136363 0.731081,-0.271783 0.988737,-0.300938 0.585628,-0.06625 0.585628,-0.118989 -3.1e-5,-0.381807 -1.754717,-0.787478 -4.700488,-0.776944 -6.808712,0.02434 -0.50204,0.190817 -0.471321,0.185146 -0.471321,0.08694 0,-0.0994 0.943893,-0.902361 1.647458,-1.401474 0.720557,-0.511177 0.676689,-0.521732 -0.728519,-0.175307 -1.686444,0.415763 -3.08793,0.988457 -4.26608,1.74329 -0.504573,0.323268 -4.653723,4.43154 -5.597494,5.542323 -0.649294,0.764208 -0.631112,0.645179 0.06001,-0.393198 0.597312,-0.897459 1.338735,-1.82515 2.840373,-3.55397 0.901855,-1.038304 2.046875,-2.561162 1.977717,-2.630331 -0.101799,-0.101778 -6.004354,3.118549 -8.000254,4.364764 -6.31323,3.941949 -8.914556,8.226742 -8.398421,13.83353 0.03371,0.36624 0.04387,0.665893 0.02258,0.665893 -0.111257,0 -0.985687,-0.432493 -1.552034,-0.767634 -1.710545,-1.012242 -3.153428,-2.46039 -4.060408,-4.075227 l -0.249327,-0.44393 0.187308,-1.210715 c 0.645237,-4.169992 3.307392,-7.866966 7.916027,-10.993032 0.872569,-0.591888 1.654809,-1.021919 4.519983,-2.484905 2.438545,-1.245133 4.399545,-2.311291 5.246428,-2.852365 1.467593,-0.937639 3.60196,-2.526222 4.227673,-3.146612 l 0.676231,-0.670471 -0.04799,-0.350242 c -0.02624,-0.192632 -0.142434,-0.562867 -0.257839,-0.822743 l -0.209822,-0.472502 -0.243439,0.271029 c -0.532639,0.592974 -2.059078,1.978932 -2.837352,2.576177 -1.932294,1.482885 -2.399131,1.757804 -6.473175,3.811891 -1.820092,0.917682 -3.687224,1.887801 -4.14915,2.155816 -2.156362,1.251161 -4.319832,2.971824 -5.648225,4.492189 -2.18455,2.500195 -3.218832,4.53243 -3.635486,7.143231 l -0.135203,0.847176 -0.177577,-0.487035 c -0.196247,-0.538218 -0.218059,-0.939994 -0.09286,-1.711435 0.06696,-0.412654 0.06144,-0.540521 -0.02776,-0.645716 -0.210737,-0.248433 -1.425982,-2.58876 -1.607036,-3.094879 -0.375684,-1.050088 -0.24225,-3.052394 0.317478,-4.764686 0.328643,-1.005335 0.384744,-1.05061 0.450058,-0.363216 0.07288,0.766926 0.391242,1.751987 0.774949,2.397861 0.400486,0.674105 0.425379,0.680771 0.314153,0.08411 -0.248992,-1.335788 0.257991,-3.507574 1.144624,-4.903398 0.427239,-0.672585 0.445512,-0.654413 0.446367,0.444155 0,0.583444 0.04231,1.066586 0.108846,1.256014 l 0.108114,0.307845 0.350181,-0.711417 c 0.6406,-1.301444 1.764845,-2.198513 3.617914,-2.886852 0.969366,-0.36008 0.937395,-0.393695 0.502224,0.528368 -0.197101,0.417566 -0.434897,1.061079 -0.52849,1.43003 -0.451125,1.778784 -0.766804,2.274858 -1.993275,3.132421 -1.239346,0.866562 -2.322072,2.438782 -2.494676,3.622478 l -0.05888,0.403573 0.196155,-0.242143 c 0.107869,-0.133181 0.355793,-0.460073 0.550972,-0.726429 1.006766,-1.37397 2.4063,-2.810284 3.942287,-4.045911 l 0.852283,-0.685606 0.178949,-0.701386 c 0.304086,-1.191704 0.982911,-2.839394 1.591082,-3.861992 l 0.247589,-0.416316 0.162232,0.206229 c 0.08923,0.113425 0.389839,0.655712 0.668055,1.205083 l 0.505854,0.998853 0.08704,-0.344836 c 0.236423,-0.93694 0.749171,-2.154376 1.18422,-2.811758 0.277973,-0.420061 1.094746,-0.193906 2.003953,0.554878 l 0.241213,0.198653 0.09689,-0.578776 c 0.169584,-1.012788 0.945753,-3.07534 1.157314,-3.07534 0.205612,0 1.302615,1.402627 1.478941,1.890991 0.07379,0.204325 0.145911,-0.08542 0.331755,-1.332871 0.208785,-1.401217 0.478368,-2.79465 0.55564,-2.871922 0.144569,-0.144578 0.981111,0.652296 1.689709,1.609596 0.222634,0.300776 0.41284,0.536864 0.422694,0.524643 0.0098,-0.01223 0.04195,-0.865964 0.07129,-1.897209 0.06626,-2.326107 0.07742,-2.366485 0.495177,-1.787773 0.418484,0.579721 1.462193,1.793573 1.957583,2.276706 l 0.399571,0.389659 0.247497,-0.30027 c 0.2899,-0.351682 0.309272,-0.300142 -0.513939,-1.366892 -0.839408,-1.087735 -2.689031,-2.730919 -3.366726,-2.990972 -0.08563,-0.03287 -0.235691,0.173315 -0.538374,0.739806 l -0.419643,0.785373 0.153416,0.632003 c 0.172848,0.712046 0.174312,0.706918 -0.124222,0.427694 -0.244324,-0.228509 -0.5719,-0.341837 -0.65085,-0.225151 -0.614273,0.907954 -2.527775,3.173577 -2.68055,3.173797 -0.01922,2.7e-5 -0.02227,-0.18158 -0.007,-0.40357 0.03304,-0.47666 -0.03905,-0.50478 -0.302469,-0.118004 -0.430015,0.631399 -3.203884,2.862239 -3.558976,2.862239 -0.0302,0 0.01068,-0.29965 0.09134,-0.665893 0.08057,-0.366239 0.147376,-0.716633 0.148413,-0.778646 0,-0.06202 -0.33505,0.213253 -0.746945,0.61171 -1.270949,1.229529 -2.595468,2.104282 -4.174683,2.757081 -0.876871,0.362463 -2.313286,0.793684 -2.389582,0.717369 -0.146522,-0.146521 3.168558,-3.838932 4.690604,-5.224478 l 0.221658,-0.201787 -0.14106,0.2825 c -0.07758,0.155374 -0.481754,0.922062 -0.898134,1.703748 -0.416379,0.781685 -0.757072,1.446869 -0.757072,1.47819 0,0.09296 0.929768,-0.587217 1.723021,-1.260489 1.424366,-1.208925 2.79983,-2.928551 3.628531,-4.536448 0.490082,-0.9509 0.504481,-0.209599 0.04182,2.152671 -0.09365,0.478203 -0.142861,0.895898 -0.109365,0.928216 0.207564,0.200163 2.226374,-2.41871 3.0005,-3.89234 l 0.337154,-0.641808 0.05906,0.393808 c 0.05207,0.347197 0,0.829299 -0.171811,1.575881 -0.07471,0.325669 0.819428,-1.088645 1.334952,-2.111521 1.457618,-2.892178 1.759385,-5.824953 0.930531,-9.043691 -0.315953,-1.226969 -1.038889,-3.033022 -1.331047,-3.325159 -0.04426,-0.04427 -0.08047,-0.117876 -0.08047,-0.163565 0,-0.216475 2.196539,2.138827 2.888694,3.097506 0.330047,0.457123 0.325684,0.396145 -0.05198,-0.725932 -0.947614,-2.815342 -2.716151,-4.982281 -5.307104,-6.502686 -0.566745,-0.332575 1.95316,0.26114 2.990615,0.704621 0.909817,0.388911 0.920617,0.369131 0.190542,-0.348552 -1.754656,-1.724886 -4.017912,-2.75756 -6.455572,-2.94554 -0.347405,-0.02678 -0.631631,-0.07506 -0.631631,-0.107263 0,-0.128071 1.138187,-0.594438 1.958377,-0.802426 1.183122,-0.300022 1.188888,-0.327939 0.09985,-0.483859 -2.377349,-0.34037 -5.154024,0.187409 -8.293418,1.576363 -0.432822,0.191496 -0.786969,0.319684 -0.786969,0.284858 0,-0.125237 1.748341,-1.7634 2.340162,-2.192686 0.70872,-0.514079 0.634834,-0.581528 -0.389869,-0.356002 -7.615297,1.676048 -14.251191,11.453268 -12.653215,18.643029 0.118426,0.532715 0.237156,1.070106 0.263849,1.1942 l 0.04857,0.22563 -0.313482,-0.184154 c -0.172421,-0.101284 -0.511437,-0.375343 -0.753382,-0.60902 -0.538282,-0.519948 -0.510918,-0.522349 -0.447831,0.03924 0.40256,3.584202 2.722314,7.08213 5.795814,8.739438 l 0.630228,0.339842 -0.593895,0.615988 c -1.594803,1.654141 -3.150041,3.883236 -3.980054,5.704585 -0.38331,0.841087 -0.363725,0.853128 0.347222,0.213391 0.565433,-0.508807 1.869238,-1.421635 1.93565,-1.355211 0.01464,0.01476 -0.180567,0.38587 -0.434043,0.824678 -1.359204,2.352931 -2.247057,5.073903 -2.413011,7.395114 l -0.04768,0.667009 0.514548,-0.968572 c 0.69121,-1.301008 2.312066,-3.661194 2.046174,-2.979493 -0.03313,0.08497 -0.185752,0.673419 -0.339137,1.307667 -0.800453,3.309741 -0.795572,7.0053 0.01251,9.530299 0.302957,0.946501 0.316441,0.934391 0.505854,-0.454548 0.256374,-1.879924 0.74066,-3.707563 0.741728,-2.799171 0.0043,3.677143 2.161975,8.349303 4.927699,10.670185 0.761588,0.639099 0.763205,0.638434 0.433219,-0.179898 -0.514701,-1.276404 -1.02449,-3.835451 -0.662595,-3.32608 0.05708,0.08035 0.314244,0.443567 0.571442,0.807143 1.396819,1.97445 3.504096,4.088729 5.303444,5.32104 0.698104,0.478117 2.269083,1.353228 2.429271,1.353228 0.09286,0 -0.564243,-1.825099 -1.187393,-3.298039 -0.622937,-1.472504 -0.619734,-1.509682 0.05131,-0.594615 0.284135,0.387441 0.769977,1.049493 1.079645,1.471223 1.733729,2.361144 4.229687,4.600718 5.127423,4.600718 0.04353,0 -0.223305,-0.481257 -0.592979,-1.069462 -0.613633,-0.976345 -1.625341,-2.86853 -1.564908,-2.926763 0.01373,-0.0133 0.352011,0.263561 0.751551,0.615274 1.94471,1.711923 4.246068,2.91568 6.839981,3.577735 1.713686,0.437391 3.100194,0.643668 3.034087,0.451397 z M 51.855368,86.854289 C 51.746613,85.88496 52.584283,82.48957 53.456425,80.364617 56.4759,73.007815 62.773907,68.203434 67.86515,69.373009 c 0.592705,0.136152 0.621869,0.06964 -0.484286,1.104593 -4.035637,3.775937 -6.43434,7.899047 -7.971701,13.702482 -0.192982,0.728421 -1.311462,1.411952 -3.464621,2.117271 -1.301944,0.426486 -4.061627,0.802347 -4.089174,0.556934 z m 2.32921,-0.876685 c 2.300321,-0.507525 4.539691,-1.561686 4.539691,-2.137003 0,-0.03571 -0.603749,-0.689952 -1.341664,-1.453862 -0.737945,-0.763912 -1.309997,-1.41841 -1.271255,-1.454438 0.03871,-0.03603 0.615219,-0.271264 1.281139,-0.522739 0.66589,-0.251472 1.585347,-0.610179 2.043215,-0.797122 l 0.832514,-0.339897 0.370437,-0.78562 0.370468,-0.78562 -0.5032,-1.262183 c -0.742674,-1.86288 -0.816072,-1.760056 1.285471,-1.801462 0.954753,-0.01882 0.944533,-0.01416 1.422962,-0.649477 0.738952,-0.981269 0.773912,-1.038206 0.615219,-1.001858 -0.07776,0.01782 -1.158382,0.125103 -2.401388,0.238422 -2.712155,0.247259 -2.513163,0.202241 -2.977407,0.673568 l -0.376843,0.382603 0.374281,0.802026 c 1.129401,2.420049 1.331077,2.97669 1.103379,3.045573 -0.622327,0.188253 -4.790055,1.710373 -5.032335,1.837883 -0.07093,0.03732 -0.201982,0.243601 -0.291243,0.458405 l -0.162293,0.390552 0.605945,0.751872 c 0.33328,0.41353 0.909848,1.077391 1.281291,1.475243 0.371413,0.397853 0.656463,0.753873 0.633431,0.791155 -0.02288,0.03728 -0.831782,0.566299 -1.797182,1.175593 -1.915332,1.208797 -2.01823,1.281633 -1.714967,1.213903 0.110981,-0.02477 0.610642,-0.135267 1.110334,-0.245517 z m -1.148467,-0.79961 c 0.16693,-0.115527 1.504048,-0.897804 2.151298,-1.258589 l 0.377819,-0.21059 -0.419491,-0.441206 c -0.230718,-0.242664 -0.634712,-0.708037 -0.897767,-1.03416 -0.558081,-0.691832 -0.465952,-0.7766 -0.907651,0.835098 -0.397801,1.451477 -0.576049,2.219644 -0.515067,2.219644 0.02837,0 0.123306,-0.04959 0.210859,-0.110197 z M 59.09199,82.52341 c 0.08664,-0.394533 0.565067,-1.8604 0.672998,-2.06207 0.113697,-0.212476 0.09988,-0.214617 -0.291365,-0.04518 -0.167998,0.07274 -0.378063,0.163004 -0.466867,0.200578 -0.08877,0.03758 -0.483889,0.176412 -0.877969,0.308525 -0.394109,0.132116 -0.737335,0.260959 -0.762686,0.286322 -0.0619,0.06188 1.532083,1.656973 1.608593,1.609703 0.03301,-0.02041 0.08578,-0.154447 0.117296,-0.297878 z m -3.273225,-3.857422 c 0.466013,-0.179565 1.047035,-0.397221 1.291206,-0.483682 0.954814,-0.338103 1.602553,-0.605017 1.606579,-0.662043 0.0067,-0.09641 -1.145233,-2.483166 -1.196575,-2.478974 -0.246002,0.02007 -2.802728,3.951183 -2.569813,3.951183 0.01159,0 0.40259,-0.146918 0.868603,-0.326484 z m 5.787181,-3.288908 c -0.352957,-0.013 -0.654388,-0.01095 -0.669886,0.0045 -0.0435,0.04351 0.126784,0.622394 0.308601,1.048957 l 0.163727,0.384173 0.419644,-0.707033 0.419674,-0.70703 z m -0.05668,-2.922471 c 0.466135,-0.04422 1.33785,-0.120359 1.937144,-0.16919 0.599295,-0.04884 1.105454,-0.104075 1.124795,-0.122763 0.07358,-0.07107 -0.971867,-1.72117 -1.092214,-1.7239 -0.34893,-0.0079 -3.494121,1.884472 -3.501595,2.106832 -0.003,0.05186 0.07303,0.04742 1.53187,-0.09098 z m 4.545273,-1.775699 0.902953,-0.887841 -0.393957,-1.5e-5 c -0.431876,-1.8e-5 -1.968688,0.225975 -2.125917,0.312628 -0.06986,0.03848 0.0064,0.23821 0.262292,0.687231 0.198443,0.348143 0.360797,0.665127 0.360797,0.704413 0,0.143428 0.107413,0.05519 0.993832,-0.816416 z M 35.396534,54.97958 c 7.916545,-2.720504 9.486059,-13.959941 2.261273,-16.193557 -5.634741,-1.742045 -10.368329,5.699564 -6.21921,9.777143 3.187015,3.132061 8.51282,0.421443 7.398062,-3.765308 -0.730349,-2.743003 -4.173708,-3.346492 -5.374585,-0.941959 -0.679129,1.359803 0.489167,2.933325 1.971434,2.655252 1.015704,-0.190548 0.694992,-1.649501 -0.365648,-1.663397 l -0.19469,-0.0024 0.226478,-0.199233 c 0.872172,-0.767308 2.150718,0.557507 1.654077,1.71393 -0.928426,2.161816 -4.366598,0.880193 -4.379075,-1.632363 -0.0183,-3.650626 5.323761,-4.53016 6.972042,-1.14793 2.271096,4.660232 -3.192414,9.359439 -7.532441,6.478698 -0.56467,-0.374812 -0.821593,-0.384562 -1.478484,-0.05611 -1.509996,0.754995 -2.690861,0.844451 -3.858059,0.292268 -0.443591,-0.20985 -1.249901,-0.870916 -1.249901,-1.02475 0,-0.259013 1.379552,-1.190551 1.763473,-1.190773 0.07767,-4.6e-5 0.05869,-0.07511 -0.06635,-0.262387 -0.724584,-1.085185 -1.251243,-3.674787 -0.921929,-4.533006 0.11086,-0.288833 1.649349,0.460818 2.414293,1.176383 l 0.500088,0.467807 0.04588,-0.785324 c 0.205338,-3.513919 3.440094,-6.475685 7.07253,-6.475685 5.197465,0 8.457176,5.30942 6.68986,10.896434 -1.170707,3.700879 -4.18893,6.353699 -7.569995,6.65353 l -0.605335,0.05368 z m -5.909053,-5.447717 c 0.50021,-0.215187 0.527819,-0.299232 0.119066,-0.362569 -0.166473,-0.02581 -0.593224,-0.100112 -0.948377,-0.165149 -0.884162,-0.161914 -1.318601,-0.148556 -1.855937,0.05707 -0.527849,0.202 -0.486635,0.260642 0.362719,0.515986 0.244171,0.0734 0.480259,0.147204 0.524645,0.164001 0.244996,0.0927 1.411523,-0.04312 1.797884,-0.209337 z m 0.353109,-1.370012 c -0.155032,-1.093611 -2.232109,-3.553687 -3.000408,-3.553687 -0.44597,0 0.184349,2.024933 0.852741,2.739486 0.778884,0.83269 2.228204,1.382138 2.147667,0.814201 z m 7.811391,34.72509 -0.0058,-0.544823 -0.392432,-0.322859 C 36.807233,81.651921 36.062851,80.76578 35.74461,80.222732 l -0.214764,-0.366428 0.236698,-0.190118 c 0.13017,-0.104566 0.734041,-0.537919 1.341938,-0.963008 0.607928,-0.425088 1.138614,-0.815388 1.17937,-0.867334 0.04872,-0.06215 -0.195362,-0.701567 -0.713876,-1.870159 -0.433371,-0.976644 -0.7744,-1.789839 -0.757866,-1.807099 0.01647,-0.01727 0.944198,-0.02413 2.061458,-0.01525 l 2.031347,0.01614 0.271262,-0.262902 0.27123,-0.262903 v -1.134346 c 0,-1.795376 0.09304,-3.434853 0.193867,-3.433666 0.0486,6.1e-4 0.415251,0.157885 0.81476,0.349589 0.39954,0.191701 1.147918,0.539234 1.663046,0.772295 l 0.936602,0.423744 1.000543,-0.660207 c 0.550301,-0.363115 1.014209,-0.673327 1.030896,-0.689355 0.01678,-0.01605 0.132336,-0.639001 0.256984,-1.384378 0.300792,-1.798896 0.393744,-2.202731 0.506953,-2.202731 0.109151,0 0.497465,0.197973 1.911549,0.974505 l 1.010824,0.555101 0.724522,-0.372957 c 0.398503,-0.205124 0.737427,-0.383591 0.753168,-0.39659 0.01586,-0.013 0.205978,-0.743235 0.422694,-1.622741 0.216747,-0.879507 0.430717,-1.682192 0.475501,-1.783741 0.102104,-0.231637 0.110402,-0.227397 1.30173,0.665462 0.50561,0.378933 0.944076,0.689096 0.974399,0.689251 0.121415,6.11e-4 0.324129,-1.091436 0.253049,-1.36324 -0.04143,-0.158364 -1.386782,-1.12567 -2.308466,-1.659782 l -0.386026,-0.223702 -0.45863,0.432966 c -0.50622,0.477898 -0.493285,0.442016 -1.100451,3.056182 -0.307624,1.324443 -0.117692,1.286005 -1.921647,0.388927 l -1.558654,-0.775096 -0.363207,0.206814 c -0.199785,0.113749 -0.493956,0.280239 -0.653748,0.369976 -0.331999,0.186466 -0.398441,0.408826 -0.887853,2.970991 -0.319827,1.674459 -0.256069,1.581497 -0.887547,1.294199 -2.584548,-1.175881 -3.482651,-1.558834 -3.566573,-1.520805 -0.05403,0.0245 -0.385782,0.254913 -0.737274,0.512074 -0.748348,0.54755 -0.67617,0.281115 -0.744413,2.747747 l -0.05189,1.876607 H 38.01891 35.981705 l -0.217722,0.285438 c -0.530717,0.69581 -0.604298,0.903856 -0.43993,1.244052 0.246307,0.509799 1.200541,2.827945 1.241633,3.016363 0.03252,0.149011 -0.137339,0.302503 -1.109694,1.002935 -0.631448,0.454847 -1.303958,0.963349 -1.494438,1.130001 l -0.346337,0.303003 0.381419,0.565 c 0.550362,0.815297 1.924545,2.146624 2.800226,2.712936 0.904692,0.585048 0.861892,0.588529 0.854845,-0.06954 z m 0.155612,-2.152104 c 0.05531,-0.329092 0.185569,-0.873914 0.289473,-1.210715 0.103904,-0.336801 0.178736,-0.612363 0.16629,-0.612363 -0.02715,0 -0.896822,0.517714 -1.430315,0.851419 -0.480106,0.300321 -0.490174,0.249077 0.189322,0.964408 0.700911,0.737878 0.662534,0.737524 0.78523,0.0073 z M 81.00143,80.127038 c 0.534957,-0.372436 0.677573,-0.871899 0.393377,-1.377585 -0.516104,-0.918301 -1.953861,-0.465247 -1.953861,0.615686 0,0.809928 0.876657,1.237957 1.560484,0.761899 z M 34.430342,77.994415 C 34.85148,77.701 35.294674,77.378754 35.415265,77.278309 l 0.219248,-0.182625 -0.353902,-1.02449 c -0.496489,-1.437331 -0.475287,-1.413274 -0.733553,-0.831938 -0.302743,0.681518 -0.482669,1.191551 -0.683278,1.937144 -0.09555,0.355142 -0.224434,0.82178 -0.286423,1.036968 -0.137613,0.47798 -0.152927,0.481909 0.852985,-0.218953 z m 4.723002,-1.200352 c 0.121567,-0.232479 0.431449,-0.735624 0.688617,-1.118095 L 40.30956,74.98056 39.455416,74.9283 c -1.726682,-0.105646 -1.618995,-0.235947 -0.980042,1.185868 0.216228,0.481205 0.393164,0.926141 0.393164,0.988752 0,0.190771 0.05442,0.131747 0.284806,-0.308857 z M 78.74455,76.004446 c 0.438588,-0.223757 0.750209,-0.712213 0.750209,-1.175974 0,-0.863171 -0.965858,-1.398195 -1.723327,-0.954634 -1.299137,0.760706 -0.362292,2.811876 0.973118,2.130608 z m 18.492255,-2.231535 c 1.129279,-0.858024 1.762466,-1.999063 1.761734,-3.174733 0,-0.645356 -0.04701,-0.689245 -0.572907,-0.539493 -0.521046,0.148361 -1.852367,0.398939 -1.894679,0.356611 -0.01647,-0.01653 0.21455,-0.189806 0.513602,-0.385025 1.170676,-0.764266 2.002275,-1.778054 2.310388,-2.816565 0.237216,-0.799513 0.104942,-2.427083 -0.244507,-3.00876 -0.01891,-0.03144 -0.304086,0.118928 -0.633767,0.334143 -0.970311,0.633419 -2.127015,1.062468 -3.158338,1.171475 l -0.474372,0.05014 0.706799,-0.363292 c 3.481246,-1.789269 4.590822,-4.807129 2.573137,-6.998638 l -0.398106,-0.432388 -0.348442,0.403572 c -1.070829,1.240233 -2.361516,2.052083 -3.704277,2.329995 -0.752497,0.155746 -0.766621,0.13653 -0.167357,-0.227513 2.365024,-1.436671 3.57606,-3.134312 3.456353,-4.845158 -0.179986,-2.573028 -2.322224,-3.247496 -5.505364,-1.733332 -0.966986,0.459981 -3.352419,2.007363 -3.352419,2.174644 0,0.121915 2.136929,-0.21444 3.124965,-0.491873 1.043953,-0.29314 1.211462,-0.292875 0.426476,6.1e-4 -0.734406,0.274632 -2.421644,1.061894 -2.420881,1.129572 3.05e-4,0.02678 0.126204,0.134267 0.279772,0.238845 1.003685,0.683483 2.114783,2.857886 2.273689,4.449548 0.05076,0.508285 0.06962,0.544246 0.559515,1.066183 0.855699,0.911712 1.391937,2.177234 1.556976,3.674437 0.06791,0.616021 0.09664,0.689894 0.404177,1.039279 0.678946,0.771319 0.964454,1.694703 1.033367,3.342206 0.03597,0.85997 0.07444,1.123669 0.182458,1.251072 0.43392,0.511863 0.650941,1.21929 0.650941,2.122116 v 0.59498 l 0.302683,-0.183232 c 0.166472,-0.10078 0.507745,-0.339049 0.758384,-0.52949 z M 32.380294,73.014664 c 0.198412,-0.606604 0.01403,-1.144761 -0.755182,-2.204571 -0.326264,-0.4495 -0.709605,-1.053087 -0.851855,-1.341307 l -0.258662,-0.524035 -0.06681,0.833176 c -0.106314,1.326056 0.02685,1.818131 0.986388,3.641975 l 0.444079,0.844223 0.184013,-0.419878 c 0.10122,-0.230932 0.244325,-0.604246 0.318028,-0.829583 z m 56.560042,-0.159136 c 0.64423,-0.241027 1.409661,-0.759785 1.468813,-0.995436 0.246643,-0.982751 -1.315519,-4.761004 -2.192634,-5.30309 -0.805974,-0.498133 -2.533663,0.606735 -2.533663,1.620307 0,0.702347 1.344012,4.140288 1.837786,4.70105 0.173001,0.196478 0.863234,0.185377 1.419698,-0.02282 z m -45.93116,-0.704001 c 0.408418,-0.344269 0.868604,-0.723723 1.022599,-0.843237 0.154026,-0.119512 0.262994,-0.23024 0.242158,-0.246064 -0.08392,-0.06371 -1.868291,-0.867618 -1.925796,-0.867618 -0.03398,0 -0.06806,0.354135 -0.07569,0.786966 -0.0076,0.432828 -0.03484,1.013972 -0.06049,1.291429 -0.05775,0.625042 -0.09515,0.63074 0.797219,-0.121476 z m -3.581063,-1.285672 c 0.0076,-1.051351 -0.04402,-1.559105 -0.158754,-1.559105 -0.03603,0 -0.654816,0.572064 -1.375068,1.271251 l -1.309601,1.271252 1.363872,0.04036 c 0.750148,0.02221 1.388246,0.03092 1.41802,0.01937 0.0299,-0.01153 0.05744,-0.480945 0.06153,-1.043141 z m 37.760284,-0.02511 c 0.533829,-0.32548 0.745999,-1.068193 0.462017,-1.617363 -0.377606,-0.730196 -1.629367,-0.598288 -1.986626,0.209346 -0.440418,0.99564 0.609972,1.965689 1.524609,1.408017 z M 33.057501,69.47875 c 0.503505,-0.995308 0.508081,-1.233775 0.0435,-2.262728 -0.157321,-0.348442 -0.287155,-0.701601 -0.288497,-0.7848 -0.0055,-0.335993 -0.157565,0.123022 -0.284471,0.858396 -0.146277,0.847526 -0.07953,3.237932 0.08514,3.04999 0.01159,-0.01318 0.2115,-0.400553 0.444323,-0.860858 z m 16.84431,-1.915775 c -0.260065,-0.240188 -1.512345,-0.842576 -1.544255,-0.742839 -0.0543,0.169655 -0.368301,1.71667 -0.368301,1.814446 0,0.04903 0.452041,-0.151979 1.004539,-0.446675 0.752649,-0.401462 0.980317,-0.558157 0.908017,-0.624932 z m -4.577152,-0.213556 c 0.244507,-1.107833 0.396032,-1.871718 0.375379,-1.892376 -0.01586,-0.01592 -2.017223,0.984203 -2.783997,1.391269 l -0.351462,0.186573 0.351462,0.18106 c 0.398167,0.205145 2.101085,0.95507 2.176588,0.95853 0.02715,0.0012 0.131604,-0.370031 0.23203,-0.825056 z m -10.256066,-0.0829 c 0.931019,-0.749401 1.124001,-1.022017 1.526774,-2.156918 0.476599,-1.342853 0.485476,-1.394283 0.223519,-1.29469 -1.482754,0.563746 -2.448123,1.888494 -2.605108,3.574871 -0.05531,0.594176 -0.03243,0.590878 0.854815,-0.123263 z m 19.642431,-2.179389 0.224251,-0.118135 -0.58337,-0.494698 C 53.627138,63.85967 53.70499,63.83313 53.45069,64.781443 c -0.323884,1.207869 -0.411773,1.186551 1.260334,0.305687 z m -14.77303,0.06937 c 0.09988,-0.06299 0.381389,-0.223543 0.62553,-0.356788 0.56769,-0.309791 0.60503,-0.532068 0.241823,-1.439103 -0.138407,-0.345648 -0.264916,-0.641726 -0.281115,-0.657946 -0.05006,-0.05006 -0.270834,0.427356 -0.560674,1.212384 -0.152409,0.412844 -0.354085,0.946745 -0.448197,1.186448 l -0.171048,0.435824 0.206039,-0.133145 c 0.11333,-0.07323 0.287765,-0.184681 0.387642,-0.247674 z m 10.95109,-1.257615 c 0.392248,-1.702427 0.43154,-1.570551 -0.330901,-1.110225 -0.325288,0.196387 -0.839257,0.494817 -1.142153,0.663175 -0.640386,0.355955 -0.657104,0.318915 0.397069,0.880031 0.937395,0.498947 0.853503,0.532705 1.075985,-0.432981 z m -6.895198,-0.91889 1.29145,-0.632854 -0.801733,-0.75951 c -0.934162,-0.884989 -0.920769,-0.883778 -1.150512,-0.103984 -0.0971,0.32954 -0.300791,0.954607 -0.452651,1.389036 -0.15189,0.43443 -0.254055,0.77869 -0.227057,0.76502 0.02685,-0.01367 0.630227,-0.309635 1.340503,-0.657708 z M 81.22745,60.65945 c 0.840691,-1.722268 2.007858,-3.108318 3.710868,-4.406757 L 85.84844,55.55879 85.422726,55.325987 c -0.660917,-0.361422 -0.651735,-0.386278 0.143104,-0.387492 1.145661,-0.0018 1.247125,-0.118776 1.942178,-2.240654 1.404445,-4.287346 -0.231481,-8.012551 -3.516939,-8.008515 -1.137393,0.0015 -1.287545,0.213345 -0.979097,1.382121 0.952099,3.607789 0.614365,5.919272 -1.297063,8.877047 -1.254629,1.941446 -1.719452,4.001415 -1.401882,6.212514 0.189108,1.316715 0.19588,1.328521 0.405427,0.70635 0.09869,-0.292988 0.327728,-0.836544 0.508996,-1.207908 z M 55.820931,60.231649 c -0.05061,-0.662998 -0.110951,-1.236094 -0.134105,-1.273549 -0.02319,-0.03745 -0.40317,0.285992 -0.844503,0.718772 -0.441303,0.432776 -0.856218,0.81699 -0.92202,0.853808 -0.221353,0.12387 -0.123337,0.213028 0.909481,0.827408 l 1.029128,0.612162 0.02685,-0.266576 c 0.01495,-0.146616 -0.01434,-0.809028 -0.06501,-1.472025 z m -8.760774,1.186899 c 0.51101,-0.254367 0.929098,-0.492474 0.929098,-0.529127 0,-0.03666 -0.205612,-0.473243 -0.456922,-0.970196 -0.251311,-0.496955 -0.496489,-0.984993 -0.544841,-1.084532 -0.124527,-0.25642 -0.148139,-0.237341 -0.348717,0.281871 -0.347801,0.900202 -0.724675,2.764467 -0.558874,2.764467 0.02807,0 0.469247,-0.208119 0.980256,-0.462483 z m 3.007486,-1.817496 c 0.543804,-0.360578 0.988767,-0.699944 0.988767,-0.75415 0,-0.31552 -1.578208,-2.587238 -1.643339,-2.365473 -0.0183,0.06205 -0.07578,0.457867 -0.127882,0.8796 -0.126845,1.026769 -0.354574,2.414171 -0.462566,2.818436 -0.07248,0.271276 0.04789,0.215349 1.24502,-0.578413 z M 52.90347,57.37865 53.4995,56.828632 52.975952,56.267507 c -0.287948,-0.308616 -0.632363,-0.685423 -0.76537,-0.837347 l -0.241884,-0.276228 -0.04686,0.679798 c -0.02593,0.37389 -0.05159,0.913762 -0.05735,1.199718 -0.0058,0.285956 -0.0302,0.551643 -0.05409,0.590417 -0.0241,0.03877 -0.01983,0.196411 0.0088,0.350309 l 0.0525,0.279815 0.217814,-0.162662 c 0.119798,-0.08946 0.486025,-0.410168 0.813845,-0.712677 z"
         id="path13"
         sodipodi:nodetypes="sssssssssscscscscscsssssscccssssssssssssssssssssscsscssssssssssssccsscsscssssscsscsssssssssscsssscsssssscssscssscsscsssscssssssssssssssssscsssssccscsssssscssssssssscscssscsscssscsscsscssscsssssscssscsssscsssscssccsssscsssssscscscssssssssssssssssssscsscscssscsscssssssssssssssssssssccssssssssssssscccsssssscsssscsscssssscssssssssssssssscsssssscccssssscsscssssscsssssccsscssssssssscssssccsssssssssssccsscsssssscccsssscssssscscsssssscssscssssssscccssssscssccssssssssssssscssscssscssssssssccssssssscsscssssssssssssssssscsccssscsccssssssssssssssssssscsssssssscscsscsssssssscssssssssscssssssssscsssssssscssscssscscscssssscssssccccssssssssscsssccssccscccssc" /><path
         id="path78"
         style="fill:#008000;fill-opacity:1;stroke-width:0.169734;stroke-linecap:round;stroke-linejoin:round;paint-order:markers stroke fill"
         d="m 59.766422,80.246369 c -0.787396,0.297521 -1.584737,0.578431 -2.36713,0.888853 -0.128126,0.207345 0.228095,0.376978 0.316045,0.542965 0.398319,0.403576 0.78044,0.838375 1.2312,1.181243 0.28206,-0.04503 0.211499,-0.465265 0.328552,-0.664022 0.162384,-0.63863 0.436178,-1.250203 0.59484,-1.88501 -0.03124,-0.02383 -0.05323,-0.0828 -0.103507,-0.06403 z m 3.730757,-9.913592 c -1.190902,0.590872 -2.367496,1.242173 -3.416421,2.06179 -0.175167,0.164416 0.106955,0.300877 0.256008,0.2206 1.409692,-0.145726 2.829451,-0.238358 4.235635,-0.383964 0.244446,-0.182616 -0.09439,-0.477907 -0.162324,-0.670093 -0.272237,-0.422106 -0.50744,-0.898619 -0.876291,-1.236774 z m -2.122653,4.959371 c -0.171109,-0.0084 -0.535719,-0.01821 -0.452926,0.255901 0.131208,0.416337 0.222787,0.874647 0.470681,1.236307 0.221292,0.013 0.26696,-0.324998 0.40137,-0.459899 0.145881,-0.302619 0.425714,-0.585369 0.440357,-0.930233 -0.210279,-0.177945 -0.599996,-0.06237 -0.859482,-0.102076 z m -3.901775,-0.326069 c -0.937669,1.164205 -1.743735,2.433752 -2.483266,3.731178 -0.116504,0.117428 -0.10726,0.396767 0.114581,0.301841 1.184129,-0.464646 2.405659,-0.849138 3.560258,-1.385092 0.261713,-0.172296 -0.07294,-0.484189 -0.114063,-0.694895 C 58.223418,76.26 57.959539,75.544303 57.539865,74.946891 l -0.054,0.01544 z m -3.688323,6.785497 c -0.274312,0.188507 -0.222604,0.650176 -0.366959,0.934381 -0.204544,0.866974 -0.551705,1.732453 -0.597495,2.618552 0.560033,-0.162714 1.080774,-0.617839 1.627019,-0.891266 0.366806,-0.262125 0.846699,-0.40004 1.14923,-0.735417 -0.153538,-0.374884 -0.581357,-0.605652 -0.806432,-0.949402 -0.334684,-0.301227 -0.56949,-0.824165 -1.005363,-0.976848 z m -15.56851,-2.857404 c -0.607134,0.296953 -1.197277,0.661393 -1.733424,1.072613 -0.02776,0.275127 0.284013,0.472224 0.420376,0.68646 0.238803,0.215231 0.430717,0.56395 0.754205,0.647534 0.262506,-0.128025 0.181756,-0.52222 0.275654,-0.757945 0.0885,-0.536293 0.306832,-1.05032 0.376172,-1.588251 -0.03237,-0.01986 -0.04231,-0.07738 -0.09298,-0.06041 z m 0.05482,-4.089706 c -0.240389,-0.0098 -0.3363,0.268674 -0.191304,0.446239 0.260492,0.640319 0.507898,1.295721 0.808689,1.914762 0.217936,0.07533 0.26818,-0.296404 0.387368,-0.421019 0.32422,-0.595726 0.74249,-1.137937 1.066466,-1.731335 -0.107107,-0.21886 -0.450881,-0.08519 -0.650575,-0.150093 -0.472968,-0.02804 -0.946669,-0.06049 -1.420644,-0.05855 z m 4.078193,-4.665644 c -0.152684,0.329095 -0.07438,0.742701 -0.128798,1.101491 0.0067,0.489993 -0.113208,1.005326 0.0034,1.483285 0.213879,0.09787 0.393469,-0.214139 0.572724,-0.300047 0.509209,-0.438243 1.081811,-0.833204 1.503986,-1.356181 -0.07919,-0.233455 -0.445238,-0.241518 -0.6298,-0.38451 -0.41879,-0.187067 -0.831264,-0.391858 -1.260182,-0.554343 l -0.05537,0.0093 z m 6.118051,-3.379887 c -0.273031,0.113452 -0.210188,0.51953 -0.305428,0.753537 -0.03606,0.361151 -0.214947,0.731914 -0.152653,1.092589 0.201737,0.153269 0.446824,-0.127684 0.650148,-0.179605 0.432273,-0.251527 0.944259,-0.419763 1.297734,-0.780737 0.05851,-0.267344 -0.337124,-0.320751 -0.495024,-0.449634 -0.325135,-0.150786 -0.643163,-0.359851 -0.994777,-0.43615 z m 5.313633,-2.797042 c -0.281145,0.146 -0.250456,0.559487 -0.372359,0.82088 -0.03981,0.294684 -0.250395,0.618461 -0.149969,0.908701 0.283861,0.13901 0.594689,-0.130091 0.858567,-0.220048 0.295331,-0.169035 0.63395,-0.292432 0.891849,-0.50654 -0.265373,-0.347033 -0.683095,-0.59881 -1.014423,-0.900809 -0.06324,-0.04394 -0.130292,-0.108282 -0.213665,-0.102184 z M 55.63945,58.90231 c -0.653748,0.501019 -1.199504,1.136643 -1.845595,1.651079 -0.03993,0.242747 0.325501,0.360617 0.485597,0.504347 0.518331,0.31389 1.02504,0.679449 1.577843,0.918566 0.193897,-0.156411 0.06446,-0.488563 0.103629,-0.709044 -0.04185,-0.769857 -0.03819,-1.558516 -0.209089,-2.310894 -0.02105,-0.03927 -0.06711,-0.06659 -0.112385,-0.05405 z m -4.535054,3.53865 c -0.663937,0.280749 -1.271499,0.699566 -1.886809,1.076671 -0.133495,0.07209 -0.362353,0.237211 -0.17718,0.383851 0.46943,0.338259 0.990262,0.637528 1.54154,0.816493 0.320498,-0.08242 0.287918,-0.537923 0.388619,-0.790657 0.08618,-0.472313 0.258082,-0.950251 0.251889,-1.429235 -0.02501,-0.03951 -0.07205,-0.06116 -0.118059,-0.05712 z m -5.434773,2.979262 c -1.01003,0.422584 -1.985497,0.940155 -2.937382,1.481354 -0.18383,0.08078 -0.09573,0.305126 0.08758,0.316203 0.750179,0.329738 1.484158,0.717335 2.262128,0.972513 0.243683,-0.168876 0.221536,-0.554084 0.318271,-0.814522 0.127058,-0.631015 0.301737,-1.260635 0.370162,-1.899301 -0.01495,-0.04267 -0.05909,-0.0643 -0.100762,-0.05625 z m -6.392821,3.860445 c -0.439167,0.224275 -0.743985,0.660172 -1.121347,0.973734 -0.513877,0.520622 -1.08776,1.006073 -1.552247,1.560716 0.219888,0.17113 0.598653,0.04583 0.878243,0.102952 0.649172,0.0063 1.314085,0.08089 1.953465,0.02499 0.154392,-0.81318 0.06681,-1.660188 0.0079,-2.481934 -0.0067,-0.08792 -0.06361,-0.192049 -0.166015,-0.180469 z M 34.8027,74.808963 c -0.28746,0.151039 -0.322755,0.557205 -0.466836,0.822575 -0.340968,0.936462 -0.646854,1.897136 -0.857621,2.86749 0.107443,0.245764 0.38328,-0.07643 0.523852,-0.13157 0.571565,-0.403927 1.178455,-0.777875 1.68498,-1.261853 -0.06043,-0.493621 -0.316685,-0.970031 -0.45744,-1.453176 -0.147162,-0.261545 -0.140176,-0.662769 -0.398747,-0.842042 l -0.02074,-0.0018 z M 51.958631,55.095498 c -0.07483,0.141396 -0.04307,0.319778 -0.06791,0.476913 -0.04967,0.654031 -0.05921,1.310214 -0.113575,1.962455 -0.03713,0.236798 -0.02074,0.491296 0.06656,0.714767 0.08828,0.109386 0.200731,-0.03748 0.277973,-0.08671 0.505824,-0.405773 0.981751,-0.848738 1.446574,-1.300102 0.05082,-0.123812 -0.109944,-0.196521 -0.166289,-0.288006 -0.44774,-0.486955 -0.899445,-0.970357 -1.336233,-1.467257 -0.03621,-0.02663 -0.06553,-0.02983 -0.107108,-0.01205 z m -2.481955,1.322081 c -0.171902,0.07767 -0.103995,0.33857 -0.165374,0.488142 -0.17657,1.130048 -0.315129,2.266563 -0.552681,3.383972 0.08932,0.201652 0.338894,-0.01101 0.464061,-0.06846 0.629068,-0.404973 1.285318,-0.786148 1.844009,-1.286728 0.17596,-0.196649 -0.08203,-0.436199 -0.153202,-0.623553 -0.395392,-0.651823 -0.811283,-1.305031 -1.333854,-1.862136 -0.02929,-0.02172 -0.06589,-0.03709 -0.102959,-0.03124 z m -2.614321,2.209303 c -0.214733,0.148867 -0.243836,0.460671 -0.344385,0.688748 -0.237551,0.806196 -0.487367,1.630029 -0.501034,2.476314 0,0.194544 0.220286,0.125161 0.31815,0.04993 0.577879,-0.297347 1.188217,-0.548382 1.724973,-0.916284 0.07755,-0.200563 -0.168089,-0.401621 -0.220102,-0.600927 -0.29832,-0.55114 -0.522693,-1.150099 -0.878975,-1.666304 -0.02624,-0.02401 -0.06278,-0.03897 -0.09863,-0.03148 z m -3.193756,2.209302 c -0.254514,0.0148 -0.237888,0.350205 -0.335508,0.521162 -0.249632,0.739983 -0.518483,1.476937 -0.717994,2.231612 0.08273,0.190688 0.300334,-0.04335 0.431755,-0.0729 0.757682,-0.380757 1.540563,-0.725956 2.277898,-1.139163 0.02624,-0.19325 -0.22904,-0.298875 -0.325226,-0.441211 -0.413664,-0.37343 -0.801826,-0.793085 -1.272048,-1.093526 -0.01922,-0.0048 -0.03914,-0.0064 -0.05888,-0.0059 z m -3.145984,1.802362 c -0.208205,0.113139 -0.233738,0.406898 -0.344598,0.600393 -0.288406,0.726917 -0.571808,1.458532 -0.832789,2.194321 0.0712,0.213022 0.299632,-0.03142 0.41043,-0.07607 0.395178,-0.266493 0.851337,-0.451358 1.211677,-0.764721 0.332822,-0.379696 0.05964,-0.896791 -0.08661,-1.294604 -0.109975,-0.212375 -0.146857,-0.489936 -0.322512,-0.656222 l -0.03243,-0.0034 z m -3.586798,1.076781 c -0.751795,0.217247 -1.390595,0.743128 -1.885254,1.337661 -0.575926,0.765654 -0.88291,1.732234 -0.886754,2.686718 0.02562,0.173807 0.226478,0.161418 0.32361,0.05287 0.79429,-0.572437 1.640258,-1.200838 1.998736,-2.150926 0.223001,-0.589377 0.456617,-1.184788 0.594719,-1.798717 0,-0.07648 -0.06873,-0.136069 -0.145057,-0.12761 z m -4.132707,2.552284 c -0.184807,0.155682 -0.190878,0.44986 -0.255124,0.672009 -0.183617,1.098343 -0.180261,2.227027 -0.04274,3.329732 0.0439,0.180984 0.238589,0.06791 0.269583,-0.06008 0.264764,-0.52871 0.593682,-1.044152 0.728062,-1.625213 0.121353,-0.68876 -0.305459,-1.294125 -0.510308,-1.920701 -0.06403,-0.119255 -0.05985,-0.264861 -0.11992,-0.378997 -0.02349,0.0064 -0.04597,-0.02257 -0.06955,-0.01675 z m -2.307673,2.652762 c -0.09247,0.363012 -0.06614,0.763906 -0.103447,1.142665 -0.07148,0.772951 0.107291,1.546104 0.453658,2.236224 0.322298,0.671512 0.647464,1.352286 1.010305,1.996968 0.186545,0.03229 0.188772,-0.281353 0.280962,-0.408122 0.169584,-0.467404 0.441211,-0.938752 0.402224,-1.450231 -0.107442,-0.790776 -0.686969,-1.395495 -1.080164,-2.057019 -0.317478,-0.466846 -0.596579,-0.970958 -0.876809,-1.456556 -0.02044,-0.03653 -0.05781,-0.0027 -0.08673,-0.0039 z M 26.853636,44.519992 c -0.21394,0.04062 -0.212324,0.304184 -0.190115,0.474085 0.07761,0.748497 0.383066,1.461724 0.778152,2.096048 0.416776,0.590701 1.051031,1.007565 1.720124,1.262353 0.220072,0.05986 0.499447,0.158138 0.705059,0.01348 0.143715,-0.209343 0.0031,-0.475562 -0.0705,-0.687061 -0.455732,-1.01165 -1.177509,-1.887996 -1.996418,-2.628241 -0.276691,-0.222955 -0.574188,-0.501318 -0.946302,-0.530668 z m 0.782148,4.294838 c -0.406007,0.01043 -0.823545,0.115012 -1.166862,0.334568 -0.130933,0.107031 0.02166,0.25498 0.138132,0.286767 0.419948,0.148532 0.843344,0.305981 1.281444,0.388454 0.518758,-0.0069 1.045112,-0.06012 1.543614,-0.208589 0.187919,-0.08483 0.433463,-0.134575 0.547373,-0.319275 0.02379,-0.182293 -0.225868,-0.177699 -0.344689,-0.212241 -0.662046,-0.109978 -1.325312,-0.261603 -1.999012,-0.269684 z" /><path
         id="path81"
         style="fill:#d40000;fill-opacity:1;stroke-width:0.169734;stroke-linecap:round;stroke-linejoin:round;paint-order:markers stroke fill"
         d="m 53.007221,61.084578 c -0.506921,0.36386 -0.985991,0.845614 -1.114514,1.481574 -0.285263,0.974143 -0.438984,1.996595 -0.784345,2.946479 -0.209944,0.163169 -0.448045,-0.128773 -0.655944,-0.162589 -0.84008,-0.370574 -1.648648,-0.84281 -2.489521,-1.187479 -0.437764,0.263653 -0.976748,0.452453 -1.31076,0.857454 -0.388344,1.014102 -0.490083,2.113522 -0.733461,3.167603 -0.09533,0.304147 -0.07593,0.689022 -0.268546,0.948194 -1.366343,-0.460586 -2.625609,-1.207003 -3.995643,-1.654916 -0.492828,0.223006 -0.918084,0.601485 -1.335867,0.94576 -0.238406,0.393591 -0.156771,0.903325 -0.217997,1.345461 -0.04789,0.938267 -0.05985,1.877883 -0.08505,2.816934 -1.332999,0 -2.665999,0 -3.999028,0 -0.287491,0.311215 -0.574737,0.678425 -0.750148,1.077217 -0.100213,0.579664 0.315373,1.093422 0.47974,1.624487 0.27355,0.653931 0.539411,1.31428 0.795053,1.976769 -0.805943,0.767676 -1.773204,1.345668 -2.622344,2.064395 -0.403384,0.16308 -0.363268,0.465878 -0.078,0.730779 0.847097,1.214159 1.964112,2.231682 3.176734,3.072567 0.194203,0.07869 0.416502,0.352378 0.632181,0.24143 0.138284,-0.334983 0.02837,-0.726417 0.06348,-1.07996 -0.414884,-0.375916 -0.855882,-0.746969 -1.205758,-1.202476 -0.322573,-0.387127 -0.620984,-0.796175 -0.864241,-1.238235 0.859574,-0.705142 1.825095,-1.283393 2.683326,-1.983395 0.08218,-0.390851 -0.21275,-0.759818 -0.31821,-1.124105 -0.352377,-0.844183 -0.727909,-1.676758 -1.062257,-2.527146 1.335257,-0.06931 2.684944,0.03817 4.013825,-0.02084 0.214275,-0.27994 0.680532,-0.462001 0.57556,-0.880962 0.01434,-1.393648 -0.02074,-2.799616 0.163087,-4.177526 0.25131,0.04076 0.550667,0.243433 0.814973,0.339659 0.857804,0.370177 1.691966,0.822139 2.568959,1.133254 0.70692,-0.408967 1.41378,-0.845745 2.043397,-1.368427 0.224556,-0.328603 0.144417,-0.783963 0.262567,-1.153854 0.166686,-0.784135 0.219919,-1.609233 0.505458,-2.356614 1.011586,0.415851 1.937785,1.038983 2.918407,1.496936 0.485415,-0.25515 1.030408,-0.461888 1.468844,-0.793594 0.443011,-1.135194 0.591332,-2.36871 1.018358,-3.506525 0.747036,0.42263 1.368783,1.051998 2.137113,1.434976 0.249906,-0.07783 0.211499,-0.450122 0.284165,-0.658721 0.04671,-0.326059 0.186332,-0.758527 -0.173123,-0.96374 -0.785535,-0.606491 -1.599135,-1.196048 -2.478202,-1.658201 -0.02014,-0.0056 -0.04155,-0.0083 -0.06226,-0.0027 z m 13.339513,8.664347 c -0.610887,0.0566 -1.248009,0.07886 -1.829,0.280898 -0.180078,0.244434 0.122635,0.538908 0.196582,0.772417 0.154361,0.249349 0.248412,0.558243 0.457623,0.764196 0.303568,-0.119459 0.502987,-0.451312 0.763174,-0.652271 0.364855,-0.377512 0.793314,-0.714389 1.113325,-1.121384 -0.132397,-0.165579 -0.504177,-0.0071 -0.701704,-0.04386 z m -2.583236,3.188454 c -1.562681,0.127888 -3.129724,0.250545 -4.682093,0.468933 -0.428918,0.141841 -0.752711,0.518026 -1.007468,0.874604 0.189993,0.590642 0.519917,1.157057 0.761893,1.73879 0.264702,0.651155 0.629434,1.278378 0.754113,1.973968 -0.618635,0.301548 -1.312499,0.460815 -1.953923,0.724077 -1.064178,0.410367 -2.163409,0.756573 -3.190644,1.248906 -0.168029,0.248217 -0.369644,0.536049 -0.374983,0.841929 0.717262,1.066702 1.664999,1.95823 2.448276,2.971586 -1.153928,0.84058 -2.419691,1.526387 -3.578897,2.36122 -0.06602,0.284428 0.380931,0.02819 0.524524,0.03728 1.659233,-0.368296 3.365384,-0.783537 4.801281,-1.731005 0.189291,-0.18351 0.550881,-0.342725 0.547312,-0.637778 -0.813784,-0.993362 -1.802948,-1.840596 -2.559868,-2.873792 1.349077,-0.599621 2.767036,-1.061021 4.108119,-1.663794 0.223763,-0.546094 0.549021,-1.068623 0.70509,-1.634523 -0.276081,-0.87212 -0.744717,-1.689226 -0.914606,-2.591023 -0.0067,-0.370218 0.495177,-0.288775 0.744351,-0.335721 0.62614,-0.07048 1.291145,0.02855 1.894375,-0.179154 0.446367,-0.423923 0.843375,-0.925241 1.12873,-1.470717 0.02807,-0.09688 -0.07529,-0.142662 -0.155582,-0.123785 z" /></g></g></svg>
