<?xml version="1.0" encoding="UTF-8" standalone="no"?>
<!-- Created with Inkscape (http://www.inkscape.org/) -->

<svg
   width="15.139515mm"
   height="20.000031mm"
   viewBox="0 0 15.139515 20.000031"
   version="1.1"
   id="svg1"
   xml:space="preserve"
   sodipodi:docname="arm-design.svg"
   inkscape:version="1.4 (86a8ad7, 2024-10-11)"
   xmlns:inkscape="http://www.inkscape.org/namespaces/inkscape"
   xmlns:sodipodi="http://sodipodi.sourceforge.net/DTD/sodipodi-0.dtd"
   xmlns="http://www.w3.org/2000/svg"
   xmlns:svg="http://www.w3.org/2000/svg"><sodipodi:namedview
     id="namedview1"
     pagecolor="#505050"
     bordercolor="#eeeeee"
     borderopacity="1"
     inkscape:showpageshadow="0"
     inkscape:pageopacity="0"
     inkscape:pagecheckerboard="0"
     inkscape:deskcolor="#505050"
     inkscape:document-units="mm"
     showguides="true"
     inkscape:zoom="5.7513468"
     inkscape:cx="335.66051"
     inkscape:cy="441.72262"
     inkscape:window-width="1920"
     inkscape:window-height="1009"
     inkscape:window-x="-8"
     inkscape:window-y="-8"
     inkscape:window-maximized="1"
     inkscape:current-layer="layer1"><inkscape:page
       x="0"
       y="0"
       width="15.139515"
       height="20.000031"
       id="page2"
       margin="0"
       bleed="0" /></sodipodi:namedview><defs
     id="defs1" /><g
     inkscape:label="Calque 1"
     inkscape:groupmode="layer"
     id="layer1"
     transform="translate(-93.92711,-108.21454)"><path
       style="opacity:1;fill:#008000;fill-opacity:1;stroke-width:0.131431;stroke-linecap:round;stroke-linejoin:round;paint-order:markers stroke fill"
       d="m 390.5612,458.18141 c -0.68246,0.0714 -1.28215,0.45576 -1.89332,0.73997 -2.18186,1.10121 -3.91932,2.98041 -5.05291,5.12754 -0.24906,0.50403 -0.60454,1.12664 -0.25258,1.6697 0.28898,0.51268 0.97153,0.60454 1.46948,0.36208 1.62168,-0.54323 3.16638,-1.40508 4.31094,-2.69633 0.71945,-0.78306 1.43718,-1.59327 1.87099,-2.57688 0.23267,-0.54319 0.60369,-1.07511 0.59391,-1.68542 -0.0383,-0.52941 -0.51511,-0.95757 -1.04651,-0.94066 z"
       id="path276"
       transform="scale(0.26458333)" /><path
       style="opacity:1;fill:#d45500;fill-opacity:1;stroke-width:0.371743;stroke-linecap:round;stroke-linejoin:round;paint-order:markers stroke fill"
       d="m 400.9867,411.61627 c -2.18906,-0.11106 -4.17699,0.98231 -6.15032,1.77118 -6.53964,3.02944 -12.29287,7.56905 -17.31537,12.69734 -4.7822,4.85655 -8.81194,10.43245 -11.95175,16.48039 -3.25452,6.2016 -5.69507,12.82515 -7.38279,19.61814 -1.01813,4.43784 -1.80211,8.95006 -2.05091,13.49902 0.0384,1.10274 1.30255,1.4329 2.19679,1.17859 4.37838,-0.79218 8.87633,-0.69529 13.25108,0.0698 4.85238,0.83051 9.63933,2.15063 14.07595,4.25774 0.88872,0.37708 1.83807,1.39261 2.83627,0.70222 2.63897,-1.21304 4.76903,-3.38877 5.98514,-6.02019 0.18664,-0.68465 0.4181,-0.60873 0.69502,-0.0486 0.53648,0.91971 1.99921,0.50459 2.0531,-0.53332 0.38081,-3.02218 0.2925,-6.20362 -0.96318,-9.02993 -0.41711,-0.71159 -0.0534,-0.5714 0.46715,-0.21228 0.74235,0.42433 1.791,1.30595 2.54389,0.41251 0.57343,-0.9048 -0.24138,-1.91036 -0.51747,-2.7862 -0.8486,-1.90617 -2.13356,-3.57345 -3.43749,-5.1862 2.29073,-1.62345 4.65828,-3.17667 6.61276,-5.21749 2.91885,-2.86724 5.26417,-6.38298 6.33814,-10.36163 0.82849,-2.79505 1.34408,-5.68981 1.28501,-8.61319 0.12437,-3.63716 0.0431,-7.29752 -0.6961,-10.8737 -0.68468,-3.42485 -1.39952,-7.05813 -3.60542,-9.87279 -0.97707,-1.2097 -2.45819,-2.12845 -4.06563,-1.9319 l -0.12294,3.3e-4 z m -1.54931,7.22334 c -4.77484,2.9437 -9.27672,7.0215 -11.05244,12.49802 -1.18948,3.68645 -1.28484,7.6718 -0.70031,11.47735 0.008,1.03642 1.34677,1.439 1.97275,0.6379 0.88917,-0.66375 1.87779,-1.30818 3.00018,-1.45807 -0.71655,1.86163 -2.08793,3.39873 -2.82271,5.23851 -0.15185,0.95327 0.96373,1.44807 1.73684,1.0745 0.68768,-0.21592 1.41521,-0.31327 2.13475,-0.24758 -0.97499,1.12217 -2.28785,1.96692 -3.08158,3.22374 0.0516,0.65052 0.21316,1.01553 -0.35947,0.41279 -2.70375,-2.6454 -3.81696,-6.52136 -4.28295,-10.14211 -0.1192,-2.46011 -0.15761,-4.94545 0.12199,-7.39527 0.67079,-3.88947 2.36206,-7.66892 5.2413,-10.42474 2.32075,-2.32229 5.1198,-4.31982 8.36515,-5.06409 -0.0912,0.0563 -0.18234,0.1127 -0.2735,0.16905 z m -23.96685,25.51712 c 4.09799,-0.1753 7.80921,3.18747 8.55293,7.12224 0.21137,1.88098 0.16092,3.89198 -0.89208,5.5393 -1.17386,2.0333 -3.49078,3.4778 -5.88194,3.20868 -1.92175,0.1014 -3.75182,-0.99585 -4.68447,-2.6571 -1.34106,-2.16653 -0.7664,-5.55734 1.7138,-6.62469 1.62763,-0.75292 3.73135,0.37175 3.92251,2.17725 0.10302,0.74425 -0.29548,1.73052 -1.17807,1.68211 0.66304,-0.97289 0.41551,-2.52175 -0.78667,-2.9303 -1.47847,-0.68591 -3.0483,0.59326 -3.37742,2.02741 -0.8233,2.47978 1.23745,5.23202 3.77892,5.41709 2.26072,0.3707 4.60592,-0.83808 5.66401,-2.85905 0.97314,-1.5307 0.83913,-3.45273 0.66725,-5.17857 -0.88432,-3.39075 -4.23439,-6.15247 -7.81838,-5.82914 -3.44617,0.0525 -6.25025,2.84503 -7.31066,5.96617 -1.37834,3.74932 -0.53727,8.20083 2.18077,11.14233 1.52691,1.71288 3.66719,2.77788 5.83755,3.37526 -4.06209,0.0386 -7.57871,-3.08972 -8.95539,-6.76132 -0.84902,-1.92202 -0.63821,-4.1065 -0.56142,-6.10602 0.42747,-2.98259 2.10433,-5.857 4.66727,-7.48219 1.37052,-0.77076 2.86055,-1.34012 4.46149,-1.22946 z m 17.07537,12.78233 c -0.24785,3.08385 -1.77536,6.08349 -4.33362,7.87385 -1.4504,1.09844 -3.22329,1.60154 -4.9774,1.96161 -0.91124,0.34998 -0.73901,1.74243 -0.99174,2.29756 -0.26728,-4.08984 1.73476,-8.27767 5.22186,-10.47949 1.51955,-0.96054 3.26618,-1.68267 5.08618,-1.70108 z"
       id="path275"
       transform="scale(0.26458333)" /><path
       id="path264-1-8"
       style="fill:#000000;stroke-width:0.0817981"
       d="m 106.28395,108.21458 -5.1e-4,5.2e-4 c -0.17704,-0.003 -0.35439,0.0121 -0.52917,0.0398 -0.81639,0.13281 -1.56923,0.50132 -2.29133,0.88935 -0.54291,0.28729 -1.06433,0.61356 -1.56632,0.96739 -0.79892,0.53798 -1.54242,1.15531 -2.232936,1.82624 -0.47679,0.46719 -0.937448,0.95209 -1.365808,1.46399 -0.54693,0.67884 -1.069257,1.37974 -1.519287,2.12752 -0.58202,0.99328 -1.080779,2.03656 -1.475879,3.11816 -0.28636,0.80052 -0.545301,1.6119 -0.745691,2.43861 -0.163,0.67748 -0.310061,1.35942 -0.408761,2.04949 -0.09233,0.58529 -0.148786,1.17514 -0.193786,1.76578 -0.0272,0.43074 -0.04642,0.86582 0.0041,1.29553 0.01022,0.18468 0.114701,0.3878 0.304891,0.4377 0.25289,0.0312 0.509664,0.0254 0.764294,0.0284 0.49386,0.008 0.988144,0.002 1.481564,0.0263 0.65164,0.0513 1.298837,0.11954 1.942517,0.23358 0.6156,0.11939 1.229522,0.26655 1.827802,0.43874 0.56437,0.17041 1.12212,0.3547 1.64951,0.62115 0.14522,0.0654 0.28385,0.14778 0.43408,0.19998 0.0324,0.0504 0.10696,0.0293 0.15606,0.0145 0.25929,-0.0854 0.50624,-0.20757 0.74208,-0.34468 0.49011,-0.29712 0.94058,-0.6856 1.2361,-1.18236 0.0231,0.0603 0.0468,0.12085 0.0785,0.17725 0.0544,0.098 0.16942,0.20393 0.28835,0.15193 0.20945,-0.091 0.36299,-0.27375 0.48886,-0.45888 0.1983,-0.31392 0.33889,-0.66949 0.38189,-1.03973 0.0541,-0.38262 -7.5e-4,-0.76823 -0.0724,-1.14464 0.12853,0.10887 0.23312,0.24947 0.38447,0.32867 0.13732,0.0756 0.2972,-0.0404 0.3359,-0.17622 0.0421,-0.19813 0.0297,-0.40444 0.0186,-0.60565 -0.0305,-0.35598 -0.11765,-0.70529 -0.22686,-1.0449 -0.17778,-0.48808 -0.40845,-0.95738 -0.68626,-1.39629 0.0538,-0.0311 1.58316,-1.51778 2.25878,-2.31717 0.34563,-0.39371 0.79582,-1.43937 1.12855,-2.62053 0.13121,-0.61978 0.18769,-1.2532 0.19069,-1.88619 8e-4,-0.54326 -0.003,-1.08802 -0.0651,-1.62832 -0.0579,-0.54249 -0.1264,-1.08585 -0.25167,-1.61747 -0.0969,-0.4443 -0.22634,-0.88102 -0.39584,-1.30328 -0.223,-0.55407 -0.52228,-1.10521 -1.00304,-1.47691 -0.30137,-0.24422 -0.6838,-0.36823 -1.06712,-0.3974 z m -0.22427,0.92243 c 0.0456,10e-4 0.0913,5.5e-4 0.13694,0.002 0.16307,-0.0107 0.32285,0.0364 0.46612,0.11214 0.35413,0.20721 0.58129,0.56921 0.74569,0.93482 0.16776,0.36554 0.27727,0.75654 0.37207,1.14309 0.15778,0.66558 0.26953,1.3448 0.32763,2.02468 0.037,0.33382 0.0279,0.66939 0.0269,1.00459 0.001,0.43346 0.003,0.86431 -0.0465,1.29449 -0.0599,0.44626 -0.1439,0.88496 -0.26355,1.31878 -0.12757,0.4963 -0.31597,0.97659 -0.56275,1.42576 -0.61967,0.97837 -1.48217,1.85684 -2.47117,2.45773 -0.16649,0.11601 -0.34334,0.22388 -0.48266,0.37259 -0.0525,0.07 0.005,0.14777 0.0548,0.19947 0.24395,0.27449 0.47139,0.56472 0.66301,0.8785 0.20445,0.32353 0.3522,0.67909 0.46715,1.03973 -0.18748,-0.14219 -0.3937,-0.25759 -0.60306,-0.36381 -0.10399,-0.0438 -0.20251,-0.11644 -0.31833,-0.12144 -0.111,-0.004 -0.16029,0.13011 -0.11679,0.21911 0.11987,0.2682 0.23835,0.53656 0.31885,0.81701 0.0998,0.37176 0.14197,0.759 0.13797,1.1436 -0.002,0.28132 -0.0272,0.54831 -0.091,0.82268 -0.0549,-0.0991 -0.11103,-0.19792 -0.17673,-0.29042 -0.0602,-0.0739 -0.12064,-0.19568 -0.23513,-0.17208 -0.10833,0.0172 -0.13552,0.13626 -0.17312,0.22066 -0.19305,0.4362 -0.43965,0.86292 -0.81132,1.1715 -0.20837,0.18754 -0.44538,0.33989 -0.69814,0.46044 -0.0538,0.0177 -0.10815,0.0712 -0.16175,0.0662 -0.19752,-0.11818 -0.40026,-0.22735 -0.6103,-0.32195 -0.7115,-0.32466 -1.45817,-0.56556 -2.210717,-0.77463 -0.56524,-0.13391 -1.134307,-0.25881 -1.711007,-0.33331 -0.29415,-0.0391 -0.589931,-0.0637 -0.884701,-0.0971 -0.49213,-0.0302 -0.987569,-0.0378 -1.478979,0.008 -0.39723,0.035 -0.787713,0.11684 -1.181323,0.16174 -0.011,-0.0986 -0.0061,-0.19804 -0.0021,-0.29714 0.0223,-0.31998 0.05655,-0.65107 0.09405,-0.9741 0.11991,-0.89156 0.290035,-1.77925 0.503845,-2.65461 0.12875,-0.55493 0.322365,-1.09121 0.500745,-1.63143 0.22314,-0.6895 0.480907,-1.36397 0.782897,-2.02313 0.35359,-0.7533 0.718726,-1.50357 1.160136,-2.2102 0.22825,-0.38793 0.47623,-0.75959 0.73949,-1.12397 0.27979,-0.41453 0.598454,-0.80095 0.922424,-1.18132 0.513,-0.58608 1.04148,-1.16087 1.61541,-1.68827 0.68571,-0.63827 1.43472,-1.2049 2.21692,-1.71927 0.68915,-0.45739 1.42361,-0.83896 2.19986,-1.12345 0.27185,-0.0914 0.54619,-0.20289 0.8382,-0.19689 z m 0.0165,1.34255 c -0.0683,-0.002 -0.13642,0.003 -0.20412,0.0119 -0.51779,0.0805 -1.00854,0.29523 -1.44539,0.58084 -0.49219,0.31323 -0.93117,0.70368 -1.32292,1.13481 -0.29237,0.32545 -0.5254,0.70127 -0.7183,1.09296 -0.22884,0.45503 -0.36537,0.94909 -0.45837,1.44797 -0.104,0.47277 -0.0954,0.96037 -0.0904,1.44178 -4.6e-4,0.8992 0.19808,1.79972 0.59014,2.60966 0.13836,0.30018 0.33349,0.57164 0.56586,0.80615 0.1751,0.17297 0.36953,0.34271 0.60565,0.42271 0.0864,0.0243 0.19279,-0.0549 0.15709,-0.14831 -0.0333,-0.15296 -0.12356,-0.28764 -0.16226,-0.43821 0.2363,-0.20941 0.4727,-0.41915 0.69505,-0.64338 0.0819,-0.0854 0.18383,-0.1835 0.17983,-0.31057 -0.005,-0.11175 -0.11452,-0.17259 -0.21342,-0.18759 -0.31842,-0.0569 -0.64169,0.0356 -0.9369,0.15038 0.0286,-0.0507 0.0595,-0.10018 0.0889,-0.15038 0.23108,-0.39716 0.51175,-0.76725 0.69711,-1.18959 0.0424,-0.10713 0.10926,-0.25075 0.0171,-0.35088 -0.14449,-0.1077 -0.34366,-0.0717 -0.50178,-0.0139 -0.29407,0.0947 -0.55005,0.27498 -0.78032,0.47697 -0.0306,-0.18591 -0.0665,-0.37162 -0.0816,-0.55966 -0.0673,-0.56131 -0.0341,-1.128 0.0486,-1.68827 0.0728,-0.41592 0.19217,-0.8404 0.37,-1.23558 0.17263,-0.38275 0.40306,-0.75525 0.68472,-1.07745 0.43104,-0.5054 0.93569,-0.95078 1.48621,-1.33325 0.27286,-0.20202 0.58175,-0.34861 0.85783,-0.54519 0.12,-0.0981 0.0194,-0.31086 -0.12816,-0.30386 z m -6.758758,6.83111 c -0.25608,-0.0106 -0.511146,0.0348 -0.752926,0.11782 -0.39062,0.13259 -0.761376,0.34784 -1.037146,0.65836 -0.2026,0.20004 -0.366548,0.43494 -0.501778,0.68471 -0.19769,0.36847 -0.310552,0.77885 -0.365352,1.19218 -0.10373,0.73052 0.04912,1.49337 0.424263,2.12855 0.25255,0.42229 0.60022,0.79196 1.01906,1.05213 0.40101,0.2388 0.862552,0.39771 1.333252,0.39171 0.16249,-0.011 0.345776,-0.0146 0.476456,-0.12506 0.0903,-0.0669 0.05649,-0.20936 -0.03721,-0.25476 -0.22609,-0.0922 -0.470939,-0.13246 -0.701249,-0.21446 -0.55932,-0.2056 -1.059037,-0.58827 -1.380277,-1.09296 -0.19311,-0.32283 -0.332922,-0.68376 -0.376722,-1.05885 -0.0222,-0.28273 -0.02368,-0.57496 0.02532,-0.85783 0.07162,-0.38837 0.220527,-0.75725 0.458887,-1.07176 0.29189,-0.38964 0.727663,-0.69116 1.219563,-0.74466 0.29499,-0.0461 0.600156,-0.011 0.877466,0.0992 0.467451,0.19203 0.847711,0.58743 1.027321,1.05936 0.0994,0.21156 0.0934,0.44987 0.0884,0.678 0.008,0.1625 -0.006,0.32771 -0.0713,0.47852 -0.142,0.38546 -0.4539,0.7213 -0.85679,0.83199 -0.283644,0.074 -0.60724,0.0533 -0.87126,-0.0925 -0.22449,-0.12019 -0.393252,-0.33801 -0.448552,-0.58704 -0.06588,-0.27834 0.01759,-0.61367 0.268718,-0.7736 0.12839,-0.0895 0.325741,-0.0678 0.427881,0.0512 0.09917,0.12886 0.02392,0.29975 -0.06098,0.41393 -0.09218,0.0864 -0.05924,0.25764 0.05839,0.30334 0.1957,0.0539 0.429067,0.0141 0.574643,-0.13488 0.14583,-0.15394 0.21817,-0.37843 0.18707,-0.58859 -0.051,-0.40881 -0.385394,-0.75826 -0.787034,-0.84026 -0.22634,-0.0574 -0.464091,-0.007 -0.670761,0.093 -0.35056,0.16497 -0.598996,0.50495 -0.687296,0.87798 -0.061,0.296 -0.05694,0.61046 0.03566,0.89969 0.15068,0.47104 0.522753,0.86497 0.988053,1.03508 0.24282,0.11133 0.514287,0.12068 0.776697,0.11368 0.248211,0.0141 0.492531,-0.0558 0.714171,-0.16329 0.48033,-0.20752 0.84658,-0.62837 1.03869,-1.1095 0.16706,-0.39217 0.19975,-0.8293 0.14625,-1.24902 -0.0752,-0.45086 -0.25893,-0.88979 -0.55449,-1.24126 -0.23058,-0.26653 -0.49018,-0.51881 -0.80771,-0.67903 -0.35101,-0.17317 -0.738804,-0.2933 -1.133774,-0.2806 z m 4.472598,3.36465 c -0.0481,0.002 -0.0959,0.006 -0.14366,0.0124 -0.34199,0.0516 -0.67386,0.16689 -0.98341,0.31988 -0.39127,0.18942 -0.726,0.4773 -1.00769,0.80564 -0.49304,0.57915 -0.76908,1.33663 -0.77308,2.09651 0.007,0.15223 -0.0169,0.31157 0.0351,0.45785 0.0375,0.0995 0.13794,0.20994 0.25374,0.17984 0.14576,-0.0528 0.19884,-0.21976 0.22634,-0.35812 0.0226,-0.13678 0.0494,-0.27366 0.0625,-0.41135 0.28556,-0.0302 0.56662,-0.10318 0.83147,-0.21394 0.55931,-0.22371 1.02496,-0.64509 1.34927,-1.14825 0.33525,-0.4995 0.45266,-1.10592 0.49816,-1.69602 -0.068,-0.0146 -0.13432,-0.0394 -0.20412,-0.0444 -0.0481,-0.002 -0.0966,-0.002 -0.14469,0 z m -0.4191,0.79685 c -0.0145,0.0451 -0.0317,0.0889 -0.0506,0.13229 -0.0802,0.16979 -0.15275,0.34414 -0.26665,0.49661 -0.16202,0.19665 -0.329,0.39197 -0.524,0.55708 -0.25896,0.21036 -0.57182,0.34379 -0.88677,0.44648 0.0139,-0.0608 0.0533,-0.14297 0.0837,-0.20877 0.2701,-0.50515 0.67329,-0.95071 1.18184,-1.22267 0.12478,-0.069 0.26629,-0.12958 0.39532,-0.17828 0.0223,-0.008 0.0449,-0.0147 0.0672,-0.0227 z"
       sodipodi:nodetypes="cccccccccccccccccccccccccccccccccccccccccccccccccccccccccccccccccccccccccccccccccccccccccccccccccccccccccccccccccccccccccccccccccccccccccccccccccccccccccccccsccccccccccccsccccccccccccc" /></g></svg>
