<?xml version="1.0" encoding="UTF-8" standalone="no"?>
<svg
   height="210mm"
   version="1.2"
   viewBox="0 0 2970 2100"
   width="297mm"
   id="svg428"
   sodipodi:docname="MicroPami_FrontPanel.svg"
   xml:space="preserve"
   inkscape:version="1.2.2 (b0a8486541, 2022-12-01)"
   xmlns:inkscape="http://www.inkscape.org/namespaces/inkscape"
   xmlns:sodipodi="http://sodipodi.sourceforge.net/DTD/sodipodi-0.dtd"
   xmlns="http://www.w3.org/2000/svg"
   xmlns:svg="http://www.w3.org/2000/svg"
   xmlns:rdf="http://www.w3.org/1999/02/22-rdf-syntax-ns#"
   xmlns:cc="http://creativecommons.org/ns#"
   xmlns:dc="http://purl.org/dc/elements/1.1/"><sodipodi:namedview
     id="namedview430"
     pagecolor="#505050"
     bordercolor="#eeeeee"
     borderopacity="1"
     inkscape:showpageshadow="0"
     inkscape:pageopacity="0"
     inkscape:pagecheckerboard="0"
     inkscape:deskcolor="#505050"
     inkscape:document-units="mm"
     showgrid="false"
     inkscape:zoom="1.1133996"
     inkscape:cx="580.65407"
     inkscape:cy="423.02872"
     inkscape:window-width="1280"
     inkscape:window-height="728"
     inkscape:window-x="0"
     inkscape:window-y="0"
     inkscape:window-maximized="1"
     inkscape:current-layer="Page" /><title
     id="title238">FreeCAD SVG Export</title><desc
     id="desc240">Drawing page: Page exported from FreeCAD document: MicroPami</desc><defs
     id="defs242" /><g
     id="Page"
     inkscape:groupmode="layer"
     inkscape:label="TechDraw"><path
       id="path270-5"
       style="font-style:normal;font-weight:400;font-size:31.75px;font-family:'Sans Serif';fill:#c6d6a0;fill-opacity:0.513293;stroke:#550000;stroke-width:1;stroke-linecap:square;stroke-linejoin:bevel"
       d="m 1633.5024,830.00102 h 2.1445 20.5414 4.532 6.8575 7.5654 56.4307 10.4283 1.4986 v 37.48092 22.52059 h -14.4125 -33.5277 -48.5138 -13.5444 v -5.44153 -12.58838 -5.74642 -5.33301 -29.87414 z m -202.0032,46.40027 c 2.0711,0 4.0931,0.21021 6.0461,0.60978 1.953,0.39957 3.838,0.98772 5.6328,1.74666 3.5894,1.51788 6.8194,3.71434 9.5343,6.42855 2.7148,2.71421 4.9153,5.94533 6.4337,9.5343 0.7592,1.7945 1.3469,3.67985 1.7466,5.63273 0.3998,1.95291 0.6098,3.97503 0.6098,6.04615 0,2.07111 -0.21,4.0931 -0.6098,6.04614 -0.3997,1.95304 -0.9874,3.83799 -1.7466,5.63273 -1.5184,3.58948 -3.7189,6.81947 -6.4337,9.5343 -2.7149,2.71486 -5.9449,4.91535 -9.5343,6.43372 -1.7948,0.75918 -3.6798,1.34695 -5.6328,1.74666 -1.953,0.39971 -3.975,0.60978 -6.0461,0.60978 -2.071,0 -4.0933,-0.21007 -6.0462,-0.60978 -1.9528,-0.39971 -3.8382,-0.98748 -5.6327,-1.74666 -3.589,-1.51837 -6.82,-3.71886 -9.5343,-6.43372 -2.7142,-2.71483 -4.9106,-5.94482 -6.4285,-9.5343 -0.759,-1.79474 -1.3471,-3.67969 -1.7467,-5.63273 -0.3996,-1.95304 -0.6098,-3.97503 -0.6098,-6.04614 0,-2.07112 0.2102,-4.09324 0.6098,-6.04615 0.3996,-1.95288 0.9877,-3.83823 1.7467,-5.63273 1.5179,-3.58897 3.7143,-6.82009 6.4285,-9.5343 2.7143,-2.71421 5.9453,-4.91067 9.5343,-6.42855 1.7945,-0.75894 3.6799,-1.34709 5.6327,-1.74666 1.9529,-0.39957 3.9752,-0.60978 6.0462,-0.60978 z m 268.5004,23.60062 c 4.6863,0 8.8241,1.63732 12.5729,3.8809 h 0.01 c 0.1672,0.10011 0.316,0.2217 0.4806,0.32557 2.1812,1.37618 4.1465,2.91034 5.8033,4.87308 1.4659,1.65087 2.7125,3.48841 3.6949,5.47771 0.2051,0.44123 0.4197,0.84749 0.5994,1.30224 1.1798,2.80327 1.8449,5.8754 1.8449,9.14156 0,3.45174 -0.699,6.74011 -1.9637,9.73068 -1.2652,2.99052 -3.0967,5.68111 -5.3589,7.94266 -2.2622,2.26155 -4.9568,4.09416 -7.9478,5.35885 -2.9911,1.26469 -6.279,1.9637 -9.7307,1.9637 -3.4517,0 -6.7401,-0.69901 -9.7307,-1.9637 -2.9905,-1.26469 -5.6811,-3.0973 -7.9426,-5.35885 -2.2616,-2.26155 -4.0942,-4.95214 -5.3589,-7.94266 -1.2647,-2.99057 -1.9637,-6.27894 -1.9637,-9.73068 0,-3.34266 0.686,-6.493 1.8914,-9.36377 0.1081,-0.2667 0.2292,-0.50794 0.3462,-0.76998 1.1002,-2.38083 2.5639,-4.5484 4.3408,-6.43888 0.7272,-0.80895 1.515,-1.47252 2.341,-2.18074 1.2441,-1.02209 2.5836,-1.93849 4.0152,-2.71302 1.8517,-1.04681 3.7947,-1.73985 5.9015,-2.28926 0.9476,-0.24106 1.9079,-0.44926 2.8938,-0.58395 0.01,-7.4e-4 0.01,-0.004 0.015,-0.005 1.1116,-0.15115 2.0975,-0.6563 3.2505,-0.6563 z m -379.9975,19.00143 c 3.5898,0 7.0078,0.72566 10.1183,2.04122 3.1013,1.31172 5.8942,3.21233 8.2424,5.55521 0.01,0.007 0.014,0.0138 0.021,0.0207 0.011,0.0108 0.015,0.0253 0.026,0.0362 2.3379,2.34588 4.2403,5.13029 5.55,8.22689 1.3156,3.11041 2.0412,6.52853 2.0412,10.11824 v 146.7972 c 0,2.2091 1.7908,4.0049 3.9998,4.0049 h 335.0028 v 129.9973 h -400.0014 v -129.9973 h 4.9971 c 1.1045,0 2.1068,-0.448 2.8319,-1.173 0.7251,-0.7251 1.173,-1.7274 1.173,-2.8319 V 945.00175 c 0,-3.58971 0.7257,-7.00783 2.0412,-10.11824 1.3156,-3.11042 3.2236,-5.91071 5.5759,-8.26306 2.3524,-2.35237 5.1526,-4.26033 8.2631,-5.57589 3.1104,-1.31556 6.5285,-2.04122 10.1182,-2.04122 z m -64.9986,93.99946 c 2.3473,0 4.5811,0.4733 6.6146,1.3332 2.0335,0.86 3.8676,2.1054 5.4053,3.6432 1.5378,1.5378 2.7833,3.3719 3.6432,5.4054 0.8599,2.0334 1.3333,4.2675 1.3333,6.6145 0,2.3472 -0.4734,4.5858 -1.3333,6.6198 -0.8599,2.034 -2.1054,3.8618 -3.6432,5.4002 -1.5377,1.5384 -3.3718,2.7828 -5.4053,3.6432 -2.0335,0.8604 -4.2673,1.3384 -6.6146,1.3384 -2.3472,0 -4.5858,-0.478 -6.6197,-1.3384 -2.034,-0.8604 -3.8618,-2.1048 -5.4002,-3.6432 -1.5384,-1.5384 -2.7828,-3.3662 -3.6432,-5.4002 -0.8604,-2.034 -1.3384,-4.2726 -1.3384,-6.6198 0,-2.347 0.478,-4.5811 1.3384,-6.6145 0.8604,-2.0335 2.1048,-3.8676 3.6432,-5.4054 1.5384,-1.5378 3.3662,-2.7832 5.4002,-3.6432 2.0339,-0.8599 4.2725,-1.3332 6.6197,-1.3332 z m 459.9978,0 c 2.3472,0 4.5857,0.4733 6.6197,1.3332 2.034,0.8599 3.8618,2.1055 5.4002,3.6432 1.5384,1.5378 2.7828,3.3719 3.6432,5.4054 0.8604,2.0335 1.3384,4.2677 1.3384,6.6145 0,2.3472 -0.478,4.5858 -1.3384,6.6198 -0.8604,2.034 -2.1048,3.8618 -3.6432,5.4002 -1.5384,1.5384 -3.3662,2.7828 -5.4002,3.6432 -2.034,0.8604 -4.2725,1.3384 -6.6197,1.3384 -2.3473,0 -4.5858,-0.478 -6.6198,-1.3384 -2.034,-0.8604 -3.8618,-2.1048 -5.4002,-3.6432 -1.5384,-1.5384 -2.7828,-3.3662 -3.6432,-5.4002 -0.8603,-2.034 -1.3384,-4.2726 -1.3384,-6.6198 0,-2.3468 0.4781,-4.581 1.3384,-6.6145 0.8604,-2.0335 2.1048,-3.8676 3.6432,-5.4054 1.5384,-1.5377 3.3662,-2.7833 5.4002,-3.6432 2.034,-0.8599 4.2725,-1.3332 6.6198,-1.3332 z m -470.0075,271.9989 h 115.0008 v 35.0004 c 0.8856,13.7765 8.0857,16.535 30.0085,29.9982 h 189.9984 c 27.0619,-14.3822 29.9981,-23.5202 29.9981,-29.9982 v -35.0004 h 115.0008 c 7.1532,0 10.6804,-1.1278 16.2502,-4.7775 2.4692,-1.618 5.0975,-3.9914 6.9934,-6.2542 3.0957,-3.6947 10.2375,-13.8092 10.2375,-13.8092 l 1.4728,2.8164 c 0.8115,1.5496 3.0067,5.7541 4.8731,9.3431 3.8856,7.4718 3.8641,7.4724 7.5861,-0.1861 8.9873,-18.4926 10.4258,-39.8717 4.2013,-62.3372 -1.127,-4.0677 -3.2056,-9.8547 -4.6199,-12.8571 -1.4145,-3.0024 -5.4332,-7.8228 -5.0639,-7.8228 1.1682,0 20.3847,8.1425 21.3006,8.8925 1.3748,1.1261 1.756,0.1459 1.6278,-4.2272 -0.2386,-8.143 -7.6394,-20.6775 -14.9082,-30.5603 -4.2004,-5.7109 -12.4331,-14.0878 -17.3116,-17.6217 l -2.6407,-1.9172 c -10e-5,-110.9675 0,-265.76303 0,-373.68367 -0.8347,-20.4988 -18.8203,-19.29374 -19.9988,-19.9988 -2.0617,-1.23342 4.3676,-0.7165 -250.5383,-0.7028 h -0.01 c -83.1481,-0.60787 -230.6477,0.2028 -249.4576,0.7028 -18.8099,0.5 -19.4494,15.35309 -19.9934,19.9988 0,4.75043 -1.1403,-6.42672 -1.2353,125.5479 l -0.1809,249.91757 -5.8808,5.1676 c -16.5187,14.5278 -25.6352,28.9596 -26.8149,42.4367 -0.2678,3.0023 -0.2706,5.457 -0.01,5.457 0.2601,0 1.3335,-0.4544 2.3874,-1.0128 2.1092,-1.1175 16.6126,-6.0307 17.8026,-6.0307 0.4101,0 0.024,1.3456 -0.8579,2.9921 -6.8801,12.8478 -11.0251,35.2685 -9.3379,50.5395 1.2819,11.6015 6.5796,27.9365 10.4128,32.117 l 1.3798,1.5089 4.656,-9.1984 c 2.5599,-5.0587 4.9969,-9.3139 5.4157,-9.4568 0.5396,-0.1842 0.3825,-2.0294 6.1469,9.7922 8.5637,13.7112 19.3063,15.2244 26.1095,15.2244 z"
       sodipodi:nodetypes="cccccccccccccccccccccssssssssssssssssssssssssssccscccscsssssssccccccscssssscssssccccssssssssssssssssssssssssssscssssssssssssssccsccccsssccsssssssscccccscczcccssscscccssccs" /><path
       style="font-style:normal;font-weight:400;font-size:31.75px;font-family:'Sans Serif';fill:#c6d6a0;fill-opacity:0.513293;stroke:#550000;stroke-width:1;stroke-linecap:square;stroke-linejoin:bevel"
       d="m 534.03998,916.79381 c -11.046,0 -19.9988,8.9528 -19.9988,19.9988 v 485.00409 c 0,16.5689 13.4292,29.9982 29.9982,29.9982 h 115.0007 v 35.0003 c 0,16.569 30.0034,29.9982 30.0034,29.9982 h 189.9987 c 0,0 29.9982,-13.4292 29.9982,-29.9982 v -35.0003 h 115.00082 c 16.5689,0 29.9982,-13.4293 29.9982,-29.9982 V 936.79261 c 0,-11.046 -8.9528,-19.9988 -19.9989,-19.9988 z"
       id="path270-5-3-6" /><path
       id="path270-5-3"
       style="font-style:normal;font-weight:400;font-size:31.75px;font-family:'Sans Serif';fill:#c6d6a0;fill-opacity:0.513293;stroke:#550000;stroke-width:1;stroke-linecap:square;stroke-linejoin:bevel"
       d="m 1876.135,1324.3272 c -11.046,0 -19.9988,8.9528 -19.9988,19.9988 v 485.004 c 0,16.569 13.4292,29.9982 29.9982,29.9982 h 115.0007 v 35.0004 c 0,16.569 30.0034,29.9982 30.0034,29.9982 h 189.9987 c 0,0 29.9982,-13.4292 29.9982,-29.9982 v -35.0004 h 115.0007 c 16.569,0 29.9982,-13.4292 29.9982,-29.9982 v -485.004 c 0,-11.046 -8.9528,-19.9988 -19.9988,-19.9988 z m 398.5028,80.0003 h 109.9985 v 60.0015 h -109.9985 z m -202.0032,46.4003 c 16.5685,0 30.0034,13.4292 30.0034,29.9982 0,16.569 -13.4349,30.0033 -30.0034,30.0033 -16.5683,0 -29.9981,-13.4343 -29.9981,-30.0033 0,-16.569 13.4298,-29.9982 29.9981,-29.9982 z m 268.5004,23.6006 c 13.807,0 25.0011,11.1941 25.0011,25.0011 0,13.807 -11.1941,24.9959 -25.0011,24.9959 -13.8068,0 -24.9958,-11.1889 -24.9958,-24.9959 0,-13.807 11.189,-25.0011 24.9958,-25.0011 z m -379.9974,19.0015 c 14.359,0 25.9984,11.6394 25.9984,25.9984 v 146.7972 c 0,2.2091 1.7907,4.0049 3.9997,4.0049 h 335.0028 v 129.9973 h -400.0014 v -129.9973 h 4.9971 c 2.209,0 4.005,-1.7958 4.005,-4.0049 v -146.7972 c 0,-14.359 11.6394,-25.9984 25.9984,-25.9984 z m -64.9987,93.9994 c 9.389,0 16.9964,7.6076 16.9964,16.9964 0,9.3888 -7.6074,17.0015 -16.9964,17.0015 -9.3888,0 -17.0015,-7.6127 -17.0015,-17.0015 0,-9.3888 7.6127,-16.9964 17.0015,-16.9964 z m 459.9978,0 c 9.389,0 17.0016,7.6076 17.0016,16.9964 0,9.3888 -7.6126,17.0015 -17.0016,17.0015 -9.389,0 -17.0015,-7.6127 -17.0015,-17.0015 0,-9.3888 7.6125,-16.9964 17.0015,-16.9964 z" /><g
       id="Default_Template_A4_Landscape.svg"
       style="stroke: none;"
       transform="scale(10.000000, 10.000000)"><metadata
         id="metadata8"><rdf:RDF><cc:Work
             rdf:about=""><dc:format>image/svg+xml</dc:format><dc:type
               rdf:resource="http://purl.org/dc/dcmitype/StillImage" /></cc:Work></rdf:RDF></metadata></g><path
       style="display:inline;fill:#000000;stroke-width:0.6959"
       d="m 1875.5439,1361.5141 c -8.7055,-1.9982 -12.7561,-5.294 -14.7875,-12.0319 -1.1938,-3.9594 -1.3943,-53.9363 -1.4288,-66.2923 -0.028,-10.1842 -0.2619,-14.2993 -0.8015,-14.1151 -0.4188,0.1429 -2.8559,4.3991 -5.4157,9.4578 l -4.6547,9.1979 -1.3817,-1.5069 c -3.8332,-4.1805 -9.1277,-20.5157 -10.4096,-32.1172 -1.6871,-15.2717 2.4537,-37.6909 9.3345,-50.5387 0.8818,-1.6465 1.2678,-2.9936 0.8577,-2.9936 -1.19,0 -15.69,4.9111 -17.7992,6.0286 -1.0538,0.5584 -2.1288,1.0151 -2.3889,1.0151 -0.2599,0 -0.2577,-2.4565 0.01,-5.4588 1.1796,-13.4771 10.2981,-27.9054 26.8168,-42.4332 l 5.8797,-5.1712 0.1803,-249.91579 c 0.095,-131.97553 0.2459,-139.64765 1.3975,-141.80672 0.6697,-1.25547 1.9372,-2.76561 2.8167,-3.35596 1.4254,-0.95691 30.3563,-1.07496 266.4719,-1.08752 254.9079,-0.0137 264.9535,0.0343 267.0152,1.26772 1.1785,0.70506 2.7593,2.36384 3.5131,3.68617 3.0621,5.37149 3.0921,5.81009 3.1253,147.22506 l 0.051,244.57454 2.6401,1.9126 c 4.8786,3.5339 13.1092,11.915 17.3096,17.6259 7.2688,9.8828 11.5025,20.0481 11.741,28.1911 0.1283,4.3731 -0.2491,5.3556 -1.6239,4.2295 -0.9159,-0.75 -16.9688,-6.5271 -18.137,-6.5271 -0.3693,0 0.4857,2.4565 1.9003,5.4589 1.4143,3.0024 3.4937,8.7871 4.6207,12.8548 6.2244,22.4662 4.7823,43.8437 -4.205,62.337 -3.722,7.6585 -3.7014,7.658 -7.587,0.1862 -1.8665,-3.589 -4.0575,-7.7935 -4.869,-9.3431 l -1.4754,-2.8175 -0.4575,12.7255 c -0.6691,18.6134 -1.8226,70.8587 -6.4852,75.0527 -2.5988,2.3378 -5.4014,3.2706 -12.7707,4.2509 -4.9762,0.662 -506.1304,0.893 -508.9986,0.2346 z m 506.4042,-15.6618 c 2.9922,-0.9234 5.3263,-3.0672 6.4998,-5.9705 0.5616,-1.3899 1.0675,-55.0304 1.3854,-64.6443 0.4172,-12.6216 0.7274,-15.7306 1.8627,-18.6659 0.7691,-1.9884 1.522,-6.0518 1.7295,-9.3328 0.2021,-3.196 0.5612,-5.8111 0.798,-5.8111 0.9584,0 7.5441,6.4543 10.1776,9.9748 1.5473,2.0682 3.7337,5.6159 4.8589,7.8834 1.1852,2.3885 2.2472,3.7892 2.5244,3.3298 0.2632,-0.4363 0.8123,-4.035 1.2203,-7.9971 1.3723,-13.3307 -1.0813,-30.4346 -6.2096,-43.2844 -4.2738,-10.7084 -13.013,-22.6767 -20.8189,-28.5118 -2.614,-1.9539 -4.7528,-3.7165 -4.7528,-3.9168 0,-1.3956 15.6825,2.654 22.345,5.77 6.1285,2.8664 16.2725,6.8195 16.9263,6.5963 1.3118,-0.448 -8.7734,-15.004 -13.3182,-19.2224 -4.7576,-4.4157 -11.4281,-7.9489 -18.6101,-9.8574 -4.7415,-1.26 -5.2691,-2.1725 -1.4989,-2.5935 0.01,-7.2804 -0.3851,-10.3097 1.3813,-19.8802 0.9406,-5.1433 1.0978,-40.5223 1.1342,-91.9939 0.024,-32.8573 0.01,-144.47048 -0.033,-145.23076 -0.062,-1.13901 -0.6506,-0.81071 -3.3417,1.86606 -12.6543,12.58655 -35.0356,12.03408 -59.6502,-1.47249 -4.5699,-2.50753 -5.0331,-2.61745 -8.938,-2.12004 -14.1675,1.80459 -28.2704,-0.85507 -38.7318,-7.30457 -4.8763,-3.00629 -12.4096,-11.20943 -15.5099,-16.88899 -9.5962,-17.57989 -10.2624,-40.31951 -1.7743,-60.56758 5.3887,-12.85452 14.6264,-26.69864 25.4959,-38.2096 3.3658,-3.56438 6.1195,-6.91807 6.1195,-6.91807 l -324.5148,-0.23285 c 0,0 1.6317,2.04907 3.626,4.10818 6.4778,6.68843 12.2693,14.05172 17.8127,22.6472 12.038,18.66567 16.2955,32.69061 15.4906,51.02836 -0.7358,16.75716 -5.4312,28.4366 -15.667,38.9704 -5.9328,6.10531 -11.8676,9.49018 -20.9184,11.93061 -6.3028,1.69933 -17.9708,2.45763 -24.0638,1.56393 -4.0733,-0.59751 -4.2158,-0.55924 -11.3442,3.04903 -3.9706,2.00975 -9.8926,4.48951 -13.1605,5.51063 -20.6659,6.45789 -33.7132,4.96125 -44.0043,-5.0467 l -3.8815,-3.77448 -0.3107,3.38251 c -0.1709,1.86044 -0.1844,113.16392 -0.03,144.54272 0.7137,64.0452 1.9605,95.6797 5.6966,110.8103 0.9029,0.59 1.3662,0.7973 2.7273,1.042 0.6297,0.3987 -0.1804,0.7457 -2.4391,1.0451 -12.768,1.692 -21.7199,7.0536 -29.3271,17.5652 -4.1032,5.6691 -7.7705,12.252 -7.1693,12.868 0.1778,0.1822 1.5135,-0.2875 2.9683,-1.0438 11.837,-6.1542 38.0528,-14.8509 38.0528,-12.6235 0,0.2109 -1.4258,1.2394 -3.1682,2.2855 -4.2817,2.5707 -12.8449,11.0084 -16.4314,16.1902 -9.1158,13.1715 -14.1695,30.4175 -14.2365,48.5829 -0.032,8.3346 1.2248,18.6877 2.2664,18.6877 0.2882,0 0.8878,-1.1295 1.3325,-2.51 1.757,-5.4542 12.5176,-19.3255 14.9915,-19.3255 0.3447,0 0.7824,2.298 0.973,5.1067 0.1902,2.8087 0.9802,7.0085 1.7554,9.3328 1.134,3.401 1.5369,7.2015 2.063,19.4621 0.7388,17.2166 1.1284,65.9127 5.9853,68.5933 2.6705,1.4738 3.666,1.5289 34.3766,1.8977 59.9803,0.7203 466.6518,0.1377 469.2774,-0.6724 z M 1913.3582,901.44433 c 3.025,-0.75085 7.3458,-2.14141 9.6012,-3.09011 4.0616,-1.70845 5.7053,-3.28288 3.4269,-3.28288 -1.8438,0 -13.1998,-5.73272 -18.8873,-9.53474 -13.8047,-9.22813 -27.6439,-28.41256 -33.0091,-45.75848 -0.8388,-2.71184 -1.7223,-5.15669 -1.9633,-5.43296 -0.721,-0.82615 -0.1061,39.02289 0.6457,41.8594 0.3813,1.43918 1.8729,5.24279 3.3145,8.45248 4.3512,9.68924 10.4964,15.34956 18.9955,17.49707 3.9501,0.99799 12.3372,0.66504 17.8759,-0.70978 z m 455.9211,-0.11258 c 2.7064,0 6.0512,-2.43899 7.7008,-3.60182 3.6452,-2.56943 7.6322,-8.71134 10.3469,-15.9399 l 2.0225,-5.38457 0.3545,-21.37188 c 0.1949,-11.75459 0.1773,-21.19031 -0.039,-20.96834 -0.2166,0.22196 -1.3809,3.34151 -2.5875,6.9323 -3.1913,9.49846 -4.6313,12.54499 -9.607,20.3249 -9.3703,14.65179 -22.4571,25.95182 -36.7687,31.74844 -2.8592,1.15811 -5.444,2.34931 -5.7439,2.64703 -0.6826,0.67745 8.6018,4.71512 13.8289,6.01395 6.1169,1.51988 14.7143,-0.40011 20.493,-0.40011 z m -399.5434,-13.37533 c 3.067,-1.0768 4.8127,-2.07037 4.8127,-2.73915 0,-1.27982 -6.5355,-5.38412 -10.3129,-6.47643 -4.7644,-1.37772 -11.7457,-0.82525 -19.9386,1.57784 -4.1595,1.22003 -9.4964,2.38764 -11.8598,2.5947 -2.3634,0.20713 -4.2972,0.62404 -4.2972,0.92664 0,0.7939 10.0092,4.09114 15.9213,5.24469 7.7137,1.50519 19.6705,0.97973 25.6745,-1.12829 z m 347.7466,1.13385 c 3.2338,-0.57774 8.4566,-1.89877 11.6061,-2.93571 5.2792,-1.73804 5.5655,-1.92584 3.6641,-2.40422 -1.1346,-0.28541 -6.0848,-1.53487 -11.0007,-2.77658 -16.0669,-4.05851 -19.6425,-4.24586 -26.1867,-1.37201 -3.9864,1.75067 -9.4153,5.70779 -8.7177,6.35458 0.741,0.68688 6.9182,2.68887 10.5486,3.41857 4.8619,0.97722 13.7264,0.85164 20.0863,-0.28463 z m -330.218,-15.15012 c 5.6911,-11.59045 7.5337,-24.02538 5.174,-34.91555 -1.2835,-5.92274 -5.9308,-16.13182 -8.9559,-19.67331 l -1.8049,-2.11312 0.3892,3.16968 c 0.214,1.74337 0.5839,6.81485 0.8219,11.26998 0.4026,7.53055 0.2797,8.74411 -1.7471,17.25357 -1.1992,5.03421 -2.3584,10.89815 -2.576,13.03083 -0.4575,4.48783 0.6565,12.82621 2.2635,16.94071 1.0841,2.77604 1.1432,2.81383 2.476,1.58203 0.7509,-0.69411 2.5326,-3.63925 3.9593,-6.54482 z m 294.3839,3.11408 c -7.0296,0 1.6113,-16.24532 -0.8786,-27.56329 -2.2443,-10.20117 -2.2699,-10.97599 -0.9197,-28.02653 l 0.3903,-4.93054 -1.7977,2.11305 c -2.7006,3.17429 -8.3878,15.62666 -9.3295,20.42683 -1.0124,5.16193 -0.9971,15.65381 0.03,20.42682 1.9386,9.00959 8.5522,22.67025 10.6353,21.96763 0.397,-0.13388 4.1961,-4.41397 1.8698,-4.41397 z m -340.7888,1.34584 c 13.5471,-3.56219 18.757,-3.90913 25.0875,-1.67058 2.0758,0.73405 3.8942,1.21152 4.041,1.06113 0.1467,-0.15039 -1.5289,-2.82845 -3.7234,-5.95134 -7.5157,-10.6937 -13.5763,-15.12768 -23.6864,-17.32858 -6.2019,-1.3501 -12.2565,-1.23509 -21.6572,0.41144 -8.4197,1.47463 -17.7864,1.77349 -23.0324,0.7348 -1.7017,-0.33689 -3.1804,-0.52493 -3.2863,-0.4179 -0.1058,0.1071 1.9394,3.01153 4.5448,6.45436 7.4205,9.80556 14.4387,15.98685 20.6666,18.2022 3.6215,1.28819 12.9913,0.62238 21.0458,-1.49553 z m 408.4332,-2.37457 c 4.2716,-3.01093 10.7199,-9.63234 14.9649,-15.36682 4.6783,-6.31966 4.6868,-6.4511 0.3318,-5.2431 -4.5277,1.25609 -17.9132,0.84061 -24.9616,-0.77473 -12.3615,-2.83301 -26.8369,-0.20827 -35.2932,6.3996 -1.9925,1.55708 -13.3777,16.45161 -12.9277,16.91265 0.084,0.086 2.1504,-0.49268 4.5921,-1.28605 5.9214,-1.92402 14.3555,-1.49288 23.0028,1.17591 4.0499,1.24983 8.6819,2.07188 13.4068,2.37919 8.2509,0.53665 11.2135,-0.19975 16.8841,-4.19665 z m -374.6742,-11.41876 c 0.063,-6.48221 0.3613,-8.11398 2.9221,-15.98189 3.0695,-9.43146 3.6334,-15.57213 2.207,-24.03747 -0.3546,-2.10505 -0.8514,-5.88759 -1.1034,-8.4057 l -0.4585,-4.57843 -6.007,-5.99492 c -5.7286,-5.71696 -15.5404,-13.22275 -16.2863,-12.45859 -0.1934,0.19808 0.4138,2.84633 1.3492,5.88494 0.9353,3.03862 2.2416,8.84787 2.903,12.90928 1.0488,6.44007 1.1013,8.55715 0.4113,16.55278 -1.7499,20.27544 -0.7041,24.31708 9.8356,38.01166 2.2514,2.92528 4.1077,5.31848 4.1252,5.31817 0.018,-3.1e-4 0.063,-3.24917 0.1018,-7.21983 z m 319.3387,-1.83129 c 7.867,-10.81183 9.0556,-16.04085 7.5108,-33.03815 -1.037,-11.40803 -0.4597,-17.42496 2.7709,-28.87893 1.1487,-4.07297 1.951,-7.54645 1.7826,-7.71882 -0.7363,-0.75443 -10.9343,6.99442 -16.7063,12.69416 l -6.3107,6.23165 -0.2869,5.75609 c -0.1578,3.16587 -0.6979,8.61891 -1.2005,12.11787 l -0.9132,6.3618 2.812,9.48661 c 4.013,13.53753 4.513,16.22265 3.9496,21.19647 -0.3675,3.24361 -0.2873,4.19208 0.3222,3.80627 0.4463,-0.28258 3.2677,-3.88934 6.2695,-8.01502 z m -374.4112,-11.81902 c 8.7024,-1.62188 19.916,-1.48063 26.7889,0.33743 3.0116,0.79664 5.5788,1.34264 5.7051,1.21333 0.5278,-0.54075 -8.3991,-11.07829 -14.368,-16.96026 -10.9731,-10.81335 -17.224,-13.2712 -32.9081,-12.93978 -15.5661,0.32898 -20.2215,0.10581 -23.0501,-1.10493 -1.4297,-0.61204 -2.7026,-1.00735 -2.8283,-0.87842 -0.8413,0.8616 4.7921,17.65041 7.8451,23.38055 3.1673,5.94496 10.8705,9.01621 21.1273,8.42328 3.0252,-0.17488 8.2848,-0.83696 11.6881,-1.4712 z m 395.7519,0.32435 c 7.7502,-2.05387 18.5737,-2.00975 29.8303,0.1217 16.609,3.14504 27.1346,-0.016 31.2754,-9.39122 1.7345,-3.92722 6.8825,-19.62311 6.8825,-20.98408 0,-0.30624 -1.3149,-0.0632 -2.9221,0.53931 -3.0747,1.15355 -8.1446,1.35558 -23.5479,0.93866 -15.4998,-0.41959 -22.7028,2.66711 -34.2691,14.68558 -6.4949,6.74875 -14.0495,15.61829 -13.3027,15.61829 0.1577,0 2.882,-0.68771 6.0536,-1.52824 z m -360.194,-8.39011 c -0.1846,-1.96836 0.2304,-8.91907 0.9221,-15.44586 1.2574,-11.86367 1.2573,-11.86937 -0.2282,-20.54579 -0.8173,-4.77339 -2.1922,-10.54986 -3.0556,-12.83671 l -1.5697,-4.15778 -6.8754,-3.34525 c -6.8013,-3.30925 -20.0536,-8.17833 -20.6358,-7.58189 -0.1657,0.16978 0.2747,1.87464 0.9787,3.78855 1.3902,3.7792 1.8778,7.11661 2.4635,16.86297 0.4979,8.28194 1.3997,12.26933 4.1921,18.53483 1.9815,4.44653 3.7819,6.73239 13.149,16.69677 5.9692,6.34978 10.8849,11.55941 10.9239,11.57705 0.04,0.0175 -0.081,-1.57844 -0.2646,-3.54689 z m 46.4122,-2.23209 c -0.7023,-10.63406 -6.5069,-26.50764 -13.618,-37.2402 -2.5197,-3.80301 -5.0869,-5.49251 -6.3617,-4.18646 -0.7345,0.75229 -0.6146,0.95303 5.5048,9.22737 8.0701,10.91223 12.5957,21.89475 13.7035,33.25585 0.6547,6.71376 1.2323,5.9226 0.7714,-1.05656 z m 327.5635,-19.33802 c 3.5125,-6.14721 5.2763,-13.25833 6.0472,-24.37846 0.491,-7.0817 1.142,-11.4679 2.0762,-13.9866 0.7484,-2.01819 1.2118,-3.82203 1.0299,-4.00854 -0.5585,-0.57225 -15.4551,4.73086 -21.4894,7.65005 -5.4008,2.61273 -5.782,2.94901 -7.3521,6.48503 -2.1723,4.89228 -4.4838,16.75466 -4.4838,23.00997 0,2.7345 0.4916,8.54862 1.0924,12.92022 0.7005,5.09416 0.9296,9.68422 0.6385,12.7824 l -0.4546,4.83393 10.5342,-11.05477 c 5.7938,-6.08011 11.3565,-12.49411 12.3615,-14.25323 z m -65.3723,8.13384 c 2.3869,-7.67773 6.3199,-15.16608 12.1063,-23.04996 4.1506,-5.655 12.4541,-14.87583 13.3959,-14.87583 0.3055,0 3.266,-2.06785 6.5796,-4.5953 3.52,-2.68484 10.0261,-6.5754 15.6499,-9.35828 5.2939,-2.61965 10.7084,-5.31221 12.0319,-5.98345 l 2.4063,-1.22041 -22.833,0.0263 c -22.065,21.42084 -40.1929,45.44891 -42.5054,69.34099 l -0.2601,6.37907 0.657,-4.93062 c 0.3614,-2.71184 1.6085,-7.99144 2.7716,-11.73246 z m 91.0463,-10.74427 c 4.1596,-0.0213 10.5099,0.23671 14.1121,0.57323 5.3258,0.49755 7.268,0.3979 10.395,-0.53345 2.115,-0.6299 4.1833,-1.56225 4.5961,-2.0719 1.5544,-1.91876 3.0112,-13.83081 3.4501,-28.21152 0.2466,-8.07633 0.261,-14.80218 0.033,-14.94625 -0.2287,-0.14415 -1.5591,1.43856 -2.9564,3.51707 -3.4352,5.10998 -15.917,17.61512 -27.2567,27.30779 -11.9575,10.22071 -17.842,15.54809 -17.842,16.15258 0,0.26448 1.779,-0.0213 3.9533,-0.63409 2.4365,-0.6871 6.8552,-1.12965 11.5162,-1.15346 z m -436.299,-2.06475 c -2.1129,-2.04116 -7.5272,-6.84543 -12.0319,-10.67612 -9.291,-7.90108 -28.2476,-27.015 -30.2141,-30.46513 -0.7178,-1.25906 -1.5367,-2.28922 -1.8201,-2.28922 -0.6575,0 -0.027,20.992 0.8683,28.87931 1.2964,11.43078 2.0003,14.04821 4.0725,15.14608 3.1115,1.64843 9.5395,2.36536 15.4656,1.72488 7.7894,-0.84191 17.232,-0.68627 21.6572,0.35682 5.9582,1.40457 6.0711,1.25388 2.0025,-2.67662 z m 6.5559,-5.23548 c -1.1469,-4.05676 -1.7648,-8.43415 -2.0377,-14.43654 -0.4613,-10.14138 -1.4931,-16.33188 -3.0166,-18.09791 -1.4179,-1.64364 -8.0313,-3.25236 -20.2187,-4.91806 -15.3763,-2.10156 -20.4122,-2.46014 -20.4122,-1.45339 0,2.75131 12.6779,16.08854 25.9498,27.29955 4.0139,3.39058 10.3774,8.7906 14.1411,12.00006 3.7637,3.20939 6.9325,5.74377 7.0417,5.63187 0.1092,-0.11188 -0.5422,-2.82342 -1.4474,-6.02558 z m 426.3048,-7.14985 c 7.9414,-6.77918 17.0959,-15.03206 20.3433,-18.33964 6.071,-6.18335 11.9174,-13.34773 11.3589,-13.91982 -0.9212,-0.94375 -26.4428,2.25756 -35.9718,4.51217 -4.7608,1.12639 -5.0007,1.28279 -6.0372,3.93697 -0.6609,1.69223 -1.4445,7.72147 -2.0206,15.54998 -0.6987,9.48835 -1.3136,13.78518 -2.3849,16.66011 -1.6711,4.48509 -1.7671,5.21822 -0.5852,4.46987 0.4724,-0.29908 7.3563,-6.09046 15.2975,-12.86964 z m -381.9653,-20.21231 c -1.2406,-2.5038 -4.0863,-6.5994 -6.3241,-9.10134 l -4.0687,-4.54898 -22.5094,0.27794 c 0,0 18.4487,8.35308 27.0986,14.24728 4.1584,2.86421 7.673,4.8633 7.81,4.4425 0.1369,-0.4208 -0.7661,-2.81362 -2.0064,-5.3174 z"
       id="path602-3-5"
       sodipodi:nodetypes="csssscsssssscscssssssscsssssssssscsssccsssssssssssssssssccscsssssssccssssssssscscccssscsssssssssssssssssssssssssscsssssssssssssssssssssssssssscsssssssssscssssssssscssssssssssssssssscssscsssssssccsssscsscssscsssssscssssssscsssssssscssssssssssssssssssssssscsscsssssccccsscsssssssssccssssssssssssssssssssssssssssscccsss" /><path
       d="m 1520.0424,1087.9453 c 0.4717,-0.5536 1.9744,-2.4655 3.339,-4.2488 3.0133,-3.9373 12.0835,-13.2166 17.0432,-17.4357 10.8671,-9.2447 29.7692,-19.9422 44.0437,-24.9259 6.3487,-2.2166 23.3077,-5.4268 23.3077,-5.4268 l 33.8826,17.741 c 0,0 10.4417,5.3752 0.5777,2.6975 -17.284,-4.6921 -31.6678,-4.8114 -53.6464,-0.4449 -11.3136,2.2478 -26.4383,6.9085 -32.7768,10.1005 -8.1051,4.0815 -19.5466,11.1453 -27.8756,17.2098 -7.9575,5.7942 -9.678,6.8258 -7.8951,4.7333 z"
       style="fill:#000000;stroke-width:0.70905"
       id="path735"
       sodipodi:nodetypes="ssssccsssss" /><path
       d="m 1449.7248,1087.7395 c -0.4717,-0.5536 -1.9744,-2.4655 -3.339,-4.2488 -3.0133,-3.9373 -12.0835,-13.2166 -17.0432,-17.4357 -10.8671,-9.2447 -29.7692,-19.9422 -44.0437,-24.9259 -6.3487,-2.2166 -23.3077,-5.4268 -23.3077,-5.4268 l -33.8826,17.741 c 0,0 -10.4417,5.3752 -0.5777,2.6975 17.284,-4.6921 31.6678,-4.8114 53.6464,-0.4449 11.3136,2.2478 26.4383,6.9085 32.7769,10.1005 8.1051,4.0815 19.5465,11.1453 27.8756,17.2098 7.9575,5.7942 9.678,6.8258 7.895,4.7333 z"
       style="fill:#000000;stroke-width:0.70905"
       id="path735-6"
       sodipodi:nodetypes="ssssccsssss" /><path
       d="m 1473.8756,1306.6687 c -15.8195,-6.2089 -30.2577,-15.284 -40.0614,-25.1801 -11.8853,-11.9975 -13.328,-18.5033 -6.1866,-27.8979 4.848,-6.3777 19.4568,-14.3556 32.067,-17.5119 9.1585,-2.2924 25.0969,-3.1309 35.4524,-1.8652 21.8014,2.6646 40.3141,12.3888 46.595,24.4747 1.7872,3.439 1.4539,8.07 -0.8975,12.4731 -3.0797,5.7668 -14.1324,16.4844 -23.2862,22.5801 -11.8354,7.8815 -29.3558,15.778 -34.6845,15.6327 -1.2442,-0.034 -5.2934,-1.2514 -8.9982,-2.7055 z m 7.7758,-17.0566 c 0.6505,-0.4115 1.3602,-0.3917 1.8957,0.053 1.33,1.1037 6.0737,-0.4761 8.1978,-2.7301 1.0164,-1.0787 2.7842,-4.0449 3.9281,-6.5916 2.1218,-4.7232 5.658,-9.3701 8.1423,-10.6996 2.0953,-1.1214 4.8037,-1.4573 4.8037,-0.5957 0,0.4206 0.3215,0.5662 0.7141,0.3234 0.3928,-0.2427 0.8914,0.021 1.1082,0.5857 0.2738,0.7138 1.1913,0.9453 3.0084,0.7592 2.8473,-0.2914 10.0594,1.6421 10.0594,2.6969 0,0.3596 0.2918,0.4735 0.6485,0.2531 0.3567,-0.2205 0.7954,0 0.975,0.4899 0.3983,1.0869 5.8271,-3.8942 7.2981,-6.6963 0.5529,-1.0531 1.0052,-3.0729 1.0052,-4.4883 0,-2.1898 -0.6124,-3.186 -4.1051,-6.6787 -5.0368,-5.0368 -13.2677,-9.2156 -23.2843,-11.8212 -9.6101,-2.5 -26.8936,-3.1273 -38.0139,-1.3798 -14.2114,2.2332 -25.6109,7.1089 -31.7178,13.5659 -3.0145,3.1874 -3.5642,4.1913 -3.5642,6.5085 0,3.0452 2.6147,7.6873 6.2454,11.088 l 2.1817,2.0435 2.3452,-2.4841 c 2.7211,-2.8825 6.4396,-3.8169 11.059,-2.779 2.6919,0.6048 4.2774,0 2.0991,-0.8046 -0.4874,-0.1794 -0.054,-0.5483 0.9629,-0.8198 1.1147,-0.2974 2.8482,-0.076 4.3643,0.5574 2.7425,1.1459 7.5044,6.6688 9.0354,10.4795 1.2507,3.1129 3.7839,6.2602 6.6064,8.2081 2.6265,1.8126 2.6423,1.8164 4.0013,0.9569 z m 37.1641,-7.2276 4.0982,-3.6525 -2.7148,-0.9333 -2.7146,-0.9333 -3.369,3.3184 c -1.853,1.8251 -3.369,3.5799 -3.369,3.8997 0,0.4981 2.3889,1.7714 3.5809,1.9087 0.2147,0.024 2.2345,-1.5987 4.4883,-3.6077 z m -63.5941,1.1193 c 0.1393,-0.4185 -1.3655,-2.1258 -3.3441,-3.7941 -3.3848,-2.8542 -3.7208,-2.9822 -5.6895,-2.1667 -1.1508,0.4767 -2.0924,1.0873 -2.0924,1.357 0,0.2698 0.9314,1.3828 2.0699,2.4736 2.8213,2.7028 8.4266,4.0213 9.0561,2.1302 z"
       style="fill:#000000;stroke-width:0.70905"
       id="path763" /><path
       d="m 1461.5306,763.39362 -4.3803,5.8432 c -13.9375,18.5928 -19.3091,32.6321 -18.713,48.9089 0.6059,16.5461 9.8943,32.0417 23.9451,39.9472 8.8119,4.9578 15.1115,6.4394 27.2609,6.4114 7.8227,-0.018 12.3581,-0.4334 15.4453,-1.4146 12.9627,-4.12 22.2706,-11.5206 27.3075,-21.7121 2.8253,-5.7166 3.2165,-7.3016 3.5087,-14.2163 0.2754,-6.5169 0.018,-8.6064 -1.5805,-12.8506 -2.1458,-5.6958 -7.7504,-12.2628 -13.1313,-15.3859 -4.0826,-2.3697 -12.5963,-4.681 -17.1903,-4.6668 -11.6469,0.036 -24.3267,8.1696 -26.7469,17.1575 -3.0993,11.5099 3.0138,19.8787 15.2626,20.8943 5.5837,0.463 11.1425,-1.8881 14.1131,-5.9691 1.7072,-2.3454 1.7114,-2.4402 0.1574,-3.5787 -1.1422,-0.8367 -3.0873,-1.0302 -6.8366,-0.6801 -4.1567,0.3882 -5.4704,0.2118 -6.3541,-0.8529 -3.0007,-3.6156 1.9363,-7.8261 9.1301,-7.7866 9.0692,0.05 14.2855,5.3157 13.3983,13.5252 -0.8601,7.959 -7.7002,14.6588 -17.1172,16.7662 -7.1806,1.6069 -17.818,0.6283 -23.6355,-2.1746 -24.5441,-11.8251 -21.2293,-45.9756 5.7504,-59.2432 7.5307,-3.7034 14.112,-5.1062 23.9555,-5.1062 26.4151,0 47.5387,17.571 50.5467,42.0458 3.7238,30.2986 -17.4674,55.7248 -51.8847,62.2536 -8.9123,1.6907 -23.6772,1.7174 -31.5696,0.057 -23.9175,-5.0312 -44.1297,-22.47065 -49.8951,-44.7234 -4.1923,-16.18088 0.4176,-34.9954 5.1693,-43.4943 5.2578,-9.4037 16.7133,-22.9652 22.3705,-26.4829"
       style="fill:#000000;stroke-width:0.851902"
       id="path1078"
       sodipodi:nodetypes="ccssssssssssssssssssssssssssc" /><path
       d="m 1526.7293,960.30509 c 0.3796,-9.01215 -0.3572,-15.78594 -3.0912,-28.42451 -2.7697,-12.82146 -3.3126,-14.42144 -8.0684,-23.95757 -2.803,-5.62029 -6.345,-11.75516 -7.8712,-13.6327 l -2.775,-3.41391 -7.0313,0.9831 c -8.7964,1.22985 -21.3272,0.62254 -31.9271,-1.54726 -4.4807,-0.91719 -8.2687,-1.4783 -8.4176,-1.24688 -0.3889,0.60424 5.0641,5.43036 15.4712,13.69237 4.9807,3.9541 12.7141,10.71876 17.1851,15.03243 8.7999,8.49024 26.552,30.58754 31.5979,39.3319 3.978,6.89393 4.7504,7.3928 4.9276,3.18303 z m 15.7852,-33.63053 c 1.5054,-5.9727 3.5826,-13.70237 4.616,-17.17705 2.5794,-8.67299 4.6505,-21.51474 4.4615,-27.66465 -0.1499,-4.89164 -1.3832,-12.37357 -2.0164,-12.23628 -0.1657,0.0359 -3.1515,2.23994 -6.6352,4.89787 -6.0262,4.59772 -13.9021,9.1436 -17.0082,9.81706 -0.7899,0.17126 -2.3072,0.87821 -3.3719,1.57094 l -1.9358,1.25959 3.1831,4.92773 c 5.9413,9.19813 8.2955,15.09551 12.2106,30.58882 l 3.7592,14.87554 z"
       style="fill:#000000;stroke-width:0.851902"
       id="path1106" /></g></svg>
