<?xml version="1.0" encoding="UTF-8" standalone="no"?>
<svg
   height="60.093597mm"
   version="1.2"
   viewBox="0 0 609.36096 600.93597"
   width="60.936096mm"
   id="svg428"
   sodipodi:docname="MicroPami_FrontPanel.svg"
   xml:space="preserve"
   inkscape:version="1.4 (86a8ad7, 2024-10-11)"
   xmlns:inkscape="http://www.inkscape.org/namespaces/inkscape"
   xmlns:sodipodi="http://sodipodi.sourceforge.net/DTD/sodipodi-0.dtd"
   xmlns="http://www.w3.org/2000/svg"
   xmlns:svg="http://www.w3.org/2000/svg"
   xmlns:rdf="http://www.w3.org/1999/02/22-rdf-syntax-ns#"
   xmlns:cc="http://creativecommons.org/ns#"
   xmlns:dc="http://purl.org/dc/elements/1.1/"><sodipodi:namedview
     id="namedview430"
     pagecolor="#505050"
     bordercolor="#eeeeee"
     borderopacity="1"
     inkscape:showpageshadow="0"
     inkscape:pageopacity="0"
     inkscape:pagecheckerboard="0"
     inkscape:deskcolor="#505050"
     inkscape:document-units="mm"
     showgrid="false"
     inkscape:zoom="1.5745848"
     inkscape:cx="76.52811"
     inkscape:cy="72.717582"
     inkscape:window-width="1920"
     inkscape:window-height="1009"
     inkscape:window-x="-8"
     inkscape:window-y="-8"
     inkscape:window-maximized="1"
     inkscape:current-layer="Page"
     showguides="false" /><title
     id="title238">FreeCAD SVG Export</title><desc
     id="desc240">Drawing page: Page exported from FreeCAD document: MicroPami</desc><defs
     id="defs242" /><g
     id="Page"
     inkscape:groupmode="layer"
     inkscape:label="TechDraw"
     transform="translate(-1485.4842,-829.46784)"
     style="display:inline"><path
       style="fill:#000000"
       d="m 1688.7716,1426.2303 c -18.173,-11.0181 -21.4692,-14.1737 -23.1847,-22.1952 -0.3477,-1.6259 -0.4425,-5.9859 -0.4468,-20.5517 l -0.01,-18.488 -60.2456,-0.095 c -55.684,-0.088 -60.396,-0.1361 -62.2318,-0.6381 -6.421,-1.7559 -12.2114,-5.7698 -16.6226,-11.523 -1.0567,-1.3781 -2.9102,-4.4548 -4.119,-6.837 -2.1928,-4.3216 -3.2564,-6.0022 -3.7987,-6.0022 -0.4502,0 -2.8823,4.3122 -6.7104,11.8978 l -3.5208,6.9766 -1.4054,-1.5524 c -4.0819,-4.5086 -9.2557,-20.6415 -10.5951,-33.0382 -0.4555,-4.2158 -0.2245,-12.9302 0.4924,-18.5738 1.3473,-10.6068 4.2544,-21.1856 8.0475,-29.2848 2.0709,-4.4217 2.1517,-4.6877 1.4253,-4.6876 -0.8627,10e-5 -14.1664,4.5326 -17.0776,5.8183 -1.3919,0.6147 -2.6625,1.0361 -2.8236,0.9366 -0.4041,-0.2498 -0.01,-6.1829 0.6156,-9.2138 1.0526,-5.1187 4.5459,-13.1522 7.901,-18.1698 4.7179,-7.0556 11.8906,-14.8595 20.4354,-22.2339 l 3.8629,-3.3337 0.01,-140.4937 c 0.012,-175.35128 0.3684,-228.54076 1.5921,-237.27664 0.8107,-5.78747 2.3106,-9.20757 5.3846,-12.27833 2.2624,-2.26005 4.537,-3.53698 8.0984,-4.54629 2.041,-0.57843 3.6615,-0.64948 19.8437,-0.87011 31.9764,-0.43597 395.1378,-0.70639 442.595,-0.32957 46.3743,0.36822 45.9933,0.35391 51.1175,1.9199 5.8894,1.79984 10.0079,6.12527 11.9565,12.55732 0.5546,1.83075 0.5804,9.26388 0.6621,190.72522 l 0.085,188.8202 2.4764,1.8852 c 5.1075,3.8879 12.1745,10.9453 16.3774,16.3548 6.5423,8.4208 12.282,18.3892 14.7167,25.5596 1.0354,3.0493 1.1481,3.7168 1.169,6.9182 0.013,1.9488 -0.09,3.6569 -0.2272,3.7957 -0.2869,0.2893 -0.3521,0.2645 -6.7347,-2.5665 -5.5568,-2.4647 -14.799,-6.2013 -15.3386,-6.2013 -0.2051,0 0.6706,1.5359 1.9461,3.4132 5.9933,8.8211 10.4471,25.5771 10.9076,41.0368 0.426,14.2999 -2.1308,26.4796 -8.1649,38.8938 -1.896,3.9006 -2.8293,5.2387 -3.654,5.2387 -0.6568,0 -2.0706,-2.3376 -5.953,-9.8425 -1.8519,-3.5798 -3.5524,-6.7604 -3.7789,-7.068 -0.3677,-0.4994 -0.9563,0.1761 -5.4918,6.3014 -6.8002,9.1838 -10.2601,12.4465 -16.1804,15.258 -4.9616,2.3563 1.0314,2.1459 -66.3696,2.3296 l -60.6425,0.1653 -0.1588,19.5262 -0.1587,19.5263 -0.8583,2.0027 c -2.8877,6.7375 -11.0262,13.8691 -24.5189,21.4852 l -4.2312,2.3883 h -95.0675 -95.0674 z m 197.3523,-10.6484 c 7.2808,-4.3758 12.7141,-8.559 15.2616,-11.7505 l 1.5565,-1.9501 v -19.0049 c 0,-11.5381 0.1312,-19.7986 0.3302,-21.0249 0.6206,-3.8245 2.7439,-6.6265 5.9751,-7.8848 1.3953,-0.5433 4.7265,-0.581 64.6536,-0.7316 71.1549,-0.1787 63.7786,0.1117 68.2525,-2.6876 2.8635,-1.7917 4.6919,-3.6847 5.7064,-5.9081 0.9905,-2.1706 1.3027,-3.762 1.774,-9.0421 0.4102,-4.5964 0.538,-5.329 1.7089,-9.7914 0.4532,-1.7273 1.0529,-5.3706 1.3326,-8.0962 0.2796,-2.7257 0.5651,-5.0156 0.6344,-5.0886 0.3263,-0.3441 2.0575,1.0308 5.1141,4.0616 3.7117,3.6804 6.1733,6.83 8.4807,10.8512 3.0677,5.3461 3.4979,6.0162 3.8624,6.0162 0.388,0 0.8405,-2.5263 1.4501,-8.0962 0.4988,-4.5579 0.1488,-16.0853 -0.653,-21.5027 -2.103,-14.2105 -5.8651,-24.5881 -12.5738,-34.684 -4.5822,-6.8957 -9.1349,-11.8799 -14.9562,-16.3738 -1.7874,-1.3798 -3.3548,-2.6787 -3.4832,-2.8862 -0.383,-0.6198 3.6746,-0.1301 8.025,0.9684 5.8113,1.4674 9.9346,2.8984 16.8552,5.8494 6.7981,2.8988 11.9417,4.8841 13.4193,5.1797 0.6991,0.1398 0.9368,0.068 0.9368,-0.2815 0,-0.7245 -3.0151,-5.5418 -6.35,-10.1454 -7.3136,-10.0961 -13.4208,-14.6049 -24.4475,-18.0491 -5.4684,-1.7081 -6.1774,-2.2092 -3.8894,-2.7487 l 1.1907,-0.2808 0.3708,-2.6877 c 0.204,-1.4782 0.5276,-5.5451 0.7191,-9.0376 0.1915,-3.4925 0.5104,-9.0646 0.7087,-12.3825 0.2523,-4.2233 0.3992,-39.9557 0.4899,-119.1419 l 0.1294,-113.10928 h -1.0057 c -0.7654,0 -1.4264,0.3845 -2.7663,1.6091 -4.8811,4.461 -11.4107,7.3537 -18.2345,8.078 l -2.1261,0.2257 1.6196,1.6317 c 2.1254,2.1413 4.7673,6.2053 5.9358,9.131 1.5173,3.7992 2.0441,7.09378 1.8435,11.52978 -0.2072,4.5831 -0.783,6.9688 -2.6382,10.9323 -4.3925,9.3838 -12.7313,15.3563 -23.1571,16.5859 -6.5496,0.7725 -13.531,-0.9907 -19.3564,-4.8886 -2.6655,-1.7835 -6.7437,-6.0535 -8.274,-8.6632 -2.7612,-4.7087 -3.9186,-8.5052 -4.1777,-13.7038 -0.4443,-8.91348 2.7371,-16.63018 9.2969,-22.55068 2.1219,-1.9151 5.9276,-4.3368 8.2348,-5.2401 l 1.27,-0.4972 -1.27,-0.5394 c -0.6985,-0.2966 -2.6741,-1.2371 -4.3903,-2.0899 l -3.1203,-1.5506 h -23.8587 -23.8586 l -1.993,-1.9752 -1.9929,-1.9752 v -4.1024 -4.1024 l -3.5742,-3.6855 c -4.6664,-4.8117 -7.3411,-8.4278 -9.5908,-12.9662 -7.2226,-14.5707 -8.5379,-32.6847 -3.6257,-49.9331 4.1052,-14.415 14.1753,-31.05934 27.7572,-45.87874 4.0711,-4.442 6.496,-7.25601 6.496,-7.53829 0,-0.13226 -72.8662,-0.24046 -161.925,-0.24046 -89.0587,0 -161.9233,0.10715 -161.9214,0.23812 0,0.13097 1.6704,2.02406 3.7077,4.20688 14.6905,15.74013 26.0435,34.15879 30.2669,49.10359 1.7417,6.1629 2.272,10.0437 2.4509,17.9335 0.433,19.0953 -3.4091,31.2908 -13.5245,42.9289 -7.6146,8.7608 -16.7089,13.5019 -29.4133,15.334 -3.5626,0.5138 -10.4122,0.6272 -20.32,0.3365 -2.2088,-0.065 -2.2617,-0.046 -8.5725,2.9928 -8.8207,4.2478 -12.5963,5.645 -20.3896,7.5451 -11.4361,2.7884 -20.6068,2.4784 -27.9795,-0.9457 -3.4433,-1.5992 -6.1955,-3.5811 -9.7828,-7.0448 l -2.9069,-2.8067 -0.2184,2.637 c -0.3434,4.148 0.046,170.25638 0.4324,184.56448 0.7443,27.5418 1.3932,41.6999 2.4374,53.1812 0.5687,6.2529 1.6081,13.6255 2.3258,16.497 0.5028,2.0116 0.5615,2.0914 1.8685,2.5433 0.7421,0.2565 1.3493,0.5678 1.3493,0.6918 0,0.2242 -1.313,0.5168 -5.5562,1.2382 -3.2045,0.5448 -8.4933,2.3068 -11.4088,3.8011 -6.6022,3.3838 -11.7193,8.3436 -17.1906,16.6624 -2.4843,3.7772 -4.8969,8.1645 -4.8969,8.9051 0,0.7933 0.8782,0.5262 5.6677,-1.7241 9.9442,-4.6723 26.064,-10.3539 32.6099,-11.4938 3.1703,-0.5521 3.2354,-0.047 0.2515,1.9496 -6.7557,4.5212 -14.6653,12.6206 -18.7809,19.2315 -5.74,9.2203 -9.685,20.2602 -11.54,32.2946 -0.9216,5.979 -1.1462,17.769 -0.4606,24.1796 0.7512,7.0237 1.446,9.2336 2.323,7.3891 0.1887,-0.3969 0.8671,-1.8646 1.5074,-3.2616 1.3392,-2.9215 4.2903,-7.4427 7.2535,-11.1125 2.4453,-3.0285 6.0093,-6.5088 6.6654,-6.5088 0.5981,0 0.774,0.7351 1.3454,5.6192 0.2565,2.1927 0.6759,4.7955 0.9321,5.7841 0.2561,0.9885 1.1004,4.5968 1.8762,8.0183 1.9789,8.7274 3.895,12.5886 8.3328,16.7914 2.4682,2.3374 4.1829,3.1217 7.6342,3.4916 1.6672,0.1787 27.3237,0.2908 63.3748,0.2771 l 60.5735,-0.023 1.4175,0.6862 c 1.7296,0.8373 3.4162,2.7448 4.1694,4.7155 0.5103,1.3351 0.5793,3.4223 0.7467,22.5848 0.1389,15.9101 0.2832,21.3598 0.5855,22.112 0.7546,1.8776 4.4988,4.648 15.1263,11.1921 l 5.715,3.5192 h 91.8893 91.8894 z m -101.6094,-26.9626 c -8.7954,-2.6395 -21.5751,-8.8943 -30.7975,-15.0732 -6.1281,-4.1058 -9.4617,-6.8539 -14.7817,-12.1856 -10.8128,-10.8365 -12.7808,-16.6737 -8.3045,-24.632 1.8212,-3.2378 5.5544,-6.9423 9.91,-9.8336 7.053,-4.6821 18.3896,-9.5476 25.8762,-11.1059 7.6315,-1.5883 19.3174,-2.3689 28.3218,-1.8918 21.7189,1.1509 42.5158,10.3848 50.5259,22.4336 2.4809,3.7318 3.0613,6.2438 2.2934,9.9264 -0.2654,1.2729 -0.8909,3.1871 -1.39,4.2537 -2.2126,4.7281 -10.9561,13.8149 -19.6917,20.4647 -10.1556,7.7308 -30.3356,17.5971 -37.3735,18.2723 -1.4864,0.1426 -2.4655,0.01 -4.5884,-0.6286 z m 2.2001,-18.9338 c 0.4706,-0.2939 0.8836,-0.2849 1.8708,0.041 2.4224,0.7995 6.0808,-0.5637 8.376,-3.1211 0.7504,-0.8361 2.3466,-3.4364 3.5472,-5.7783 4.4075,-8.598 7.8536,-12.0369 12.0621,-12.0369 0.6346,0 1.1538,0.1429 1.1538,0.3175 0,0.1747 0.3229,0.3175 0.7174,0.3175 0.3946,0 0.8958,0.2858 1.114,0.635 0.3308,0.5298 0.7404,0.635 2.471,0.635 3.7178,0 9.9479,1.645 10.5925,2.7969 0.1636,0.2924 0.4022,0.4269 0.5302,0.2989 0.128,-0.128 0.4226,-0.075 0.6547,0.1174 0.7789,0.6465 2.0045,-0.035 4.4369,-2.4676 2.7515,-2.7515 3.9057,-4.8842 4.1598,-7.6865 0.2216,-2.444 -0.5341,-3.8802 -3.7157,-7.0618 -7.0733,-7.0732 -19.2053,-12.1543 -32.9193,-13.787 -5.9951,-0.7137 -15.9177,-0.9389 -21.6965,-0.4924 -16.8519,1.302 -31.0206,6.5258 -38.603,14.2322 -1.2811,1.3021 -2.6373,3.0037 -3.0137,3.7813 -1.642,3.3918 0.092,8.0053 4.8995,13.0339 l 2.8115,2.941 1.951,-2.0026 c 3.2693,-3.3558 5.6695,-4.0917 11.0316,-3.382 3.2448,0.4295 4.0832,0.2838 2.9854,-0.5189 -1.8575,-1.3583 3.3326,-1.3799 5.622,-0.023 2.845,1.6857 6.081,5.63 8.5288,10.3954 1.8061,3.5161 3.67,5.7794 6.4412,7.8216 1.9053,1.4041 2.9267,1.6585 3.9908,0.994 z m 34.0499,-4.6131 c 1.8906,-1.5443 6.7688,-5.9114 6.8667,-6.1472 0.052,-0.1264 -1.071,-0.6182 -2.4965,-1.0929 l -2.5918,-0.8632 -3.2979,3.2867 c -1.8139,1.8077 -3.298,3.5112 -3.298,3.7856 0,0.5928 2.0893,1.8761 3.0713,1.8864 0.3795,0 1.1653,-0.3809 1.7462,-0.8554 z m -60.7312,-1.1604 c 0.4573,-0.551 -0.8472,-2.1924 -3.6072,-4.539 -2.7451,-2.3339 -3.1914,-2.4917 -5.0678,-1.792 -2.3216,0.8657 -2.4941,1.3971 -0.9682,2.982 1.5337,1.5928 3.0726,2.6094 4.9396,3.263 1.7759,0.6216 4.222,0.6664 4.7036,0.086 z m -171.575,-54.6197 c -0.5239,-0.2312 -1.2052,-0.7041 -1.514,-1.0509 -0.5332,-0.5988 -0.561,-3.9723 -0.5527,-67.0711 0.01,-61.9066 0.046,-66.5029 0.5475,-67.3528 0.8369,-1.4167 2.1703,-1.8749 5.4566,-1.8749 h 2.8888 v -75.0093 c 0,-72.4551 0.025,-75.109 0.6076,-77.9335 0.6422,-3.1117 2.1543,-6.9417 3.8871,-9.845 1.3848,-2.3205 5.5834,-6.7605 8.0724,-8.5366 11.0813,-7.90738 26.6561,-7.13728 37.02,1.8306 4.2794,3.703 8.0073,9.7725 9.524,15.5064 l 0.7138,2.6987 0.099,50.5619 c 0.054,27.809 0.1635,50.5618 0.243,50.5618 0.08,0 2.722,-1.3541 5.8723,-3.0091 l 5.7277,-3.0091 6.2628,1.2802 c 14.4766,2.9593 19.8925,4.7306 31.0278,10.148 11.4994,5.5945 22.9096,12.8424 30.48,19.3613 6.0417,5.2024 18.4311,18.5229 20.2721,21.7955 0.438,0.7787 -0.6608,0.08 -7.1728,-4.5611 -14.0066,-9.9824 -26.3434,-17.2221 -34.7213,-20.3756 -16.4427,-6.1891 -35.5274,-10.1157 -52.1174,-10.7228 l -5.7944,-0.2121 v 19.7349 19.7349 h 168.4582 168.4582 l 0.928,0.9281 0.9281,0.9281 v 66.8739 c 0,71.4335 0.066,68.2887 -1.4429,68.8677 -0.2827,0.1085 -91.1208,0.1916 -201.8624,0.1848 -166.3866,-0.01 -201.5138,-0.085 -202.3009,-0.4329 z m 401.7962,-68.4522 v -65.0875 h -168.0368 c -132.729,0 -168.1973,-0.087 -168.8001,-0.3969 -0.4197,-0.2157 -1.0626,-0.7956 -1.4287,-1.2886 l -0.6656,-0.8963 -0.1595,-76.4149 c -0.1783,-85.3923 0.055,-77.3756 -2.3992,-82.578 -7.2664,-15.40538 -26.5333,-19.90588 -39.8648,-9.3118 -4.1583,3.3044 -7.3262,8.2329 -8.9265,13.8874 l -0.7189,2.54 -0.1593,76.0413 c -0.1277,60.9591 -0.2399,76.1822 -0.5656,76.7523 -0.7215,1.2628 -2.0124,1.6701 -5.2929,1.6701 h -3.0321 v 65.0875 65.0875 h 200.025 200.025 z m -164.1176,-74.2156 c 6.3647,-8.1578 15.8132,-17.7119 22.7937,-23.0484 12.4365,-9.5075 31.3871,-19.536 43.5339,-23.0377 3.5007,-1.0091 12.7666,-3.1167 17.6213,-4.008 l 2.8575,-0.5246 17.78,9.3376 c 9.779,5.1356 18.3752,9.7146 19.1027,10.1755 2.8235,1.7889 1.8373,1.9425 -3.6432,0.5674 -15.1712,-3.8065 -28.5263,-4.2238 -45.4633,-1.4203 -12.6993,2.102 -26.028,5.7243 -36.6712,9.9661 -6.5503,2.6106 -19.7138,10.5355 -31.8366,19.1669 -5.6898,4.0512 -7.0821,4.9686 -7.5399,4.9686 -0.1138,0 0.5455,-0.9644 1.4651,-2.1431 z m -271.1064,-36.2803 c -3.804,-0.9966 -6.5437,-2.6202 -9.6016,-5.6902 -3.0132,-3.025 -4.6702,-5.8847 -5.53,-9.5439 -0.617,-2.6256 -0.6231,-7.5105 -0.013,-10.1002 1.7815,-7.5565 8.3592,-13.8659 16.0941,-15.4375 4.8496,-0.9854 9.1011,-0.4323 13.5865,1.7672 2.1675,1.0629 3.2328,1.861 5.4114,4.0539 4.2805,4.3086 6.1202,8.7083 6.1202,14.6366 0,9.7589 -6.3414,17.8964 -15.8393,20.3256 -3.1532,0.8064 -7.1241,0.802 -10.2288,-0.011 z m 7.7103,-3.4976 c 4.9939,-0.71 10.0836,-4.2879 12.4539,-8.7547 5.0644,-9.5438 0.057,-21.3206 -10.3684,-24.3827 -2.4768,-0.7275 -7.0501,-0.6686 -9.6156,0.1238 -7.2605,2.2425 -12.3975,9.6475 -11.9049,17.1608 0.4776,7.2842 5.37,13.3867 12.3008,15.3433 2.9904,0.8442 4.1817,0.9292 7.1342,0.5095 z m 453.8662,3.9206 c -6.238,-1.0336 -12.2253,-5.5191 -15.076,-11.2945 -2.2703,-4.5997 -2.8504,-8.7226 -1.9,-13.5041 2.0056,-10.0904 11.3751,-17.3809 21.5798,-16.7915 15.3998,0.8894 24.5484,17.0789 17.3998,30.791 -1.6162,3.1002 -5.473,6.9569 -8.5732,8.5731 -3.1371,1.6355 -6.5175,2.4545 -9.9093,2.4007 -1.5,-0.024 -3.0845,-0.1024 -3.5211,-0.1747 z m 8.255,-4.427 c 6.1092,-1.719 10.9937,-7.2038 12.087,-13.5726 0.9435,-5.4962 -1.0858,-11.2216 -5.3841,-15.1906 -3.358,-3.1006 -6.7061,-4.3743 -11.4986,-4.3743 -4.7693,0 -9.0719,1.8459 -12.2292,5.2466 -8.198,8.8302 -4.9666,23.0426 6.2438,27.4613 3.3128,1.3058 7.1269,1.4578 10.7811,0.4296 z m -196.1311,-86.1222 c -1.0066,-1.5782 -2.5756,-4.0662 -3.4868,-5.5287 -5.1674,-8.2942 -20.7829,-27.559 -28.9952,-35.77138 -4.3573,-4.3572 -10.7428,-9.997 -18.6647,-16.485 -3.117,-2.5528 -6.4047,-5.262 -7.306,-6.0204 -0.9013,-0.7584 -1.6387,-1.3121 -1.6387,-1.2305 0,0.082 0.2245,0.7735 0.4988,1.5377 1.4069,3.9184 1.8471,11.2532 0.9552,15.9148 -1.3712,7.1663 -4.961,13.71888 -10.2017,18.62128 -7.0895,6.6319 -17.0985,10.0257 -26.524,8.9937 -7.9239,-0.8676 -14.4946,-3.9179 -20.1834,-9.3697 -3.0751,-2.9469 -5.3577,-6.143 -7.2522,-10.1542 -7.7013,-16.30638 -0.9573,-36.13408 15.0823,-44.34268 5.7482,-2.9417 10.7667,-4.0313 17.2587,-3.7469 10.6778,0.4677 20.4465,5.877 26.1937,14.5046 l 1.5765,2.3667 4.87,0.8789 c 8.7867,1.586 13.1268,1.9861 21.5386,1.9859 6.4282,-10e-5 8.6253,-0.1248 12.6544,-0.718 4.2486,-0.6256 4.9224,-0.6584 5.2388,-0.2551 4.3046,5.4869 5.9552,8.1904 10.3967,17.0287 3.5924,7.1486 4.797,10.318 6.3166,16.61818 3.2094,13.3068 4.4053,20.8614 4.6572,29.4193 0.1785,6.0675 -0.02,8.2443 -0.7769,8.4964 -0.2078,0.069 -1.2014,-1.1653 -2.2079,-2.7436 z m -83.8123,-24.9238 c 4.8846,-1.4631 8.7435,-3.6699 12.2488,-7.0046 6.6297,-6.307 10.0344,-14.82368 9.4557,-23.65318 -0.9568,-14.6002 -11.9948,-26.2049 -26.6162,-27.9827 -9.2389,-1.1233 -19.5205,2.8244 -25.7692,9.8942 -7.8318,8.8611 -9.7052,22.0515 -4.6374,32.6521 4.1317,8.64228 11.8149,14.67968 21.2567,16.70328 1.3976,0.2995 3.5499,0.4075 6.6675,0.3345 3.8477,-0.09 5.062,-0.2451 7.3941,-0.9436 z m 97.2434,-8.229 c -5.1751,-20.35798 -7.1981,-25.55358 -14.0284,-36.02918 l -2.4093,-3.6951 0.744,-0.6025 c 0.9548,-0.7732 3.253,-1.9235 4.8775,-2.4414 4.1521,-1.3237 11.1742,-5.6182 19.805,-12.1123 1.8123,-1.3635 3.4021,-2.4131 3.5328,-2.3323 0.6907,0.4269 1.9088,8.8617 1.8935,13.1122 -0.02,5.5767 -1.6685,16.0111 -3.7889,23.9823 -0.6579,2.4734 -2.2067,8.2832 -3.4417,12.9108 -1.2349,4.62758 -2.7027,10.27108 -3.2616,12.54118 -0.5589,2.2701 -1.1036,4.2277 -1.2104,4.3501 -0.1069,0.1224 -1.3275,-4.2353 -2.7125,-9.6838 z m -60.8225,-44.83078 c -11.2643,-1.3749 -24.1445,-6.9917 -33.655,-14.6763 -3.1503,-2.5455 -8.654,-8.2285 -10.855,-11.2086 -4.4657,-6.0466 -7.4785,-12.1444 -9.2953,-18.8135 -3.4163,-12.5399 -1.7319,-30.0563 4.0642,-42.2653 2.7359,-5.763 10.0185,-15.60904 16.5039,-22.31318 5.2921,-5.47061 5.7737,-5.77171 12.2846,-7.68033 3.0572,-0.89622 5.6684,-1.62948 5.8028,-1.62948 0.1343,0 -1.236,1.96453 -3.0453,4.36562 -11.9238,15.82452 -17.7133,27.97987 -19.2774,40.47447 -0.517,4.1298 -0.2381,14.1692 0.4831,17.3899 2.2323,9.9687 6.4224,17.7144 13.3222,24.6267 7.2511,7.2643 15.8191,11.7636 25.4327,13.3554 4.3066,0.713 18.3498,0.8247 22.7667,0.181 7.986,-1.1639 17.9183,-6.2973 24.0421,-12.4261 3.6348,-3.6377 5.8078,-6.7333 8.0919,-11.5278 2.3978,-5.033 2.8212,-7.2416 2.8454,-14.8442 0.018,-5.6232 -0.048,-6.4097 -0.7201,-8.5725 -0.909,-2.9258 -3.0345,-7.0058 -4.9195,-9.4435 -2.0064,-2.5946 -5.7437,-6.1202 -8.1061,-7.6471 -5.7977,-3.7469 -16.242,-5.9663 -22.6972,-4.8231 -10.1977,1.806 -19.5869,8.8324 -22.0706,16.5162 -0.6803,2.1047 -0.9806,5.8172 -0.6564,8.1155 0.9923,7.0348 6.2697,11.6449 14.7289,12.8662 5.1067,0.7373 10.7766,-1.1044 14.0477,-4.5631 0.8799,-0.9304 1.8369,-2.15 2.1266,-2.7103 0.5166,-0.9989 0.5105,-1.0336 -0.3165,-1.8 -1.1487,-1.0647 -2.3988,-1.2379 -7.3267,-1.0151 -4.7334,0.2139 -5.7543,0 -6.5523,-1.3469 -2.686,-4.5469 5.0746,-8.5788 13.1988,-6.8573 8.7336,1.8507 12.0931,9.832 7.8107,18.5563 -4.6666,9.5072 -16.6273,13.7927 -31.4676,11.2746 -9.3693,-1.5897 -17.0851,-7.2449 -21.1939,-15.5336 -2.7167,-5.4805 -3.5485,-12.5045 -2.2372,-18.8913 2.8351,-13.8084 13.1869,-24.65079 28.3169,-29.65891 5.4626,-1.80814 8.6221,-2.22225 16.9392,-2.22015 6.6992,0.002 7.6319,0.0718 11.2898,0.84872 10.5078,2.23182 19.1497,6.7374 26.0236,13.56784 7.6368,7.5886 12.0731,16.5339 13.494,27.2094 2.0122,15.1181 -2.5499,29.9665 -12.7596,41.5294 -10.4535,11.839 -27.456,19.9898 -45.3261,21.7287 -4.6246,0.45 -16.9804,0.3692 -21.138,-0.1383 z m 228.8515,67.28278 c 5.1186,-1.052 9.6254,-3.6051 13.2992,-7.534 3.4617,-3.7022 5.4813,-7.9151 6.3597,-13.2659 0.4488,-2.7343 0.4721,-3.667 0.1545,-6.1814 -1.0103,-7.99968 -5.6984,-14.86408 -12.8529,-18.81978 -6.1655,-3.4088 -10.0386,-4.1243 -15.7845,-2.9159 -6.555,1.3787 -10.5675,3.5458 -14.7011,7.9398 -7.4175,7.8849 -8.5503,19.56578 -2.842,29.30558 2.3668,4.0383 7.1813,8.1629 11.7751,10.0878 4.3769,1.834 9.8677,2.3547 14.592,1.3838 z m -441.259,-56.49538 c 5.2602,-0.757 13.3274,-3.3812 16.446,-5.3499 1.5562,-0.9824 1.6683,-1.3835 0.4609,-1.6493 -2.6445,-0.5822 -10.745,-4.4853 -16.4306,-7.9168 -10.6085,-6.4028 -20.5365,-17.2944 -28.549,-31.3202 -2.8144,-4.9265 -4.9424,-9.7529 -7.0694,-16.0336 -1.0871,-3.2099 -1.8839,-5.1081 -2.0905,-4.9804 -0.3913,0.2418 -0.079,30.3113 0.387,37.2972 0.2831,4.2416 0.3255,4.4196 2.0765,8.7313 3.1215,7.6866 5.647,11.7082 9.7211,15.4802 2.3314,2.1585 6.3668,4.4676 9.4905,5.4306 3.348,1.032 9.6684,1.1583 15.5575,0.3109 z m 479.5318,-19.7301 c 0.1159,-9.1965 0.2107,-22.6982 0.2107,-30.0037 v -13.2828 h -54.9275 -54.9275 v 30.0038 30.0037 h 54.7169 54.7168 z m -427.5286,7.177 c 5.1854,-0.566 10.2295,-1.997 12.0897,-3.4297 1.1254,-0.8669 0.6736,-1.6524 -2.0225,-3.5163 -4.9016,-3.3884 -8.1386,-4.4557 -13.5306,-4.4612 -4.4339,0 -7.2921,0.4662 -15.3085,2.5213 -3.3468,0.858 -7.7253,1.7999 -9.7301,2.0931 -2.0048,0.2933 -4.0051,0.6721 -4.445,0.8418 l -0.7999,0.3086 1.2353,0.6387 c 2.9437,1.522 13.1991,4.4414 17.4972,4.9809 3.2053,0.4023 11.4228,0.4148 15.0144,0.023 z m 22.816,-10.6708 c 3.8825,-6.0693 7.1557,-14.9435 8.4119,-22.8064 0.5964,-3.733 0.5131,-12.0832 -0.1544,-15.4753 -1.3688,-6.9562 -6.2827,-17.9161 -9.7881,-21.831 l -1.2793,-1.4287 0.1889,1.5875 c 0.4302,3.6156 1.1437,14.51 1.1436,17.4625 -10e-5,3.5072 -0.3617,5.8663 -2.0196,13.1762 -1.9763,8.714 -2.4247,11.5588 -2.4247,15.3833 0,5.4405 1.5769,13.5983 3.0257,15.6534 0.6927,0.9826 1.4568,0.5284 2.896,-1.7215 z m -50.8814,0.977 c 1.7278,-0.2539 6.0855,-1.1623 9.6837,-2.0188 12.9995,-3.0942 15.7659,-3.2113 23.0315,-0.9748 1.7133,0.5274 3.2527,0.9589 3.4207,0.9589 0.4686,0 -1.0993,-2.6204 -3.9737,-6.6412 -2.8265,-3.9538 -7.1873,-8.7279 -9.8267,-10.758 -3.9344,-3.0262 -9.4499,-5.2624 -15.4567,-6.2668 -4.1767,-0.6984 -12.014,-0.4903 -17.7991,0.4726 -9.8507,1.6397 -17.9322,2.0052 -24.1706,1.0932 -1.9194,-0.2806 -3.5729,-0.4271 -3.6745,-0.3255 -0.4208,0.4208 7.2249,10.2611 11.3351,14.5886 5.3354,5.6174 11.5473,9.7549 15.5908,10.3844 2.1459,0.3341 7.7195,0.093 11.8395,-0.5126 z m 343.6919,-42.5101 1.8643,-1.9108 0.1985,-5.5563 c 0.1091,-3.0559 0.343,-7.1849 0.5198,-9.1755 0.1767,-1.9906 0.259,-3.6815 0.1829,-3.7577 -0.076,-0.076 -0.7915,0.6937 -1.5897,1.7107 -2.7127,3.4562 -7.6826,14.0222 -9.14,19.4317 -0.9456,3.5096 -1.2033,15.4219 -0.4332,20.0273 0.7243,4.3312 2.5419,9.6602 5.1511,15.1023 l 1.2179,2.54 0.082,-18.2504 0.082,-18.2504 z m -302.5735,25.0767 c 0.048,-3.8633 0.74,-7.253 2.8829,-14.1288 3.0336,-9.7335 3.4485,-15.0435 1.96,-25.0825 -0.3496,-2.3574 -0.7939,-5.9293 -0.9874,-7.9375 l -0.3519,-3.6512 -4.889,-4.7977 c -6.5212,-6.3993 -14.9865,-13.18997 -16.8395,-13.50827 -0.83,-0.14256 -0.7868,0.15925 0.9604,6.71717 1.707,6.4074 2.8777,12.4089 3.3096,16.9674 0.265,2.7969 0.2026,5.0938 -0.336,12.3632 -1.4743,19.8998 -0.3451,23.9048 10.7903,38.2702 l 3.0557,3.942 0.2026,-2.9895 c 0.1114,-1.6443 0.2204,-4.4183 0.2423,-6.1645 z m -57.4057,-11.075 c 12.5764,-2.0261 20.404,-1.9892 29.5379,0.1393 4.237,0.9874 5.0391,1.0947 5.0391,0.6742 0,-0.9387 -8.1254,-10.4105 -13.8083,-16.0962 -6.5172,-6.5204 -11.2477,-9.8719 -16.3542,-11.5867 -4.6022,-1.5455 -5.6862,-1.6374 -22.0662,-1.8705 l -15.5575,-0.2214 -2.3572,-0.8575 c -1.2965,-0.4716 -2.4946,-0.8575 -2.6626,-0.8575 -1.1444,0 3.406,14.3214 6.9402,21.8427 2.5709,5.4712 7.0938,8.5459 14.2721,9.7021 2.4868,0.4006 12.2242,-0.096 17.0167,-0.8685 z m 37.9335,-10.7533 c 0.015,-3.7345 0.2878,-8.2773 0.7685,-12.7792 1.0241,-9.5911 1.0012,-14.2678 -0.099,-20.32 -1.1302,-6.2147 -2.4524,-11.44133 -3.7633,-14.87538 l -1.0559,-2.76633 -5.2388,-2.50507 c -7.9662,-3.80931 -19.6129,-8.26951 -21.5938,-8.26951 -0.8328,0 -0.8036,0.32489 0.3309,3.67106 1.2427,3.66538 1.7586,6.99757 2.3756,15.34283 0.2761,3.7346 0.7161,8.0208 0.9779,9.525 0.6013,3.4552 2.2631,8.4497 3.8839,11.6729 2.1109,4.1977 3.4515,5.8079 15.8842,19.0774 4.1292,4.4071 7.5076,8.0147 7.5076,8.0167 0,0 0.01,-2.6036 0.023,-5.7904 z m 46.3494,1.7464 c -0.6493,-10.6236 -4.821,-23.5735 -11.1971,-34.7582 -3.9978,-7.0128 -7.1279,-9.9917 -8.7716,-8.348 -0.2588,0.2588 -0.4034,0.7278 -0.3212,1.042 0.082,0.3143 1.6594,2.6385 3.505,5.165 10.5421,14.4315 14.3738,23.2981 15.98,36.9786 0.205,1.7462 0.4388,3.2821 0.5196,3.4131 0.4266,0.6915 0.492,-0.1093 0.2853,-3.4925 z m 259.2291,-0.635 c 0.541,-3.8485 2.5442,-11.6739 3.9622,-15.4781 1.6781,-4.5023 5.0989,-11.108 8.0566,-15.5575 4.9939,-7.5129 13.445,-17.27084 16.8209,-19.42192 0.9854,-0.62785 3.5061,-2.39013 5.6016,-3.91618 5.5204,-4.02028 9.2781,-6.20381 20.32,-11.8076 l 9.8425,-4.99512 -11.293,-0.0115 -11.293,-0.0115 -4.7467,4.84187 c -16.5837,16.91642 -27.1511,31.75415 -33.0351,46.38435 -2.2187,5.517 -3.9678,12.1479 -4.3681,16.56 -0.4197,4.6263 -0.5191,6.1913 -0.3933,6.1913 0.074,0 0.3106,-1.2502 0.5254,-2.7781 z m 40.9409,-6.8263 c 0,-0.2182 -0.2031,-3.3258 -0.4403,-6.9056 -0.6564,-9.9089 -0.1332,-15.7333 2.1963,-24.4475 1.5384,-5.7551 2.42,-9.56207 2.3212,-10.02349 -0.3137,-1.46492 -10.0142,6.02059 -18.8309,14.53109 l -4.1267,3.9833 -0.1127,3.8197 c -0.08,2.7169 0.034,4.4655 0.396,6.0566 0.3624,1.5934 0.5087,3.8401 0.5087,7.8099 v 5.5729 h 9.0488 c 7.0322,0 9.0467,-0.088 9.0396,-0.3969 z m 18.2163,-2.8575 c 8.2177,-8.8741 10.267,-11.903 12.2318,-18.0785 1.3688,-4.3021 2.1336,-8.8992 2.9025,-17.44683 0.7326,-8.14269 1.1553,-10.75222 2.3597,-14.56474 0.4462,-1.41257 0.8113,-2.63237 0.8113,-2.71066 0,-0.71451 -6.7378,1.349 -14.7637,4.52146 -5.0026,1.97741 -10.2533,4.49371 -11.7347,5.62359 -1.3604,1.03767 -2.8597,4.27101 -4.1306,8.90828 -2.4909,9.0884 -3.2055,17.3788 -2.2455,26.0481 0.2901,2.6193 0.6015,5.9769 0.6921,7.4612 0.091,1.4843 0.2204,2.8774 0.2886,3.0956 0.093,0.2964 1.4467,0.3969 5.3494,0.3969 h 5.2255 z m 60.4682,-1.8256 c 0.9249,-2.7067 1.9516,-5.8856 2.2816,-7.0644 0.7043,-2.5153 0.7806,-2.4729 -2.6179,-1.4545 -2.1677,0.6495 -3.1789,0.7014 -17.8553,0.9162 -16.4224,0.2403 -16.9964,0.2905 -21.8163,1.9078 -2.4667,0.8277 -5.6676,2.4881 -8.2175,4.2626 -2.1011,1.4622 -7.2131,5.8875 -7.2498,6.276 -0.012,0.1319 12.086,0.2034 26.8854,0.1587 l 26.9082,-0.081 z m -37.8848,-10.158 c 5.6235,-1.3594 13.5545,-1.6113 25.0689,-0.7962 7.0899,0.5019 8.9763,0.3861 12.2928,-0.755 3.9349,-1.3538 4.33,-1.8068 5.1557,-5.912 1.2007,-5.97 1.9778,-16.021 2.3014,-29.76567 0.1611,-6.84329 0.1225,-9.12812 -0.1539,-9.12812 -0.2029,0 -0.9753,0.80443 -1.7165,1.78763 -6.5887,8.73935 -15.3935,17.52765 -31.9012,31.84126 -9.1286,7.9153 -14.1229,12.4448 -14.2945,12.9642 -0.1756,0.5311 0.1805,0.5052 3.2473,-0.2361 z m -421.4731,-0.4453 c 0,-0.5783 -3.528,-3.8862 -12.7,-11.9076 -11.6634,-10.2003 -28.9457,-27.53807 -32.3639,-32.4678 -2.0678,-2.98224 -2.0555,-3.03119 -1.8187,7.23049 0.3137,13.59382 1.229,24.19331 2.6162,30.29771 0.8988,3.955 2.1136,4.9526 7.2086,5.9194 2.6826,0.5091 2.7872,0.5085 18.8226,-0.096 5.5996,-0.2112 11.0706,0.1624 14.4252,0.9852 2.3755,0.5827 3.81,0.5974 3.81,0.039 z m 4.3114,-6.6705 c -1.4776,-5.6166 -1.9806,-8.9408 -2.4065,-15.9049 -0.7077,-11.57084 -1.7141,-16.87003 -3.4872,-18.362 -2.329,-1.95969 -11.439,-3.79211 -29.5012,-5.93396 -5.5549,-0.65872 -10.3549,-0.81642 -10.6434,-0.3497 -0.6471,1.04714 4.1211,6.79384 12.4676,15.02594 6.9846,6.8889 9.1549,8.83254 22.1156,19.80542 9.4863,8.0315 12.3001,10.3225 12.4695,10.1531 0.066,-0.066 -0.3903,-2.0615 -1.0144,-4.4339 z m 417.9987,-1.9964 c 20.8745,-17.57597 30.7148,-26.86116 36.9478,-34.86354 2.4127,-3.09766 2.8384,-3.8486 2.3522,-4.14911 -1.054,-0.65139 -21.5869,1.81866 -32.1218,3.86418 -5.0181,0.97434 -7.9012,1.84761 -8.5814,2.59918 -1.3476,1.48904 -2.0834,5.6949 -3.0667,17.5295 -0.8391,10.09829 -1.406,13.74829 -2.7335,17.59749 -0.5977,1.7331 -1.0867,3.269 -1.0867,3.4131 0,0.8019 1.5703,-0.3328 8.2901,-5.9908 z M 1630.191,858.65237 c -1.2284,-3.78748 -4.5183,-8.88206 -9.1573,-14.18078 l -2.6671,-3.04636 h -11.0648 c -10.2817,0 -12.4563,0.16996 -10.3504,0.80898 1.2817,0.38892 16.8168,8.22943 20.3994,10.29549 1.9209,1.10777 4.723,2.8391 6.227,3.8474 3.6518,2.44834 6.7664,4.1539 6.8954,3.77598 0.058,-0.16903 -0.069,-0.84435 -0.2822,-1.50071 z"
       id="path27" /><path
       style="fill:#b84900;fill-opacity:1;stroke:none;stroke-width:0.960133;stroke-linecap:round;stroke-linejoin:round;stroke-dasharray:none;stroke-opacity:1"
       d="m 78.270153,220.92427 c -4.130625,-2.59909 -5.383955,-3.57101 -5.536376,-4.29327 -0.08137,-0.38558 -0.196411,-4.27343 -0.255646,-8.63966 -0.11711,-8.63269 -0.219416,-9.14116 -2.002753,-9.9537 -0.58483,-0.26647 -7.278192,-0.36681 -24.525821,-0.36767 -23.013136,-0.001 -23.752005,-0.0198 -24.74389,-0.62458 -1.316329,-0.8026 -2.778949,-2.83044 -3.401521,-4.71602 -0.628735,-1.90425 -1.756721,-7.26094 -1.763197,-8.37325 -0.0027,-0.46998 -0.175355,-0.95981 -0.383596,-1.08851 -0.562553,-0.34768 -3.824066,3.35462 -5.066855,5.75163 -0.7155545,1.38011 -1.1326721,1.89844 -1.2947206,1.60888 -0.4670364,-0.83455 -0.6512023,-7.61324 -0.2818784,-10.37524 0.6832458,-5.10968 2.306464,-9.87031 4.515256,-13.24249 1.467265,-2.24009 4.796851,-5.70708 6.673728,-6.94914 2.664489,-1.76327 1.021893,-1.72583 -4.484454,0.10222 -1.833816,0.60881 -4.661729,1.68886 -6.2842506,2.4001 -1.6225213,0.71124 -3.031182,1.21202 -3.1303573,1.11285 -0.3287983,-0.3288 2.1724639,-4.07046 4.0947899,-6.12543 2.178442,-2.32876 4.583101,-3.65844 8.110243,-4.48464 2.190149,-0.51302 2.279546,-0.56813 1.668875,-1.02876 -0.515377,-0.38874 -0.741526,-1.18968 -1.123689,-3.97965 -1.010953,-7.38045 -1.181879,-14.27908 -1.332876,-53.795356 l -0.152171,-39.82345 1.535684,1.365671 c 0.844627,0.751119 2.321606,1.738636 3.282177,2.194484 1.581407,0.75047 2.09167,0.826516 5.398248,0.804532 4.364883,-0.02902 6.877076,-0.637974 11.756817,-2.849849 l 3.326524,-1.507836 4.286845,-0.07481 c 7.332977,-0.127961 11.310283,-1.59295 15.030079,-5.536129 2.414621,-2.559627 3.710458,-4.74696 4.70881,-7.948337 0.659552,-2.114948 0.7427,-3.003722 0.7427,-7.9386 0,-6.550943 -0.372603,-8.131547 -3.241219,-13.749424 C 62.424027,14.937609 60.25336,11.773558 56.781705,7.7004426 L 54.413484,4.9219324 h 60.837356 60.83735 l -2.73204,3.0960542 c -5.16992,5.8587594 -8.88273,12.3353954 -10.33052,18.0206234 -0.98269,3.858832 -0.98917,9.64638 -0.0148,13.273493 0.89655,3.337616 2.59108,6.455066 4.84687,8.916858 1.75158,1.911542 1.86962,2.139053 1.86962,3.603433 0,1.223284 0.15976,1.713159 0.73494,2.253511 0.71857,0.675058 0.93364,0.690439 9.65356,0.690439 8.68088,0 8.96136,0.0198 10.52175,0.742739 l 1.60312,0.742736 -1.01589,0.494384 c -1.89396,0.921694 -3.66399,2.760499 -4.71782,4.901124 -0.90686,1.842107 -1.02893,2.398359 -1.0249,4.670447 0.004,2.147045 0.15575,2.914076 0.90665,4.577101 3.07298,6.805788 11.89519,8.603192 17.42424,3.549952 4.11971,-3.765183 4.79697,-9.644685 1.63969,-14.234568 l -1.11492,-1.620815 0.87418,-0.191526 c 2.58716,-0.566832 3.95575,-1.221557 6.66937,-3.190603 l 0.71448,-0.518432 -0.005,43.462876 c -0.005,44.133921 -0.18259,52.642721 -1.11337,53.341751 -0.71925,0.54016 -0.59862,0.66592 1.19767,1.24846 2.71961,0.88198 5.3548,2.42203 7.05645,4.12391 1.63854,1.63878 4.83888,6.06324 4.57592,6.32621 -0.0808,0.0808 -1.91861,-0.56545 -4.08398,-1.43615 -5.24151,-2.10761 -10.48567,-3.59713 -10.48567,-2.97828 0,0.11177 1.0908,1.2219 2.424,2.46696 4.9257,4.60006 7.56426,9.44619 8.88146,16.31219 0.57013,2.97185 0.79129,11.35305 0.31961,12.11196 -0.18651,0.30008 -0.70072,-0.25207 -1.77436,-1.90526 -1.4175,-2.18267 -4.58887,-5.63477 -4.89227,-5.32532 -0.14833,0.15128 -0.94277,4.52391 -1.62055,8.91958 -0.23293,1.51064 -0.57366,3.02716 -0.75716,3.37005 -0.58776,1.09823 -2.5345,2.57946 -3.60596,2.7437 -0.57134,0.0876 -11.75592,0.24651 -24.85461,0.35317 -20.5095,0.16702 -23.91867,0.26073 -24.5568,0.67499 -1.461,0.94847 -1.64046,2.06162 -1.64216,10.18593 -0.002,7.36797 -0.0189,7.57203 -0.71447,8.37972 -0.98594,1.14492 -3.21155,2.8596 -5.47606,4.21894 l -1.90526,1.14369 -34.45353,-0.006 -34.453528,-0.006 z m 38.654337,-9.78001 c 2.39776,-0.78718 7.63681,-3.41749 10.36987,-5.20628 3.18946,-2.0875 8.21158,-7.02332 9.06871,-8.91286 1.30965,-2.88713 0.50891,-5.41498 -2.54803,-8.04382 -4.46708,-3.84151 -11.24582,-5.9468 -19.16682,-5.95269 -5.16863,-0.004 -8.32721,0.42126 -11.44641,1.54051 -6.801992,2.44073 -10.901015,5.8017 -11.488122,9.41961 -0.697994,4.30123 8.336272,12.27227 18.791632,16.58009 2.85712,1.17719 4.21537,1.29895 6.41917,0.57544 z m 64.23438,-29.63385 10.95527,-0.19277 V 155.4378 129.55796 l -63.90574,-0.0802 -63.905735,-0.0802 v -7.30274 -7.30273 l 2.143422,0.006 c 4.506772,0.0122 11.851426,1.41123 17.635945,3.35926 3.964057,1.33496 7.431533,3.19751 13.046899,7.00814 2.423341,1.6445 4.546229,2.94328 4.717519,2.88618 0.40713,-0.13571 -4.583855,-5.73386 -7.037549,-7.89369 -2.688023,-2.3661 -6.807271,-5.05107 -11.131906,-7.2559 -4.275473,-2.17977 -7.068813,-3.16432 -11.801384,-4.15959 l -3.382321,-0.71131 -2.086038,1.14664 -2.086039,1.14663 -0.08866,-19.604365 -0.08866,-19.604362 -1.041725,-2.115598 c -2.046219,-4.155585 -5.67998,-6.393222 -10.38986,-6.397992 -2.105942,-0.0021 -2.878235,0.149798 -4.516228,0.888463 -2.319307,1.045907 -4.822742,3.51171 -5.889077,5.800554 l -0.708736,1.521278 -0.08581,29.293432 -0.08581,29.29344 -1.184366,0.005 c -2.311031,0.009 -2.127789,-2.11111 -2.222021,25.7149 -0.05772,17.04504 0.02177,25.3075 0.247529,25.72934 0.321113,0.60001 0.804774,0.62435 14.056963,0.7076 27.652229,0.17371 118.194048,0.14175 128.834118,-0.0455 z m -47.90268,-56.42927 c 5.85428,-3.93042 9.02008,-5.61537 12.99483,-6.91632 9.70539,-3.17659 18.92533,-4.09204 25.85784,-2.56744 4.16099,0.91509 4.06233,0.90281 3.92422,0.4885 -0.0716,-0.21472 -3.36614,-2.10069 -7.32128,-4.19105 l -7.19114,-3.80066 -3.7559,0.8417 c -4.77275,1.06956 -7.89691,2.21253 -12.03673,4.40362 -4.47962,2.37093 -8.59283,5.18553 -11.30928,7.73875 -3.51509,3.30388 -7.53189,8.17349 -5.92067,7.1777 0.20299,-0.12545 2.34414,-1.55411 4.75811,-3.1748 z M 30.66475,113.64554 c 4.506507,-1.33658 6.934034,-6.89814 4.833897,-11.07464 -0.69586,-1.38384 -2.282224,-2.974214 -3.744244,-3.753717 -0.948659,-0.505794 -1.832833,-0.677217 -3.492985,-0.677217 -2.535779,0 -4.110214,0.659958 -5.759628,2.414274 -1.677801,1.78452 -2.167244,3.03652 -2.152243,5.50546 0.01502,2.47195 0.524249,3.77439 2.152243,5.50473 2.210859,2.34985 4.924364,3.04164 8.16296,2.08111 z m 173.93517,-0.006 c 1.7348,-0.56027 3.81703,-2.32684 4.73245,-4.015 0.39697,-0.73208 0.55663,-1.75577 0.55979,-3.58942 0.004,-2.30447 -0.0931,-2.72305 -0.95526,-4.11754 -3.33027,-5.386582 -11.09531,-5.087744 -13.90816,0.53526 -1.20566,2.41014 -1.22502,4.74065 -0.0592,7.12349 1.83236,3.7452 5.64035,5.35185 9.63039,4.06321 z M 130.98563,78.017703 c -10e-4,-2.871716 -0.66433,-7.247092 -1.75281,-11.570326 -0.79811,-3.169944 -3.03422,-8.061106 -5.12483,-11.209787 l -1.11933,-1.685841 -5.13027,0.169755 c -3.90844,0.129327 -5.87951,0.04623 -8.27626,-0.348923 l -3.14601,-0.518677 -1.87335,-2.044428 c -1.31621,-1.436407 -2.5032,-2.35463 -3.9912,-3.087467 -2.006387,-0.988137 -2.302373,-1.043037 -5.623391,-1.043037 -3.30926,0 -3.6224,0.05749 -5.592957,1.02682 -2.560625,1.259586 -5.075732,3.822664 -6.236295,6.35524 -1.182883,2.581271 -1.358469,6.21051 -0.444365,9.184656 2.252931,7.330167 10.640954,11.060998 17.574068,7.816603 5.13592,-2.403385 7.77021,-6.794724 7.49752,-12.498288 l -0.13438,-2.810646 1.44678,1.160986 c 3.49121,2.80157 7.81098,6.684365 9.59243,8.622105 2.86777,3.119352 7.51902,9.006799 9.75754,12.350887 1.08497,1.620821 2.10896,2.862717 2.27553,2.759769 0.16657,-0.102945 0.30229,-1.286177 0.30158,-2.629401 z m 6.93999,-14.673071 c 2.19114,-8.598943 2.67422,-11.850623 2.25571,-15.18359 -0.15999,-1.274174 -0.37608,-2.454517 -0.4802,-2.62299 -0.10412,-0.16847 -0.85708,0.183229 -1.67326,0.781555 -2.78869,2.044368 -4.97649,3.394123 -7.27912,4.490835 -1.2662,0.603076 -2.30219,1.180517 -2.30219,1.283198 0,0.102685 0.40968,0.784023 0.91041,1.514085 2.1373,3.116184 3.48291,6.532729 5.27527,13.394064 0.98152,3.757394 1.09196,4.101021 1.26302,3.929963 0.0716,-0.07163 0.98529,-3.485833 2.03036,-7.58712 z M 124.12477,49.553695 c 12.53598,-3.180013 19.8773,-13.539011 17.51045,-24.708184 -1.40191,-6.615638 -7.07203,-12.203323 -14.14129,-13.935703 -2.754,-0.67489 -8.29527,-0.529016 -10.95527,0.288397 -7.48319,2.299569 -12.33099,8.973828 -11.2669,15.511839 0.98965,6.080648 6.12263,9.720137 13.04017,9.245998 5.17602,-0.354773 8.584,-3.225053 8.64519,-7.281167 0.0416,-2.755273 -2.06003,-4.551862 -5.27356,-4.508202 -2.07528,0.0282 -3.48394,0.80484 -3.66345,2.019805 -0.16525,1.118415 0.42033,1.42409 2.60415,1.359372 1.24083,-0.03677 2.22758,0.099 2.57712,0.35459 0.5272,0.385497 0.48846,0.492135 -0.55944,1.54004 -3.14614,3.146137 -9.22161,1.724313 -10.38483,-2.430333 -0.9235,-3.298413 1.05552,-6.558332 5.23556,-8.624222 2.28258,-1.128109 2.41587,-1.153871 5.29812,-1.024031 2.32727,0.104839 3.3417,0.310473 4.76553,0.96601 2.37609,1.093959 4.51954,3.282835 5.71379,5.834873 0.90971,1.944006 0.95759,2.238777 0.83578,5.14444 -0.11901,2.838863 -0.22548,3.26442 -1.34815,5.388776 -2.12418,4.019422 -6.66483,7.399926 -11.21377,8.348618 -2.98771,0.623091 -9.28223,0.225843 -11.95294,-0.754352 -7.65191,-2.808384 -12.448714,-10.416333 -11.846959,-18.789838 0.341042,-4.745637 1.938835,-8.577554 6.123409,-14.6854935 1.27788,-1.865234 2.27329,-3.4414641 2.21202,-3.5027335 -0.0613,-0.061269 -1.1625,0.2055273 -2.44718,0.5928814 -2.0767,0.6261649 -2.55458,0.9296652 -4.308515,2.7363289 -1.085007,1.117627 -2.690509,2.9885497 -3.567782,4.1576067 -3.720717,4.95823 -4.868388,8.473757 -4.892321,14.986091 -0.01416,3.85106 0.06919,4.523608 0.819835,6.615904 1.107711,3.08754 2.543302,5.442967 4.805918,7.88523 2.315572,2.499427 4.171235,3.87305 7.447425,5.512837 4.00895,2.006542 6.3661,2.493734 12.16413,2.514171 4.25399,0.01499 5.39693,-0.0932 8.02376,-0.759549 z"
       id="path28"
       transform="matrix(2.6458333,0,0,2.6458333,1485.4842,829.46784)" /><path
       id="path29"
       style="fill:#552200;fill-opacity:1;stroke:none;stroke-width:0.678917;stroke-linecap:round;stroke-linejoin:round;stroke-dasharray:none;stroke-opacity:1"
       d="M 46.804687 4.5449218 C 43.511415 4.5456517 42.086069 4.5795412 41.943359 4.6601562 C 41.886747 4.692136 41.901779 4.7086818 42.035156 4.7636718 C 42.726772 5.0488149 44.761328 6.0448528 46.857421 7.1230468 C 49.638795 8.553737 50.360873 8.9647686 52.27539 10.203125 C 53.532285 11.016116 54.213736 11.411953 54.595702 11.552734 C 54.776355 11.619314 54.795627 11.620257 54.794921 11.560547 C 54.791623 11.281649 54.44927 10.374249 54.093749 9.705078 C 53.403583 8.4060296 52.451279 7.0968136 50.908202 5.3281249 L 50.222655 4.5449218 L 46.804687 4.5449218 z M 180.14843 4.5624999 L 178.625 6.1328124 C 176.75862 8.0543358 175.52391 9.382697 174.42578 10.654297 C 168.89771 17.055657 165.56477 23.079934 164.49414 28.605468 C 164.31452 29.532496 164.12202 31.163511 164.13672 31.634765 C 164.14014 31.743919 164.23066 31.370344 164.33789 30.802734 C 165.42525 25.046781 167.45759 20.918534 171.7207 15.798828 C 172.19332 15.231251 173.01465 14.31925 173.54687 13.773437 C 174.37667 12.922439 174.77271 12.599001 176.32812 11.501953 C 179.86385 9.0081647 180.55602 8.6038352 186.11328 5.7871093 L 188.44726 4.6035155 L 184.29687 4.5839843 L 180.14843 4.5624999 z M 59.193358 15.242187 C 58.886075 15.214318 58.646483 15.388158 58.646483 15.693359 C 58.646483 15.840467 58.980912 16.351994 60.093749 17.902343 C 62.725652 21.568979 64.053755 23.967444 64.929686 26.634765 C 65.443258 28.19866 65.721635 29.539887 66.052733 32.068359 C 66.109707 32.503447 66.171645 32.903108 66.191405 32.955078 C 66.307305 33.259925 66.339104 32.701295 66.265624 31.654296 C 66.011921 28.039443 64.85386 24.080436 62.908202 20.183593 C 61.617766 17.599057 60.324125 15.751313 59.517577 15.339843 C 59.406524 15.283188 59.295786 15.251477 59.193358 15.242187 z M 17.623047 29.214843 L 17.578125 34.849609 C 17.520181 42.138165 17.661879 44.182014 18.33789 45.884765 C 19.549668 48.937017 20.940573 51.091229 22.503906 52.333983 C 23.477035 53.107563 25.275761 54.003176 26.285156 54.216796 C 27.300746 54.431728 31.401027 54.282915 32.626953 53.986327 C 34.778459 53.465816 37.300153 52.511358 37.992187 51.955077 C 38.143585 51.833378 37.856771 51.662723 36.880859 51.294921 C 35.403741 50.738222 32.632251 49.3077 31.054687 48.287109 C 25.867639 44.93139 20.965476 38.370041 18.40625 31.357421 L 17.623047 29.214843 z M 113.86719 186.3125 C 112.92669 186.33069 111.98108 186.38414 111.03515 186.47461 C 104.48615 187.10093 99.900988 188.82475 96.943358 191.77343 C 95.716576 192.99649 95.541014 193.28013 95.541014 194.02148 C 95.541014 195.13366 96.181851 196.41509 97.480467 197.89648 C 98.507993 199.06862 98.544192 199.08855 98.890623 198.64843 C 99.086012 198.4002 99.638796 197.93353 100.11914 197.61328 C 100.86133 197.11842 101.24003 197.03125 102.64453 197.03125 C 103.55351 197.03125 104.29687 196.93743 104.29687 196.82226 C 104.29687 196.45043 105.1506 196.32935 106.05273 196.57226 C 107.18885 196.87819 108.5765 198.35919 110.0332 200.82226 C 110.71841 201.98085 111.50928 202.98307 112.09179 203.42968 C 112.96226 204.09708 113.1608 204.15153 114.5625 204.11523 C 116.87774 204.05522 117.36984 203.64978 119.25195 200.25781 C 121.0951 196.93604 122.96786 195.52083 124.33789 196.41211 C 124.61521 196.59252 125.65096 196.85792 126.63867 197.0039 C 127.62637 197.14988 128.84529 197.4697 129.34765 197.71289 C 129.85001 197.95608 130.36044 198.15429 130.48047 198.15429 C 130.60049 198.15429 131.16726 197.67449 131.74219 197.08789 C 134.04097 194.74246 133.7331 193.04693 130.57617 190.67382 C 126.74593 187.79458 120.45062 186.18512 113.86719 186.3125 z M 127.38476 199.40234 L 126.76758 200.01367 C 126.09668 200.67738 125.13715 201.71542 124.99804 201.92773 C 124.91592 202.05302 124.92079 202.07041 125.07226 202.22851 C 125.16055 202.32066 125.38288 202.4708 125.5664 202.5625 C 125.95658 202.75746 126.09204 202.76817 126.375 202.62304 C 126.66076 202.47648 128.59414 200.8073 129.10156 200.26953 L 129.26172 200.09961 L 129.04492 199.99023 C 128.92567 199.92988 128.5043 199.77382 128.10742 199.64257 L 127.38476 199.40234 z M 100.98828 199.49218 C 100.96202 199.49311 100.93665 199.49734 100.91211 199.50195 C 100.57987 199.56428 100.02502 199.80811 99.890623 199.95117 C 99.718047 200.13486 99.76943 200.29027 100.1289 200.68359 C 100.7908 201.40781 101.61081 201.87919 102.55664 202.07617 C 102.80209 202.12737 103.48636 202.10827 103.62109 202.04687 C 103.70167 202.01017 103.76367 201.9354 103.76367 201.875 C 103.76367 201.70446 103.47724 201.33476 102.9414 200.8164 C 101.97541 199.88193 101.38219 199.4783 100.98828 199.49218 z "
       transform="matrix(2.6458333,0,0,2.6458333,1485.4842,829.46784)" /><path
       id="path35"
       style="fill:#008000;fill-opacity:1;stroke:none;stroke-width:0.480067;stroke-linecap:round;stroke-linejoin:round;stroke-dasharray:none;stroke-opacity:1"
       d="M 209.80859 5.1542968 C 207.63419 5.0973961 198.77052 6.2905205 196.12304 7.0781249 C 194.55584 7.5443533 194.45471 7.8341576 193.93554 13.314453 C 193.50326 17.877591 193.34952 18.943355 192.89843 20.5 C 192.68547 21.234863 192.51172 21.869769 192.51172 21.912109 C 192.51172 22.082566 192.71382 21.945359 193.97461 20.923828 C 198.46894 17.282365 204.90512 11.524098 207.02539 9.2460936 C 208.65898 7.4909708 210.29297 5.4973998 210.29297 5.2597655 C 210.29297 5.1957818 210.11922 5.1624255 209.80859 5.1542968 z M 20.722656 5.1972655 C 20.410076 5.2017417 20.219324 5.2285492 20.185547 5.283203 C 19.982712 5.6113977 21.637203 7.5503678 24.826171 10.722656 C 28.015315 13.895121 29.589542 15.304828 35.003906 19.832031 C 36.442153 21.034615 37.642904 21.948228 37.671874 21.861328 C 37.700842 21.774421 37.61656 21.285754 37.484374 20.77539 C 36.948746 18.707341 36.744394 17.384389 36.511718 14.478515 C 36.231058 10.973366 36.052086 9.6777575 35.701171 8.6015624 C 35.41934 7.7372329 34.952356 7.3685556 33.660156 6.9960936 C 31.099141 6.2579103 22.910718 5.1659323 20.722656 5.1972655 z M 211.96093 5.7871093 L 211.03125 6.9765624 C 208.66809 9.9958622 205.78744 12.837179 199.18945 18.660156 C 197.13226 20.475704 195.09091 22.286871 194.65429 22.683593 C 194.21766 23.080315 193.9106 23.408209 193.9707 23.412109 C 194.03078 23.416021 194.54438 23.311621 195.11328 23.179687 C 197.03111 22.734909 199.51216 22.630892 203.72656 22.820312 C 207.3767 22.984368 207.80268 22.976968 208.74218 22.722656 C 210.31117 22.29795 210.71545 21.989929 210.99804 21.003906 C 211.534 19.133795 212.13996 10.914613 212.01172 7.2597655 L 211.96093 5.7871093 z M 18.298828 5.7968749 C 17.997225 5.791897 18.299315 13.698195 18.746093 17.507812 C 19.080338 20.357869 19.342346 21.331824 19.921875 21.863281 C 20.777059 22.647529 21.265931 22.700667 27.705078 22.710937 C 31.666353 22.717253 33.819815 22.778825 34.136718 22.896484 C 34.398692 22.993747 34.891418 23.08039 35.232421 23.08789 L 35.851562 23.101562 L 35.550781 22.761718 C 35.384428 22.575185 33.604914 20.950491 31.597656 19.15039 C 25.870276 14.014101 19.861883 8.007667 18.753906 6.3124999 C 18.569115 6.0297759 18.364318 5.7979549 18.298828 5.7968749 z M 193.16992 7.8593749 C 192.76324 7.8593749 188.6698 9.3012457 186.71679 10.132812 C 183.83739 11.358824 183.39506 11.664936 182.84765 12.818359 C 182.58811 13.365212 182.19341 14.492681 181.96875 15.322265 C 181.06486 18.660069 180.87996 21.735398 181.3164 26.197265 C 181.44452 27.507134 181.55073 28.626456 181.55273 28.685546 C 181.55452 28.744636 181.68116 28.827257 181.83398 28.867187 C 181.9868 28.907127 182.85094 28.946901 183.75586 28.957031 L 185.40234 28.976562 L 186.40234 27.894531 C 187.97731 26.193412 189.36911 24.515997 189.92382 23.65039 C 191.01338 21.95015 191.71877 19.413581 192.10547 15.796875 C 192.58456 11.315973 192.69864 10.532721 193.06445 9.2031248 C 193.39757 7.9923548 193.40787 7.8593749 193.16992 7.8593749 z M 37.033202 7.8671874 C 36.891406 7.8752001 36.909543 7.9644624 36.976562 8.1933592 C 37.602669 10.331772 37.869609 11.799567 38.097656 14.36914 C 38.426103 18.069978 38.569244 18.980158 39.078124 20.603515 C 39.627575 22.356294 40.545723 24.079346 41.574218 25.287109 C 42.040191 25.834303 43.807105 27.773511 45.501952 29.595703 L 48.583984 32.908203 L 48.689452 30.519531 C 48.747169 29.205668 48.886587 27.26646 48.999999 26.210937 C 49.355179 22.905276 49.277292 20.028447 48.763671 17.544922 C 48.272954 15.17215 47.337626 12.105617 47.033202 11.86914 C 46.246625 11.258126 38.738841 8.1603167 37.486327 7.9296874 C 37.262035 7.8883879 37.11828 7.8623797 37.033202 7.8671874 z M 181.07422 13.257812 C 180.53067 13.257812 177.07721 16.032403 174.35937 18.652343 L 172.63476 20.314453 L 172.72851 22.302734 C 172.7805 23.396554 172.86652 25.350168 172.91992 26.644531 L 173.01758 28.998046 L 176.24218 28.947265 C 178.01557 28.919109 179.5089 28.852608 179.5625 28.798828 C 179.6161 28.745046 179.58885 27.516145 179.50195 26.068359 C 179.28861 22.513072 179.47625 20.52649 180.37109 16.867187 C 180.76054 15.27458 181.11701 13.811714 181.16211 13.615234 C 181.20801 13.415574 181.16952 13.257812 181.07422 13.257812 z M 49.277343 13.291015 C 49.237278 13.288207 49.205901 13.296051 49.187499 13.314453 C 49.142988 13.358964 49.431351 14.739886 49.828124 16.382812 C 50.224896 18.025739 50.627475 19.978444 50.722655 20.720703 C 50.817836 21.462962 50.927033 22.313093 50.964843 22.611328 C 51.002654 22.909562 50.923034 24.802491 50.787108 26.818359 C 50.306797 33.941701 50.723382 35.594134 54.179687 40.246093 L 55.888671 42.544921 L 56.009765 40.166015 C 56.134657 37.728133 56.175593 37.518731 57.564452 32.310546 C 58.279512 29.62909 58.324721 27.978017 57.802733 23.65625 L 57.380858 20.164062 L 55.390624 18.208984 C 52.825266 15.690688 49.878312 13.333136 49.277343 13.291015 z M 171.39453 22.228515 L 170.84961 22.99414 C 169.87855 24.359955 168.34527 27.5831 167.6289 29.763671 C 167.30161 30.759921 167.15996 36.05294 167.41797 37.652343 C 167.63565 39.001729 168.24819 40.892598 169.03125 42.630859 L 169.56836 43.820312 L 169.60937 37.156249 L 169.65234 30.492187 L 170.37304 29.759765 L 171.09375 29.027343 L 171.24023 26.261718 C 171.32069 24.741347 171.38862 23.2123 171.39062 22.863281 L 171.39453 22.228515 z M 58.816405 22.386718 L 58.90039 22.943359 C 59.053665 23.957664 59.300448 27.922412 59.30078 29.373046 C 59.301013 30.392316 59.141163 31.574711 58.742186 33.499999 C 57.650865 38.766228 57.672454 38.593752 57.765624 40.884765 C 57.853099 43.035721 58.124686 44.578306 58.611327 45.687499 C 58.754998 46.014966 58.934301 46.281249 59.007811 46.281249 C 59.495302 46.281249 61.088395 43.171821 62.001952 40.439452 C 63.384558 36.304197 63.462401 32.521533 62.240233 28.86914 C 61.610553 26.987366 60.025917 23.803323 59.291015 22.943359 L 58.816405 22.386718 z M 20.09375 23.611328 C 19.960378 23.637573 19.973614 23.79107 20.029297 24.09375 C 20.196029 25.00007 21.364347 28.521085 22.095703 30.318359 C 23.29011 33.253562 24.21191 34.186173 26.753906 35.039062 C 27.513199 35.29382 27.999415 35.321752 30.484374 35.257812 C 32.056217 35.21737 34.026601 35.074954 34.863281 34.941406 C 38.817627 34.310227 42.272405 34.334141 45.376952 35.011718 C 47.471564 35.468873 47.529144 35.457587 46.986327 34.730468 C 46.160032 33.623618 43.90664 31.084123 42.392577 29.552734 C 39.671173 26.800188 37.592233 25.391409 35.302734 24.748046 C 34.399795 24.494315 29.125378 24.239696 24.417968 24.222656 C 22.232748 24.214744 21.720999 24.164095 21.037109 23.894531 C 20.506375 23.685334 20.227121 23.585082 20.09375 23.611328 z M 210.44531 23.701171 L 210.01172 23.796875 C 208.69736 24.088134 206.63045 24.223769 201.56054 24.351562 C 195.39024 24.507091 195.21934 24.530764 193.0664 25.580078 C 191.94281 26.127701 190.82292 26.910337 189.40039 28.140625 L 188.62109 28.814453 L 198.70898 28.816406 L 208.79687 28.816406 L 209.38086 27.109375 C 209.70135 26.170636 210.07231 25.021027 210.20507 24.552734 L 210.44531 23.701171 z M 40.68164 36.107421 C 39.250793 36.103432 37.660665 36.224892 36.007812 36.474609 C 34.152032 36.754986 32.961075 36.830131 30.326171 36.832031 C 28.492355 36.833378 26.755678 36.782689 26.46875 36.718749 L 25.947265 36.603515 L 26.445312 37.324218 C 29.172705 41.288348 32.709366 44.684619 35.138671 45.669921 C 35.781438 45.930618 36.194237 45.961979 38.185546 45.906249 C 40.255871 45.848304 40.863395 45.758615 44.218749 45.003905 C 47.508186 44.264021 48.155576 44.164768 49.695312 44.167968 C 51.116725 44.170939 51.692707 44.248714 52.787108 44.583984 C 53.526689 44.810555 54.150047 44.974951 54.173827 44.951171 C 54.281164 44.843833 52.233582 41.984835 51.126952 40.697265 C 49.109689 38.350168 47.337842 37.243688 44.398437 36.498046 C 43.384716 36.240895 42.112487 36.11141 40.68164 36.107421 z M 52.101562 45.408202 L 49.70703 45.412109 C 47.438755 45.415526 47.172295 45.449986 44.597655 46.08203 C 43.103395 46.448853 41.191282 46.872351 40.349609 47.021484 C 38.825629 47.291513 38.569219 47.415824 39.097656 47.630859 C 41.326323 48.537766 44.459379 49.323466 46.361327 49.451171 C 50.272674 49.713794 54.361625 49.159101 55.64453 48.191405 L 56.035155 47.896484 L 55.406249 47.316405 C 55.059916 46.997852 54.175128 46.437704 53.439452 46.072265 L 52.101562 45.408202 z "
       transform="matrix(2.6458333,0,0,2.6458333,1485.4842,829.46784)" /></g><metadata
     id="metadata26"><rdf:RDF><cc:Work
         rdf:about=""><dc:title>FreeCAD SVG Export</dc:title></cc:Work></rdf:RDF></metadata></svg>
