<?xml version="1.0" encoding="UTF-8" standalone="no"?>
<!-- Created with Inkscape (http://www.inkscape.org/) -->

<svg
   width="15.139636mm"
   height="20.000038mm"
   viewBox="0 0 15.139636 20.000038"
   version="1.1"
   id="svg1"
   xml:space="preserve"
   sodipodi:docname="arm-design.svg"
   inkscape:version="1.4 (86a8ad7, 2024-10-11)"
   xmlns:inkscape="http://www.inkscape.org/namespaces/inkscape"
   xmlns:sodipodi="http://sodipodi.sourceforge.net/DTD/sodipodi-0.dtd"
   xmlns="http://www.w3.org/2000/svg"
   xmlns:svg="http://www.w3.org/2000/svg"><sodipodi:namedview
     id="namedview1"
     pagecolor="#505050"
     bordercolor="#eeeeee"
     borderopacity="1"
     inkscape:showpageshadow="0"
     inkscape:pageopacity="0"
     inkscape:pagecheckerboard="0"
     inkscape:deskcolor="#505050"
     inkscape:document-units="mm"
     showguides="true"
     inkscape:zoom="5.7513468"
     inkscape:cx="335.66051"
     inkscape:cy="441.72262"
     inkscape:window-width="1920"
     inkscape:window-height="1009"
     inkscape:window-x="-8"
     inkscape:window-y="-8"
     inkscape:window-maximized="1"
     inkscape:current-layer="layer1"><inkscape:page
       x="0"
       y="0"
       width="15.139636"
       height="20.000038"
       id="page2"
       margin="0"
       bleed="0" /></sodipodi:namedview><defs
     id="defs1" /><g
     inkscape:label="Calque 1"
     inkscape:groupmode="layer"
     id="layer1"
     transform="translate(-113.11619,-108.42234)"><path
       id="path274"
       style="fill:#000000;stroke-width:0.0817981"
       d="m 125.47296,108.42232 -5.2e-4,5.2e-4 c -0.17704,-0.003 -0.35438,0.0121 -0.52916,0.0398 -0.81639,0.13281 -1.56924,0.50132 -2.29134,0.88935 -0.54291,0.28729 -1.06432,0.61355 -1.56631,0.96738 -0.79892,0.53798 -1.54242,1.15532 -2.23294,1.82625 -0.47679,0.46719 -0.93744,0.95209 -1.3658,1.46399 -0.54693,0.67884 -1.06926,1.37974 -1.51929,2.12752 -0.58202,0.99328 -1.08078,2.03656 -1.47588,3.11816 -0.28636,0.80052 -0.5453,1.6119 -0.74569,2.43861 -0.163,0.67748 -0.31006,1.35942 -0.40876,2.04949 -0.0923,0.58529 -0.14879,1.17514 -0.19379,1.76578 -0.0272,0.43074 -0.0463,0.86582 0.004,1.29553 0.0102,0.18468 0.1147,0.3878 0.30489,0.4377 0.25289,0.0312 0.50966,0.0254 0.76429,0.0284 0.49386,0.008 0.98814,0.002 1.48156,0.0263 0.65164,0.0513 1.29884,0.11954 1.94252,0.23358 0.6156,0.11939 1.22952,0.26654 1.8278,0.43873 0.56437,0.17041 1.12212,0.3547 1.64951,0.62115 0.14522,0.0654 0.28385,0.14779 0.43408,0.19999 0.0324,0.0504 0.10696,0.0293 0.15606,0.0145 0.25929,-0.0854 0.50624,-0.20757 0.74208,-0.34468 0.49011,-0.29712 0.94058,-0.6856 1.2361,-1.18236 0.0231,0.0603 0.0469,0.12085 0.0786,0.17725 0.0544,0.098 0.16942,0.20393 0.28835,0.15193 0.20945,-0.091 0.36299,-0.27375 0.48886,-0.45888 0.1983,-0.31392 0.33889,-0.66949 0.38189,-1.03973 0.0541,-0.38262 -7e-4,-0.76823 -0.0724,-1.14464 0.12853,0.10887 0.23312,0.24947 0.38447,0.32867 0.13732,0.0756 0.2972,-0.0404 0.3359,-0.17622 0.0421,-0.19813 0.0297,-0.40444 0.0186,-0.60565 -0.0305,-0.35598 -0.11765,-0.70529 -0.22686,-1.0449 -0.17778,-0.48808 -0.40845,-0.95738 -0.68626,-1.39629 0.0538,-0.0311 1.58316,-1.51779 2.25878,-2.31718 0.34563,-0.39371 0.79588,-1.43935 1.12861,-2.62051 0.13121,-0.61978 0.18769,-1.2532 0.19069,-1.88619 8e-4,-0.54326 -0.003,-1.08802 -0.0651,-1.62832 -0.0579,-0.54249 -0.12639,-1.08585 -0.25166,-1.61747 -0.0969,-0.4443 -0.22634,-0.88102 -0.39584,-1.30328 -0.223,-0.55407 -0.52228,-1.10522 -1.00304,-1.47692 -0.30137,-0.24422 -0.6838,-0.36822 -1.06712,-0.39739 z" /></g></svg>
