<?xml version="1.0" encoding="UTF-8" standalone="no"?>
<!-- Created with Inkscape (http://www.inkscape.org/) -->

<svg
   width="56.941456mm"
   height="81.358414mm"
   viewBox="0 0 56.941456 81.358414"
   version="1.1"
   id="svg1"
   xml:space="preserve"
   sodipodi:docname="arm-design.svg"
   inkscape:version="1.4 (86a8ad7, 2024-10-11)"
   xmlns:inkscape="http://www.inkscape.org/namespaces/inkscape"
   xmlns:sodipodi="http://sodipodi.sourceforge.net/DTD/sodipodi-0.dtd"
   xmlns="http://www.w3.org/2000/svg"
   xmlns:svg="http://www.w3.org/2000/svg"><sodipodi:namedview
     id="namedview1"
     pagecolor="#505050"
     bordercolor="#eeeeee"
     borderopacity="1"
     inkscape:showpageshadow="0"
     inkscape:pageopacity="0"
     inkscape:pagecheckerboard="0"
     inkscape:deskcolor="#505050"
     inkscape:document-units="mm"
     showguides="true"
     inkscape:zoom="2.0334082"
     inkscape:cx="311.54591"
     inkscape:cy="696.61371"
     inkscape:window-width="1920"
     inkscape:window-height="1009"
     inkscape:window-x="-8"
     inkscape:window-y="-8"
     inkscape:window-maximized="1"
     inkscape:current-layer="layer1"><inkscape:page
       x="0"
       y="0"
       width="56.941456"
       height="81.358414"
       id="page2"
       margin="0"
       bleed="0" /></sodipodi:namedview><defs
     id="defs1" /><g
     inkscape:label="Calque 1"
     inkscape:groupmode="layer"
     id="layer1"
     transform="translate(-59.239919,-102.49508)"><g
       id="g263"><path
         id="path262"
         style="fill:#d45500;fill-opacity:1;stroke-width:0.393427;stroke-linecap:round;stroke-linejoin:round;paint-order:markers stroke fill"
         d="m 90.243959,104.21852 c -4.231593,1.10346 -8.295188,3.2965 -11.05204,6.76186 -0.373827,0.57478 -0.153088,-0.40472 -0.165881,-0.60513 0.119523,-1.55698 0.676304,-3.05287 0.803053,-4.59713 -0.43216,-0.56348 -1.082011,0.23393 -1.486215,0.47077 -3.089677,2.33646 -5.555882,5.54692 -6.66936,9.28522 -0.228584,0.60753 -0.324638,1.36046 -0.651639,1.88516 -0.972434,-1.3883 -1.026227,-3.2004 -1.637628,-4.7408 -0.612995,-0.22888 -0.682684,0.86965 -0.981851,1.28726 -1.362501,2.97806 -1.439203,6.39201 -0.78238,9.55807 -1.349796,-1.21093 -2.30377,-2.78869 -3.431316,-4.19612 -0.631531,-0.26082 -0.624586,0.72181 -0.635103,1.10277 -0.204681,2.90741 0.161388,5.84486 1.178738,8.58139 0.505592,1.54103 1.318897,2.9533 2.261877,4.25969 -1.773465,-0.71688 -3.197129,-2.10486 -4.92838,-2.87734 -0.607184,0.19313 -0.121618,0.99557 -0.05839,1.41283 1.27888,4.12061 4.665102,7.2008 8.294066,9.31829 -1.863868,-0.0109 -3.750712,-0.27485 -5.614643,-0.1757 -0.489495,0.46724 0.296841,1.02543 0.581877,1.38648 2.827514,2.80072 6.604664,4.26331 9.97355,6.26577 -2.07578,0.40818 -4.275121,0.78346 -6.056479,1.99368 -0.600628,0.53957 -1.37033,1.03498 -1.700154,1.78335 0.245163,0.61175 1.005684,0.0111 1.437121,-0.0801 0.505214,-0.17882 1.032471,-0.31232 1.569416,-0.339 -1.215469,1.19893 -2.514029,2.4065 -3.36827,3.89486 0.111551,0.67895 0.964501,0.16873 1.400947,0.11885 4.465151,-0.85593 9.15402,-0.25237 13.389364,1.31413 4.632354,1.64216 8.936821,4.31391 12.110371,8.09563 1.920933,2.18414 3.635621,4.6948 4.264855,7.59386 0.275974,0.64866 0.213051,1.52465 0.701249,2.04742 0.760021,0.0816 1.254686,-0.77092 1.796786,-1.18184 1.04591,-0.99976 1.93884,-2.15812 2.96571,-3.16777 0.0929,0.57818 -0.42302,1.43824 0.14986,1.76889 0.9647,-0.89924 1.66144,-2.12193 2.32751,-3.27577 1.04748,-1.87199 1.64933,-4.00181 1.48983,-6.15777 0.0738,-0.20367 -0.10772,-1.13145 0.14728,-0.95188 0.9183,1.1102 1.47121,2.47938 1.97507,3.79512 0.62655,0.20379 0.53568,-0.90045 0.73071,-1.32447 0.66274,-3.57737 0.23346,-7.41361 -1.53738,-10.62622 -0.1128,-0.2423 -0.37247,-0.72811 0.0651,-0.31523 1.16793,0.78529 2.12221,1.85215 3.31092,2.59726 0.6672,-0.10617 0.18386,-0.96398 0.11782,-1.38338 -0.79304,-2.56498 -1.75515,-5.14442 -3.54036,-7.20111 -0.65899,-0.90723 -1.63748,-1.84715 -2.2009,-2.65772 1.13795,0.25694 2.2333,0.8348 3.39618,0.98547 0.48661,-0.41257 -0.28802,-0.93897 -0.47387,-1.32757 -1.60437,-2.31258 -3.77761,-4.11563 -5.96656,-5.84667 -0.29562,-0.33295 -0.91173,-0.60645 -1.04748,-1.01079 1.12934,-0.40133 2.32506,-0.73543 3.27886,-1.51722 1.29703,-0.87526 2.17737,-2.18059 3.13108,-3.38222 0.37212,-0.39322 0.24037,0.49827 0.2899,0.6935 0.12287,0.50927 -0.0783,1.41451 0.52865,1.55029 1.7299,-1.98506 2.14571,-4.77395 2.2717,-7.32514 0.0949,-1.32789 -0.24043,-2.62945 -0.50746,-3.90415 0.94141,0.39802 1.59999,1.32779 2.5616,1.64486 0.62493,-0.25136 0.015,-1.0597 -0.0512,-1.50843 -1.22851,-3.03288 -3.0367,-5.9998 -5.83065,-7.8233 -0.27524,-0.22688 -0.81817,-0.53213 -0.92294,-0.75241 1.3614,-0.2585 2.78728,-0.12825 4.12119,-0.42064 0.0672,-0.59591 -0.7051,-0.94021 -1.0573,-1.36995 -2.79409,-2.43384 -6.39881,-4.00485 -10.1384,-3.98942 -0.21464,-0.072 -1.108637,0.0821 -0.703311,-0.32762 0.731761,-0.98537 1.968641,-1.47899 2.672701,-2.46704 -0.0286,-0.60817 -0.93458,-0.4588 -1.36839,-0.6196 -4.245088,-0.65586 -8.883472,-0.12086 -12.403891,2.51354 0.384924,-1.51553 1.364869,-2.72026 2.053106,-4.07882 0.09137,-0.24447 -0.119407,-0.50078 -0.378272,-0.4408 z m 4.648295,13.68702 c 2.418723,-0.0387 5.040728,0.75563 6.622336,2.72335 1.70691,1.82796 2.52273,4.56773 1.63969,6.95565 -1.00298,2.79922 -4.332734,4.44961 -7.164418,3.5202 -2.076955,-0.41647 -3.938426,-2.3416 -3.692282,-4.55373 -0.107214,-2.01742 2.096064,-3.61762 4.028694,-3.15898 1.02725,0.20364 2.19033,0.92198 2.3797,2.02106 0.05555,0.50326 -0.129789,1.26157 -0.584978,1.47898 -0.290931,-0.84631 -0.151702,-2.0641 -1.169953,-2.46134 -1.517899,-0.91024 -3.72142,0.2458 -3.763595,2.02519 -0.31727,2.24339 1.931543,4.0675 4.042648,4.02198 2.417316,0.21628 4.874154,-1.54609 5.239474,-3.97909 0.31503,-2.36376 -0.7088,-4.83478 -2.686141,-6.19497 -3.338619,-2.47826 -8.612111,-2.147 -11.303704,1.14412 -1.904987,1.96503 -2.448206,4.88274 -1.950268,7.50859 0.628706,3.69364 3.502658,6.40791 5.959843,9.01082 0.28412,0.31955 1.245674,1.21963 0.380855,0.59789 -2.751344,-1.66422 -5.056955,-4.09541 -6.381007,-7.02851 -1.042389,-2.21669 -1.535335,-4.81463 -0.928108,-7.22695 0.734444,-2.09612 2.510655,-3.64133 4.254005,-4.91443 1.491904,-1.00522 3.286951,-1.48529 5.077209,-1.48983 z m -14.830102,14.92519 c 1.748978,0.027 2.942685,2.20532 1.99781,3.6835 -0.883848,1.56258 -3.468719,1.56798 -4.272092,-0.0941 -0.624176,-1.14245 -0.181004,-2.87201 1.122413,-3.33106 0.35954,-0.16566 0.753906,-0.26935 1.151869,-0.25838 z m 5.281332,8.49044 c 3.7524,0.0521 7.06832,2.82559 8.42274,6.20789 0.68857,0.44921 0.548481,-0.80402 0.772562,-1.22629 0.45102,-1.44691 1.446081,-2.68512 2.641701,-3.57394 0.513241,-0.32255 0.819407,0.54469 1.050581,0.85422 1.028187,1.8423 0.936339,4.16073 0.02223,6.0172 0.08546,0.6849 1.110784,0.28292 1.610757,0.43821 0.455715,0.0918 1.274825,-0.0285 1.441255,0.51057 -0.44615,1.34305 -1.695065,2.2561 -2.76159,3.1104 -1.451964,0.88101 -3.186345,0.73968 -4.772834,1.15394 -1.149848,0.82931 -2.164964,1.98784 -3.642156,2.23862 -0.638964,0.12785 -1.303404,0.19977 -1.951302,0.0987 1.881632,-0.65644 3.841234,-1.63174 4.776454,-3.49953 1.480899,-2.84062 0.385527,-6.30032 -1.538925,-8.64288 -1.938685,-2.52395 -5.683949,-3.73681 -8.584489,-2.17558 -1.852366,0.87302 -3.131801,2.8925 -2.836002,4.96507 0.09682,3.09778 3.764804,5.5978 6.622851,4.21318 1.589368,-0.73587 2.285955,-3.29002 0.815454,-4.47673 -0.767101,-0.74111 -2.163421,-0.98853 -2.876309,-0.0403 -0.528566,0.54212 -0.524619,1.3909 -0.195339,2.03037 -0.893609,-0.23198 -1.398067,-1.31313 -0.882632,-2.11512 0.653166,-1.34411 2.422353,-1.76198 3.688662,-1.0418 2.314334,0.9823 2.626045,4.69662 0.431499,5.98361 -2.060917,1.08747 -4.766887,0.71778 -6.617685,-0.66507 -1.320464,-1.03507 -1.831721,-2.70039 -1.844331,-4.33462 -0.185361,-1.31628 0.130318,-2.74038 1.132748,-3.67781 1.2617,-1.48351 3.118339,-2.37519 5.07411,-2.35231 z m -17.424778,23.70604 c -1.350701,0.0984 -2.860289,-0.15055 -4.083471,0.54416 -0.683077,0.7952 -0.515308,1.98697 -0.608748,2.96467 -0.05856,1.4527 0.200549,2.88906 0.369485,4.32067 -1.112313,-0.69575 -1.829358,-1.904 -2.890263,-2.62878 -0.497446,0.32916 -0.178435,1.13539 -0.195853,1.67018 0.465413,2.60467 1.878029,5.16633 4.117063,6.64197 0.407193,0.30273 1.14409,0.33009 1.457274,0.38964 -0.347247,0.30315 -1.269709,0.65706 -0.8754,1.21905 2.946805,1.50808 6.419125,1.3579 9.600448,0.83923 -0.317833,0.53692 -1.360733,0.54746 -1.310513,1.2733 0.436859,0.62585 1.392997,0.25205 2.032434,0.35761 3.350255,-0.0228 6.720798,-0.29253 9.938928,-1.28261 1.67672,-0.51503 3.435495,-0.93391 4.961453,-1.81333 0.420404,-0.68656 -0.362784,-1.41376 -0.631484,-2.0128 -3.85591,-6.3518 -10.46041,-11.09527 -17.82682,-12.32069 -1.343872,-0.17152 -2.702261,-0.16359 -4.054533,-0.16227 z" /><path
         id="path249"
         style="fill:#008000;fill-opacity:1;stroke-width:0.196714;stroke-linecap:round;stroke-linejoin:round;paint-order:markers stroke fill"
         d="m 97.206323,143.84194 c -0.540583,0.14928 -0.866738,0.68965 -1.241266,1.07281 -1.158494,1.38407 -1.15085,3.28498 -1.339453,4.98522 -0.02445,0.7368 -0.210111,1.50461 -0.03772,2.22416 0.415901,0.25215 0.651248,-0.36127 0.937411,-0.57723 1.232505,-1.35422 2.515912,-2.83348 2.900082,-4.67568 0.192185,-1.02944 -0.108924,-2.19652 -0.887286,-2.9161 -0.09628,-0.0685 -0.211897,-0.11716 -0.331764,-0.11318 z m 2.602942,6.78254 c -0.04605,5.2e-4 -0.09009,0.003 -0.129707,0.008 -0.845293,0.0835 -1.748581,0.0401 -2.532144,0.41031 -0.943287,0.65336 -1.844244,1.40362 -2.575039,2.29133 -0.270282,0.31015 0.0011,0.75436 0.383958,0.75706 0.988198,0.0912 1.970323,-0.28234 2.832386,-0.73742 0.991931,-0.57187 1.932493,-1.29315 2.622581,-2.21175 0.15108,-0.4095 -0.27968,-0.52024 -0.602035,-0.51728 z m -27.365769,8.4093 c -1.107287,0.0514 -2.222265,0.10144 -3.316078,0.28732 -0.386774,0.0527 -0.446435,0.5167 -0.320911,0.81804 0.261287,1.03388 0.54152,2.07132 0.911572,3.06855 0.16579,0.28964 0.492641,0.0533 0.599964,-0.16433 0.855805,-1.12391 1.716002,-2.24532 2.659787,-3.29748 0.178004,-0.16262 0.325654,-0.50725 0.04031,-0.64647 -0.1783,-0.0806 -0.3843,-0.061 -0.574641,-0.0656 z m 2.971911,0.40979 c -0.244845,-0.008 -0.486812,0.20013 -0.401526,0.45992 0.247512,1.2293 0.553336,2.45154 0.947745,3.64216 0.05738,0.2599 0.353507,0.45128 0.58601,0.25942 1.288923,-0.82039 2.52295,-1.72564 3.757911,-2.62465 0.272116,-0.15904 0.139002,-0.55108 -0.139525,-0.61082 -1.379688,-0.53845 -2.834143,-0.88479 -4.298447,-1.09605 -0.133774,-0.0153 -0.268314,-0.0271 -0.403077,-0.0258 -0.01625,-0.002 -0.03277,-0.004 -0.04909,-0.004 z m -9.06663,0.2341 c -0.01392,-2.6e-4 -0.02761,2.6e-4 -0.04186,0.002 -0.494988,0.0986 -1.03904,0.21049 -1.416969,0.56895 -0.417242,0.53062 -0.50628,1.23353 -0.703834,1.86191 -0.04943,0.34071 -0.262895,0.70461 -0.131257,1.04489 0.181716,0.25163 0.494041,0.0567 0.581359,-0.17105 0.621689,-0.99004 1.369732,-1.89212 1.989026,-2.88199 0.09747,-0.20209 -0.06757,-0.4205 -0.276468,-0.42478 z m 15.626437,1.76423 c -0.02551,-7.9e-4 -0.05153,1.3e-4 -0.07751,0.003 -0.339543,0.23663 -0.185248,0.71461 -0.217559,1.06867 0.05233,1.40126 0.123169,2.81623 0.432533,4.18785 0.0024,0.3047 0.33928,0.44111 0.568957,0.2527 1.402093,-0.65249 2.818834,-1.28305 4.170804,-2.03553 0.259186,-0.10841 0.505468,-0.47558 0.222208,-0.6966 -1.436471,-1.02274 -2.979026,-1.90158 -4.584732,-2.63033 -0.168367,-0.0573 -0.336089,-0.14481 -0.514696,-0.14986 z m 6.070946,3.70779 c -0.0397,0.0116 -0.07915,0.023 -0.118856,0.0346 -0.218922,0.27726 -0.08073,0.67175 -0.149344,1.00201 -0.108156,1.44744 -0.401333,2.87285 -0.550355,4.31549 0.01834,0.40173 0.476192,0.26463 0.734838,0.21653 1.391809,-0.25529 2.800983,-0.44809 4.165637,-0.82889 0.3628,-0.17394 0.07473,-0.56096 -0.07545,-0.79013 -0.943035,-1.25426 -2.060299,-2.37184 -3.227194,-3.41736 -0.25885,-0.17084 -0.461391,-0.50745 -0.77928,-0.53227 z m 5.025533,5.87044 c -0.01707,0.001 -0.03383,0.004 -0.05116,0.009 -0.308393,0.15855 -0.349925,0.57064 -0.517797,0.84646 -0.487347,1.15692 -1.008846,2.30753 -1.37046,3.5109 -0.07873,0.28624 0.214916,0.4801 0.472324,0.4377 1.015158,0.0371 2.026581,-5.3e-4 3.037022,0.061 0.289047,-0.0184 0.800753,0.0804 0.793234,-0.34933 0.02186,-0.59648 -0.317145,-1.13337 -0.53485,-1.66967 -0.459258,-0.92143 -0.89526,-1.87136 -1.521354,-2.69389 -0.07609,-0.0897 -0.187478,-0.16088 -0.306959,-0.15193 z" /><path
         id="path256"
         style="fill:#800000;fill-opacity:1;stroke-width:0.139098;stroke-linecap:round;stroke-linejoin:round;paint-order:markers stroke fill"
         d="m 72.806779,156.33265 c -1.958136,0.0459 -3.973583,0.23701 -5.776907,1.05575 -0.705286,0.33556 -1.390147,0.84559 -1.717725,1.57252 -0.07684,0.28852 0.27042,0.43359 0.494027,0.31419 2.049185,-0.66863 4.202052,-0.82097 6.33398,-0.80667 2.890112,0.0434 5.768345,0.42192 8.467701,1.49965 3.154145,1.22479 6.120074,2.97378 8.656317,5.22707 1.392785,1.29331 2.733305,2.65929 3.811654,4.23178 1.236998,1.72022 2.172792,3.62707 2.879413,5.61413 0.200276,0.45214 0.300609,0.96005 0.574124,1.37408 0.377735,0.2872 0.903946,0.0134 1.203026,-0.2713 0.482986,-0.44863 0.30103,-1.15893 0.216525,-1.72755 -0.606256,-3.60728 -2.687172,-6.79134 -5.200198,-9.37617 -3.010053,-3.12565 -6.752719,-5.52048 -10.803993,-7.05797 -2.913515,-1.1004 -6.019202,-1.69796 -9.137944,-1.64951 z m 1.163238,3.35174 c -0.05128,0.003 -0.09573,0.0384 -0.144695,0.061 -1.315072,1.14636 -2.24676,2.64093 -3.40496,3.92741 -0.201604,0.29243 0.155231,0.49213 0.414446,0.50177 1.434632,0.24496 2.84992,0.54277 4.264337,0.89556 0.345655,0.0658 0.435727,-0.35565 0.382408,-0.61237 -0.164269,-1.36893 -0.510143,-2.71648 -0.9617,-4.01784 -0.134212,-0.25749 -0.186256,-0.66556 -0.495577,-0.74673 -0.01902,-0.008 -0.03717,-0.01 -0.05426,-0.009 z m -6.15053,0.29662 c -0.01302,-7.9e-4 -0.02614,-5.3e-4 -0.03927,5.3e-4 -0.389834,0.11942 -0.590227,0.53869 -0.859377,0.81752 -0.877263,1.10775 -1.646261,2.30905 -2.609144,3.3414 -0.218678,0.23862 0.09184,0.5826 0.364318,0.45268 1.483961,-0.30906 3.005609,-0.33778 4.507736,-0.50177 0.373758,-0.11699 0.161922,-0.53549 0.08785,-0.786 -0.37688,-1.07371 -0.73398,-2.16236 -1.225764,-3.18947 -0.04883,-0.0779 -0.135181,-0.12939 -0.226343,-0.13488 z m 12.588896,1.95079 c -0.627555,0.0986 -1.116896,0.56192 -1.626775,0.90692 -0.904295,0.68704 -1.781193,1.41933 -2.714561,2.06137 -0.246087,0.25991 0.119128,0.49678 0.356565,0.55862 1.301724,0.555 2.589197,1.14665 3.816305,1.85415 0.37868,0.1654 0.762096,0.48341 1.196827,0.41496 0.35382,-0.14031 0.161362,-0.57985 0.168466,-0.86041 -0.140266,-1.30969 -0.212059,-2.62946 -0.427882,-3.92948 -0.0901,-0.41176 -0.242906,-1.01017 -0.768945,-1.00613 z m 6.513814,3.67987 c -0.677754,0.1321 -1.265314,0.53963 -1.884122,0.82838 -0.947623,0.51629 -1.925904,0.97898 -2.862357,1.5136 -0.277337,0.24836 0.03724,0.56708 0.260966,0.709 1.169903,0.79273 2.235536,1.70476 3.341915,2.58486 0.205137,0.19007 0.638111,0.39344 0.798917,0.048 0.279059,-1.22833 0.400566,-2.48866 0.574125,-3.73569 0.0501,-0.56467 0.174916,-1.13336 0.142626,-1.70015 -0.04203,-0.16306 -0.209314,-0.26066 -0.37207,-0.24805 z m 5.106665,4.92477 c -0.01122,-2.7e-4 -0.0227,2.6e-4 -0.0341,0.002 -1.582325,0.21687 -3.146978,0.55709 -4.707208,0.89659 -0.258775,0.0548 -0.727895,0.12869 -0.630451,0.50178 0.284802,0.52161 0.73248,0.9413 1.086755,1.41748 0.763016,0.9162 1.478907,1.87547 2.099614,2.89905 -0.0084,0.0389 0.0818,0.11154 0.187068,0.14366 -0.01037,0.12528 0.04491,0.27146 0.11679,0.37466 0.366064,0.70325 0.689628,1.42962 0.936892,2.18229 0.205579,0.41442 0.742402,0.22347 1.064019,0.0811 1.136955,-0.51461 2.281828,-1.03221 3.340881,-1.69602 0.22992,-0.15519 0.611769,-0.47421 0.282151,-0.72243 -0.539445,-0.27516 -1.176906,-0.1936 -1.762164,-0.25632 -1.172332,-0.0638 -2.352434,-0.046 -3.520199,-0.16123 -0.04674,-0.016 -0.09501,-0.0306 -0.144177,-0.0377 0.07524,-0.32175 0.06583,-0.66891 0.19172,-0.98289 0.453741,-1.48369 1.222142,-2.84639 1.759582,-4.29638 0.04316,-0.16791 -0.0989,-0.34092 -0.267168,-0.3452 z" /><path
         style="fill:#000000"
         d="m 76.066439,183.84597 c -0.2033,0.01 -0.4647,0.01 -0.58087,2.2e-4 -0.11618,-0.01 -0.55579,-0.055 -0.97693,-0.10041 -0.42113,-0.0454 -1.03897,-0.12954 -1.37297,-0.18688 -0.334,-0.0573 -0.79938,-0.16239 -1.03417,-0.23345 -0.2377,-0.0719 -0.48928,-0.18701 -0.56767,-0.25966 -0.0774,-0.0718 -0.14078,-0.16471 -0.14078,-0.20655 0,-0.0419 -0.0395,-0.0913 -0.0878,-0.10978 -0.0483,-0.0185 -0.49384,-0.0559 -0.99012,-0.0831 -0.49628,-0.0272 -1.07222,-0.0735 -1.27986,-0.10303 -0.20765,-0.0295 -0.66464,-0.11427 -1.01553,-0.18835 -0.3509,-0.0741 -0.87899,-0.2063 -1.17353,-0.2938 -0.29454,-0.0875 -0.75243,-0.2444 -1.01753,-0.34867 -0.26509,-0.10426 -0.67209,-0.28395 -0.90444,-0.39932 -0.23235,-0.11536 -0.61499,-0.33705 -0.8503,-0.49265 -0.23531,-0.1556 -0.51721,-0.38182 -0.62643,-0.50271 -0.10922,-0.1209 -0.24335,-0.32101 -0.29806,-0.44471 -0.0783,-0.17694 -0.0924,-0.2931 -0.0661,-0.54481 l 0.0334,-0.31992 -0.41647,-0.38482 c -0.22905,-0.21166 -0.56683,-0.53971 -0.75062,-0.72902 -0.18378,-0.1893 -0.47526,-0.53031 -0.64773,-0.7578 -0.17246,-0.2275 -0.44516,-0.63722 -0.60599,-0.9105 -0.16084,-0.27328 -0.39515,-0.72875 -0.5207,-1.01215 -0.12554,-0.28341 -0.30252,-0.74734 -0.39327,-1.03095 -0.0908,-0.28361 -0.2116,-0.72487 -0.26855,-0.98057 -0.057,-0.2557 -0.14091,-0.74842 -0.18655,-1.09494 -0.0456,-0.34652 -0.0847,-1.03401 -0.0867,-1.52775 -0.003,-0.63188 0.0211,-1.01499 0.0802,-1.29376 0.0462,-0.21783 0.15008,-0.52609 0.23091,-0.68504 0.0838,-0.16482 0.22363,-0.34065 0.32543,-0.40925 0.11797,-0.0795 0.25655,-0.12026 0.40886,-0.12026 0.12671,0 0.33869,0.0509 0.47105,0.11312 0.13235,0.0622 0.42753,0.28892 0.65595,0.5038 l 0.4153,0.39068 0.0269,-0.22657 c 0.0148,-0.12461 0.0536,-0.66618 0.0863,-1.20349 0.0327,-0.53731 0.10481,-1.34525 0.16028,-1.79542 0.0555,-0.45018 0.17213,-1.2106 0.25924,-1.68982 0.0871,-0.47922 0.22848,-1.15646 0.31417,-1.50499 0.0857,-0.34852 0.26631,-0.99012 0.40138,-1.42578 0.13506,-0.43565 0.39999,-1.18176 0.58872,-1.65802 0.18873,-0.47625 0.50324,-1.20102 0.69892,-1.6106 0.19567,-0.40957 0.55949,-1.11301 0.80848,-1.56319 0.24899,-0.45017 0.49107,-0.91051 0.53795,-1.02297 0.0469,-0.11246 0.0852,-0.22534 0.0852,-0.25083 0,-0.0255 -0.14334,-0.0464 -0.31854,-0.0464 -0.17519,0 -0.39909,-0.0337 -0.49755,-0.0748 -0.0985,-0.0411 -0.21866,-0.13529 -0.2671,-0.20922 -0.0484,-0.0739 -0.10067,-0.22832 -0.11606,-0.34311 -0.0172,-0.12815 0.009,-0.32522 0.067,-0.51063 0.0522,-0.16607 0.25954,-0.5899 0.46068,-0.94186 0.20114,-0.35196 0.53405,-0.87637 0.73981,-1.16535 0.20575,-0.28898 0.57953,-0.76424 0.83062,-1.05613 0.25109,-0.29189 0.61869,-0.68192 0.81689,-0.86673 0.19821,-0.18481 0.53222,-0.47258 0.74225,-0.63949 0.21004,-0.1669 0.55933,-0.41406 0.77622,-0.54924 0.21688,-0.13518 0.58391,-0.32793 0.81563,-0.42835 0.23898,-0.10356 0.62502,-0.21643 0.89207,-0.26083 0.25893,-0.043 0.53019,-0.0866 0.6028,-0.0968 0.0989,-0.0139 -0.11647,-0.13941 -0.85986,-0.50115 -0.54553,-0.26545 -1.21089,-0.60688 -1.47858,-0.75873 -0.2677,-0.15184 -0.79392,-0.47594 -1.16939,-0.72022 -0.37547,-0.24428 -0.91014,-0.61249 -1.18815,-0.81825 -0.27802,-0.20576 -0.75168,-0.57618 -1.0526,-0.82316 -0.30091,-0.24698 -0.78788,-0.67668 -1.08214,-0.9549 -0.29426,-0.27821 -0.67154,-0.65072 -0.8384,-0.8278 -0.16686,-0.17708 -0.3777,-0.41471 -0.46854,-0.52807 -0.0908,-0.11336 -0.28538,-0.38346 -0.43231,-0.60022 -0.14694,-0.21675 -0.3233,-0.55553 -0.39191,-0.75283 -0.10377,-0.29837 -0.11572,-0.3923 -0.071,-0.55827 0.0296,-0.10974 0.13142,-0.27337 0.22638,-0.36361 0.0949,-0.0902 0.27312,-0.21439 0.39594,-0.27588 0.12282,-0.0615 0.38421,-0.14966 0.58087,-0.19592 0.26507,-0.0623 0.53175,-0.0781 1.03086,-0.0609 0.40339,0.0139 0.67328,0.003 0.67328,-0.0267 0,-0.0274 -0.37537,-0.43345 -0.83415,-0.9023 -0.45879,-0.46884 -1.03322,-1.10195 -1.27651,-1.40691 -0.2433,-0.30496 -0.61427,-0.81586 -0.82438,-1.13534 -0.21012,-0.31948 -0.51364,-0.83039 -0.67451,-1.13534 -0.16086,-0.30496 -0.40227,-0.82775 -0.53646,-1.16175 -0.1342,-0.334 -0.326,-0.8774 -0.42624,-1.20756 -0.10023,-0.33015 -0.24024,-0.88858 -0.31112,-1.24095 -0.0709,-0.35238 -0.15747,-0.90778 -0.19242,-1.23423 -0.0499,-0.46561 -0.0496,-0.67147 10e-4,-0.9551 0.0355,-0.19886 0.10962,-0.43557 0.16464,-0.52603 0.055,-0.0905 0.17714,-0.20436 0.2714,-0.2531 0.098,-0.0507 0.28743,-0.0876 0.44244,-0.0862 0.1694,0.002 0.41791,0.06 0.66266,0.15607 0.21538,0.0845 0.62851,0.28721 0.91806,0.45047 0.28956,0.16326 0.53483,0.28848 0.54505,0.27826 0.0102,-0.0102 -0.0994,-0.38323 -0.24353,-0.82891 -0.14416,-0.44568 -0.32492,-1.06645 -0.40168,-1.37949 -0.0768,-0.31305 -0.19639,-0.90712 -0.26585,-1.32017 -0.0695,-0.41305 -0.15079,-1.02427 -0.18075,-1.35827 -0.0299,-0.334 -0.0694,-0.9162 -0.0876,-1.29376 -0.0182,-0.37757 -0.006,-1.11118 0.0262,-1.63024 0.0326,-0.51906 0.10476,-1.20819 0.1603,-1.53139 0.0555,-0.3232 0.16167,-0.79628 0.23585,-1.05127 0.0742,-0.255 0.21001,-0.6177 0.30183,-0.80601 0.0918,-0.18831 0.24873,-0.43794 0.34869,-0.55473 0.1,-0.11678 0.27844,-0.26166 0.39661,-0.32195 0.15352,-0.0783 0.27808,-0.10248 0.43632,-0.0846 0.13183,0.0148 0.32576,0.096 0.47916,0.20036 0.14173,0.0965 0.40601,0.32547 0.58727,0.5089 0.18127,0.18342 0.40471,0.46663 0.49655,0.62935 0.11531,0.20432 0.17918,0.27376 0.20645,0.22445 0.0217,-0.0393 0.067,-0.2615 0.10059,-0.49385 0.0336,-0.23235 0.0946,-0.60531 0.1356,-0.82879 0.041,-0.22349 0.13366,-0.63934 0.20598,-0.92412 0.0723,-0.28478 0.21707,-0.7759 0.32166,-1.09138 0.1046,-0.31548 0.30873,-0.85015 0.45364,-1.18815 0.14491,-0.338 0.38389,-0.8403 0.53108,-1.11621 0.14719,-0.27592 0.37509,-0.668 0.50645,-0.87131 0.13135,-0.20331 0.38031,-0.54076 0.55324,-0.74989 0.17293,-0.20914 0.43694,-0.47353 0.5867,-0.58755 0.14975,-0.11401 0.36147,-0.23587 0.47049,-0.27079 0.11046,-0.0354 0.27158,-0.0474 0.36397,-0.0271 0.0912,0.02 0.27143,0.13381 0.40059,0.25286 0.12916,0.11906 0.2914,0.3281 0.36055,0.46456 0.0691,0.13645 0.16155,0.38691 0.20536,0.55659 0.0438,0.16967 0.10687,0.48559 0.14016,0.70203 l 0.0605,0.39354 0.14823,-0.16589 c 0.0815,-0.0912 0.28363,-0.39902 0.44913,-0.68397 0.16551,-0.28495 0.45796,-0.7676 0.6499,-1.07256 0.19194,-0.30496 0.55375,-0.82924 0.80403,-1.16507 0.25029,-0.33583 0.66896,-0.85862 0.9304,-1.16175 0.26144,-0.30313 0.84111,-0.90787 1.28817,-1.34386 0.44706,-0.436 1.04407,-0.97761 1.3267,-1.20358 0.28262,-0.22598 0.78164,-0.59184 1.10894,-0.81303 0.32729,-0.22119 0.88023,-0.54085 1.22876,-0.71036 0.34852,-0.1695 0.78598,-0.34631 0.97213,-0.39291 0.2133,-0.0534 0.48821,-0.0779 0.74341,-0.0663 0.34629,0.0157 0.43305,0.0398 0.59892,0.16636 0.10668,0.0814 0.23552,0.22395 0.28632,0.31684 0.0711,0.13006 0.0918,0.29029 0.0899,0.69695 -0.002,0.41056 -0.0349,0.64389 -0.14841,1.04855 -0.0803,0.28627 -0.13758,0.52886 -0.12734,0.5391 0.0102,0.0102 0.38593,-0.19696 0.83489,-0.46044 0.44895,-0.26348 1.16083,-0.67002 1.58197,-0.90343 0.42113,-0.23341 1.08956,-0.57359 1.48541,-0.75596 0.39584,-0.18238 1.04932,-0.46147 1.45218,-0.62022 0.40286,-0.15875 1.02951,-0.38443 1.39255,-0.50151 0.36305,-0.11708 0.90353,-0.27443 1.20107,-0.34967 0.29754,-0.0752 0.82032,-0.18497 1.16174,-0.24386 0.3641,-0.0628 0.88278,-0.10935 1.25445,-0.11258 0.44393,-0.004 0.72211,0.0203 0.92899,0.0806 0.16243,0.0473 0.35895,0.13613 0.43671,0.1973 0.0778,0.0612 0.17657,0.17923 0.21955,0.26235 0.043,0.0831 0.0782,0.20749 0.0782,0.27637 0,0.0689 -0.0382,0.23719 -0.0848,0.37402 -0.0466,0.13684 -0.22465,0.44405 -0.39561,0.6827 -0.17096,0.23864 -0.31103,0.4636 -0.31128,0.49991 -2.6e-4,0.0395 0.0692,0.066 0.17299,0.066 0.0954,0 0.68352,-0.0933 1.30696,-0.20724 0.62344,-0.11398 1.46622,-0.24968 1.87283,-0.30155 0.54325,-0.0693 1.10336,-0.0942 2.11227,-0.0939 1.12646,3.1e-4 1.52941,0.0216 2.244281,0.11875 0.47922,0.0651 1.14858,0.16523 1.48747,0.22249 0.33888,0.0572 0.9092,0.17781 1.26736,0.2679 0.35816,0.0901 0.82465,0.23266 1.03665,0.31681 0.212,0.0842 0.44963,0.19277 0.52806,0.24136 0.0784,0.0486 0.21009,0.14936 0.29255,0.22394 0.0825,0.0746 0.18346,0.19977 0.22443,0.2782 0.041,0.0784 0.0745,0.22789 0.0745,0.33214 0,0.10425 -0.0453,0.2783 -0.10062,0.38677 -0.0553,0.10847 -0.21574,0.30452 -0.35644,0.43566 -0.14071,0.13113 -0.48411,0.39728 -0.76311,0.59142 -0.279,0.19415 -0.53561,0.38713 -0.57024,0.42885 -0.0346,0.0417 -0.044,0.0875 -0.0208,0.10177 0.0232,0.0142 0.38674,0.11405 0.80787,0.22179 0.42113,0.10773 1.05773,0.30112 1.41467,0.42974 0.35693,0.12862 0.95121,0.37062 1.32063,0.53777 0.36942,0.16715 0.99226,0.48562 1.38409,0.70772 0.39183,0.2221 0.95402,0.56569 1.24931,0.76354 0.2953,0.19784 0.82867,0.58537 1.18529,0.86118 0.35661,0.2758 0.91446,0.76751 1.23965,1.09267 0.3252,0.32517 0.74941,0.80043 0.94268,1.05614 0.19328,0.2557 0.47155,0.7048 0.61838,0.99799 0.21247,0.42427 0.27255,0.60279 0.29438,0.87468 0.0208,0.25868 0.006,0.38346 -0.0617,0.51401 -0.0561,0.10851 -0.17103,0.20957 -0.31008,0.27271 -0.16118,0.0732 -0.34363,0.10061 -0.67459,0.10146 -0.24951,6.4e-4 -0.64898,-0.0251 -0.88771,-0.0572 -0.23872,-0.0321 -0.44733,-0.0451 -0.46357,-0.0289 -0.0162,0.0162 0.0624,0.15538 0.17482,0.30921 0.11239,0.15382 0.35699,0.44604 0.54355,0.64936 0.18657,0.20333 0.49939,0.58517 0.69516,0.84853 0.19576,0.26337 0.58053,0.8218 0.85502,1.24096 0.27449,0.41916 0.68147,1.07669 0.90439,1.46119 0.22292,0.38449 0.49859,0.8954 0.6126,1.13534 0.11401,0.23995 0.26846,0.65013 0.34323,0.91152 0.0748,0.2614 0.19285,0.78418 0.26242,1.16175 0.0696,0.37757 0.16523,1.01917 0.21258,1.42578 0.0473,0.40661 0.0867,1.13138 0.0875,1.6106 10e-4,0.70931 -0.0167,0.92508 -0.0959,1.16051 -0.0713,0.2119 -0.14524,0.32128 -0.27672,0.40925 -0.0987,0.066 -0.2538,0.12006 -0.3447,0.12006 -0.0909,0 -0.22401,-0.0393 -0.29582,-0.0873 -0.0718,-0.048 -0.1986,-0.14901 -0.28174,-0.22443 -0.0831,-0.0754 -0.31413,-0.37886 -0.51331,-0.67431 -0.19918,-0.29546 -0.38345,-0.55036 -0.40949,-0.56646 -0.026,-0.0161 -0.0624,0.0804 -0.0808,0.21452 -0.0184,0.13408 -0.0334,0.35711 -0.0334,0.49561 0,0.1385 -0.0377,0.54509 -0.0838,0.90354 -0.0461,0.35845 -0.17441,1.00817 -0.28519,1.44383 -0.11078,0.43565 -0.31339,1.10101 -0.45024,1.47858 -0.13686,0.37757 -0.36555,0.94536 -0.50821,1.26177 -0.14266,0.3164 -0.3933,0.81542 -0.55699,1.10894 -0.16368,0.29351 -0.45972,0.77324 -0.65786,1.06605 -0.19815,0.29282 -0.52563,0.72345 -0.72774,0.95695 -0.20212,0.23351 -0.54515,0.56749 -0.76229,0.74217 -0.21715,0.17469 -0.52597,0.38178 -0.68628,0.46021 -0.1603,0.0784 -0.38206,0.15335 -0.49279,0.16649 -0.11072,0.0131 -0.25844,-0.007 -0.32825,-0.0442 -0.0698,-0.0374 -0.17557,-0.1336 -0.23502,-0.21368 -0.0774,-0.10421 -0.11635,-0.25875 -0.13711,-0.54358 l -0.029,-0.39798 -0.31684,0.26943 c -0.20305,0.17267 -0.57287,0.39254 -1.02973,0.6122 -0.39209,0.18852 -0.852,0.40798 -1.02202,0.48767 l -0.30913,0.14491 0.35998,0.23281 c 0.198,0.12804 0.63414,0.46108 0.96922,0.74009 0.33508,0.27901 0.90627,0.78105 1.26931,1.11565 0.36305,0.3346 0.92932,0.9069 1.25838,1.27178 0.32905,0.36488 0.82404,0.94519 1.09996,1.28958 0.27593,0.34439 0.75997,1.01246 1.07565,1.48459 0.31569,0.47214 0.72798,1.17315 0.91622,1.5578 0.18823,0.38465 0.39142,0.86227 0.45153,1.06137 0.0601,0.19911 0.10928,0.48909 0.10928,0.6444 0,0.15531 -0.0258,0.33899 -0.0573,0.40816 -0.0315,0.0692 -0.1243,0.16535 -0.20618,0.21371 -0.0819,0.0484 -0.24219,0.0879 -0.35625,0.0879 -0.11406,0 -0.36718,-0.0502 -0.56248,-0.11146 -0.1953,-0.0613 -0.36858,-0.098 -0.38506,-0.0815 -0.0165,0.0165 0.021,0.12771 0.0832,0.24717 0.0623,0.11946 0.20688,0.34126 0.32136,0.4929 0.11449,0.15163 0.32975,0.48701 0.47837,0.74528 0.14862,0.25827 0.38802,0.73069 0.532,1.04981 0.14399,0.31912 0.36701,0.8705 0.49562,1.22527 0.1286,0.35478 0.33951,1.01014 0.46868,1.45636 0.12918,0.44621 0.29793,1.10834 0.37501,1.47138 0.0771,0.36305 0.18722,0.969 0.24474,1.34657 0.0575,0.37757 0.11874,1.10243 0.13604,1.61081 0.0262,0.7709 0.0169,0.97428 -0.056,1.22529 -0.052,0.17886 -0.13481,0.33411 -0.2041,0.38264 -0.0641,0.0449 -0.18855,0.0814 -0.27648,0.0812 -0.0879,-2.7e-4 -0.27868,-0.0689 -0.4239,-0.15256 -0.14522,-0.0836 -0.47196,-0.33472 -0.72609,-0.55795 -0.33389,-0.29329 -0.46201,-0.37914 -0.46189,-0.30949 9e-5,0.053 0.0402,0.31025 0.089,0.57164 0.0666,0.35607 0.0892,0.77985 0.0903,1.68981 7.8e-4,0.67259 -0.0283,1.4502 -0.0652,1.74262 -0.0366,0.29044 -0.12659,0.87263 -0.1999,1.29377 -0.0733,0.42113 -0.22459,1.12369 -0.33618,1.56123 -0.11159,0.43755 -0.29071,1.03163 -0.39805,1.32017 -0.10734,0.28854 -0.30112,0.73107 -0.43062,0.98339 -0.1295,0.25232 -0.33159,0.56798 -0.44909,0.70146 -0.11749,0.13348 -0.28101,0.27754 -0.36338,0.32013 -0.0824,0.0426 -0.23089,0.0774 -0.33007,0.0774 -0.10149,0 -0.24014,-0.047 -0.31714,-0.10762 -0.0752,-0.0592 -0.20903,-0.25523 -0.29728,-0.43565 -0.0883,-0.18042 -0.18452,-0.45692 -0.21392,-0.61445 -0.0294,-0.15752 -0.0633,-0.29622 -0.0753,-0.30822 -0.012,-0.012 -0.0608,0.0378 -0.10855,0.11056 -0.0477,0.0728 -0.2503,0.50498 -0.45023,0.96038 -0.19992,0.4554 -0.50978,1.09296 -0.68858,1.4168 -0.17879,0.32384 -0.47909,0.82433 -0.66732,1.1122 -0.18823,0.28787 -0.48608,0.7156 -0.66189,0.95052 -0.17581,0.23492 -0.48034,0.61723 -0.67675,0.84958 -0.1964,0.23235 -0.60307,0.66135 -0.90371,0.95335 -0.30063,0.29199 -0.69609,0.63215 -0.87879,0.75591 -0.1827,0.12376 -0.45598,0.28266 -0.60728,0.3531 -0.1513,0.0704 -0.36846,0.12831 -0.48257,0.1286 -0.11411,2.8e-4 -0.28374,-0.0271 -0.37695,-0.0608 -0.14961,-0.0541 -0.19647,-0.0454 -0.3998,0.0738 -0.12668,0.0743 -0.6647,0.43399 -1.19561,0.79933 -0.53091,0.36535 -1.303211,0.87595 -1.716221,1.13467 -0.41301,0.25873 -1.13114,0.68815 -1.59583,0.95428 -0.4647,0.26613 -1.52216,0.82233 -2.3499,1.23599 -0.82774,0.41367 -2.01589,0.96956 -2.64033,1.23531 -0.62444,0.26574 -1.51555,0.62894 -1.98025,0.8071 -0.4647,0.17816 -1.35981,0.49872 -1.98914,0.71235 -0.62932,0.21363 -1.5442,0.50814 -2.03305,0.65445 -0.48886,0.14632 -1.18587,0.33664 -1.54891,0.42293 -0.36305,0.0863 -1.0997,0.229 -1.63701,0.31712 -0.53731,0.0881 -1.41654,0.21933 -1.95385,0.2916 -0.5373,0.0723 -1.51159,0.19045 -2.16507,0.26264 -0.65348,0.0722 -1.53271,0.15628 -1.95385,0.18685 -0.42113,0.0306 -0.93203,0.0637 -1.13534,0.0736 z m -0.36965,-1.50328 c 0.58088,0.004 1.49575,-0.0176 2.03306,-0.0473 0.53731,-0.0297 1.46284,-0.10165 2.05674,-0.15995 0.5939,-0.0583 1.32902,-0.14097 1.63359,-0.18373 0.30457,-0.0427 0.89987,-0.14869 1.32288,-0.23542 0.42302,-0.0867 1.30379,-0.29889 1.95727,-0.47146 0.65348,-0.17258 1.59212,-0.43642 2.08586,-0.58633 0.49374,-0.14991 1.25416,-0.39935 1.68981,-0.55431 0.43566,-0.15496 0.99213,-0.36615 1.23662,-0.4693 0.24448,-0.10315 0.53681,-0.24862 0.64962,-0.32328 0.16401,-0.10853 0.19885,-0.15904 0.17386,-0.25199 -0.0172,-0.0639 -0.16169,-0.38021 -0.32112,-0.70284 -0.15943,-0.32262 -0.57439,-1.01925 -0.92213,-1.54806 -0.34775,-0.5288 -0.88183,-1.29013 -1.18684,-1.69184 -0.30501,-0.4017 -0.81236,-1.02392 -1.12744,-1.38271 -0.31508,-0.35878 -0.95065,-1.02178 -1.41236,-1.47333 -0.46171,-0.45155 -1.13652,-1.06791 -1.49956,-1.36969 -0.36305,-0.30178 -0.92148,-0.74236 -1.24096,-0.97907 -0.31948,-0.23671 -0.80662,-0.58163 -1.08253,-0.76648 -0.27592,-0.18485 -0.83435,-0.53512 -1.24096,-0.77837 -0.40661,-0.24325 -1.19079,-0.6646 -1.74262,-0.93633 -0.55183,-0.27173 -1.39542,-0.64788 -1.87464,-0.83589 -0.47922,-0.18801 -1.1749,-0.43833 -1.54596,-0.55625 -0.37106,-0.11793 -1.01266,-0.29805 -1.42578,-0.40027 -0.41312,-0.10222 -1.07193,-0.2441 -1.46401,-0.31528 -0.39209,-0.0712 -1.05746,-0.17143 -1.47859,-0.22276 -0.56204,-0.0685 -1.15897,-0.0935 -2.24428,-0.0942 -0.81323,-4.6e-4 -1.83503,0.0291 -2.27069,0.0658 -0.43565,0.0366 -1.00597,0.1006 -1.26736,0.14213 -0.26139,0.0415 -0.60202,0.11336 -0.75694,0.15964 -0.15493,0.0463 -0.36443,0.15998 -0.46556,0.25265 -0.13874,0.12715 -0.20841,0.257 -0.28383,0.52896 -0.055,0.19824 -0.12805,0.6594 -0.16241,1.0248 -0.0402,0.42739 -0.0512,1.11807 -0.031,1.93639 0.0173,0.69962 0.0686,1.54531 0.1139,1.87931 0.0453,0.334 0.12132,0.79738 0.16887,1.02973 0.0476,0.23235 0.0888,0.52939 0.0916,0.66008 0.005,0.20875 -0.009,0.2397 -0.1148,0.25466 -0.0769,0.0109 -0.24151,-0.0697 -0.4588,-0.22477 -0.18637,-0.13299 -0.52448,-0.42618 -0.75136,-0.65153 -0.22688,-0.22536 -0.69473,-0.72596 -1.03968,-1.11246 -0.46428,-0.52021 -0.64258,-0.6873 -0.68649,-0.64332 -0.0389,0.039 -0.0583,0.33485 -0.0563,0.86197 0.003,0.68244 0.0237,0.88556 0.1412,1.35703 0.076,0.30496 0.22257,0.78743 0.32574,1.07214 0.10316,0.28472 0.32151,0.78374 0.48521,1.10894 0.1637,0.3252 0.44536,0.81702 0.62591,1.09294 0.18055,0.27591 0.47279,0.68078 0.64942,0.89971 0.17664,0.21893 0.4956,0.56349 0.70881,0.7657 0.21321,0.2022 0.52447,0.45817 0.69169,0.56881 0.16722,0.11064 0.43615,0.26165 0.59762,0.33557 0.16147,0.0739 0.45235,0.15526 0.6464,0.18074 0.19405,0.0255 0.50424,0.0646 0.6893,0.0869 l 0.33648,0.0405 -0.5213,0.35579 c -0.28672,0.19568 -0.60239,0.42396 -0.70149,0.50728 -0.12562,0.10563 -0.16973,0.17872 -0.14568,0.24139 0.019,0.0494 0.19342,0.16195 0.38768,0.25003 0.19425,0.0881 0.54388,0.23045 0.77696,0.31639 0.23307,0.0859 0.69813,0.22559 1.03345,0.31034 0.33533,0.0847 0.83543,0.18968 1.11135,0.23319 0.27591,0.0435 0.82246,0.1065 1.21455,0.13999 0.426,0.0364 1.07007,0.0474 1.60044,0.0274 0.48815,-0.0184 1.16539,-0.0693 1.50499,-0.11316 0.33959,-0.0438 0.92863,-0.13856 1.30898,-0.21048 0.38034,-0.0719 0.75461,-0.13076 0.8317,-0.13076 0.10625,0 0.14017,0.0263 0.14017,0.10859 0,0.0619 -0.11812,0.22185 -0.27484,0.37211 -0.15117,0.14494 -0.42056,0.33306 -0.59866,0.41806 -0.1781,0.085 -0.38711,0.21783 -0.46445,0.29518 -0.0773,0.0774 -0.14063,0.18408 -0.14063,0.23719 0,0.0531 0.0458,0.12107 0.1018,0.15104 0.056,0.03 0.26392,0.0753 0.46206,0.10079 0.19814,0.0255 0.83551,0.0493 1.41638,0.053 z m 15.85907,-3.47853 c 0.085,0 0.24657,-0.0326 0.35914,-0.0725 0.11256,-0.0399 0.59675,-0.25444 1.07597,-0.4768 0.47922,-0.22235 1.21019,-0.58647 1.62437,-0.80917 0.41417,-0.22269 0.83597,-0.47324 0.93731,-0.55678 0.10135,-0.0835 0.18427,-0.18396 0.18427,-0.22316 0,-0.0392 -0.0772,-0.0963 -0.17162,-0.12688 -0.0944,-0.0306 -0.43302,-0.0788 -0.7525,-0.10706 -0.31948,-0.0283 -1.15118,-0.065 -1.84823,-0.0816 -0.69705,-0.0166 -1.53835,-0.0441 -1.86955,-0.0612 -0.53904,-0.0277 -0.61519,-0.044 -0.72609,-0.15488 -0.10354,-0.10353 -0.1239,-0.17809 -0.1239,-0.45356 0,-0.25178 0.0562,-0.49534 0.23794,-1.03107 0.13086,-0.38578 0.40204,-1.07616 0.60261,-1.53418 0.20058,-0.45802 0.5324,-1.21297 0.73739,-1.67767 0.33198,-0.75257 0.36183,-0.84668 0.27312,-0.8612 -0.0548,-0.009 -0.51635,0.0566 -1.02571,0.14564 -0.50937,0.0891 -1.39653,0.2577 -1.97147,0.37475 -0.57495,0.11705 -1.30675,0.27429 -1.62623,0.34942 -0.31948,0.0751 -0.58968,0.14443 -0.60044,0.15398 -0.0108,0.01 0.0595,0.11946 0.15615,0.24423 0.0966,0.12478 0.47545,0.59519 0.8418,1.04537 0.36635,0.45017 0.84682,1.05861 1.06772,1.35209 0.2209,0.29347 0.58035,0.80538 0.7988,1.13757 0.21844,0.33219 0.55335,0.90322 0.74425,1.26895 0.1909,0.36573 0.44166,0.89739 0.55724,1.18146 0.11559,0.28406 0.21015,0.53708 0.21015,0.56225 0,0.0252 0.0344,0.12818 0.0765,0.2289 0.0626,0.14979 0.10463,0.18312 0.23099,0.18312 z m 5.41037,-2.69314 c 0.16349,0 0.30004,-0.0453 0.47945,-0.15908 0.17202,-0.10909 0.28276,-0.2294 0.35242,-0.38285 0.0559,-0.12307 0.10209,-0.33352 0.10273,-0.46768 6.4e-4,-0.13415 -0.0353,-0.45495 -0.0798,-0.71289 -0.0445,-0.25793 -0.14268,-0.73037 -0.21812,-1.04985 -0.0754,-0.31948 -0.24314,-0.88666 -0.37266,-1.26041 -0.12951,-0.37375 -0.36189,-0.96117 -0.51639,-1.30539 -0.1545,-0.34421 -0.45122,-0.927 -0.65937,-1.29509 -0.20816,-0.36808 -0.56384,-0.94504 -0.79041,-1.28214 -0.22658,-0.33709 -0.5884,-0.84377 -0.80406,-1.12594 -0.21566,-0.28218 -0.66073,-0.82219 -0.98905,-1.20003 -0.32832,-0.37783 -0.92185,-1.003 -1.31894,-1.38926 -0.3971,-0.38627 -1.04209,-0.97343 -1.43332,-1.3048 -0.39123,-0.33137 -1.0375,-0.84628 -1.43617,-1.14425 -0.39866,-0.29796 -1.03086,-0.74291 -1.40489,-0.98877 -0.37402,-0.24586 -1.03401,-0.65503 -1.46663,-0.90926 -0.43262,-0.25423 -1.30937,-0.718 -1.94833,-1.0306 -0.63896,-0.31261 -1.55384,-0.72215 -2.03306,-0.91009 -0.47922,-0.18795 -1.23963,-0.46167 -1.68981,-0.60827 -0.45018,-0.14661 -1.15417,-0.351 -1.56443,-0.45421 -0.41026,-0.1032 -0.97234,-0.23423 -1.24907,-0.29117 -0.27673,-0.0569 -0.72524,-0.13917 -0.99669,-0.18274 -0.27146,-0.0436 -0.83812,-0.11656 -1.25925,-0.16221 -0.42113,-0.0456 -1.28848,-0.0973 -1.92744,-0.11473 -0.69991,-0.0191 -1.49763,-0.007 -2.00665,0.0296 -0.4647,0.0337 -1.17416,0.10903 -1.57658,0.1673 -0.40241,0.0583 -1.04912,0.18732 -1.43712,0.28676 -0.388,0.0994 -0.90887,0.26501 -1.15747,0.36792 -0.24861,0.10291 -0.58605,0.26275 -0.74987,0.35521 -0.16381,0.0924 -0.44656,0.30721 -0.62832,0.47724 -0.18177,0.17003 -0.40665,0.42785 -0.49975,0.57292 -0.0931,0.14508 -0.15583,0.27721 -0.13942,0.29363 0.0164,0.0164 0.21552,-0.031 0.44245,-0.1053 0.22693,-0.0743 0.60271,-0.18258 0.83506,-0.24055 0.23235,-0.058 0.69572,-0.15418 1.02973,-0.2138 0.334,-0.0596 0.93996,-0.14472 1.34657,-0.18912 0.40661,-0.0444 1.32148,-0.095 2.03305,-0.11233 0.76197,-0.0186 1.69652,-0.007 2.27361,0.0286 0.53891,0.0331 1.29933,0.0966 1.68981,0.14102 0.39048,0.0444 1.06642,0.14145 1.50207,0.21561 0.43566,0.0742 1.19607,0.23722 1.68981,0.36238 0.49375,0.12516 1.26741,0.35932 1.71927,0.52035 0.45185,0.16104 1.11317,0.41596 1.46959,0.56649 0.35643,0.15053 1.09171,0.49297 1.63396,0.76098 0.54226,0.268 1.3047,0.67161 1.69433,0.89691 0.38962,0.22529 0.97516,0.58281 1.30118,0.79449 0.32603,0.21167 0.86272,0.5809 1.19263,0.82051 0.32992,0.2396 0.88501,0.66735 1.23353,0.95054 0.34853,0.2832 0.97825,0.83417 1.39938,1.22439 0.42113,0.39022 1.03897,1.01334 1.37297,1.3847 0.33401,0.37137 0.81037,0.92834 1.05859,1.23773 0.24822,0.30938 0.61915,0.79951 0.82428,1.08918 0.20513,0.28966 0.5582,0.82238 0.78459,1.1838 0.22639,0.36143 0.60802,1.03868 0.84805,1.50499 0.24004,0.46632 0.53367,1.0771 0.65252,1.3573 0.11885,0.28019 0.40366,1.00496 0.63292,1.6106 0.22925,0.60564 0.44227,1.16651 0.47337,1.24638 0.0496,0.12734 0.0847,0.14521 0.28514,0.14521 z m -3.40637,-0.65574 1.70424,0.004 0.0322,-0.12824 c 0.0194,-0.0772 -0.0249,-0.2996 -0.11128,-0.55881 -0.0789,-0.23681 -0.3282,-0.81282 -0.55399,-1.28004 -0.2258,-0.46721 -0.55645,-1.10278 -0.73479,-1.41237 -0.17834,-0.30958 -0.41088,-0.68346 -0.51676,-0.83083 -0.16141,-0.22467 -0.20399,-0.25646 -0.26364,-0.1968 -0.0391,0.0391 -0.21378,0.39977 -0.38812,0.80143 -0.17433,0.40165 -0.49244,1.17331 -0.70691,1.71478 -0.21446,0.54147 -0.44258,1.14574 -0.50691,1.34282 -0.0643,0.19708 -0.1042,0.39161 -0.0886,0.43229 0.0156,0.0408 0.11861,0.0814 0.22936,0.0905 0.11053,0.009 0.96788,0.0185 1.9052,0.0209 z m 5.60416,-0.71723 c 0.0505,0 0.23854,-0.0891 0.41788,-0.19802 0.17935,-0.10892 0.446181,-0.29308 0.592971,-0.40926 0.14678,-0.11617 0.49866,-0.46073 0.78194,-0.76569 0.28329,-0.30496 0.89675,-0.99409 1.36325,-1.5314 0.4665,-0.5373 1.00017,-1.13732 1.18594,-1.33336 0.18578,-0.19605 0.37912,-0.35645 0.42967,-0.35645 0.073,0 0.0918,0.0462 0.0914,0.22443 -2.5e-4,0.12344 -0.0357,0.52147 -0.0788,0.88451 -0.0431,0.36305 -0.0785,0.71723 -0.0788,0.78708 -4.5e-4,0.12588 5.4e-4,0.12612 0.11218,0.0264 0.0619,-0.0553 0.28294,-0.32635 0.4911,-0.60226 0.20815,-0.27592 0.51057,-0.69177 0.67203,-0.92412 0.16146,-0.23235 0.43635,-0.66008 0.61085,-0.95052 0.17451,-0.29044 0.45129,-0.79532 0.61507,-1.12196 0.16377,-0.32665 0.39336,-0.83382 0.51018,-1.12707 0.11683,-0.29324 0.2826,-0.78311 0.36838,-1.0886 0.0858,-0.3055 0.19226,-0.74676 0.23661,-0.98058 0.0444,-0.23383 0.10463,-0.68861 0.13395,-1.01063 0.0379,-0.41594 0.035,-0.88049 -0.01,-1.60411 -0.0561,-0.90687 -0.054,-1.02763 0.0192,-1.10089 0.0649,-0.0649 0.10565,-0.0698 0.1927,-0.0232 0.0607,0.0325 0.23895,0.21898 0.39606,0.41441 0.1571,0.19542 0.384,0.50834 0.50421,0.69537 0.12021,0.18704 0.36994,0.63853 0.55495,1.00333 0.19258,0.37971 0.42161,0.93982 0.53571,1.31015 0.10962,0.35578 0.21834,0.64688 0.2416,0.64688 0.0233,0 0.10174,-0.19605 0.17442,-0.43566 0.0727,-0.23961 0.17042,-0.60199 0.21721,-0.8053 0.0468,-0.2033 0.13055,-0.67856 0.18611,-1.05613 0.0556,-0.37757 0.11598,-1.07858 0.13426,-1.5578 0.0197,-0.51643 0.008,-1.19392 -0.0288,-1.66341 -0.0342,-0.43565 -0.0964,-1.02286 -0.1383,-1.30491 -0.0419,-0.28204 -0.13689,-0.80022 -0.21106,-1.15151 -0.0742,-0.35128 -0.24278,-0.97388 -0.3747,-1.38355 -0.13191,-0.40967 -0.32973,-0.94894 -0.43959,-1.19838 -0.10987,-0.24945 -0.38098,-0.78479 -0.60248,-1.18964 -0.22151,-0.40486 -0.40273,-0.77913 -0.40273,-0.83171 0,-0.0694 0.0398,-0.0952 0.14521,-0.0943 0.0929,8.1e-4 0.31761,0.12452 0.62354,0.34325 0.26308,0.1881 1.04726,0.83116 1.74262,1.42902 0.69537,0.59787 1.32965,1.12126 1.40952,1.1631 0.14522,0.0761 0.14522,0.0761 0.14522,-0.10866 0,-0.10159 -0.0929,-0.54776 -0.20644,-0.99148 -0.11354,-0.44372 -0.29396,-1.06815 -0.40093,-1.38763 -0.10697,-0.31948 -0.36114,-0.99673 -0.56482,-1.50499 -0.20369,-0.50827 -0.51808,-1.23304 -0.69865,-1.6106 -0.25497,-0.53311 -0.50444,-0.93022 -1.11658,-1.77734 -0.43354,-0.59997 -0.99296,-1.33662 -1.24316,-1.63701 -0.25019,-0.30038 -0.81616,-0.93306 -1.2577,-1.40595 -0.51684,-0.55354 -0.79628,-0.89211 -0.78449,-0.95052 0.0138,-0.0684 0.0615,-0.0865 0.19346,-0.0735 0.0963,0.009 0.28532,0.0645 0.41998,0.12221 0.13466,0.0577 0.63733,0.24354 1.11705,0.41294 0.47972,0.1694 1.18739,0.39549 1.5726,0.50244 0.38521,0.10694 0.72122,0.18662 0.74669,0.17707 0.0255,-0.01 -0.33901,-0.53177 -0.80993,-1.16048 -0.47093,-0.62871 -0.94952,-1.24793 -1.06353,-1.37603 -0.11401,-0.12811 -0.46737,-0.52468 -0.78525,-0.88128 -0.31787,-0.35659 -0.8763,-0.90373 -1.24095,-1.21586 -0.36466,-0.31213 -1.28084,-1.05924 -2.03598,-1.66024 -0.75513,-0.60101 -1.49773,-1.2057 -1.65021,-1.34377 -0.20568,-0.18624 -0.27723,-0.28831 -0.27723,-0.39546 0,-0.10598 0.0452,-0.17189 0.16962,-0.24758 0.0933,-0.0567 0.33686,-0.14042 0.54127,-0.18596 0.2044,-0.0455 0.5261,-0.1324 0.71489,-0.19302 0.18878,-0.0606 0.55711,-0.21219 0.8185,-0.33682 0.26139,-0.12463 0.67725,-0.3622 0.92412,-0.52793 0.24687,-0.16573 0.63647,-0.45885 0.86579,-0.65139 0.22931,-0.19254 0.61723,-0.57582 0.86203,-0.85174 0.2448,-0.27591 0.70521,-0.88723 1.02312,-1.35848 0.31791,-0.47126 0.6235,-0.88117 0.67909,-0.91092 0.0556,-0.0298 0.14932,-0.0541 0.2083,-0.0541 0.059,0 0.13244,0.0471 0.16325,0.10469 0.0308,0.0576 0.0778,0.28928 0.10438,0.51487 0.0266,0.22559 0.0646,0.7626 0.0844,1.19334 l 0.0361,0.78317 0.20887,-0.2023 c 0.11487,-0.11126 0.34021,-0.3989 0.50076,-0.63919 0.16054,-0.2403 0.39355,-0.66803 0.51779,-0.95052 0.12424,-0.28249 0.32477,-0.82254 0.44562,-1.20011 0.12085,-0.37757 0.2891,-1.03105 0.3739,-1.45218 0.0848,-0.42114 0.19063,-1.11553 0.23517,-1.5431 0.0446,-0.42756 0.0808,-1.12857 0.0806,-1.55779 -2.4e-4,-0.42922 -0.0248,-0.99331 -0.0546,-1.25352 -0.0298,-0.26022 -0.0911,-0.65231 -0.13624,-0.87131 -0.0451,-0.21901 -0.15123,-0.61452 -0.2358,-0.87891 -0.0846,-0.2644 -0.15377,-0.53886 -0.15377,-0.60992 0,-0.0711 0.0285,-0.15771 0.0634,-0.19256 0.0349,-0.0349 0.11497,-0.0634 0.17804,-0.0634 0.0631,0 0.29002,0.11499 0.50431,0.25555 0.21429,0.14055 0.76908,0.5564 1.23287,0.92411 0.46379,0.36771 0.8753,0.66857 0.91448,0.66857 0.0433,0 0.0602,-0.0362 0.0432,-0.0924 -0.0154,-0.0508 -0.0528,-0.20539 -0.083,-0.34347 -0.0303,-0.13808 -0.12718,-0.47634 -0.21539,-0.7517 -0.0882,-0.27535 -0.25562,-0.72951 -0.37204,-1.00924 -0.11642,-0.27973 -0.35184,-0.78822 -0.52317,-1.12999 -0.17132,-0.34176 -0.43547,-0.83208 -0.587,-1.08959 -0.15152,-0.25752 -0.4416,-0.71773 -0.64461,-1.02269 -0.203,-0.30495 -0.52459,-0.74457 -0.71462,-0.97692 -0.19004,-0.23235 -0.57932,-0.68923 -0.86507,-1.0153 -0.35229,-0.402 -0.6867,-0.71649 -1.0388,-0.97692 -0.2856,-0.21124 -0.92629,-0.66579 -1.42377,-1.0101 -0.49748,-0.34432 -0.90451,-0.65834 -0.90451,-0.69783 0,-0.0395 0.0416,-0.0934 0.0924,-0.11986 0.0508,-0.0264 0.35381,-0.0743 0.67329,-0.10637 0.31948,-0.0321 1.06801,-0.0841 1.66341,-0.11551 0.59539,-0.0315 1.25761,-0.0775 1.4716,-0.10237 0.21398,-0.0248 0.41488,-0.071 0.44643,-0.10255 0.0413,-0.0413 -0.009,-0.12533 -0.17784,-0.29982 -0.12936,-0.13335 -0.51574,-0.49079 -0.85862,-0.79431 -0.34288,-0.30352 -0.85831,-0.72668 -1.14541,-0.94034 -0.28709,-0.21367 -0.74321,-0.52533 -1.01359,-0.69258 -0.27038,-0.16726 -0.72923,-0.42964 -1.01966,-0.58307 -0.29044,-0.15344 -0.77758,-0.38522 -1.08254,-0.51506 -0.30496,-0.12985 -0.83388,-0.33232 -1.17539,-0.44993 -0.3415,-0.11761 -0.91181,-0.28474 -1.26736,-0.3714 -0.35554,-0.0867 -0.90783,-0.1987 -1.22731,-0.24896 -0.40163,-0.0632 -0.93121,-0.0936 -1.71622,-0.0987 -0.62444,-0.004 -1.187591,-0.0247 -1.251461,-0.0461 -0.0639,-0.0213 -0.13049,-0.0841 -0.14807,-0.13947 -0.0176,-0.0554 3.6e-4,-0.16236 0.0399,-0.23774 0.0395,-0.0754 0.406,-0.45135 0.814461,-0.83551 0.41143,-0.38695 1.04914,-0.91576 1.42985,-1.18568 0.37796,-0.26797 0.71633,-0.52232 0.75193,-0.56522 0.0537,-0.0647 0.039,-0.0879 -0.0862,-0.13627 -0.083,-0.0321 -0.50741,-0.12561 -0.94306,-0.2079 -0.43566,-0.0823 -1.12478,-0.19237 -1.531401,-0.24463 -0.55378,-0.0712 -1.09043,-0.0945 -2.13866,-0.093 -1.00848,0.001 -1.59114,0.0273 -2.08587,0.0925 -0.37756,0.0497 -1.03836,0.16119 -1.46844,0.24766 -0.43008,0.0865 -1.17201,0.28598 -1.64873,0.44336 -0.47672,0.15738 -1.18764,0.44045 -1.57982,0.62904 -0.39217,0.18858 -0.91012,0.47135 -1.151,0.62836 -0.24088,0.15701 -0.65714,0.44406 -0.92502,0.63787 -0.26788,0.19382 -0.49797,0.35239 -0.51133,0.35239 -0.0134,0 0.10538,-0.38176 0.26384,-0.84836 0.15846,-0.4666 0.40088,-1.07789 0.53871,-1.35843 0.13784,-0.28053 0.44219,-0.79582 0.67635,-1.14508 0.23415,-0.34927 0.56331,-0.83621 0.73146,-1.08209 0.16815,-0.24589 0.28021,-0.45558 0.24902,-0.46597 -0.0312,-0.0104 -0.25342,0.0319 -0.49384,0.0939 -0.24042,0.062 -0.85884,0.25333 -1.37428,0.42508 -0.51544,0.17176 -1.24021,0.43485 -1.6106,0.58464 -0.3704,0.1498 -0.98377,0.41977 -1.36305,0.59993 -0.37929,0.18016 -0.93772,0.46547 -1.24096,0.63403 -0.30324,0.16855 -0.88403,0.5271 -1.29064,0.79676 -0.40662,0.26967 -1.00069,0.69954 -1.32017,0.95527 -0.31948,0.25574 -0.87793,0.76249 -1.241,1.12611 -0.36307,0.36363 -0.8983,0.95817 -1.1894,1.32122 -0.42073,0.52472 -0.55608,0.66008 -0.66004,0.66008 -0.12511,0 -0.13145,-0.0159 -0.14663,-0.36751 -0.009,-0.20213 0.0347,-0.71303 0.0965,-1.13534 0.0618,-0.42231 0.19504,-1.18369 0.29606,-1.69195 0.10103,-0.50826 0.25254,-1.20927 0.33669,-1.5578 0.0841,-0.34852 0.16958,-0.73815 0.18985,-0.86583 l 0.0368,-0.23216 -0.1532,0.0374 c -0.0843,0.0205 -0.30767,0.12863 -0.49645,0.24019 -0.18878,0.11156 -0.55908,0.38932 -0.82289,0.61725 -0.2638,0.22794 -0.76283,0.65554 -1.10894,0.95023 -0.34611,0.29469 -0.89213,0.8056 -1.21337,1.13535 -0.32124,0.32974 -0.77291,0.83717 -1.00371,1.1276 -0.2308,0.29044 -0.55327,0.71817 -0.71659,0.95052 -0.16332,0.23235 -0.4339,0.6482 -0.60129,0.92412 -0.16739,0.27591 -0.46618,0.82443 -0.66399,1.21892 -0.19781,0.39449 -0.47721,1.01233 -0.62091,1.37297 -0.14369,0.36065 -0.34488,0.92899 -0.44709,1.263 -0.10221,0.334 -0.2748,0.92434 -0.38353,1.31186 -0.10872,0.38752 -0.2388,0.75537 -0.28906,0.81744 -0.0774,0.0955 -0.1145,0.10473 -0.24213,0.0599 -0.0976,-0.0343 -0.21026,-0.15243 -0.31967,-0.33534 -0.0929,-0.15532 -0.24337,-0.48747 -0.33435,-0.7381 -0.091,-0.25064 -0.25771,-0.79034 -0.37049,-1.19934 -0.11279,-0.409 -0.29074,-1.10832 -0.39545,-1.55405 -0.10471,-0.44572 -0.22004,-0.8831 -0.25629,-0.97194 l -0.0659,-0.16154 -0.14731,0.25136 c -0.081,0.13825 -0.2727,0.53005 -0.42598,0.87068 -0.15327,0.34062 -0.36326,0.85695 -0.46665,1.14738 -0.10338,0.29044 -0.24611,0.73005 -0.31717,0.97693 -0.0711,0.24687 -0.17981,0.69349 -0.24167,0.9925 -0.0618,0.299 -0.1503,0.86931 -0.19654,1.26736 -0.0627,0.54015 -0.0775,1.01837 -0.058,1.88546 0.0158,0.70114 0.0626,1.40252 0.11809,1.76902 0.0506,0.334 0.16919,0.98399 0.26354,1.44443 l 0.17154,0.83715 -0.52583,-0.52031 c -0.28921,-0.28617 -0.69846,-0.7223 -0.90944,-0.96917 -0.21097,-0.24687 -0.65312,-0.8053 -0.98254,-1.24096 -0.32942,-0.43565 -0.79823,-1.09643 -1.04179,-1.46839 -0.24356,-0.37197 -0.47054,-0.66706 -0.5044,-0.65578 -0.0339,0.0113 -0.10191,0.19412 -0.15122,0.4063 -0.0493,0.21217 -0.11813,0.66173 -0.15293,0.99901 -0.0406,0.39385 -0.0519,1.00054 -0.0315,1.69579 0.0175,0.59539 0.0796,1.43898 0.13808,1.87463 0.0585,0.43566 0.16736,1.10102 0.24198,1.47859 0.0746,0.37757 0.21904,1.00613 0.32094,1.39681 0.1019,0.39067 0.28163,1.00851 0.3994,1.37297 0.11778,0.36446 0.32049,0.92405 0.45047,1.24353 0.12998,0.31948 0.3732,0.85414 0.54048,1.18815 0.16728,0.334 0.41126,0.77361 0.54218,0.97692 0.13092,0.2033 0.38192,0.54518 0.55777,0.75972 0.17585,0.21453 0.34893,0.44462 0.38461,0.5113 0.0357,0.0667 0.0506,0.15848 0.0331,0.204 -0.0184,0.048 -0.0941,0.0828 -0.18013,0.0828 -0.0816,0 -0.31751,-0.0811 -0.52424,-0.18014 -0.20674,-0.0991 -0.68133,-0.36393 -1.05465,-0.58856 -0.37332,-0.22464 -1.17778,-0.74129 -1.7877,-1.14813 -0.60992,-0.40684 -1.25453,-0.84299 -1.43248,-0.96924 -0.17795,-0.12624 -0.34142,-0.22953 -0.36325,-0.22953 -0.0218,0 -0.0235,0.12205 -0.004,0.27121 0.0198,0.14917 0.1045,0.53696 0.18825,0.86176 0.0837,0.3248 0.25051,0.83841 0.3706,1.14137 0.12009,0.30295 0.35952,0.82063 0.53206,1.15041 0.17253,0.32977 0.48944,0.86444 0.70423,1.18815 0.2148,0.32371 0.59936,0.84995 0.8546,1.16943 0.25523,0.31948 0.82181,0.93763 1.25907,1.37367 0.43726,0.43603 1.08017,1.02184 1.4287,1.30179 0.34852,0.27995 0.90112,0.70002 1.228,0.93348 0.32688,0.23347 1.04509,0.69324 1.59601,1.0217 0.55093,0.32847 0.98191,0.60402 0.95775,0.61233 -0.0242,0.008 -0.83742,-0.0333 -1.80724,-0.0925 -0.96981,-0.0592 -2.28282,-0.13375 -2.9178,-0.16566 -0.63498,-0.0319 -1.28252,-0.042 -1.43898,-0.0225 -0.15647,0.0196 -0.28448,0.054 -0.28448,0.0766 0,0.0226 0.0741,0.14565 0.16477,0.27344 0.0906,0.12779 0.48866,0.55398 0.88451,0.94708 0.41836,0.41545 1.01998,0.93966 1.43675,1.25189 0.39436,0.29543 1.04784,0.74809 1.45218,1.00592 0.40435,0.25782 0.97281,0.60641 1.26325,0.77465 0.29043,0.16823 1.24095,0.67438 2.11226,1.12477 0.87131,0.45039 1.79807,0.93709 2.05946,1.08156 0.26139,0.14446 0.76883,0.44344 1.12763,0.66439 0.3588,0.22094 0.63207,0.40749 0.60727,0.41455 -0.0248,0.007 -0.47282,0.0856 -0.99561,0.17452 -0.52278,0.0889 -1.28561,0.24419 -1.69516,0.34503 -0.40955,0.10084 -1.01551,0.27551 -1.34657,0.38815 -0.33106,0.11264 -0.79203,0.28079 -1.02438,0.37368 -0.23235,0.0929 -0.57524,0.25231 -0.76199,0.35429 -0.18674,0.10199 -0.4719,0.28851 -0.63368,0.41451 -0.16178,0.126 -0.55809,0.49837 -0.88069,0.82749 -0.3226,0.32912 -0.74439,0.78244 -0.93731,1.00738 -0.19293,0.22495 -0.35078,0.43287 -0.35078,0.46206 0,0.0292 0.0218,0.0531 0.0485,0.0531 0.0267,0 0.17519,-0.10902 0.33004,-0.24227 0.15485,-0.13325 0.45977,-0.33166 0.6776,-0.44092 0.21782,-0.10926 0.56239,-0.26125 0.76569,-0.33777 0.20331,-0.0765 0.55455,-0.18623 0.78055,-0.24382 0.22599,-0.0576 0.56399,-0.10893 0.7511,-0.11407 0.20759,-0.006 0.37119,0.0163 0.4197,0.0566 0.0573,0.0476 0.0653,0.0925 0.0287,0.16088 -0.0279,0.0522 -0.17567,0.18634 -0.32828,0.29809 -0.15262,0.11175 -0.3966,0.30826 -0.54218,0.43667 -0.14557,0.12842 -0.47703,0.4611 -0.73657,0.7393 -0.25954,0.27819 -0.7128,0.79561 -1.00724,1.14981 -0.29444,0.35421 -0.68211,0.85033 -0.86148,1.1025 -0.17937,0.25216 -0.32613,0.489 -0.32613,0.52631 0,0.0464 0.13757,0.0119 0.43566,-0.10916 0.23961,-0.0974 0.62576,-0.22503 0.85811,-0.28375 0.23235,-0.0587 0.67196,-0.14248 0.97692,-0.18613 0.30496,-0.0437 0.82774,-0.10902 1.16175,-0.14526 0.35264,-0.0383 1.32687,-0.0667 2.32349,-0.0679 1.10332,-0.001 1.91423,0.0225 2.27068,0.0668 0.30496,0.0378 0.80399,0.10393 1.10894,0.14688 0.30496,0.043 0.9228,0.15001 1.37298,0.23791 0.45017,0.0879 1.19871,0.25539 1.66341,0.37219 0.4647,0.1168 1.40333,0.39862 2.08586,0.62626 0.68253,0.22765 1.62116,0.57152 2.08586,0.76416 0.4647,0.19264 1.32501,0.58484 1.9118,0.87156 0.58679,0.28671 1.40662,0.71608 1.82183,0.95415 0.41522,0.23807 1.0995,0.65854 1.52063,0.93438 0.42114,0.27584 1.0865,0.74196 1.47859,1.03581 0.39209,0.29386 0.96235,0.74835 1.26725,1.00999 0.3049,0.26164 0.81291,0.72539 1.1289,1.03056 0.316,0.30517 0.93781,0.9707 1.38181,1.47896 0.444,0.50827 1.02359,1.19263 1.28799,1.52081 0.2644,0.32817 0.54307,0.6965 0.61928,0.8185 0.0762,0.122 0.27841,0.41652 0.44933,0.6545 0.17092,0.23798 0.34742,0.52042 0.39222,0.62766 0.0448,0.10723 0.1745,0.31819 0.28821,0.4688 0.11371,0.15061 0.32339,0.52165 0.46595,0.82453 0.14257,0.30288 0.36644,0.84773 0.49749,1.21077 0.13106,0.36305 0.3129,0.91692 0.4041,1.23082 0.0912,0.3139 0.24578,0.91335 0.34353,1.33211 0.0977,0.41876 0.21737,0.88076 0.26583,1.02667 0.0608,0.18298 0.1166,0.26529 0.17991,0.26529 z m -10.17898,-17.5369 c -0.30901,-0.003 -0.69254,-0.0325 -0.85228,-0.066 -0.23446,-0.0492 -0.29358,-0.083 -0.30675,-0.17544 -0.0149,-0.1045 0.0591,-0.13845 0.84491,-0.38767 0.47367,-0.15023 1.06056,-0.36603 1.30421,-0.47956 0.24365,-0.11353 0.63719,-0.33563 0.87453,-0.49356 0.23735,-0.15793 0.60206,-0.44501 0.81047,-0.63796 0.20841,-0.19296 0.52571,-0.54494 0.70511,-0.78219 0.17941,-0.23724 0.44196,-0.67285 0.58345,-0.96802 0.14149,-0.29516 0.31487,-0.76377 0.38528,-1.04134 0.0704,-0.27758 0.15267,-0.74489 0.1828,-1.03849 0.0376,-0.36594 0.0378,-0.72725 8.5e-4,-1.14902 -0.0297,-0.33838 -0.10397,-0.82959 -0.16512,-1.09159 -0.0612,-0.262 -0.18194,-0.67835 -0.26843,-0.92522 -0.0865,-0.24688 -0.28788,-0.71025 -0.44755,-1.02973 -0.15966,-0.31948 -0.41421,-0.77098 -0.56568,-1.00333 -0.15146,-0.23235 -0.46738,-0.66008 -0.70204,-0.95052 -0.23466,-0.29044 -0.66334,-0.75976 -0.95264,-1.04293 -0.28929,-0.28318 -0.55412,-0.51487 -0.5885,-0.51487 -0.0344,0 -0.32881,-0.15343 -0.65428,-0.34095 -0.32547,-0.18753 -0.77716,-0.41457 -1.00376,-0.50453 -0.22659,-0.09 -0.58969,-0.20901 -0.80688,-0.26456 -0.21718,-0.0556 -0.6021,-0.12873 -0.85536,-0.16262 -0.26951,-0.0361 -0.71233,-0.0488 -1.06776,-0.0306 -0.37909,0.0193 -0.80015,0.0802 -1.12059,0.16204 -0.28233,0.0721 -0.7136,0.21271 -0.95839,0.31251 -0.24479,0.0998 -0.65539,0.3181 -0.91246,0.48512 -0.25707,0.16702 -0.65827,0.49682 -0.89156,0.7329 -0.23329,0.23607 -0.53895,0.61374 -0.67924,0.83926 -0.14029,0.22552 -0.32308,0.5852 -0.40622,0.79929 -0.0831,0.21409 -0.18738,0.59706 -0.23167,0.85104 -0.0443,0.25398 -0.0805,0.6219 -0.0805,0.8176 0,0.1957 0.0349,0.55497 0.0775,0.79838 0.0426,0.24342 0.13426,0.60892 0.20362,0.81222 0.0694,0.20331 0.19178,0.50035 0.27205,0.66009 0.0803,0.15974 0.24743,0.43301 0.37149,0.60727 0.12406,0.17426 0.40043,0.4857 0.61417,0.69209 0.21373,0.20638 0.52933,0.46518 0.70132,0.57509 0.17198,0.10992 0.46875,0.27061 0.65947,0.35709 0.19073,0.0865 0.5699,0.21383 0.84261,0.28301 0.37598,0.0954 0.63833,0.12578 1.08525,0.12578 0.35282,0 0.71575,-0.0321 0.90415,-0.08 0.1731,-0.044 0.48958,-0.16538 0.70328,-0.26973 0.24952,-0.12184 0.49727,-0.29845 0.69238,-0.49356 0.18579,-0.18579 0.37705,-0.4502 0.49231,-0.6806 0.10367,-0.20722 0.22864,-0.55723 0.27772,-0.77781 0.0596,-0.268 0.0817,-0.54397 0.0665,-0.83189 -0.0168,-0.31786 -0.0591,-0.51028 -0.16153,-0.73374 -0.0763,-0.16659 -0.25557,-0.41966 -0.3983,-0.56239 -0.16736,-0.16736 -0.42633,-0.34106 -0.72935,-0.48921 -0.44276,-0.21646 -0.49575,-0.22968 -0.91872,-0.22919 -0.34207,3.9e-4 -0.50553,0.0266 -0.68708,0.11026 -0.13102,0.0604 -0.31915,0.19069 -0.41807,0.2896 -0.0989,0.0989 -0.23819,0.30729 -0.3095,0.46306 -0.11154,0.24364 -0.12638,0.33973 -0.10623,0.68785 0.0166,0.28643 0.0638,0.49288 0.16169,0.70666 0.11956,0.26115 0.1281,0.31217 0.0631,0.37713 -0.0595,0.0595 -0.11341,0.0634 -0.25901,0.0187 -0.10113,-0.031 -0.34237,-0.17745 -0.53609,-0.32537 -0.23978,-0.18309 -0.40471,-0.36165 -0.5167,-0.55938 -0.1438,-0.25389 -0.1645,-0.34041 -0.1645,-0.68759 0,-0.34318 0.0239,-0.44563 0.17553,-0.7537 0.0965,-0.1961 0.30199,-0.49264 0.45657,-0.65898 0.15458,-0.16634 0.41879,-0.38533 0.58712,-0.48665 0.16834,-0.10132 0.4619,-0.23734 0.65237,-0.30227 0.24393,-0.0832 0.47117,-0.11823 0.76875,-0.11864 0.23234,-3.2e-4 0.57291,0.0349 0.7568,0.0782 0.1839,0.0434 0.5047,0.15823 0.71289,0.25529 0.2082,0.097 0.50923,0.27453 0.66897,0.39439 0.15974,0.11987 0.41657,0.36702 0.57073,0.54924 0.15416,0.18221 0.37385,0.5214 0.48819,0.75375 0.11435,0.23235 0.24918,0.57691 0.29962,0.7657 0.0638,0.23869 0.0903,0.52821 0.0871,0.95052 -0.004,0.50424 -0.028,0.67894 -0.1429,1.02973 -0.0761,0.23234 -0.22805,0.57633 -0.3377,0.7644 -0.10966,0.18807 -0.35715,0.50112 -0.54999,0.69567 -0.27184,0.27426 -0.46164,0.4076 -0.8449,0.59355 -0.27187,0.13191 -0.69629,0.29068 -0.94316,0.35282 -0.32451,0.0817 -0.6756,0.12003 -1.26736,0.13839 -0.58452,0.0181 -0.96946,0.002 -1.34657,-0.0556 -0.29043,-0.0445 -0.74193,-0.14312 -1.00332,-0.21905 -0.2614,-0.0759 -0.69748,-0.24314 -0.96909,-0.37159 -0.2716,-0.12846 -0.64217,-0.33941 -0.82348,-0.4688 -0.18131,-0.12938 -0.45288,-0.37006 -0.60348,-0.53484 -0.1506,-0.16478 -0.41711,-0.51672 -0.59224,-0.7821 -0.17514,-0.26537 -0.40049,-0.64883 -0.50079,-0.85214 -0.1003,-0.2033 -0.21646,-0.5341 -0.25813,-0.73511 -0.0417,-0.20101 -0.10394,-0.79461 -0.13836,-1.31913 -0.0344,-0.52451 -0.0497,-1.26305 -0.034,-1.64119 0.0201,-0.48504 0.0608,-0.78861 0.13813,-1.03076 0.0603,-0.18879 0.19911,-0.491 0.30852,-0.67159 0.10942,-0.18058 0.38905,-0.55827 0.6214,-0.8393 0.23235,-0.28103 0.63945,-0.69171 0.90467,-0.91262 0.26522,-0.22091 0.66919,-0.51113 0.89771,-0.64494 0.22852,-0.13381 0.61748,-0.32827 0.86435,-0.43213 0.24687,-0.10387 0.63896,-0.23639 0.87131,-0.29451 0.23235,-0.0581 0.60834,-0.13099 0.83553,-0.16194 0.22719,-0.0309 0.65492,-0.0561 0.95052,-0.056 0.29559,1.7e-4 0.77508,0.0361 1.06551,0.0799 0.29044,0.0437 0.74728,0.13924 1.0152,0.21221 0.26793,0.073 0.71657,0.22637 0.99698,0.3409 0.28041,0.11453 0.74335,0.34046 1.02875,0.50205 0.2854,0.1616 0.71599,0.4391 0.95687,0.61667 0.24088,0.17757 0.63516,0.5009 0.87618,0.7185 0.24102,0.21761 0.62947,0.62405 0.86322,0.90322 0.23374,0.27916 0.57808,0.73898 0.76519,1.02181 0.18711,0.28284 0.47936,0.79374 0.64945,1.13535 0.17008,0.3416 0.34027,0.71021 0.37819,0.81912 0.0379,0.10891 0.0862,0.19803 0.10734,0.19803 0.0211,0 0.054,-0.13664 0.0731,-0.30364 0.0191,-0.167 0.0803,-0.50182 0.13596,-0.74404 0.0557,-0.24223 0.17347,-0.62243 0.26175,-0.84491 0.0883,-0.22248 0.26922,-0.59461 0.4021,-0.82696 0.13288,-0.23235 0.33186,-0.54354 0.44219,-0.69154 0.11033,-0.14799 0.32301,-0.40939 0.47263,-0.58087 0.14963,-0.17148 0.4546,-0.47379 0.67773,-0.67179 0.22313,-0.19801 0.49385,-0.40593 0.60161,-0.46206 0.10775,-0.0561 0.24557,-0.10205 0.30626,-0.10205 0.0607,0 0.17997,0.036 0.26507,0.08 0.0851,0.044 0.27738,0.26177 0.42728,0.48391 0.1499,0.22215 0.37733,0.62511 0.5054,0.89547 0.12807,0.27036 0.29032,0.7181 0.36056,0.99497 0.0702,0.27687 0.15498,0.76397 0.18833,1.08245 0.0464,0.4435 0.0457,0.72414 -0.003,1.19894 -0.0351,0.34094 -0.11976,0.81095 -0.18802,1.04446 -0.0683,0.23351 -0.22051,0.66019 -0.33832,0.94817 -0.11781,0.28798 -0.2142,0.53969 -0.2142,0.55937 0,0.0197 0.40991,0.0521 0.91091,0.0721 0.501,0.02 1.094981,0.0693 1.319951,0.10948 0.22497,0.0402 0.48951,0.12283 0.58786,0.18362 0.0984,0.0608 0.20703,0.1786 0.24149,0.2618 0.037,0.0893 0.0478,0.23031 0.0265,0.34406 -0.0199,0.10602 -0.12418,0.32883 -0.23175,0.49513 -0.10758,0.1663 -0.37494,0.51623 -0.59415,0.77762 -0.2192,0.26139 -0.58587,0.65918 -0.814811,0.88397 -0.22895,0.22479 -0.55885,0.51596 -0.73311,0.64706 -0.17427,0.13109 -0.51883,0.34273 -0.7657,0.47032 -0.24687,0.12759 -0.64196,0.29253 -0.87796,0.36654 -0.23601,0.074 -0.6281,0.1718 -0.87131,0.21732 -0.24322,0.0455 -0.90559,0.12877 -1.47194,0.18501 -0.56635,0.0562 -1.13495,0.13958 -1.26356,0.18519 -0.16507,0.0585 -0.39026,0.23471 -0.7657,0.599 -0.29252,0.28384 -0.68632,0.62546 -0.8751,0.75914 -0.18879,0.13369 -0.50083,0.32938 -0.69343,0.43487 -0.19259,0.10549 -0.5393,0.26083 -0.77045,0.34519 -0.23115,0.0844 -0.6168,0.19066 -0.85701,0.23622 -0.24299,0.0461 -0.68596,0.0806 -0.99856,0.0778 z m 6.5171,-3.50787 c 0.23391,-0.0133 0.60572,-0.0702 0.82623,-0.12665 0.22052,-0.0564 0.57539,-0.17678 0.7886,-0.26751 0.21322,-0.0907 0.58995,-0.28602 0.83718,-0.43398 0.24723,-0.14796 0.66337,-0.42961 0.92477,-0.62591 0.26139,-0.19629 0.63639,-0.51414 0.83334,-0.70634 0.19694,-0.19219 0.404781,-0.42603 0.461861,-0.51965 0.0571,-0.0936 0.10387,-0.21549 0.10397,-0.27083 1.9e-4,-0.0959 -0.0355,-0.099 -0.752291,-0.0667 -0.41388,0.0187 -1.00201,0.071 -1.30697,0.11626 -0.32853,0.0488 -0.66206,0.13417 -0.8185,0.2096 -0.14522,0.07 -0.52012,0.33079 -0.83312,0.5795 -0.313,0.2487 -0.84219,0.71675 -1.17597,1.04011 -0.33379,0.32335 -0.62181,0.64735 -0.64004,0.72001 -0.0182,0.0727 -0.01,0.16946 0.0192,0.21513 0.0288,0.0457 0.10954,0.10059 0.1794,0.12204 0.0699,0.0214 0.3184,0.0281 0.55232,0.0149 z m -0.64293,-1.92612 c 0.04,0 0.22699,-0.16344 0.41542,-0.36318 0.18843,-0.19975 0.62132,-0.69284 0.96196,-1.09574 0.34065,-0.40291 0.78481,-0.97947 0.98703,-1.28124 0.20222,-0.30178 0.45022,-0.7126 0.55111,-0.91295 0.1009,-0.20035 0.25762,-0.58316 0.34829,-0.8507 0.13,-0.38362 0.17003,-0.60374 0.1894,-1.04155 0.0179,-0.40541 10e-4,-0.64753 -0.0611,-0.89772 -0.0471,-0.18842 -0.17077,-0.51242 -0.27478,-0.72 -0.10401,-0.20758 -0.26752,-0.46303 -0.36337,-0.56767 -0.11832,-0.12918 -0.2204,-0.19025 -0.31798,-0.19025 -0.10689,0 -0.24498,0.0981 -0.53878,0.38284 -0.21727,0.21057 -0.50838,0.53731 -0.64689,0.7261 -0.13852,0.18878 -0.3131,0.45017 -0.38797,0.58087 -0.0749,0.1307 -0.19936,0.4268 -0.27664,0.65801 -0.0773,0.23121 -0.18395,0.64706 -0.23704,0.92412 -0.0531,0.27705 -0.12229,0.72948 -0.15375,1.0054 -0.0315,0.27591 -0.10457,1.04783 -0.16246,1.71537 -0.0579,0.66755 -0.10524,1.3745 -0.10524,1.571 0,0.26843 0.0181,0.35729 0.0728,0.35729 z m -0.64671,-12.40957 c -0.0252,0 -0.32819,-0.16994 -0.67329,-0.37766 -0.34509,-0.20771 -0.9126,-0.56804 -1.26113,-0.80074 -0.34852,-0.2327 -0.90695,-0.63166 -1.24095,-0.88658 -0.334,-0.25492 -0.77643,-0.61342 -0.98318,-0.79666 -0.20675,-0.18324 -0.62989,-0.60449 -0.94033,-0.93612 -0.31043,-0.33162 -0.71623,-0.80688 -0.90177,-1.05613 -0.18554,-0.24925 -0.55664,-0.80962 -0.82467,-1.24528 -0.26804,-0.43565 -0.68402,-1.17231 -0.92441,-1.63701 -0.24943,-0.48216 -0.52792,-1.11697 -0.64867,-1.47859 -0.11637,-0.34852 -0.28246,-0.99012 -0.3691,-1.42577 -0.0866,-0.43566 -0.18657,-1.02973 -0.22209,-1.32017 -0.0355,-0.29043 -0.0666,-0.92015 -0.069,-1.39937 -0.003,-0.56325 0.0212,-0.98333 0.0679,-1.18815 0.0398,-0.17427 0.13148,-0.49507 0.20383,-0.71289 0.0723,-0.21783 0.23809,-0.60379 0.36831,-0.85769 0.13022,-0.2539 0.36808,-0.65787 0.52859,-0.89771 0.1605,-0.23985 0.44057,-0.61445 0.62237,-0.83245 0.1818,-0.21801 0.58881,-0.64575 0.90448,-0.95052 0.31566,-0.30478 0.80178,-0.72524 1.08025,-0.93434 0.27848,-0.20911 0.69622,-0.49798 0.92832,-0.64193 0.2321,-0.14395 0.6577,-0.37975 0.94578,-0.52401 0.28808,-0.14425 0.70201,-0.32643 0.91983,-0.40483 0.21783,-0.0784 0.6263,-0.19839 0.90772,-0.26663 0.28142,-0.0683 0.79132,-0.15291 1.13312,-0.18815 0.39866,-0.0411 1.01978,-0.0533 1.73261,-0.034 0.9045,0.0245 1.22971,0.055 1.74852,0.16403 0.35054,0.0737 0.88521,0.22 1.18815,0.32518 0.30294,0.10518 0.76178,0.29996 1.01965,0.43285 0.25786,0.13288 0.649951,0.37136 0.871311,0.52994 0.22135,0.15859 0.56086,0.42856 0.75447,0.59993 0.19361,0.17138 0.51761,0.50696 0.72001,0.74574 0.2024,0.23879 0.49912,0.63039 0.65939,0.87023 0.16026,0.23984 0.39799,0.64381 0.52829,0.89771 0.13029,0.2539 0.30069,0.63986 0.37866,0.85769 0.078,0.21782 0.18731,0.5874 0.24299,0.82128 0.0557,0.23388 0.12652,0.67163 0.15742,0.97278 0.0396,0.38607 0.0397,0.71231 2.9e-4,1.10617 -0.0308,0.30723 -0.11567,0.78181 -0.18872,1.05463 -0.073,0.27281 -0.22401,0.69064 -0.33548,0.92851 -0.11146,0.23786 -0.32637,0.6158 -0.47756,0.83986 -0.15119,0.22405 -0.43204,0.57395 -0.6241,0.77755 -0.19207,0.20361 -0.53729,0.5119 -0.76716,0.68511 -0.22986,0.17321 -0.6356,0.41977 -0.90164,0.54791 -0.26603,0.12814 -0.634901,0.28168 -0.819711,0.3412 -0.18482,0.0595 -0.52606,0.14428 -0.75833,0.18834 -0.24916,0.0473 -0.7202,0.0801 -1.14885,0.0801 -0.41788,0 -0.92579,-0.0347 -1.19552,-0.0816 -0.25794,-0.0449 -0.71068,-0.16243 -1.0061,-0.26118 -0.29542,-0.0988 -0.68751,-0.25494 -0.87131,-0.34706 -0.1838,-0.0921 -0.47676,-0.26892 -0.65103,-0.39287 -0.17426,-0.12396 -0.46078,-0.37661 -0.6367,-0.56145 -0.17593,-0.18484 -0.39811,-0.45074 -0.49374,-0.59088 -0.0956,-0.14015 -0.25482,-0.43002 -0.35376,-0.64417 -0.099,-0.21415 -0.22869,-0.59482 -0.28833,-0.84593 -0.0746,-0.31402 -0.10814,-0.63225 -0.10749,-1.01924 6.5e-4,-0.38959 0.034,-0.69262 0.1084,-0.98512 0.0591,-0.23235 0.19353,-0.59371 0.29873,-0.80302 0.1052,-0.20931 0.32518,-0.52852 0.48883,-0.70936 0.16365,-0.18084 0.46624,-0.43892 0.67242,-0.57352 0.20619,-0.1346 0.57452,-0.31118 0.81852,-0.39241 0.33029,-0.10994 0.58663,-0.15469 1.00325,-0.17515 0.41994,-0.0206 0.66375,-0.005 0.97692,0.0644 0.22953,0.0505 0.58366,0.16907 0.78697,0.26339 0.2033,0.0943 0.51222,0.27766 0.68648,0.40742 0.17426,0.12975 0.41708,0.36614 0.5396,0.52531 0.12252,0.15916 0.27248,0.4018 0.33325,0.53919 0.0608,0.13739 0.12424,0.41365 0.14103,0.61392 0.0226,0.26953 0.007,0.43672 -0.0609,0.64357 -0.0503,0.1537 -0.17339,0.40296 -0.27359,0.55392 -0.11515,0.17349 -0.24106,0.295 -0.3422,0.33026 -0.13992,0.0488 -0.17612,0.0397 -0.28822,-0.0724 -0.0874,-0.0874 -0.12998,-0.19202 -0.13379,-0.32862 -0.003,-0.11024 -0.002,-0.26107 0.003,-0.33519 0.005,-0.0741 -0.0277,-0.30841 -0.072,-0.52063 -0.0442,-0.21223 -0.14186,-0.49065 -0.21691,-0.61872 -0.0751,-0.12807 -0.25397,-0.32574 -0.39758,-0.43926 -0.14361,-0.11352 -0.39624,-0.25695 -0.56138,-0.31874 -0.16515,-0.0618 -0.44916,-0.12625 -0.63115,-0.14324 -0.18481,-0.0173 -0.47776,-0.002 -0.66357,0.0338 -0.18297,0.0356 -0.47526,0.13249 -0.64952,0.21534 -0.17426,0.0829 -0.42129,0.25311 -0.54896,0.37835 -0.12766,0.12524 -0.30079,0.33464 -0.38474,0.46534 -0.0839,0.13069 -0.19648,0.3802 -0.25007,0.55447 -0.0536,0.17426 -0.11367,0.45941 -0.13351,0.63368 -0.0198,0.17426 -0.0102,0.47781 0.0213,0.67455 0.0316,0.19674 0.10737,0.49123 0.16842,0.6544 0.0611,0.16318 0.23372,0.47712 0.38371,0.69763 0.15848,0.233 0.42663,0.53022 0.6402,0.70959 0.20212,0.16975 0.58139,0.41392 0.84283,0.54258 0.26143,0.12866 0.66544,0.28502 0.89779,0.34746 0.33717,0.0906 0.57701,0.11405 1.18815,0.11618 0.63305,0.002 0.84618,-0.0183 1.23036,-0.11812 0.25557,-0.0664 0.63317,-0.19026 0.83911,-0.27518 0.20595,-0.0849 0.569191,-0.28399 0.807211,-0.44236 0.23802,-0.15838 0.59029,-0.45494 0.78282,-0.65903 0.19253,-0.20409 0.45507,-0.55048 0.58343,-0.76975 0.12835,-0.21927 0.30566,-0.61775 0.39401,-0.88551 0.0883,-0.26775 0.18616,-0.67271 0.21735,-0.8999 0.0312,-0.22719 0.0566,-0.58364 0.0565,-0.7921 -1.1e-4,-0.20847 -0.0367,-0.60413 -0.0813,-0.87924 -0.0446,-0.27512 -0.15063,-0.70767 -0.23558,-0.96124 -0.0849,-0.25356 -0.24815,-0.6463 -0.36266,-0.87276 -0.11451,-0.22645 -0.32783,-0.58118 -0.47404,-0.78827 -0.14621,-0.2071 -0.40262,-0.52428 -0.5698,-0.70485 -0.16717,-0.18057 -0.47168,-0.46262 -0.67668,-0.62679 -0.205001,-0.16416 -0.443861,-0.34816 -0.530811,-0.40888 -0.0869,-0.0607 -0.3363,-0.20773 -0.55412,-0.32669 -0.21783,-0.11897 -0.60992,-0.3027 -0.87131,-0.4083 -0.2614,-0.1056 -0.78418,-0.27101 -1.16175,-0.36758 -0.37757,-0.0966 -0.9419,-0.20523 -1.25408,-0.24147 -0.35816,-0.0416 -0.85503,-0.0543 -1.34657,-0.0344 -0.46326,0.0187 -0.98478,0.0752 -1.28675,0.13932 -0.27927,0.0593 -0.69513,0.16976 -0.92412,0.24547 -0.22899,0.0757 -0.64106,0.24304 -0.91572,0.37183 -0.27466,0.1288 -0.73357,0.39008 -1.0198,0.58063 -0.28622,0.19055 -0.74828,0.56399 -1.0268,0.82988 -0.27851,0.26589 -0.6674,0.69144 -0.86418,0.94568 -0.19679,0.25424 -0.47635,0.67009 -0.62124,0.92412 -0.1449,0.25402 -0.34766,0.66614 -0.4506,0.91582 -0.10293,0.24967 -0.24491,0.65364 -0.31549,0.89771 -0.0706,0.24407 -0.16546,0.66951 -0.21083,0.94542 -0.0454,0.27591 -0.0978,0.73929 -0.11644,1.02973 -0.0187,0.29044 -0.007,0.8127 0.0258,1.16058 0.0328,0.34789 0.10889,0.87067 0.169,1.16175 0.0601,0.29108 0.20505,0.82275 0.32208,1.1815 0.11703,0.35874 0.3852,1.00034 0.59593,1.42578 0.21073,0.42543 0.57182,1.05866 0.80241,1.40719 0.2306,0.34852 0.61734,0.88319 0.85942,1.18815 0.24208,0.30496 0.67974,0.82774 0.97257,1.16174 0.29283,0.33401 1.29884,1.38358 2.23557,2.3324 0.93674,0.94881 1.70315,1.75082 1.70315,1.78222 0,0.0314 -0.0206,0.0571 -0.0458,0.0571 z m -14.04651,-1.66504 c -0.25553,0.0166 -0.52759,-0.002 -0.74322,-0.0508 -0.18708,-0.0424 -0.46839,-0.13979 -0.62513,-0.21648 -0.15675,-0.0767 -0.43366,-0.27849 -0.61535,-0.44846 -0.18783,-0.17571 -0.40154,-0.44259 -0.49536,-0.61862 -0.0908,-0.17027 -0.2014,-0.44928 -0.24587,-0.62002 -0.0445,-0.17074 -0.0809,-0.46679 -0.0809,-0.65789 0,-0.1911 0.0354,-0.48354 0.0788,-0.64987 0.0433,-0.16633 0.1371,-0.41752 0.20839,-0.5582 0.0713,-0.14068 0.25,-0.3875 0.39713,-0.5485 0.14714,-0.16099 0.38011,-0.36444 0.51771,-0.45211 0.1376,-0.0877 0.40465,-0.21229 0.59343,-0.27694 0.26196,-0.0897 0.46204,-0.11726 0.84491,-0.11638 0.35674,8.1e-4 0.59697,0.032 0.8316,0.10786 0.18147,0.0587 0.446,0.18118 0.58784,0.27219 0.14184,0.091 0.37709,0.29154 0.52279,0.44559 0.1457,0.15406 0.32408,0.39695 0.39641,0.53977 0.0723,0.14282 0.16979,0.38874 0.21659,0.54649 0.0468,0.15775 0.0848,0.46667 0.0845,0.68648 -3.4e-4,0.21982 -0.0324,0.51849 -0.0713,0.6637 -0.0389,0.14522 -0.13603,0.39277 -0.21597,0.55011 -0.0799,0.15734 -0.26454,0.41212 -0.41024,0.56617 -0.1457,0.15406 -0.37689,0.35196 -0.51376,0.43979 -0.13687,0.0878 -0.38635,0.20699 -0.5544,0.26481 -0.16805,0.0578 -0.48693,0.11692 -0.70862,0.13134 z m -0.0598,-0.88599 c 0.29414,-0.0143 0.46399,-0.054 0.66008,-0.15461 0.14522,-0.0745 0.35641,-0.22688 0.46931,-0.33868 0.11289,-0.11181 0.26669,-0.33399 0.34175,-0.49373 0.11153,-0.23731 0.13635,-0.36769 0.13575,-0.71289 -5.6e-4,-0.31739 -0.0288,-0.4844 -0.11359,-0.67155 -0.0621,-0.137 -0.22233,-0.36614 -0.35614,-0.50918 -0.13855,-0.14813 -0.36179,-0.31322 -0.5186,-0.38352 -0.21901,-0.0982 -0.36711,-0.12338 -0.72417,-0.12319 -0.3681,1.9e-4 -0.49636,0.0234 -0.71289,0.12903 -0.14522,0.0708 -0.3751,0.24226 -0.51085,0.38094 -0.15373,0.15706 -0.28815,0.36264 -0.35644,0.54517 -0.0694,0.1854 -0.10964,0.41815 -0.10964,0.63372 0,0.2085 0.0395,0.44457 0.10173,0.60842 0.0559,0.14724 0.16357,0.3488 0.23915,0.44789 0.0756,0.0991 0.22188,0.24459 0.32509,0.32331 0.1032,0.0787 0.31044,0.18699 0.46053,0.2406 0.20011,0.0715 0.3785,0.0923 0.66893,0.0783 z m 6.24253,34.28562 c 0.0208,0.001 0.0594,-0.0394 0.086,-0.0902 0.0265,-0.0508 0.0862,-0.31816 0.13255,-0.59408 0.0464,-0.27591 0.13331,-0.83434 0.19316,-1.24095 0.0599,-0.40661 0.16738,-1.24966 0.23895,-1.87343 0.0716,-0.62378 0.13011,-1.24756 0.13011,-1.38618 0,-0.24919 -0.002,-0.25203 -0.17162,-0.25179 -0.10135,1.5e-4 -0.43107,0.12661 -0.8053,0.30885 -0.34852,0.16974 -0.9671,0.48753 -1.37462,0.70622 -0.40752,0.21868 -1.061,0.55842 -1.45218,0.75496 -0.39118,0.19655 -0.77659,0.40304 -0.85646,0.45888 -0.0799,0.0558 -0.14522,0.12245 -0.14522,0.14801 0,0.0256 0.31486,0.27004 0.69969,0.54327 0.38483,0.27324 0.9496,0.69626 1.25505,0.94005 0.30545,0.24379 0.81245,0.65713 1.12666,0.91852 0.31421,0.26139 0.64649,0.51585 0.7384,0.56546 0.0919,0.0496 0.18409,0.0912 0.20485,0.0924 z m 1.44961,-0.75353 c 0.16944,-0.0178 1.01887,-0.1646 1.88762,-0.32614 0.86876,-0.16155 1.73923,-0.33004 1.9344,-0.37443 0.19516,-0.0444 0.39745,-0.11186 0.44952,-0.14993 0.0898,-0.0657 0.0876,-0.0812 -0.043,-0.30083 -0.0757,-0.12738 -0.27113,-0.39794 -0.43419,-0.60124 -0.16306,-0.20331 -0.57051,-0.67174 -0.90544,-1.04096 -0.33493,-0.36922 -0.86253,-0.90545 -1.17244,-1.19162 -0.3099,-0.28618 -0.75357,-0.68125 -0.98592,-0.87794 l -0.42245,-0.35761 -0.0325,0.67793 c -0.0179,0.37286 -0.0614,0.90368 -0.0967,1.17959 -0.0353,0.27592 -0.1434,1.03633 -0.24019,1.68982 -0.0968,0.65348 -0.19191,1.30461 -0.2114,1.44696 l -0.0354,0.25882 z m -6.43952,-2.99353 c 0.10093,0 0.12035,-0.0281 0.12035,-0.17407 0,-0.0957 -0.0822,-1.02843 -0.18264,-2.07266 -0.10046,-1.04423 -0.21957,-2.07386 -0.2647,-2.28807 -0.0451,-0.21421 -0.12117,-0.47189 -0.16896,-0.57262 -0.0478,-0.10072 -0.14248,-0.20845 -0.21041,-0.2394 -0.0898,-0.0409 -0.18475,-0.0383 -0.34808,0.01 -0.12352,0.0363 -0.3434,0.13993 -0.48862,0.23038 -0.14521,0.0904 -0.4847,0.32654 -0.75441,0.52466 -0.26971,0.19812 -0.84964,0.64704 -1.28874,0.9976 -0.43909,0.35055 -0.96177,0.74604 -1.16151,0.87886 -0.21017,0.13975 -0.34351,0.26114 -0.31651,0.28814 0.0256,0.0257 0.47197,0.23088 0.99181,0.45605 0.51984,0.22517 1.3729,0.63236 1.89568,0.90487 0.52279,0.2725 1.19934,0.62172 1.50346,0.77603 0.30411,0.15431 0.60709,0.28057 0.67328,0.28057 z m 1.09932,-0.68649 c 0.009,0 0.65437,-0.29905 1.43329,-0.66456 0.77892,-0.36551 1.7635,-0.84193 2.18794,-1.05872 0.42444,-0.21678 0.82247,-0.44144 0.88451,-0.49924 0.062,-0.0578 0.1128,-0.12736 0.1128,-0.15458 0,-0.0272 -0.33862,-0.27303 -0.7525,-0.54624 -0.41387,-0.27321 -1.12046,-0.70543 -1.57019,-0.96048 -0.44974,-0.25506 -1.17451,-0.63774 -1.61061,-0.85041 -0.43609,-0.21267 -0.86855,-0.40151 -0.96102,-0.41965 -0.16105,-0.0316 -0.16971,-0.0245 -0.2059,0.16839 -0.0208,0.11075 -0.0227,0.58273 -0.004,1.04884 0.0185,0.4661 0.0705,1.21579 0.11567,1.66597 0.0452,0.45017 0.10473,0.98484 0.13239,1.18815 0.0277,0.2033 0.0886,0.53004 0.13553,0.72609 0.0469,0.19604 0.0929,0.35644 0.10231,0.35644 z m -7.1464,-2.06968 c 0.0206,-0.0509 0.0144,-0.30117 -0.0138,-0.55606 -0.0281,-0.2549 -0.0767,-0.59414 -0.10798,-0.75388 -0.0313,-0.15974 -0.13903,-0.6203 -0.23949,-1.02346 -0.10047,-0.40315 -0.25528,-0.96158 -0.34404,-1.24095 -0.0888,-0.27937 -0.23247,-0.68023 -0.31935,-0.89079 -0.0869,-0.21057 -0.1884,-0.38285 -0.22559,-0.38285 -0.0372,0 -0.25478,0.18482 -0.48353,0.41072 -0.22875,0.22589 -0.64423,0.68333 -0.92328,1.01652 -0.27905,0.3332 -0.71635,0.87909 -0.97177,1.21309 -0.25542,0.33401 -0.60331,0.76487 -0.7731,0.95748 l -0.30869,0.3502 0.22433,0.0557 c 0.12338,0.0306 0.65734,0.12985 1.18659,0.22047 0.52924,0.0906 1.47976,0.28887 2.11226,0.44058 1.05837,0.25385 1.15299,0.26845 1.1874,0.18321 z m -10.7614,-0.35942 c 0.0122,0 0.16069,-0.0345 0.33004,-0.0766 0.16934,-0.0421 0.61682,-0.11381 0.99439,-0.15928 0.37756,-0.0455 1.25391,-0.12982 1.94744,-0.18743 0.69352,-0.0576 1.3039,-0.10475 1.3564,-0.10475 0.0911,0 0.0907,-0.0173 -0.0102,-0.38285 -0.0581,-0.21057 -0.2612,-0.7987 -0.45127,-1.30696 -0.19007,-0.50827 -0.43931,-1.14987 -0.55387,-1.42578 -0.11455,-0.27592 -0.23087,-0.52434 -0.25847,-0.55205 -0.0318,-0.0319 -0.13912,0.0358 -0.2929,0.18482 -0.13349,0.12937 -0.51812,0.60354 -0.85473,1.05371 -0.33662,0.45018 -0.8501,1.13931 -1.14107,1.5314 -0.29097,0.39209 -0.65478,0.83458 -0.80846,0.98331 -0.15368,0.14873 -0.27942,0.30913 -0.27942,0.35644 0,0.0473 0.01,0.086 0.0221,0.086 z m 11.87714,-0.77115 c 0.0628,-0.0198 0.28445,-0.15081 0.4925,-0.29106 0.20805,-0.14025 0.77837,-0.53532 1.26736,-0.87793 0.489,-0.3426 1.16831,-0.82272 1.50957,-1.06693 0.34126,-0.24421 0.62048,-0.47374 0.62048,-0.51007 0,-0.0363 -0.18695,-0.13813 -0.41543,-0.22625 -0.22849,-0.0881 -0.71259,-0.24393 -1.07578,-0.34627 -0.36319,-0.10234 -0.96384,-0.25817 -1.33479,-0.3463 -0.37094,-0.0881 -0.89083,-0.19533 -1.1553,-0.23823 -0.26448,-0.0429 -0.60562,-0.0781 -0.7581,-0.0782 -0.26421,-2e-4 -0.27724,0.006 -0.27724,0.13865 0,0.0764 0.0604,0.40838 0.13434,0.7378 0.0739,0.32942 0.25138,1.03642 0.39445,1.57111 0.14307,0.53469 0.31043,1.10662 0.37191,1.27095 0.0987,0.26368 0.12522,0.29455 0.22603,0.26273 z m -12.11846,-0.47245 c 0.0247,-0.0276 0.22406,-0.32344 0.44308,-0.65744 0.21902,-0.33401 0.65727,-0.96373 0.97388,-1.39938 0.31662,-0.43566 0.63085,-0.88246 0.69829,-0.9929 0.0675,-0.11044 0.10889,-0.21454 0.0921,-0.23133 -0.0168,-0.0168 -0.18528,0.008 -0.37444,0.0559 -0.18915,0.0475 -0.47529,0.13554 -0.63587,0.19562 -0.18888,0.0707 -0.33882,0.17068 -0.42471,0.28328 -0.073,0.0957 -0.20509,0.38507 -0.2935,0.64298 -0.0884,0.25791 -0.24241,0.78935 -0.34222,1.18097 -0.0998,0.39162 -0.18147,0.77064 -0.18147,0.84226 0,0.0756 0.0188,0.10919 0.0449,0.0801 z m 5.73988,-0.0786 c 0.0391,-0.0325 0.37361,-0.45521 0.74331,-0.93943 0.3697,-0.48422 0.82723,-1.0705 1.01674,-1.30285 0.1895,-0.23235 0.52756,-0.62757 0.75123,-0.87826 0.22367,-0.25069 0.43234,-0.50377 0.46372,-0.56239 0.0451,-0.0842 0.0397,-0.11325 -0.0255,-0.13827 -0.0454,-0.0174 -0.23258,-0.0317 -0.41594,-0.0317 -0.18335,0 -0.7933,0.0359 -1.35545,0.0798 -0.56214,0.0438 -1.23594,0.10445 -1.49734,0.13465 -0.26139,0.0302 -0.52872,0.0899 -0.59407,0.1327 -0.0653,0.0428 -0.11882,0.1198 -0.11882,0.17114 0,0.0513 0.10698,0.49635 0.23774,0.98891 0.13075,0.49255 0.34697,1.23513 0.4805,1.65016 0.19683,0.6118 0.25623,0.74344 0.3139,0.69558 z"
         id="path263" /></g></g></svg>
