<?xml version="1.0" encoding="UTF-8" standalone="no"?>
<!-- Created with Inkscape (http://www.inkscape.org/) -->

<svg
   width="24.495941mm"
   height="35mm"
   viewBox="0 0 24.495941 35"
   version="1.1"
   id="svg1"
   xml:space="preserve"
   sodipodi:docname="queueBabyPami.svg"
   inkscape:version="1.4.2 (ebf0e94, 2025-05-08)"
   inkscape:export-filename="queueBabyPami.png"
   inkscape:export-xdpi="1000"
   inkscape:export-ydpi="1000"
   xmlns:inkscape="http://www.inkscape.org/namespaces/inkscape"
   xmlns:sodipodi="http://sodipodi.sourceforge.net/DTD/sodipodi-0.dtd"
   xmlns="http://www.w3.org/2000/svg"
   xmlns:svg="http://www.w3.org/2000/svg"><sodipodi:namedview
     id="namedview1"
     pagecolor="#505050"
     bordercolor="#eeeeee"
     borderopacity="1"
     inkscape:showpageshadow="0"
     inkscape:pageopacity="0"
     inkscape:pagecheckerboard="0"
     inkscape:deskcolor="#505050"
     inkscape:document-units="mm"
     showguides="true"
     inkscape:zoom="5.7513469"
     inkscape:cx="32.948804"
     inkscape:cy="71.548458"
     inkscape:window-width="1920"
     inkscape:window-height="957"
     inkscape:window-x="1920"
     inkscape:window-y="32"
     inkscape:window-maximized="1"
     inkscape:current-layer="layer1"><inkscape:page
       x="0"
       y="0"
       width="24.495941"
       height="35"
       id="page2"
       margin="0"
       bleed="0" /></sodipodi:namedview><defs
     id="defs1" /><g
     inkscape:label="Calque 1"
     inkscape:groupmode="layer"
     id="layer1"
     transform="translate(-59.239922,-102.49508)"><path
       id="path35"
       style="fill:#ff6600;stroke:none;stroke-width:0.274691;stroke-linecap:round;stroke-linejoin:round;stroke-dasharray:none;stroke-opacity:1;paint-order:stroke markers fill"
       d="M 49.179688 4.3046876 C 49.154757 4.3054074 49.130653 4.3081208 49.105469 4.3125001 C 45.468648 5.3768082 41.996286 7.0846693 38.873047 9.2343751 C 36.455252 10.875505 34.524835 13.102193 32.507813 15.166016 C 32.126167 15.366429 31.712092 15.189754 31.833985 14.714844 C 31.775915 12.208098 32.480065 9.7862159 32.84375 7.3378907 C 32.451115 6.2038614 31.31185 7.2192115 30.8125 7.6914063 C 26.924841 10.905472 23.601217 14.918025 21.824219 19.685547 C 21.027409 21.488774 20.661957 23.508458 19.753906 25.240235 C 18.643893 25.640759 18.391675 24.159051 18.046875 23.441407 C 17.459864 22.106122 17.354154 20.532998 16.603516 19.296875 C 15.663933 18.702711 15.366237 20.1405 15.136719 20.763672 C 14.305976 22.994373 13.730989 25.328704 13.84961 27.726563 C 13.692717 30.649514 14.118779 33.545906 14.783203 36.384766 C 12.612341 34.180613 10.57283 31.820681 8.6757814 29.402344 C 7.4920284 28.899171 7.7297854 30.666683 7.6894532 31.382813 C 7.6555638 36.793157 8.8774556 42.263816 11.367188 47.076172 C 11.972843 48.30574 13.003886 49.387397 13.501953 50.595704 C 13.23912 51.491047 12.21222 50.734659 11.671875 50.552735 C 9.6777749 49.630312 7.9869567 48.140506 5.9960938 47.240235 C 4.8174217 47.381943 5.5267645 48.688546 5.7832032 49.34961 C 8.1972604 55.34017 13.385372 59.642609 18.757813 62.933595 C 18.887672 63.153973 19.90883 63.498296 19.50586 63.851563 C 16.543432 63.949723 13.554841 63.40999 10.613281 63.642579 C 9.5022925 64.298726 11.099096 65.211838 11.587891 65.751954 C 16.023212 69.695685 21.64888 71.876005 26.570313 75.044923 C 27.016819 75.379043 27.656154 75.865701 26.69336 75.857423 C 23.283354 76.638497 19.625424 77.139461 16.679688 79.152345 C 16.004535 79.891554 17.103069 80.601348 17.814453 80.312501 C 18.294706 80.240741 19.603788 80.072538 19.257813 80.957032 C 17.540579 82.753401 15.614532 84.387814 14.197266 86.460939 C 11.609197 90.057973 9.8149991 94.210864 8.6894532 98.484376 C 7.5209166 103.35718 6.9156005 108.45983 7.7050782 113.42578 C 7.6931492 114.01464 7.9805346 114.7892 7.6914063 115.29883 C 6.7120357 115.49041 6.0463866 114.36708 5.3144532 113.90039 C 4.672127 113.46373 3.5554591 111.79851 2.9609375 113.03711 C 3.2730315 116.49702 5.1503681 119.75239 7.5507813 122.22852 C 8.7806715 123.62606 10.610663 124.15267 12.410156 124.2461 C 13.441829 124.226 12.029272 124.81317 11.767578 125.12891 C 11.085202 125.40432 10.613964 126.47297 11.523438 126.77344 C 16.006715 128.53592 20.956341 128.12553 25.619141 127.45899 C 26.23712 127.23117 26.484905 127.94693 26.041016 128.30078 C 25.506244 128.77289 24.505511 129.80934 25.681641 130.13477 C 32.705086 130.36057 39.745524 129.25567 46.363282 126.89453 C 51.287848 125.09429 56.261697 123.28722 60.72461 120.48633 C 64.070024 118.55401 67.319373 116.36888 69.857423 113.41602 C 70.864533 112.4756 71.686081 111.17369 72.865235 110.50391 C 73.43407 110.66792 73.141472 111.63675 73.910157 111.53125 C 74.973593 111.1541 75.262428 109.79865 75.861329 108.94727 C 77.72033 105.64864 78.872523 101.86486 78.445313 98.050782 C 78.392003 97.526888 78.297252 96.417345 79.064454 96.441407 C 80.764897 97.503675 81.193758 99.716815 82.455079 101.13086 C 83.625989 101.14976 83.273144 99.591914 83.441407 98.783204 C 83.747059 94.39583 83.327001 89.876246 81.416017 85.861329 C 81.01404 84.816797 80.313588 83.746144 80.082032 82.726564 C 80.820789 82.050289 81.604554 83.213193 82.238282 83.488282 C 83.304493 84.168371 84.106526 85.287828 85.298829 85.744142 C 86.410616 85.702202 85.92178 84.355565 85.683595 83.720704 C 84.551812 80.317616 83.049644 76.996581 80.701173 74.248048 C 79.386667 72.378338 77.555435 70.865555 76.498048 68.85547 C 77.133313 68.286885 78.120382 69.122294 78.837892 69.205079 C 79.644474 69.326689 80.669024 70.170317 81.378907 69.466798 C 81.677265 68.493359 80.534601 67.805492 80.085939 67.062501 C 77.275024 63.599927 73.465731 61.153872 70.308595 58.072266 C 69.999429 57.224335 71.302163 56.948182 71.894532 56.728516 C 75.417255 55.892349 78.043992 53.193817 80.056642 50.330079 C 80.492853 49.823337 81.179657 48.39844 81.98047 49.140626 C 82.331535 49.810104 82.108729 51.408538 83.29297 51.142579 C 84.276003 50.266044 84.390036 48.761571 84.84961 47.576172 C 85.808992 44.425181 85.749788 41.064149 85.457032 37.81836 C 85.397192 36.812969 84.618981 35.720138 85.048829 34.751954 C 85.815322 34.229932 86.647264 35.268296 87.302735 35.59375 C 87.783788 36.203275 89.042696 36.04125 88.767579 35.107422 C 86.751594 29.606446 82.851189 24.741517 77.73047 21.835938 C 77.564013 21.25891 77.794524 20.838365 78.437501 20.886719 C 79.969083 20.570115 81.653362 20.697514 83.189454 20.261719 C 84.078413 19.510095 82.805661 18.684729 82.246095 18.228516 C 77.93412 14.615308 72.375371 12.621746 66.75586 12.589844 C 66.233759 12.487358 65.003562 12.753838 65.070313 11.896485 C 66.022909 10.250797 67.879662 9.3047346 68.865235 7.7187501 C 68.521847 6.6587175 67.043092 7.0888307 66.154298 6.8281251 C 62.955945 6.6866356 59.682297 6.5554379 56.539063 7.263672 C 53.432116 7.9222163 50.562848 9.4050179 47.982422 11.183594 C 47.690433 11.549382 46.854 11.586477 47.226563 10.908203 C 47.795037 8.8220557 48.819865 6.9435562 49.820313 5.0488282 C 49.888201 4.6795449 49.553654 4.2938905 49.179688 4.3046876 z M 53.699219 20.277344 C 57.178016 20.227514 60.483259 21.590148 63.330079 23.47461 C 65.178569 24.904187 66.541975 26.861041 67.310548 29.080078 C 68.250397 30.989234 68.337845 33.125569 68.251954 35.210938 C 68.447468 38.739696 66.932867 42.331568 64.19922 44.589844 C 60.705609 47.554562 55.901461 49.511208 51.292969 48.480469 C 47.632033 47.400824 45.023437 43.576379 45.38086 39.763672 C 45.216938 35.883051 48.415537 32.250977 52.185548 31.619141 C 54.805726 31.249521 57.806945 32.537854 58.884766 35.03711 C 59.425358 36.863354 58.593512 39.082672 56.910157 39.978516 C 55.946668 40.090916 56.213663 38.73299 56.134766 38.125 C 56.121356 36.156383 54.077231 34.458488 52.152344 35.160157 C 49.391993 35.930076 47.522363 39.40197 49.109376 41.992188 C 50.263573 44.349093 52.788223 46.142946 55.490235 45.759766 C 61.067962 45.16364 65.411225 39.552702 64.820313 34.009766 C 64.706146 29.922017 61.770979 26.256256 58.058594 24.746094 C 52.966053 22.748057 46.760257 24.122355 43.017579 28.128907 C 41.227596 29.678233 39.803749 31.615262 39.023438 33.861329 C 36.710081 39.297817 36.177195 45.868791 39.160157 51.16211 C 41.537402 55.548187 46.515183 58.292228 51.482423 58.115235 C 52.802792 58.157255 54.122882 58.190158 55.44336 58.228516 C 56.054539 59.141786 54.615481 59.657178 53.978516 59.984376 C 51.658598 61.132036 49.013412 60.912711 46.513672 60.841798 C 43.810371 60.724624 41.536277 58.460538 38.757813 59.125001 C 34.925126 59.878293 30.845458 61.092227 27.025391 59.583985 C 24.569039 58.574003 21.989235 57.483021 20.082032 55.548829 C 19.131286 54.618774 19.936025 53.179397 21.007813 52.773438 C 22.246724 52.043691 23.578389 51.502689 24.869141 50.953126 C 25.554862 49.978543 24.271987 49.073338 23.822266 48.289063 C 21.960702 45.653511 20.729768 42.484588 20.953125 39.201172 C 21.053953 37.394133 20.872681 35.217466 22.22461 33.81836 C 23.515285 33.091974 24.941764 34.151358 26.148438 34.603516 C 28.913611 35.890641 31.307353 37.819285 33.066407 40.269532 C 34.112299 40.835965 34.274616 39.329377 34.408204 38.646485 C 35.786358 30.71054 41.322846 23.149607 49.257813 20.886719 C 50.701145 20.481661 52.199885 20.274404 53.699219 20.277344 z M 47.769532 73.339845 C 50.090738 73.373373 52.344522 74.067574 54.449219 75.035157 C 59.050713 77.170471 63.267675 80.409225 66.113282 84.644532 C 68.836413 89.205363 70.245982 94.572611 69.98047 99.888673 C 69.592645 105.2181 66.748485 110.14873 62.679688 113.54102 C 59.919458 115.83323 56.399568 117.34389 52.777344 117.34961 C 46.158158 117.74281 39.835258 112.74847 38.357422 106.33985 C 37.515568 102.53112 37.522336 98.182739 39.794922 94.816407 C 41.751623 91.75587 45.315961 89.820274 48.966797 89.998048 C 52.939 89.860964 56.356749 93.191806 57.107423 96.962892 C 57.749111 99.878119 56.945598 103.36071 54.492188 105.22656 C 52.935235 106.3216 50.485448 106.43801 49.042969 105.10938 C 48.362038 104.1921 49.759614 103.54876 50.44336 103.32617 C 52.278763 102.84146 53.990272 101.34911 53.949219 99.318361 C 54.315274 96.241468 51.523656 93.301843 48.429688 93.54297 C 44.665347 93.50736 41.802898 96.971329 41.324219 100.48828 C 40.68523 104.45683 42.309263 108.67296 45.445313 111.19336 C 48.958734 114.43773 54.524064 114.18701 58.484376 111.92578 C 63.47963 109.13623 66.461283 103.43667 66.392579 97.773439 C 66.641473 92.26691 64.621638 86.597706 60.500001 82.84961 C 57.154354 79.418869 52.425113 77.493693 47.642579 77.51172 C 41.71599 77.278646 36.019866 80.005879 31.806641 84.052735 C 26.68233 88.697226 23.624789 95.033431 19.980469 100.79492 C 19.365294 101.70231 18.89262 102.77672 18.09961 103.52735 C 17.427881 103.52535 17.596882 102.71305 17.84961 102.3457 C 19.735827 95.737411 22.261515 89.035639 27.142578 83.994142 C 30.238081 80.748097 33.441527 77.594432 37.644532 75.832032 C 39.837154 74.849901 42.102057 73.882084 44.435547 73.369142 C 45.213558 73.368749 45.991521 73.3676 46.769532 73.367188 C 47.103603 73.34389 47.437931 73.335055 47.769532 73.339845 z M 24.609375 109.45117 A 3.6602329 3.6602329 0 0 1 28.269532 113.11133 A 3.6602329 3.6602329 0 0 1 24.609375 116.77149 A 3.6602329 3.6602329 0 0 1 20.949219 113.11133 A 3.6602329 3.6602329 0 0 1 24.609375 109.45117 z "
       transform="matrix(0.26458333,0,0,0.26458333,59.239922,102.49508)" /><path
       style="fill:#008000;stroke:#000000;stroke-width:0.0971179;stroke-linecap:round;stroke-linejoin:round;stroke-dasharray:none;stroke-opacity:1;paint-order:stroke markers fill"
       d="m 24.593101,37.475087 c -0.690161,0.05527 -0.801924,0.870726 -0.893866,1.414164 -0.231183,1.591736 -0.127787,3.278313 0.633268,4.723986 1.236871,2.415639 3.42459,4.166563 5.647302,5.635878 1.393775,0.892313 2.818199,1.744388 4.294116,2.493265 0.504184,0.20607 1.017137,-0.391528 0.765052,-0.866627 -0.98865,-2.410468 -2.087126,-4.77889 -3.287366,-7.091596 -1.083207,-2.107128 -2.594304,-4.081129 -4.696571,-5.25045 -0.773744,-0.423015 -1.568541,-0.95687 -2.461935,-1.05862 z"
       id="path36"
       transform="matrix(0.26458333,0,0,0.26458333,59.239922,102.49508)" /><path
       style="fill:#008000;stroke:#000000;stroke-width:0.0971179;stroke-linecap:round;stroke-linejoin:round;stroke-dasharray:none;stroke-opacity:1;paint-order:stroke markers fill"
       d="m 29.170449,53.287493 c -1.473374,0.03724 -2.884492,0.529631 -4.309244,0.856302 -0.410123,0.07404 -0.944923,0.319173 -0.82586,0.824012 0.169628,0.541009 0.830527,0.661127 1.281986,0.9054 2.141344,0.928099 4.432321,1.550274 6.761926,1.735296 1.514534,0.08803 3.076084,-0.06069 4.490421,-0.631541 0.485085,-0.250865 0.381841,-1.001482 -0.124987,-1.162707 -1.983575,-1.019611 -4.071042,-1.847467 -6.218273,-2.449801 -0.346012,-0.08016 -0.702856,-0.08051 -1.055969,-0.07696 z"
       id="path37"
       transform="matrix(0.26458333,0,0,0.26458333,59.239922,102.49508)" /><path
       style="fill:#000000"
       d="m 64.7457,137.62653 c -0.14493,-0.0458 -0.26848,-0.11244 -0.34992,-0.18866 -0.0664,-0.0622 -0.0947,-0.0678 -0.48764,-0.0973 -0.9501,-0.0713 -1.79792,-0.31044 -2.48884,-0.70187 -0.30604,-0.17338 -0.55646,-0.39557 -0.63578,-0.56412 -0.0263,-0.0559 -0.0528,-0.17018 -0.0589,-0.254 l -0.0111,-0.1524 -0.32125,-0.3302 c -0.51607,-0.53045 -0.83145,-1.03634 -1.05973,-1.69989 l -0.0605,-0.1759 v -1.27483 c 0,-1.25554 8e-4,-1.27585 0.0532,-1.34246 0.085,-0.10805 0.22881,-0.16781 0.4038,-0.16781 0.17298,0 0.27984,0.0366 0.39804,0.13625 l 0.0803,0.0677 0.0164,-0.19725 c 0.12457,-1.49795 0.333,-2.46047 0.77698,-3.58815 0.0743,-0.1886 0.2795,-0.62952 0.45612,-0.97982 l 0.32111,-0.63692 -0.12313,-0.0437 c -0.0905,-0.0322 -0.14069,-0.0703 -0.18944,-0.14393 -0.18494,-0.27945 -0.11432,-0.57304 0.29631,-1.23196 0.53698,-0.86166 1.39156,-1.66275 2.01048,-1.88464 l 0.11872,-0.0426 -0.25842,-0.13655 c -1.32669,-0.70103 -2.74212,-1.9067 -3.12232,-2.65959 -0.18938,-0.37503 -0.17636,-0.58972 0.0488,-0.80376 0.16706,-0.15885 0.47029,-0.27574 0.71528,-0.27574 h 0.11197 l -0.23432,-0.24511 c -0.97506,-1.01992 -1.56395,-2.28024 -1.70051,-3.63939 -0.0389,-0.38694 0.0519,-0.74161 0.21997,-0.85955 0.19455,-0.13651 0.47823,-0.13963 0.75878,-0.008 0.0936,0.0438 0.17295,0.0766 0.17625,0.0729 0.003,-0.004 -0.0264,-0.1144 -0.0659,-0.24591 -0.1666,-0.55389 -0.27275,-1.27757 -0.29465,-2.00878 -0.0429,-1.43356 0.23385,-2.4541 0.73305,-2.70286 0.24861,-0.12389 0.50299,-0.0617 0.76631,0.18735 0.0744,0.0703 0.14089,0.12791 0.14778,0.12791 0.007,0 0.0271,-0.0829 0.0449,-0.18415 0.0178,-0.10129 0.0715,-0.32131 0.11937,-0.48895 0.32059,-1.12365 0.9126,-2.14456 1.42134,-2.4511 0.12553,-0.0756 0.17055,-0.0889 0.30175,-0.0889 0.13628,0 0.16887,0.0105 0.28039,0.0906 0.15426,0.11078 0.27114,0.25992 0.33088,0.42216 0.0247,0.0672 0.053,0.13155 0.0628,0.14295 0.01,0.0114 0.0724,-0.0724 0.13909,-0.18615 0.30443,-0.51928 0.73935,-1.07846 1.2316,-1.58349 0.7594,-0.7791 1.41469,-1.26346 2.07233,-1.53176 0.19821,-0.0809 0.25977,-0.0938 0.49318,-0.10379 0.25551,-0.0109 0.27256,-0.008 0.4064,0.0619 0.26189,0.13733 0.3696,0.40664 0.31046,0.77624 -0.0129,0.0803 -0.0211,0.14605 -0.0183,0.14605 0.003,0 0.18678,-0.10343 0.4089,-0.22985 0.72348,-0.41174 1.43803,-0.73135 2.14903,-0.96121 l 0.32277,-0.10434 h 1.01315 c 1.12605,0 1.0392,-0.0134 1.13506,0.1756 0.0597,0.11774 0.0411,0.31739 -0.0449,0.4833 -0.0367,0.0707 -0.0604,0.1285 -0.0528,0.1285 0.008,0 0.21166,-0.034 0.45337,-0.0755 0.66721,-0.11456 0.96156,-0.13574 1.67577,-0.12063 0.50225,0.0106 0.72389,0.027 1.05494,0.0778 1.20052,0.18442 1.78214,0.39488 1.96806,0.71213 0.0796,0.13577 0.0867,0.35736 0.0163,0.51103 -0.0541,0.11811 -0.19651,0.27077 -0.36679,0.39305 -0.0659,0.0474 -0.11112,0.0942 -0.10039,0.10407 0.0107,0.01 0.12808,0.0488 0.2608,0.0864 0.74393,0.21102 1.66689,0.69023 2.4384,1.26605 0.40368,0.30128 0.96761,0.85367 1.16165,1.13786 0.40893,0.59894 0.49028,1.04642 0.23257,1.27926 -0.1291,0.11662 -0.19299,0.14027 -0.43577,0.16125 l -0.19724,0.0171 0.16723,0.20017 c 0.32223,0.3857 1.00811,1.46937 1.20542,1.90454 0.0416,0.0918 0.1043,0.26568 0.1393,0.38646 l 0.0636,0.21961 v 1.22733 1.22733 l -0.0785,0.0559 c -0.0966,0.0688 -0.26583,0.0906 -0.38854,0.0501 -0.0507,-0.0167 -0.15255,-0.0857 -0.22645,-0.15319 l -0.13436,-0.1228 -0.0319,0.23729 c -0.0931,0.69364 -0.43786,1.66472 -0.82898,2.33494 -0.34759,0.59561 -0.64485,0.95995 -1.00406,1.23063 -0.33774,0.25449 -0.61271,0.31913 -0.82596,0.19416 -0.0978,-0.0573 -0.18968,-0.18695 -0.18968,-0.26755 0,-0.0187 -0.0319,-0.009 -0.0825,0.0242 -0.0454,0.03 -0.17685,0.10227 -0.2921,0.16056 -0.11526,0.0583 -0.20931,0.112 -0.20901,0.11937 3e-4,0.007 0.0489,0.0475 0.10795,0.0893 0.37105,0.26221 1.02035,0.87699 1.43276,1.35658 0.90081,1.04756 1.45809,2.02305 1.46018,2.55596 0.001,0.29759 -0.0904,0.42827 -0.35034,0.49999 l -0.1048,0.0289 0.0824,0.12892 c 0.38731,0.60622 0.78714,1.77165 0.96794,2.82133 0.0606,0.35157 0.0703,0.47835 0.0718,0.9398 0.002,0.51087 -6.7e-4,0.53847 -0.0579,0.65356 -0.0336,0.0677 -0.096,0.14256 -0.1427,0.17145 -0.14861,0.0919 -0.39362,0.0553 -0.58644,-0.0875 l -0.0523,-0.0387 0.0109,0.43972 c 0.0163,0.65671 -0.0585,1.26489 -0.25109,2.04389 -0.11512,0.46553 -0.187,0.67068 -0.35722,1.01952 -0.22426,0.45957 -0.44216,0.66321 -0.70777,0.66147 -0.11104,-7.3e-4 -0.27446,-0.0933 -0.34831,-0.19724 l -0.0708,-0.0997 -0.21838,0.42557 c -0.35759,0.69685 -0.75469,1.26027 -1.24092,1.76064 -0.32923,0.33882 -0.52812,0.49938 -0.7801,0.62977 -0.18121,0.0938 -0.20659,0.1 -0.3908,0.0955 l -0.19701,-0.005 -0.6057,0.40568 c -0.97345,0.65199 -1.46977,0.93706 -2.56149,1.47123 -1.05076,0.51412 -2.2056,0.97003 -3.32741,1.31359 -0.8427,0.25809 -1.16741,0.32949 -2.15275,0.47336 l -0.52715,0.077 -1.86045,-0.002 c -1.42573,-0.001 -1.88419,-0.009 -1.96205,-0.0338 z m 2.82375,-0.86617 c 0.99758,-0.0795 1.47332,-0.14738 2.12346,-0.30307 1.05655,-0.25301 2.14217,-0.60004 2.85175,-0.91158 0.23685,-0.10399 0.59066,-0.24751 0.78624,-0.31895 0.5372,-0.1962 1.1547,-0.51015 2.0701,-1.05247 0.65032,-0.38528 1.47964,-0.96301 1.69927,-1.18377 0.0503,-0.0505 0.29832,-0.326 0.55119,-0.61212 0.5989,-0.67767 0.71496,-0.78694 0.83579,-0.78694 0.16483,0 0.23829,0.0737 0.26516,0.26594 l 0.0141,0.10083 0.18476,-0.28344 c 0.34593,-0.53066 0.62474,-1.11757 0.76488,-1.61014 0.1516,-0.53287 0.1865,-0.86675 0.15278,-1.46194 -0.0133,-0.23505 -0.0172,-0.45911 -0.009,-0.49791 0.0399,-0.18156 0.23549,-0.29061 0.38275,-0.21338 0.18268,0.0958 0.48266,0.5046 0.70749,0.96408 l 0.1589,0.32473 0.0448,-0.27393 c 0.0661,-0.40405 0.0803,-1.26865 0.0282,-1.71804 -0.0982,-0.84734 -0.28172,-1.46471 -0.65981,-2.21959 -0.13463,-0.26878 -0.24477,-0.51113 -0.24477,-0.53856 0,-0.14491 0.12444,-0.25544 0.28758,-0.25544 0.11932,0 0.36506,0.16587 0.86938,0.58682 0.22422,0.18715 0.42666,0.3556 0.44987,0.37432 0.0374,0.0302 0.0363,0.0127 -0.009,-0.1524 -0.18474,-0.66886 -0.59472,-1.64217 -0.86721,-2.0588 -0.32043,-0.48993 -0.75527,-1.03931 -1.25219,-1.58204 -0.44879,-0.49016 -0.49776,-0.5972 -0.3437,-0.75126 0.0957,-0.0957 0.21646,-0.0979 0.46598,-0.008 0.55911,0.20072 0.83494,0.29265 0.85593,0.28526 0.0323,-0.0114 -0.34925,-0.50082 -0.67369,-0.86432 -0.32874,-0.36832 -0.57197,-0.58591 -1.38992,-1.2434 -0.89323,-0.718 -0.98368,-0.80804 -0.98345,-0.97907 1.3e-4,-0.0952 0.0828,-0.22561 0.18092,-0.28526 0.0439,-0.0267 0.18406,-0.0742 0.31138,-0.10561 0.53006,-0.13059 1.01449,-0.39976 1.43471,-0.79721 0.20374,-0.1927 0.38552,-0.416 0.69476,-0.85347 0.13407,-0.18965 0.27429,-0.36483 0.3116,-0.38928 0.16328,-0.10698 0.37853,-0.0636 0.45195,0.0911 0.0228,0.048 0.0544,0.19509 0.0703,0.32698 0.0159,0.13189 0.0329,0.24382 0.0376,0.24875 0.0169,0.0176 0.18536,-0.34351 0.26475,-0.56775 0.27103,-0.76557 0.40487,-1.78129 0.33272,-2.52513 -0.0278,-0.28629 -0.0687,-0.48156 -0.19473,-0.92999 -0.0552,-0.19621 -0.0335,-0.32512 0.071,-0.42273 0.15207,-0.14205 0.33089,-0.0879 0.75642,0.22924 0.13221,0.0985 0.24388,0.17562 0.24815,0.17135 0.004,-0.004 -0.0434,-0.13507 -0.10593,-0.29067 -0.22028,-0.54812 -0.54989,-1.13822 -0.90313,-1.61687 -0.23368,-0.31665 -0.63039,-0.77076 -0.79218,-0.90681 -0.24798,-0.20851 -1.11075,-0.80769 -1.16301,-0.80769 -0.0449,0 -0.0516,-0.0163 -0.0516,-0.12581 0,-0.32601 0.0611,-0.35008 1.06495,-0.41953 0.31332,-0.0217 0.57381,-0.0436 0.57888,-0.0486 0.005,-0.005 -0.0741,-0.0826 -0.17595,-0.17233 -0.71494,-0.62972 -1.40214,-1.02692 -2.27967,-1.31764 -0.6806,-0.22549 -1.17589,-0.30159 -1.97276,-0.30312 -0.19298,-3.7e-4 -0.31164,-0.0127 -0.37404,-0.0387 -0.15695,-0.0656 -0.21271,-0.25534 -0.12767,-0.43453 0.0473,-0.0996 0.43963,-0.48051 0.77268,-0.7501 0.12517,-0.10131 0.22758,-0.19131 0.22758,-0.2 0,-0.0182 -0.40661,-0.0863 -0.76718,-0.12849 -0.40499,-0.0474 -1.56307,-0.0171 -1.93792,0.0507 -1.05001,0.18992 -1.693,0.44859 -2.47963,0.9975 -0.17634,0.12306 -0.3444,0.22374 -0.37345,0.22374 -0.092,0 -0.17771,-0.0548 -0.21079,-0.13465 -0.0291,-0.0703 -0.0199,-0.11314 0.10155,-0.47479 0.15057,-0.44819 0.30298,-0.77176 0.51889,-1.10162 0.0811,-0.12384 0.14249,-0.23005 0.13652,-0.23602 -0.0144,-0.0144 -0.59313,0.18364 -0.9443,0.32313 -0.70692,0.28079 -1.58885,0.78433 -2.13359,1.21816 -0.29385,0.23402 -0.69111,0.62636 -0.99507,0.98273 -0.3209,0.37623 -0.36577,0.41366 -0.49593,0.41366 -0.12843,0 -0.18754,-0.0329 -0.23945,-0.13327 -0.0819,-0.15844 -0.004,-0.84112 0.20357,-1.78443 0.0461,-0.20955 0.0804,-0.38525 0.0763,-0.39043 -0.0112,-0.0139 -0.23239,0.16605 -0.62272,0.50671 -0.84603,0.7384 -1.34505,1.37509 -1.81004,2.30942 -0.23899,0.48021 -0.36791,0.81858 -0.55158,1.44775 -0.14068,0.48188 -0.19458,0.61019 -0.28207,0.67147 -0.0719,0.0504 -0.22919,0.0512 -0.32495,0.002 -0.18955,-0.098 -0.37234,-0.52912 -0.59773,-1.40966 l -0.0813,-0.3175 -0.057,0.127 c -0.10505,0.23407 -0.24842,0.65799 -0.31355,0.9271 -0.13083,0.54056 -0.15704,0.78123 -0.15488,1.4224 0.002,0.68312 0.0181,0.81137 0.22476,1.82777 l 0.13668,0.67207 -0.5643,-0.57047 c -0.54451,-0.55048 -0.85926,-0.92239 -1.22281,-1.44487 l -0.1489,-0.21399 -0.0231,0.087 c -0.041,0.15479 -0.002,1.29136 0.0582,1.6872 0.20242,1.33517 0.66,2.59065 1.2081,3.3147 0.12161,0.16065 0.23118,0.31856 0.24348,0.3509 0.0418,0.10992 0.025,0.20415 -0.0517,0.29005 -0.18396,0.20589 -0.49104,0.0775 -1.67803,-0.70172 -0.24423,-0.16032 -0.44829,-0.28726 -0.45347,-0.28208 -0.0193,0.0193 0.1337,0.44066 0.25119,0.69163 0.4172,0.89123 1.14007,1.74696 2.10389,2.4906 0.17301,0.13349 0.5502,0.3903 0.8382,0.57069 0.288,0.1804 0.54262,0.34502 0.56581,0.36583 0.0959,0.086 0.0763,0.25093 -0.0388,0.32631 -0.0576,0.0378 -0.15112,0.0358 -1.22197,-0.0256 -0.63777,-0.0366 -1.1778,-0.0629 -1.20006,-0.0586 -0.0669,0.0131 0.53746,0.56995 0.89552,0.82512 0.52376,0.37326 0.9634,0.63427 1.85332,1.10029 1.36622,0.71544 1.69403,0.91864 1.81228,1.12335 l 0.0775,0.13414 -0.0915,0.0318 c -0.0503,0.0175 -0.3155,0.0727 -0.58928,0.12269 -0.62387,0.11397 -1.06698,0.22682 -1.48918,0.37927 -0.389,0.14045 -0.61046,0.25214 -0.79277,0.39981 -0.139,0.11257 -0.13887,0.14554 3.6e-4,0.096 0.0997,-0.0355 0.49609,-0.0647 0.58285,-0.043 0.11278,0.0283 0.19767,0.1383 0.19767,0.25614 0,0.12686 -0.0528,0.19285 -0.33446,0.41774 -0.41623,0.33238 -1.15766,1.21775 -1.49564,1.78598 -0.22338,0.37557 -0.80347,1.73253 -0.92095,2.15431 -0.0777,0.27901 -0.20882,0.93134 -0.33694,1.6764 -0.14532,0.84505 -0.14418,1.70359 0.004,2.60572 0.036,0.2198 0.0581,0.42923 0.0491,0.4654 -0.0292,0.11823 -0.1365,0.2055 -0.25232,0.20524 -0.16447,-3.8e-4 -0.34878,-0.12676 -0.72635,-0.49802 l -0.34374,-0.33801 0.0178,0.19588 c 0.0459,0.5045 0.37922,1.25926 0.80666,1.82651 0.19043,0.25272 0.50397,0.55324 0.70394,0.67472 0.18774,0.11405 0.35712,0.15427 0.88627,0.21048 0.22352,0.0237 0.41529,0.0512 0.42616,0.0611 0.0109,0.01 -0.10344,0.10175 -0.254,0.20427 -0.15057,0.10252 -0.32909,0.22624 -0.39672,0.27494 l -0.12297,0.0885 0.0849,0.0358 c 0.42089,0.17757 1.04957,0.30661 1.71047,0.35106 0.349,0.0235 1.02254,-0.0271 1.55381,-0.11664 0.56278,-0.0949 0.60165,-0.0949 0.69604,-5e-4 0.14798,0.14798 0.0684,0.38131 -0.19101,0.55976 -0.0637,0.0438 -0.11574,0.0848 -0.11574,0.0911 0,0.0275 1.18199,0.008 1.61725,-0.0266 z m 5.10105,-3.07656 c -0.53323,-0.0806 -0.87766,-0.18619 -1.32081,-0.40484 -0.57677,-0.28459 -1.03689,-0.6653 -1.42652,-1.18032 -0.32932,-0.4353 -0.51675,-0.84717 -0.67685,-1.48734 -0.12799,-0.51177 -0.15441,-0.7522 -0.13732,-1.24936 0.0233,-0.67676 0.11694,-1.078 0.36188,-1.55005 0.27638,-0.53264 0.55877,-0.84872 1.04966,-1.17485 0.44419,-0.29511 0.93159,-0.45217 1.47139,-0.47413 0.51718,-0.0211 0.86196,0.0529 1.26813,0.27199 0.61884,0.3338 1.01021,0.85351 1.21652,1.61544 0.0581,0.21459 0.0682,0.30253 0.0684,0.59473 3.7e-4,0.69154 -0.22062,1.26172 -0.64607,1.66693 -0.36798,0.35049 -0.85405,0.47336 -1.33993,0.33872 -0.23099,-0.064 -0.30112,-0.0997 -0.40496,-0.20587 -0.16958,-0.17345 -0.16137,-0.37261 0.023,-0.55695 0.0771,-0.0771 0.14429,-0.11169 0.32091,-0.16532 0.65425,-0.19862 0.89737,-0.48862 0.89599,-1.06872 -10e-4,-0.50577 -0.28638,-0.94898 -0.75325,-1.1707 -0.18339,-0.0871 -0.21434,-0.0936 -0.48934,-0.10316 -0.35283,-0.0123 -0.52838,0.0261 -0.82535,0.18035 -0.59128,0.3071 -0.97548,0.94655 -1.06086,1.76568 -0.0363,0.34829 -0.0116,0.55729 0.12055,1.02162 0.11091,0.38959 0.16993,0.52079 0.37497,0.83356 0.20359,0.31056 0.3989,0.52133 0.67549,0.72899 0.49543,0.37196 0.95539,0.51936 1.62088,0.51943 0.89766,9e-5 1.71493,-0.35971 2.42112,-1.06589 0.75814,-0.75815 1.14431,-1.68673 1.20456,-2.89647 0.0601,-1.20779 -0.26363,-2.36331 -0.92715,-3.30891 -0.21175,-0.30176 -0.68431,-0.78921 -0.98221,-1.01315 -0.43819,-0.3294 -0.9469,-0.60195 -1.43447,-0.76854 -0.99254,-0.33912 -2.15478,-0.34271 -3.19443,-0.01 -0.94619,0.30292 -1.77573,0.83219 -2.61974,1.67147 -0.86191,0.85707 -1.16342,1.29651 -2.90885,4.23957 -0.19398,0.32707 -0.38832,0.63282 -0.43188,0.67945 -0.14962,0.16015 -0.35713,0.0926 -0.41442,-0.13497 -0.02596,-0.10329 0.428967,-1.48924 0.58733,-1.91388 0.36185,-0.9703 0.63842,-1.51551 1.16699,-2.30052 0.3024,-0.44911 0.61529,-0.81015 1.26546,-1.46021 0.87708,-0.87694 1.29806,-1.19226 2.18437,-1.63615 0.63612,-0.31858 1.09522,-0.4917 1.80505,-0.68064 0.38777,-0.10321 0.4,-0.10477 0.8128,-0.10325 0.47758,0.002 0.73966,0.0387 1.2319,0.17386 1.13384,0.31122 2.35777,1.0552 3.26551,1.98497 0.53029,0.54316 0.83559,0.97339 1.1279,1.58946 0.18216,0.38392 0.29749,0.72239 0.44762,1.3136 0.16963,0.66806 0.22579,1.00811 0.24352,1.47448 0.0489,1.28713 -0.30713,2.40839 -1.09229,3.43981 -0.7921,1.04055 -1.84207,1.72576 -2.96456,1.93467 -0.20786,0.0387 -1.01803,0.0697 -1.1801,0.0453 z m -1.09221,-14.92983 c -0.42512,-0.0714 -0.67348,-0.15225 -1.3462,-0.43837 -0.31094,-0.13226 -0.42402,-0.12853 -1.13029,0.0373 -0.99639,0.23391 -1.32101,0.27528 -1.83207,0.23353 -0.58252,-0.0476 -0.95022,-0.15868 -1.60098,-0.48368 -0.75713,-0.37812 -1.22434,-0.72106 -1.33139,-0.97727 -0.0922,-0.22063 -0.0166,-0.4691 0.20106,-0.66097 0.13365,-0.11782 0.60506,-0.36261 0.99468,-0.51651 0.30873,-0.12196 0.30301,-0.0924 0.0725,-0.37551 -0.2718,-0.33388 -0.38405,-0.50435 -0.55235,-0.83887 -0.23546,-0.46799 -0.35907,-0.91123 -0.42342,-1.51823 -0.0469,-0.44204 0.0174,-1.04046 0.15956,-1.48669 0.0627,-0.19678 0.0963,-0.26075 0.18213,-0.34668 0.18876,-0.18901 0.39089,-0.20073 0.81557,-0.0473 0.90363,0.32651 1.76029,0.95253 2.21559,1.61909 0.14213,0.20809 0.11977,0.24252 0.22052,-0.33952 0.28535,-1.64857 1.29704,-3.22182 2.63118,-4.09169 1.48211,-0.96635 3.13765,-1.06992 4.63569,-0.29001 0.59226,0.30835 0.99081,0.63956 1.26447,1.05086 0.26897,0.40423 0.53807,1.06498 0.65929,1.61881 0.0473,0.21612 0.0558,0.3342 0.056,0.77563 1.9e-4,0.4829 -0.005,0.54282 -0.0715,0.8255 -0.20789,0.88318 -0.40825,1.24975 -0.98529,1.80269 -0.56861,0.54487 -1.29272,0.92976 -2.17117,1.15405 -0.32227,0.0823 -0.62547,0.1071 -0.96555,0.079 -0.36884,-0.0304 -0.54421,-0.0741 -0.81422,-0.20263 -0.30431,-0.14489 -0.47763,-0.27199 -0.71941,-0.52757 -0.25081,-0.26514 -0.35567,-0.4306 -0.47612,-0.75126 -0.16392,-0.43641 -0.19113,-0.59141 -0.17674,-1.00662 0.0139,-0.39985 0.0612,-0.6278 0.19642,-0.94552 0.2717,-0.63848 0.89111,-1.18099 1.54938,-1.35704 0.23254,-0.0622 0.65923,-0.0561 0.9271,0.0132 0.38119,0.0986 0.79529,0.35127 0.99988,0.6101 0.29503,0.37324 0.33468,0.8795 0.10104,1.29019 -0.26031,0.45757 -0.51323,0.64066 -0.73011,0.5285 -0.12783,-0.0661 -0.15592,-0.14113 -0.16472,-0.43991 -0.0105,-0.35712 -0.0612,-0.51751 -0.20818,-0.65902 -0.14704,-0.14154 -0.24251,-0.18788 -0.4203,-0.204 -0.11206,-0.0102 -0.19185,7.8e-4 -0.33243,0.0456 -0.15724,0.0501 -0.21125,0.084 -0.36012,0.2257 -0.31745,0.30228 -0.4712,0.62502 -0.44031,0.92427 0.062,0.60095 0.57856,1.20334 1.15946,1.35215 0.24933,0.0639 0.63564,0.059 0.87543,-0.011 0.48488,-0.14162 0.8353,-0.34484 1.20252,-0.69738 0.24812,-0.23821 0.39361,-0.44718 0.56645,-0.8136 0.27533,-0.5837 0.33942,-1.15119 0.20442,-1.8101 -0.22372,-1.09196 -1.1345,-1.92588 -2.3263,-2.12997 -0.32195,-0.0551 -0.87303,-0.0543 -1.2041,0.002 -0.75822,0.12863 -1.4713,0.50982 -2.02266,1.08125 -0.47251,0.48971 -0.61102,0.66264 -0.74576,0.93116 -0.89879,1.79104 -0.97375,3.65067 -0.20146,4.99786 0.44401,0.77453 1.10629,1.31072 1.95174,1.58017 0.48255,0.15378 0.58023,0.16584 1.4691,0.18135 l 0.8214,0.0143 0.0611,0.071 c 0.16884,0.19644 0.0861,0.38907 -0.24101,0.56095 -0.22999,0.12086 -0.45771,0.20572 -0.80245,0.29905 -0.25003,0.0677 -0.32747,0.0767 -0.7366,0.0858 -0.30943,0.007 -0.52288,-9.2e-4 -0.66041,-0.024 z m -3.10642,-1.20974 c 0.13989,-0.0285 0.29028,-0.0672 0.33419,-0.0859 l 0.0798,-0.034 -0.2667,-0.12848 c -0.36231,-0.17453 -0.84124,-0.36301 -1.20738,-0.47517 -0.28021,-0.0858 -0.32092,-0.092 -0.52182,-0.0785 -0.12816,0.009 -0.38444,0.0575 -0.6223,0.1189 -0.22242,0.0574 -0.43012,0.11042 -0.46155,0.11785 -0.0314,0.007 -0.0571,0.022 -0.0571,0.0324 0,0.026 0.34725,0.182 0.61494,0.27619 0.80697,0.28393 1.53775,0.37295 2.10793,0.25675 z m -0.21659,-1.81958 c -0.0771,-0.17912 -0.24159,-0.54311 -0.36562,-0.80885 -0.51674,-1.10713 -0.82793,-1.57554 -1.25955,-1.8959 -0.34287,-0.25449 -0.86823,-0.51499 -0.90819,-0.45032 -0.0555,0.0897 -0.10554,0.45974 -0.0945,0.69807 0.0368,0.79355 0.60769,1.50612 1.79796,2.24414 0.35497,0.2201 0.94779,0.55663 0.96125,0.54567 0.005,-0.004 -0.0543,-0.15368 -0.13136,-0.33281 z"
       id="path34"
       sodipodi:nodetypes="cccssccsccsssscsccccccccsccsccccccccccscccscccccccccscccsccscccccccccccccscccccccccccccscsccccccccccccccccsccsccccsccccccccsscsccssccsccssccccsssccsssccsssccscccsccccscscscssccccscccscscscccscsssccccccccccccccccccccscccscsccccccsccccccccsccccccccccssccscccccccsccccsscsscssccccccccccscssscccssccscccscccccssccccccccccscccccccccccsccscccccccccccccsccccccccccscccscscccccccccccccccccscccccsccsccc" /></g></svg>
