<?xml version="1.0" encoding="UTF-8" standalone="no"?>
<!-- Created with Inkscape (http://www.inkscape.org/) -->

<svg
   width="79.994728mm"
   height="79.979027mm"
   viewBox="0 0 79.994728 79.979027"
   version="1.1"
   id="svg1"
   xml:space="preserve"
   sodipodi:docname="squirrel-design.svg"
   inkscape:version="1.4 (86a8ad7, 2024-10-11)"
   xmlns:inkscape="http://www.inkscape.org/namespaces/inkscape"
   xmlns:sodipodi="http://sodipodi.sourceforge.net/DTD/sodipodi-0.dtd"
   xmlns="http://www.w3.org/2000/svg"
   xmlns:svg="http://www.w3.org/2000/svg"><sodipodi:namedview
     id="namedview1"
     pagecolor="#505050"
     bordercolor="#eeeeee"
     borderopacity="1"
     inkscape:showpageshadow="0"
     inkscape:pageopacity="0"
     inkscape:pagecheckerboard="0"
     inkscape:deskcolor="#505050"
     inkscape:document-units="mm"
     showguides="true"
     inkscape:zoom="2"
     inkscape:cx="890.25"
     inkscape:cy="1974.25"
     inkscape:window-width="1920"
     inkscape:window-height="1009"
     inkscape:window-x="-8"
     inkscape:window-y="-8"
     inkscape:window-maximized="1"
     inkscape:current-layer="layer1"><inkscape:page
       x="0"
       y="0"
       width="79.994728"
       height="79.979027"
       id="page2"
       margin="0"
       bleed="0" /></sodipodi:namedview><defs
     id="defs1" /><g
     inkscape:label="Calque 1"
     inkscape:groupmode="layer"
     id="layer1"
     transform="translate(-117.16521,-103.15712)"><g
       id="g67"
       transform="translate(-76.729166,-386.29166)"><path
         id="path46"
         style="fill:#008000;stroke:none;stroke-width:2.50394;stroke-linecap:round;stroke-linejoin:round;stroke-dasharray:none;paint-order:markers stroke fill"
         d="m 1000.1738,1859.2696 c -1.75843,0.1878 -3.39958,0.9338 -5.08004,1.4433 -4.13778,1.4315 -8.30227,2.7945 -12.40039,4.336 -1.17295,0.4832 -2.49448,1.229 -2.70508,2.6074 -0.7883,3.6299 -1.32413,7.3155 -1.70312,11.0097 -0.21528,1.0339 0.27522,2.6193 1.57422,2.4629 0.91386,-0.3575 1.56529,-1.1682 2.33593,-1.7519 5.21424,-4.5986 10.46154,-9.1591 15.62501,-13.8145 1.22301,-1.2004 2.53227,-2.3391 3.58597,-3.6953 0.6328,-0.797 0.4277,-2.208 -0.6289,-2.5176 -0.1938,-0.063 -0.4006,-0.085 -0.6036,-0.08 z m 1.2735,3.8222 c -0.043,0 -0.087,0.01 -0.1309,0.014 -0.8819,0.3564 -1.4747,1.1845 -2.21482,1.7578 -4.16819,3.8606 -8.43499,7.614 -12.57032,11.5098 -0.83267,0.896 -2.09337,1.7619 -2.05469,3.125 0.0492,0.8941 0.81505,1.8206 1.78516,1.5703 2.19443,-0.044 4.33195,-0.5477 6.51172,-0.6699 2.23371,-0.2408 4.51649,-0.2354 6.70508,-0.7891 1.07897,-0.234 1.47087,-1.3737 1.60347,-2.3398 0.8004,-4.2788 1.1251,-8.6296 1.4493,-12.9649 0.092,-0.6519 -0.4369,-1.2447 -1.084,-1.2129 z m -24.47463,4.3086 c -2.14704,0.148 -4.10623,1.1668 -6.0332,2.041 -2.00806,1.0115 -4.0708,2.03 -5.73829,3.5645 -0.79314,0.7819 -0.57009,2.0013 -0.73828,3.0058 -0.44934,5.055 -0.36926,10.1367 -0.28711,15.2051 0.0954,1.6627 0.10698,3.365 0.56446,4.9766 0.27698,1.0217 1.59813,1.5594 2.47656,0.9297 1.04149,-0.6158 1.57907,-1.782 2.32812,-2.6895 1.98828,-2.8195 4.15342,-5.5195 5.99219,-8.4414 0.74873,-1.5398 1.33041,-3.1646 1.85156,-4.7949 0.6303,-2.8382 0.92869,-5.7406 1.26954,-8.625 0.0753,-1.3594 0.41589,-2.7702 0.0527,-4.1113 -0.24091,-0.7256 -1.00226,-1.1151 -1.73828,-1.0606 z m -15.29883,8.3965 c -1.23049,0.1714 -1.97826,1.3245 -2.72266,2.2031 -2.42058,3.1912 -4.29207,6.8734 -4.92968,10.8574 -0.43331,2.4448 -0.39174,4.9597 -0.11914,7.42 0.33636,2.1542 0.79936,4.3085 1.46484,6.3789 0.41309,0.847 1.50903,0.5605 2.2793,0.6426 1.61519,0 3.24461,0.086 4.85156,0 0.79354,-0.1759 1.03767,-1.0959 1.48828,-1.6817 0.67796,-0.9318 0.8362,-2.1018 0.73242,-3.2226 -0.16842,-1.9664 -0.64926,-3.9263 -0.69922,-5.8672 -0.28782,-4.8951 -0.24562,-9.8077 -0.65429,-14.6953 -0.0723,-0.933 -0.59537,-2.0827 -1.69141,-2.0332 z m 35.0293,5.0352 c -0.1704,0 -0.33809,10e-5 -0.49805,0 -4.05008,0.1039 -8.11715,0.5665 -12.0293,1.6464 -2.63154,0.7379 -5.35648,1.7676 -7.1582,3.9278 -2.25257,2.5193 -4.43611,5.12 -6.32812,7.9238 -0.52979,0.7111 -0.73538,1.8521 0.0508,2.4668 0.73654,0.6917 1.78687,0.5397 2.68164,0.3359 3.22004,-0.5985 6.39622,-1.2644 9.6582,-1.2851 3.08016,-0.1603 6.11213,0.5376 9.17578,0.6758 1.09358,0.086 2.13195,-0.5441 2.61133,-1.5215 1.64124,-2.9038 3.03109,-5.9509 4.21484,-9.0684 0.34871,-1.1406 0.79001,-2.3612 0.56055,-3.5644 -0.38091,-1.3057 -1.74667,-1.5262 -2.93945,-1.541 z m -92.625,8.0761 c -8.11261,0.092 -16.33327,2.0627 -23.33399,6.2305 -2.45497,1.6636 -5.21813,3.309 -6.6875,5.9727 -0.57448,1.3005 0.92972,2.1161 2.06055,1.8906 6.89896,0.1298 13.81692,0.2733 20.70898,-0.047 1.77113,-0.1492 1.25592,-2.2424 1.15821,-3.4316 -0.0445,-1.8471 -0.53428,-3.9054 -0.22266,-5.6485 0.64682,0.7015 0.479,2.219 0.7832,3.2012 0.47257,1.9272 0.3404,4.0814 1.26563,5.8457 2.25274,0.406 4.67806,0.1817 6.96484,0.127 4.40917,-2.9939 9.10227,-5.6887 14.0586,-7.7344 1.08105,-0.4543 3.32161,-1.139 2.27539,-2.7285 -1.86388,-1.8415 -4.56468,-2.5798 -7.01758,-3.3145 -3.97036,-0.4901 -8.01845,-0.308 -12.01367,-0.3633 z m 79.34765,7.6035 c -4.57885,0.092 -9.25479,0.4846 -13.55664,2.1641 -1.52603,0.6263 -2.76618,1.8211 -3.76758,3.0996 -0.54344,0.7244 0.22415,1.7387 1.07227,1.5625 6.69648,-0.014 13.39971,0.029 20.0918,-0.022 0.813,-0.1822 1.3238,-0.9487 1.9707,-1.4316 0.75107,-0.7587 1.70174,-1.3898 2.19336,-2.3594 0.39249,-1.0144 -0.37983,-2.1006 -1.38086,-2.3418 -2.13284,-0.6439 -4.41439,-0.6562 -6.62305,-0.6699 z m -58.15429,0.1133 c -0.0468,-10e-4 -0.0955,-4e-4 -0.14454,0 -3.97463,0.8618 -7.68021,2.6946 -11.3164,4.4746 -1.63348,1.5859 1.09877,2.2705 2.38086,2.0078 3.48447,0.1414 7.01294,0.3337 10.47656,0.1797 1.42297,-0.6396 0.46047,-2.5518 0.53125,-3.8027 -0.0928,-1.1912 -0.47681,-2.8304 -1.92773,-2.8614 z m 20.06836,21.1992 c -0.54904,0.013 -1.16934,0.1788 -1.6211,0.1622 -3.37729,0.4641 -6.84562,1.1342 -9.95117,2.4843 -0.71022,1.7245 -0.49511,3.8569 -0.63281,5.7617 -0.42399,2.3871 2.16832,3.5538 3.35547,5.2364 2.93075,2.9868 5.4978,6.3049 8.29101,9.4062 1.26427,0.8055 1.94563,-0.7739 1.73633,-1.8164 0.12273,-6.8203 0.19816,-13.6866 0.0176,-20.4805 -0.16858,-0.6273 -0.64628,-0.767 -1.19531,-0.7539 z m -169.67969,44.3125 c -1.83554,0.1759 -1.33469,2.4871 -0.70508,3.5957 3.33354,7.2221 7.59978,14.1285 13.16015,19.8516 0.68638,1.0183 2.68253,1.3744 2.84375,-0.2148 0.27089,-4.7521 0.24436,-9.5638 -0.26953,-14.2969 -1.02312,-1.9142 -3.30636,-2.7681 -5.01367,-3.9824 -3.04521,-1.7166 -6.01965,-3.6773 -9.31055,-4.8828 -0.23324,-0.036 -0.46811,-0.076 -0.70507,-0.07 z m -3.33008,3.2481 c -1.88606,0.3748 -1.46008,2.8573 -1.72461,4.2793 -0.26791,4.9617 -0.31378,9.9772 -0.14063,14.918 1.83521,2.5391 5.32247,3.0608 8.19141,3.8769 2.91075,0.5922 5.83585,1.8128 8.83984,1.5625 1.47229,-0.3545 0.94017,-2.0154 0.18164,-2.8105 -4.37575,-6.2984 -8.96918,-12.4195 -12.62695,-19.17 -0.71248,-0.9814 -1.29209,-2.6176 -2.7207,-2.6562 z m 21.12304,7.5195 h -0.12304 c -1.8827,0.404 -1.33103,2.8692 -1.44922,4.2793 0.28603,4.5223 -0.40846,9.2868 1.2793,13.6016 1.33758,2.644 2.86227,5.2667 4.7832,7.5234 1.11181,0.8554 3.51188,0.9244 3.48633,-0.9433 0.80656,-4.1325 2.1675,-8.1624 3.13867,-12.2285 -1.0827,-3.3522 -3.65743,-6.0691 -6.08203,-8.5743 -1.56587,-1.3114 -3.0021,-3.1359 -5.03321,-3.6621 z m 165.98829,1.2637 c -2.01733,0.2199 -1.48355,2.7245 -1.61719,4.1328 -0.004,7.0159 -0.0586,14.0775 0.17774,21.0645 0.72983,1.4989 2.67498,0.2164 3.89648,0.01 6.8765,-2.6208 13.26978,-6.3525 19.66016,-9.9668 0.97451,-0.7219 3.28244,-1.4675 2.22851,-2.9648 -6.68587,-6.1733 -15.12571,-10.4537 -24.03125,-12.2715 -0.1048,-0.01 -0.20956,-0.01 -0.31445,0 z m -186.24219,13.873 c -1.79359,0.1847 -1.10227,2.3586 -0.60547,3.4258 1.86143,4.2095 3.91359,8.7031 7.69141,11.5313 2.06539,0.8673 4.44776,0.6735 6.63476,0.7793 2.07516,-0.9438 3.698,-2.6948 5.85742,-3.5313 1.04491,-0.6503 3.55975,-0.9155 2.75782,-2.7031 -2.38565,-3.2954 -5.8738,-5.7247 -9.82618,-6.7363 -4.11065,-1.1218 -8.27131,-2.2756 -12.50976,-2.7657 z m 32.33594,0.3672 c -0.73336,0.026 -0.99723,0.7948 -1.19532,1.375 -0.72197,1.79 -1.31594,3.63 -1.74804,5.5117 -0.21419,1.0166 -0.58877,2.0158 -0.63477,3.0586 0.0407,0.73 0.79539,1.0328 1.40625,1.168 0.91965,0.2803 1.7746,0.7342 2.67774,1.0508 0.70168,0.2128 1.40859,-0.4275 1.34961,-1.1387 0.0714,-2.3452 0.14291,-4.6987 -0.0293,-7.041 -0.11319,-1.1583 -0.44483,-2.2888 -0.83399,-3.3809 -0.17106,-0.3821 -0.57955,-0.6115 -0.99218,-0.6035 z m 152.99414,14.8106 c -1.76538,0.2573 -1.44747,2.6135 -1.96875,3.8808 -1.33786,6.6695 -2.81896,13.3057 -5.48828,19.5723 -0.59537,1.973 -1.85937,3.8755 -1.89649,5.9531 0.78829,1.7889 3.05341,0.5908 4.41797,0.336 6.83511,-2.15 13.74637,-3.8139 20.90235,-4.2715 1.38542,-0.089 3.84142,-0.33 3.55664,-2.291 -1.24738,-4.1854 -3.61367,-8.0096 -6.31641,-11.42 -3.59967,-4.306 -7.52847,-8.4906 -12.27148,-11.541 -0.29126,-0.1369 -0.61045,-0.2349 -0.93555,-0.2187 z m -12.69336,35.459 c -0.0593,0 -0.11932,9e-4 -0.18164,0.01 -1.49899,0.5546 -1.81948,2.5005 -2.70703,3.6914 -4.21757,7.7269 -9.63919,14.6885 -14.77344,21.8066 -0.95138,1.2526 0.51568,2.8057 1.89844,2.3946 7.91815,-0.6775 15.82631,-0.8077 23.77929,-0.504 1.81903,-0.4788 0.58559,-2.6643 0.59961,-3.9707 -1.219,-7.5236 -3.32507,-14.9816 -6.75195,-21.8066 -0.41715,-0.6875 -0.97382,-1.5987 -1.86328,-1.6191 z m -160.51758,13.7421 c -1.29923,0.7795 -1.15513,2.6629 -1.50977,3.9864 -0.41901,4.9887 -0.60688,10.0341 -0.22265,15.0293 -0.009,1.824 1.55416,3.0307 3.23242,3.289 5.15549,1.1742 10.52368,0.8407 15.75586,0.4903 1.33274,0.07 3.0585,-1.3979 1.85547,-2.67 -3.65676,-3.4193 -7.74863,-6.3788 -11.13086,-10.1015 -2.91592,-2.7899 -4.72016,-6.4395 -6.94922,-9.7383 -0.24508,-0.2973 -0.6948,-0.2606 -1.03125,-0.2852 z m 138.11524,17.5274 c -2.29321,0.9172 -4.05124,2.8904 -6.0625,4.3066 -3.214,2.5442 -6.5613,5.0004 -10.15235,6.9434 -1.07488,1.3595 1.10594,2.2918 1.65235,3.4687 2.18945,2.9939 3.91698,6.3394 6.10937,9.3008 1.53461,0.7168 3.47185,0.048 5.16211,0.2188 2.02755,-0.1741 4.19862,0.1521 6.14648,-0.3672 1.18632,-0.9371 0.52294,-2.8174 0.76563,-4.1445 0.0665,-6.2086 -0.13319,-12.5923 -2.20117,-18.5059 -0.25525,-0.5931 -0.69505,-1.2274 -1.41992,-1.2207 z m -114.00196,6.9726 c -2.05104,0.3989 -1.84636,3.0152 -1.97461,4.6231 -0.18018,5.9046 0.29137,11.8806 2.27344,17.4863 0.83671,2.0522 1.25888,4.4979 2.88281,6.0918 1.70804,0.7463 3.43277,-0.6921 5.02149,-1.2109 5.9442,-2.7876 11.18071,-6.834 16.60546,-10.4844 0.9265,-0.8305 3.20451,-1.8068 2.13477,-3.2305 -4.63168,-2.2555 -9.65703,-3.7529 -14.16406,-6.3222 -4.28034,-2.1328 -8.14939,-5.078 -12.55469,-6.9375 l -0.19531,-0.016 z m 90.22852,8.3125 c -0.056,0 -0.11722,0 -0.18164,0 -3.04241,1.0202 -5.91297,2.5763 -8.97266,3.5976 -3.20409,1.287 -6.57692,2.2114 -9.75781,3.4883 -1.50184,1.5883 1.28222,2.12 2.49023,1.8281 4.53069,-0.027 9.08922,0.4216 13.60547,0.037 1.55819,-0.5076 1.40216,-2.5885 2.19922,-3.7812 0.46009,-1.4897 1.57573,-2.9193 1.46875,-4.5117 -0.25746,-0.2989 -0.45937,-0.6291 -0.85156,-0.6622 z m -56.05274,6.8829 c -1.3725,-0.043 -2.52505,1.4366 -1.66406,2.7089 0.4394,1.149 1.79126,2.4842 2.94141,1.3067 1.24352,-1.0484 3.02614,-1.1848 4.20507,-2.2695 0.36058,-1.9463 -2.1712,-1.4194 -3.39648,-1.6465 -0.60174,-0.043 -1.20496,-0.081 -1.80859,-0.068 v 0 c -0.0929,-0.017 -0.18585,-0.026 -0.27735,-0.029 z"
         transform="scale(0.26458333)" /><path
         id="path15"
         style="fill:#ff6600;stroke:none;stroke-width:5.00787;stroke-linecap:round;stroke-linejoin:round;stroke-dasharray:none;paint-order:markers stroke fill"
         d="m 1001.3652,1853.8008 c -0.4096,-0.027 -0.8128,0 -1.1152,0.084 -13.67839,0 -27.35676,-0.01 -41.03514,-0.01 -0.22331,0.086 -0.44663,0.172 -0.66993,0.2578 -4.57104,7.0821 -11.03356,12.8728 -18.2832,17.1192 -8.08997,4.5628 -16.93231,7.515 -25.97656,9.459 -1.49513,0.047 -2.71015,2.06 -1.22656,3.0312 4.4621,2.2882 9.32242,3.7518 13.74804,6.1445 7.99139,4.0408 15.42551,9.0271 22.61133,14.3516 1.15995,0.2951 2.44402,-0.4517 3.29688,-1.166 -0.13165,-2.7617 -1.12244,-5.4984 -1.07227,-8.3184 -0.33399,-6.9512 1.46574,-14.1207 6.35938,-19.2285 6.03733,-6.5715 14.69328,-9.5669 22.95898,-12.4199 7.23293,-2.5608 14.61751,-4.8035 21.79885,-7.4316 1.1298,-1.2021 -0.1657,-1.7912 -1.3946,-1.8731 z m -173.92964,0.035 c -1.13611,-0.014 -2.33347,0.1737 -3.43555,0.049 -5.69726,-5e-4 -11.39454,-0.01 -17.0918,0 v 0 c -4.91196,0.049 -9.83232,-0.05 -14.73828,0.17 -1.57834,0.6632 -0.26659,2.2214 0.44141,3.0293 4.56639,6.1603 10.97621,10.6708 17.91015,13.8085 10.09461,4.7552 21.19903,7.2514 32.3125,7.8887 2.91847,-0.027 5.87145,0.1165 8.76563,-0.2754 1.54287,-0.736 0.4161,-2.5901 -0.68164,-3.1445 -4.49736,-3.1312 -9.09152,-6.0782 -12.7832,-10.1855 -3.29373,-3.3438 -6.12967,-7.1326 -8.75391,-10.9825 -0.60509,-0.2652 -1.26365,-0.347 -1.94531,-0.3554 z m 51.03906,0.08 c -14.36754,0.013 -28.73404,0.056 -43.10156,0.084 -2.00187,0.558 -0.19001,2.489 0.54687,3.4004 6.08597,8.132 14.41587,14.6142 23.98047,18.1152 10.2732,3.8199 21.36145,4.766 32.2461,4.5059 6.79326,0 13.62489,-0.2276 20.27148,-1.7676 12.56057,-2.6274 25.20382,-7.1281 34.88672,-15.8418 2.41198,-2.1884 4.98735,-4.4242 6.56836,-7.2773 -0.0713,-1.7924 -2.48098,-0.9433 -3.68359,-1.1406 -23.90492,-0.059 -47.80984,-0.1009 -71.71485,-0.076 z m 133.73638,0.2657 c -0.8324,0.018 -1.6042,0.064 -2.086,0.068 -1.0164,0.096 -2.1236,-0.2671 -3.0273,0.3438 -2.1187,10.6921 -2.7259,21.7098 -5.834,32.166 -1.57652,5.7219 -4.96891,10.717 -8.44142,15.3555 1.11975,2.4608 5.49552,0.5173 7.90432,1.1347 4.9141,0.4195 10.1698,-0.9702 14.707,1.25 4.5528,2.9401 3.2946,9.2741 3.6699,13.8516 0.1348,16.5457 0.4364,33.1587 -0.3886,49.6601 -1.0429,4.2997 -5.6166,6.1592 -9.6368,5.6993 -5.669,0.2919 -11.53203,-0.4266 -17.07613,0.3828 -0.27685,7.6035 0.64939,15.4564 -0.28711,23.0859 -1.96042,21.3795 -10.7472,41.789 -23.00391,59.2949 -9.15099,11.5058 -16.38023,24.4237 -25.92188,35.5879 -0.64495,2.7729 3.45458,1.9426 5.05079,2.1524 7.94401,0.3109 15.99818,-0.5202 23.84375,0.5742 3.63833,1.2657 6.23828,5.0524 5.3164,8.9375 v 38.5449 c -1.23604,1.7148 -4.80712,6.0513 -0.26562,5.4785 13.00052,-0.1403 26.12281,0.2776 39.04881,-0.207 1.5001,-1.9564 -2.4141,-2.9532 -3.4375,-4.4609 -5.1835,-5.0999 -1.3068,-15.5159 6.043,-15.9414 3.8131,-0.8272 7.6555,1.115 9.5508,4.4628 2.5787,4.1907 3.3831,-1.4085 2.8105,-3.7753 -0.2205,-3.5877 0.4507,-7.3688 -0.3437,-10.8321 -9.8811,-1.128 -20.6753,1.5778 -29.8594,-3.2929 -10.16817,-4.7512 -16.14871,-16.4836 -14.47853,-27.502 1.29715,-12.1851 12.12349,-22.4118 24.37893,-22.9453 6.5663,-0.8676 13.5018,-0.023 20.0586,-0.8496 0.573,-10.9633 0.08,-22.1191 0.2441,-33.1563 v -159.5781 c -1.5382,-2.6352 -3.1438,1.7141 -4.4648,2.7695 -4.9941,5.4847 -15.698,1.6377 -16.1407,-5.8164 -0.9141,-4.0601 1.4809,-8.0632 5.0625,-10 2.5502,-2.2999 -0.4991,-2.4965 -2.996,-2.4433 z m -242.79693,0.043 c -5.58494,0.026 -11.18165,0.096 -16.74219,0.025 l -0.45507,0.2071 -0.29883,0.1367 c -0.36098,2.4485 3.27579,3.124 4.46875,5.1289 4.17288,5.6172 -0.0814,15.0976 -7.30469,15.1992 -3.87415,0.7099 -7.45737,-1.6347 -9.32422,-4.9219 -2.91393,-3.6683 -2.72063,2.6803 -2.50781,4.6719 0.13935,12.6312 -0.27718,25.383 0.20703,37.9395 2.76961,1.292 6.60159,0.3036 9.77149,0.7187 4.14664,0.4931 9.12134,-0.8035 12.5957,2.1328 3.82899,3.5867 2.41001,9.3319 2.85742,13.961 0.0376,12.6158 -0.12291,25.2301 -0.17969,37.8457 -1.47813,3.191 -4.42762,5.5868 -8.11133,5.2968 -5.55994,0.5135 -11.41574,-0.3241 -16.89453,0.5274 -0.33949,1.8115 -1.18821,7.7857 2.13867,5.4668 3.81597,-1.6775 8.30592,-0.3346 12.36915,-0.6387 3.05834,-0.76 5.92408,2.1995 5.24609,5.2266 v 57.2636 c -2.49221,3.5473 -7.27201,2.0448 -10.91602,2.6778 -2.79055,0.2616 -5.65644,0.1158 -8.13672,-1.1758 -2.09975,1.6834 -0.39683,5.7848 -0.94726,8.4121 v 82.002 c 1.45885,2.569 3.02369,-1.4333 4.26758,-2.5586 4.1303,-4.9131 12.69744,-2.9299 15.33789,2.5918 2.59676,4.3088 0.82354,10.3981 -3.6543,12.7187 -4.19261,2.8723 2.22252,3.0022 4.39844,2.6699 h 86.65039 c 2.62414,-1.4897 -1.70728,-3.062 -1.82227,-5.082 -1.49763,-7.4377 0.0355,-15.2606 -1.02148,-22.6523 -7.44691,-4.9389 -16.73232,-5.2043 -24.80469,-8.7051 -10.58275,-4.1314 -20.88294,-10.1218 -27.95508,-19.2676 -10.18904,-13.398 -12.12914,-32.4122 -4.43945,-47.375 2.48812,-5.5324 6.79408,-9.9706 10.41406,-14.6563 -0.67578,-2.1588 -4.1163,-2.3216 -5.5664,-4.2128 -4.00372,-3.3827 -5.94596,-8.6904 -5.30469,-13.8672 0.83607,-3.7964 -3.96987,-4.4758 -5.74414,-7.043 -8.22463,-8.2385 -11.13307,-20.4864 -10.05078,-31.752 0.47876,-5.7076 0.55015,-11.6466 2.95898,-16.8691 8.66833,4.6294 17.45121,9.2208 25.48047,14.9102 7.11784,5.4898 12.70598,13.5869 12.91406,22.8574 0.27061,4.1984 -0.0777,8.9389 2.99024,12.3379 1.51987,1.3617 0.68875,4.6879 2.90039,4.9297 4.4399,-5.6834 7.33236,-12.6867 8.88867,-19.7442 3.1799,-15.808 -0.67697,-32.8183 6.61524,-47.6855 5.73031,-11.835 16.36152,-21.014 29.11523,-24.5157 1.60897,-2.6508 0.48216,-6.3656 1.24219,-9.4218 -0.21436,-2.6258 2.64086,-3.9459 2.98242,-6.2129 -1.23092,-2.1471 -4.47629,-1.7768 -6.52539,-2.7188 -5.14658,-1.0081 -10.59548,-1.5413 -15.74024,-1.0703 -0.52758,2.0741 2.40335,3.2299 2.85352,5.2988 3.93078,7.8338 -0.16007,18.3097 -8.47656,21.2032 -7.36161,2.9743 -16.38189,-0.8636 -19.45313,-8.168 -1.34318,-2.338 -1.15996,-5.2032 -2.16601,-7.5723 -2.67331,0.2265 -4.43118,3.3447 -6.69532,4.8145 -9.65985,8.2518 -17.68424,18.6906 -26.70898,27.2461 0.44769,-8.0473 4.35912,-15.4146 7.77344,-22.5508 9.14514,-16.1601 24.76859,-27.179 40.40625,-36.4609 1.44827,-0.4043 2.86449,-2.6121 0.79687,-3.2129 -9.04258,-2.3823 -17.96171,-5.2128 -26.42773,-9.1094 -2.7929,0.7621 -4.36428,4.1747 -6.67188,5.9785 -6.41017,6.4425 -11.95684,13.6758 -18.25586,20.2129 4.38002,-10.7508 12.8365,-18.8928 20.80469,-27.1211 0.48571,-2.4623 -3.279,-3.4454 -4.50586,-5.375 -3.44762,-3.143 -6.1798,-7.0525 -8.96289,-10.6562 -5.51661,-0.2454 -11.08889,-0.2627 -16.67383,-0.2364 z m 90.19922,68.9668 -0.16211,0.037 c -16.02894,4.7441 -28.10412,19.9024 -29.54883,36.5118 -1.34023,13.012 0.56145,26.3766 -4.42578,38.8125 -2.38382,6.6011 -5.99057,12.6938 -10.63086,17.9453 -1.76415,3.9509 -3.66995,8.2097 -7.58007,10.5429 -2.11461,1.7513 -4.9274,1.805 -7.29102,2.8438 -5.25827,4.3806 -9.65473,10.0373 -12.49414,16.2695 -0.86873,4.1721 2.57968,7.7821 4.74805,10.9824 7.3186,8.952 16.97275,15.6961 26.6914,21.7989 17.68572,10.3233 38.6502,14.0527 58.9336,12.9863 12.91537,-4.9603 26.59803,-9.2351 37.05859,-18.7344 9.32941,-8.1167 17.57847,-17.7451 23.38867,-28.6894 1.95651,-5.7646 -0.0938,-11.9977 -1.55078,-17.6543 -4.64989,-14.6636 -16.24466,-27.1892 -30.74609,-32.418 -2.62566,0.2916 -0.48406,3.0299 0.9707,3.4121 15.54282,9.3036 24.05979,29.0878 19.73633,46.6582 -3.68388,17.241 -18.69578,31.3459 -36.1211,33.8067 -11.67274,1.9751 -24.60948,1.9731 -34.8496,-4.6368 -10.71617,-6.5344 -19.20149,-18.0436 -19.61133,-30.8925 -0.39965,-7.1107 -0.049,-14.3743 2.99414,-20.9161 6.20429,-16.2796 21.32731,-28.6144 38.28711,-32.1894 17.10138,-4.1823 36.22416,1.0493 48.52929,13.7676 8.06062,7.9098 12.91899,18.461 15.75977,29.2207 0.0443,1.6807 2.13327,2.9181 3.04102,1.1406 5.70432,-10.7354 8.98961,-22.7751 10.07617,-34.873 0.51455,-7.8226 0.55622,-15.7904 -0.49024,-23.543 -1.97993,-2.8541 -6.7524,-2.9623 -7.19531,-7.0703 -1.40193,-6.1858 -0.52548,-12.59 -1.05078,-18.8379 -3.48197,-5.4281 -6.68958,-11.4871 -11.80859,-15.4727 -2.16383,1.8364 -0.42152,5.8185 -0.99219,8.4981 -0.29799,8.6456 0.5548,17.4073 -0.64453,25.9843 -1.05248,3.4739 -4.48539,5.5797 -8.04297,5.0899 -9.11937,0.4269 -18.4176,-0.1347 -27.51563,0.3828 -6.10858,4.736 -13.85472,7.5245 -21.58398,6.9629 -10.66233,-0.01 -21.63764,-7.5097 -23.25,-18.4941 -1.65037,-7.3193 2.25894,-14.6872 7.97851,-19.1114 1.20693,-3.7002 0.20633,-8.0671 0.5293,-12.0312 -0.61098,-2.512 1.31466,-6.6756 -1.13672,-8.0899 z m -57.62695,24.8321 -0.0996,0.4882 -0.0664,0.3243 c -0.23338,1.0222 -1.17842,5.5527 -0.88476,3.0566 0.18723,-1.3264 0.5155,-2.6387 1.05078,-3.8691 z m 57.875,0.7441 c -0.11891,0 -0.24071,0.026 -0.35742,0.074 -0.51028,0.2975 -0.83128,0.8193 -1.2168,1.2539 -1.95787,2.4376 -2.98792,5.5614 -3.02539,8.6758 -0.0395,1.4011 -0.0318,2.8288 0.38281,4.1816 0.76992,2.7637 2.0969,5.3938 3.9961,7.5547 0.5213,0.5512 1.01615,1.1411 1.60937,1.6153 0.53494,0.3679 1.34767,0.058 1.50391,-0.5703 0.18407,-0.6276 -0.34394,-1.1163 -0.62305,-1.6172 -0.49817,-0.8753 -0.97968,-1.8069 -1.08594,-2.8223 -0.12803,-2.2552 -0.0733,-4.5176 -0.0918,-6.7754 -0.006,-3.5435 -0.002,-7.0888 -0.0664,-10.6308 -0.0236,-0.5502 -0.51011,-0.947 -1.02539,-0.9395 z m 5.99023,24.4238 c -0.051,0 -0.10337,0.01 -0.15429,0.016 -0.60044,0.1106 -0.99115,0.8275 -0.7168,1.3808 0.24525,0.5783 0.92495,0.7285 1.42773,1.0059 1.47025,0.6916 2.99536,1.285 4.59766,1.5859 1.9796,0.388 3.99741,0.6335 6.01758,0.584 1.60762,-0.01 3.22142,-0.036 4.80859,-0.3184 2.07216,-0.3069 4.0734,-0.9784 5.98633,-1.8183 0.5796,-0.2575 0.77943,-1.0863 0.33789,-1.5547 -0.41632,-0.4926 -1.12939,-0.352 -1.70508,-0.3906 -6.11256,-0.057 -12.23695,-0.023 -18.34179,-0.1094 -0.61662,-0.01 -1.22336,-0.1129 -1.80469,-0.3184 -0.14782,-0.044 -0.3001,-0.069 -0.45313,-0.062 z m 73.48243,12.6231 c -1.72061,0.3892 -3.53834,0.6991 -5.33789,0.8554 1.61933,-0.5224 4.1431,-0.9247 5.33789,-0.8554 z m 62.5781,29.5605 c 0.036,-0.06 0.03,-0.023 -0.098,0.2735 -0.79,1.9287 -1.1348,2.1243 -0.062,0.037 0.046,-0.093 0.1238,-0.2504 0.1601,-0.3106 z m -232.14842,11.0977 -0.23242,0.3672 c -1.15533,1.7706 -2.32524,3.4477 -3.60547,5.1289 1.00638,-1.9898 2.38366,-3.8999 3.83789,-5.4961 z m -3.28125,24.0058 c -0.44954,2.7886 -0.98363,5.9472 -1.6914,8.4395 0.1638,-2.8445 0.86515,-5.8178 1.6914,-8.4395 z m 198.33789,32.4551 c -1.09123,1.6113 -2.87052,4.1783 -3.7539,5.0059 0.86218,-1.8793 2.24917,-3.5819 3.7539,-5.0059 z"
         transform="scale(0.26458333)" /><path
         id="path23"
         style="fill:#aa0000;stroke:none;stroke-width:1.77055;stroke-linecap:round;stroke-linejoin:round;stroke-dasharray:none;paint-order:markers stroke fill"
         d="m 857.37306,1881.7754 c -9.87446,0.166 -19.52195,3.2797 -28.33985,7.5899 -12.3113,6.1236 -23.42542,14.7551 -32.18359,25.3711 -2.64446,3.3906 -4.94083,7.091 -6.63867,11.0449 -0.65258,1.0947 0.49983,2.7275 1.73437,2.0586 2.39524,-1.5985 4.24131,-3.8956 6.35938,-5.8301 5.50817,-5.3211 10.74471,-11.0161 17.14844,-15.3067 1.72634,-1.063 2.22419,-3.1585 3.62109,-4.539 2.94032,-3.5301 7.5326,-5.7403 12.16016,-5.4024 1.6727,-0.071 3.25318,0.5469 4.89257,0.6875 4.66283,-0.5842 9.39882,-0.6118 14.0625,-0.3164 5.51015,0.4691 10.68602,2.2134 15.94532,3.8946 1.35065,0.2849 3.03078,1.3202 4.21679,0.1 3.34531,-2.8879 6.54398,-5.8882 10.41993,-8.0879 4.75235,-2.8569 10.13847,-4.3016 15.53711,-5.2051 1.14052,-0.1317 2.71889,-0.8257 2.34765,-2.248 -0.64253,-1.6238 -2.76431,-1.269 -4.15039,-1.584 -7.50308,-0.7916 -15.01518,-1.5842 -22.54883,-2.0098 -4.20022,-0.1579 -8.40434,-0.2178 -12.60742,-0.209 -0.66015,-0.016 -1.31827,-0.019 -1.97656,-0.01 z m 72.9375,14.8281 c -0.35557,-0.01 -0.71107,0.062 -1.03711,0.2149 -0.80234,1.1395 -0.15011,2.6791 -0.29688,3.9922 0.15377,1.4602 -0.4046,3.4037 1.22266,4.2011 1.91883,1.5567 3.05909,3.9723 2.94727,6.4512 0.12768,2.1382 -0.13055,4.3253 0.14453,6.4317 0.56128,1.2505 2.0433,0.242 3.02734,0.1308 3.13076,-0.7838 6.39049,-1.3328 9.58203,-1.957 1.17882,-0.6187 0.53233,-2.2574 0.75977,-3.3438 0.0198,-1.6504 0.13074,-3.3112 0.49219,-4.9082 -0.38787,-1.5138 -2.13346,-2.092 -3.20508,-3.0625 -4.20244,-2.8706 -8.25761,-6.1151 -13.00391,-8.0508 -0.20673,-0.062 -0.41947,-0.095 -0.63281,-0.1 z m 46.81445,77.0293 c -2.25615,0.1485 -4.70186,-0.2691 -6.79883,0.67 -0.80225,1.8235 1.91812,2.0926 2.97266,2.9082 4.0808,1.8994 7.76118,4.51 11.13281,7.4707 1.01031,1.072 3.03907,0.6997 3.10742,-0.9278 0.06,-3.0573 0.11271,-6.229 -0.61132,-9.1953 -0.95835,-1.1726 -2.89422,-0.6225 -4.29102,-0.8672 -1.83649,-0.055 -3.67452,-0.064 -5.51172,-0.057 z m 8.69141,16.295 c -0.0604,0 -0.12088,-10e-4 -0.1836,0 -2.5485,0.5641 -4.76681,2.1798 -7.14843,3.2187 -5.09521,2.7162 -10.35086,5.1552 -15.35547,8.0274 -1.37092,1.2657 0.5973,2.7343 1.36523,3.7129 5.23326,5.4258 10.64622,10.9389 14.03711,17.7402 0.35802,1.2722 2.14644,2.0598 2.90625,0.6894 1.92259,-4.3508 2.80098,-9.1009 3.93946,-13.7031 1.26873,-5.8907 2.27888,-11.9237 2.06835,-17.9629 -0.084,-0.8759 -0.72269,-1.6923 -1.6289,-1.7265 z m -10.47852,40.2539 c -8.38142,0.5451 -16.67276,2.5097 -24.49609,5.541 -1.46472,0.4117 -2.8196,2.0253 -1.91797,3.5371 3.13292,7.0048 5.60045,14.1934 7,21.793 0.13752,1.1784 0.76807,3.3499 2.37891,2.6738 2.71713,-2.513 4.61102,-5.8087 6.83203,-8.752 4.10015,-5.6751 7.64581,-11.7261 10.5625,-18.0918 0.72919,-1.8968 2.19709,-3.7873 1.96679,-5.8964 -0.38572,-0.9157 -1.51686,-0.799 -2.32617,-0.8047 z m -29.64453,37.1543 c -5.90574,0.1649 -11.88065,0.2127 -17.69726,1.3203 -1.96346,0.486 -1.28636,2.8462 -1.08204,4.2773 1.45743,6.2162 1.60474,12.695 1.23047,19.0957 -0.56561,1.7076 0.82908,2.8091 2.45313,2.3457 1.74403,-0.2473 3.86263,0.553 5.34179,-0.5215 6.57152,-7.3087 12.82841,-15.0517 17.41016,-23.7871 0.24814,-1.9272 -2.13261,-2.6919 -3.71875,-2.6269 -1.31067,-0.091 -2.62406,-0.1103 -3.9375,-0.1035 z m -156.21094,9.6816 c -1.27168,0.2066 -3.41177,-0.5082 -3.91992,1.1133 0.22954,2.6707 1.98333,4.9536 3.16602,7.293 3.42082,6.2995 8.91158,11.1438 14.50976,15.4726 1.28852,0.7278 2.79526,2.5158 4.375,1.6309 1.03911,-0.916 1.08855,-2.4829 0.38672,-3.6016 -2.37001,-6.6895 -1.62042,-13.7605 -1.93164,-20.7441 -0.5672,-1.7296 -2.86149,-0.7302 -4.23438,-1.0313 -4.11716,-0.052 -8.23388,-0.1486 -12.35156,-0.1328 z m 117.29102,6.6231 c -0.19099,0.016 -0.40456,0.1235 -0.58399,0.1054 v 0 c -0.86311,1.2284 -0.7569,2.9449 -1.53125,4.291 -0.55626,1.8265 -1.76995,3.4894 -1.97851,5.3829 1.04434,1.2988 3.0642,0.5275 4.55078,0.8339 2.14974,-0.076 4.4605,0.4492 6.51758,-0.2871 1.34394,-1.2928 -0.91331,-2.5916 -1.48633,-3.6836 -1.81479,-2.1016 -3.29404,-4.5443 -5.18164,-6.5312 -0.0866,-0.1015 -0.19205,-0.125 -0.30664,-0.1152 z m -68.58985,9.6093 c -2.38629,0.7787 -4.317,2.5937 -6.49609,3.8125 -4.6003,3.1206 -9.41788,5.8671 -14.01562,8.9844 -1.25447,1.2561 0.39926,2.7067 1.61914,3.0762 6.74728,2.9995 13.91899,5.0727 21.19921,6.2461 1.78783,0.034 1.51856,-2.193 1.55469,-3.3887 0.0947,-4.3386 0.005,-8.7153 0.35742,-13.0234 -0.72079,-1.9188 -1.75244,-3.8201 -3.10742,-5.3633 -0.31064,-0.2477 -0.71344,-0.3824 -1.11133,-0.3438 z"
         transform="scale(0.26458333)" /><path
         style="fill:#000000"
         d="m 197.61166,569.41003 c -0.78791,-0.0482 -1.60845,-0.37284 -2.23975,-0.88612 -0.21415,-0.1741 -0.49568,-0.46579 -0.65561,-0.67925 -0.50195,-0.66994 -0.75494,-1.36508 -0.80555,-2.21339 -0.0143,-0.24046 -0.019,-7.16984 -0.015,-22.14 l 0.006,-21.79 0.0452,-0.133 c 0.0876,-0.2579 0.26921,-0.46761 0.51101,-0.59014 0.2131,-0.10799 0.16353,-0.10614 2.8546,-0.10651 2.73907,-3.9e-4 2.59979,0.006 2.84107,-0.12296 0.21524,-0.11472 0.39294,-0.32765 0.48185,-0.57739 l 0.0463,-0.13 v -5.91 -5.91 l -0.0443,-0.14083 c -0.11833,-0.3761 -0.43919,-0.65371 -0.81905,-0.70862 -0.084,-0.0122 -1.08872,-0.0199 -2.60801,-0.0202 -2.20295,-3.6e-4 -2.48316,-0.004 -2.58,-0.0323 -0.34634,-0.10173 -0.61013,-0.37289 -0.70331,-0.72296 -0.0202,-0.0758 -0.0253,-1.45325 -0.0253,-6.79513 0,-6.32674 0.002,-6.71226 0.0356,-6.92 0.12123,-0.74957 0.4043,-1.39984 0.84888,-1.95 0.15732,-0.19469 0.51453,-0.54011 0.70765,-0.68431 0.57086,-0.42625 1.22471,-0.68679 1.94688,-0.77575 0.24119,-0.0297 72.66486,-0.0299 72.90101,-2e-4 0.72635,0.0914 1.37994,0.35075 1.94012,0.76989 0.21087,0.15778 0.56054,0.49833 0.72939,0.71037 0.4463,0.56046 0.71728,1.1904 0.83452,1.94 0.0345,0.22056 0.036,1.31677 0.036,26.71 0,25.63827 -0.001,26.48381 -0.0367,26.6 -0.0981,0.3204 -0.31956,0.55103 -0.64923,0.67607 l -0.11404,0.0433 -2.9,0.0115 c -3.13796,0.0125 -2.95848,0.006 -3.52829,0.12105 -0.88061,0.17729 -1.79291,0.60855 -2.52164,1.19203 -0.36699,0.29384 -0.83748,0.78773 -1.10334,1.15821 -0.61468,0.85658 -0.98701,1.81792 -1.10679,2.85773 -0.0172,0.14899 -0.0299,0.43492 -0.0299,0.67012 0,0.2352 0.0128,0.52113 0.0299,0.67012 0.12803,1.11141 0.52942,2.09919 1.22716,3.01988 0.19518,0.25755 0.79536,0.85773 1.0529,1.0529 1.04626,0.79289 2.13547,1.19119 3.43909,1.25758 0.1985,0.0101 1.50072,0.0186 2.89381,0.019 2.46896,5.6e-4 2.5361,0.002 2.66,0.0402 0.28903,0.0902 0.53984,0.34013 0.6426,0.64033 l 0.0445,0.13 0.006,2.75 c 0.004,1.75322 -0.002,2.88049 -0.0149,3.11 -0.0353,0.60632 -0.14871,1.0478 -0.40062,1.56 -0.40415,0.82176 -1.00877,1.42639 -1.83054,1.83054 -0.49199,0.24196 -0.96067,0.36551 -1.51639,0.39972 -0.36771,0.0226 -72.1434,0.0212 -72.51361,-10e-4 z m 26,-1.30635 c 0,-0.004 -0.0799,-0.0714 -0.17751,-0.14933 -0.42802,-0.34179 -0.69422,-0.72695 -0.82827,-1.19841 l -0.044,-0.15467 -0.006,-2.74458 -0.006,-2.74458 -0.12452,-0.0846 c -0.3052,-0.20743 -0.96361,-0.55663 -1.3047,-0.69197 -0.59798,-0.23727 -1.35114,-0.43034 -1.84983,-0.4742 -0.23769,-0.0209 -1.25133,-0.30461 -2.05,-0.57377 -1.05521,-0.35562 -2.27919,-0.85064 -3.02,-1.22137 -0.35337,-0.17685 -0.79783,-0.42618 -1.56,-0.87513 -0.33,-0.19438 -0.6675,-0.3924 -0.75,-0.44004 -0.17957,-0.10369 -1.54242,-1.12592 -1.91,-1.43262 -0.54061,-0.45109 -0.95988,-0.91709 -1.5305,-1.70107 -0.47474,-0.65226 -0.82284,-1.22418 -1.15002,-1.88945 -1.26684,-2.57592 -1.608,-5.43155 -0.97684,-8.17659 0.37353,-1.62456 1.10377,-3.22227 2.05462,-4.49539 0.36818,-0.49297 0.71888,-0.89632 1.3992,-1.60927 0.32195,-0.33739 0.38961,-0.41785 0.36,-0.42812 -0.70875,-0.24578 -1.2285,-0.5584 -1.72248,-1.03604 -0.68995,-0.66713 -1.10684,-1.45308 -1.26834,-2.39118 -0.0343,-0.19942 -0.0431,-0.33295 -0.0436,-0.66 -5.4e-4,-0.41857 0.0167,-0.57209 0.10621,-0.94794 l 0.0358,-0.15015 -0.14202,-0.0939 c -0.78221,-0.51732 -1.54048,-1.20968 -2.12247,-1.93798 -1.03684,-1.29748 -1.69767,-2.88213 -1.94749,-4.67 -0.14926,-1.06823 -0.17265,-2.04652 -0.0801,-3.35 0.11027,-1.55307 0.29936,-2.77462 0.588,-3.7986 0.10122,-0.3591 0.16941,-0.48723 0.31566,-0.59318 0.10242,-0.0742 0.18991,-0.0762 0.27295,-0.006 0.0339,0.0285 0.24834,0.15116 0.47653,0.27252 0.85248,0.45336 3.51791,1.96481 4.45489,2.52618 1.462,0.87591 2.19358,1.42741 3.04034,2.29195 0.94166,0.96143 1.49201,1.88143 1.95243,3.26379 0.31795,0.95463 0.32079,0.97793 0.33171,2.71369 l 0.009,1.37 0.13489,0.14 c 0.47529,0.49328 0.84905,1.15006 1.02975,1.80949 0.028,0.10221 0.0546,0.18948 0.059,0.19393 0.014,0.014 0.26087,-0.33185 0.43796,-0.61342 0.59495,-0.94595 1.04678,-1.90362 1.39655,-2.96 0.40423,-1.22091 0.60411,-2.31438 0.7275,-3.98 0.0599,-0.80838 0.0673,-1.03474 0.13156,-4.03 0.0333,-1.55263 0.0626,-1.94591 0.20126,-2.7 0.40251,-2.18971 1.12954,-3.92135 2.31755,-5.52 1.10232,-1.48334 2.83603,-2.94387 4.39182,-3.6998 0.66665,-0.32391 1.39236,-0.5954 2.19315,-0.82045 l 0.11411,-0.0321 0.006,-1.17384 c 0.007,-1.31078 0.002,-1.25677 0.16133,-1.65369 0.14098,-0.35112 0.4575,-0.75553 0.77631,-0.99188 0.0978,-0.0725 0.133,-0.10918 0.11445,-0.11928 -0.0438,-0.0239 -1.27514,-0.36931 -1.70162,-0.47739 -0.87302,-0.22123 -1.53012,-0.32796 -2.34481,-0.38085 -0.55316,-0.0359 -1.63911,-0.0186 -1.68453,0.0268 -0.006,0.006 0.0497,0.0765 0.12387,0.1566 0.72219,0.78003 1.13231,1.8365 1.12969,2.91009 -0.004,1.61591 -0.92598,3.09633 -2.39217,3.84081 -1.50074,0.76203 -3.30001,0.56413 -4.62939,-0.5092 -0.36644,-0.29585 -0.74975,-0.738 -0.99419,-1.14678 -0.39863,-0.66666 -0.62081,-1.47588 -0.60071,-2.18792 0.004,-0.13812 0.001,-0.25113 -0.006,-0.25113 -0.0365,2e-5 -0.85939,0.65103 -1.33683,1.05765 -1.36083,1.15899 -2.65729,2.46645 -4.9801,5.02236 -1.59485,1.75489 -2.2135,2.41737 -2.47996,2.65566 -0.1548,0.13842 -0.21156,0.17859 -0.22314,0.1579 -0.0465,-0.0832 -0.0605,-0.33085 -0.0379,-0.67216 0.0497,-0.75007 0.19827,-1.37052 0.60118,-2.50988 0.6296,-1.7804 1.31656,-3.22241 2.07568,-4.35705 1.11673,-1.66919 2.55105,-3.28393 4.03425,-4.5417 0.52902,-0.44861 1.89927,-1.50386 2.5,-1.92528 0.79128,-0.55509 1.65649,-1.09697 2.71,-1.69726 1.0391,-0.59207 1.38101,-0.80265 1.43362,-0.88294 0.0491,-0.075 0.0164,-0.14716 -0.0913,-0.20152 -0.0871,-0.0439 -0.17036,-0.0645 -0.5923,-0.14631 -0.60774,-0.11781 -1.7165,-0.42874 -2.74,-0.76837 -1.46991,-0.48778 -2.20262,-0.77665 -3.34512,-1.31884 -0.22282,-0.10574 -0.42576,-0.19225 -0.45097,-0.19225 -0.0335,0 -0.23874,0.19204 -0.76487,0.71585 -1.52993,1.52314 -2.75724,2.88794 -4.68853,5.21373 -0.38347,0.46179 -0.58417,0.69051 -0.83925,0.95639 l -0.16882,0.17596 -0.10122,-0.0116 c -0.12355,-0.0142 -0.15326,0.004 -0.1691,0.10096 -0.0164,0.10086 -0.0562,0.11065 -0.0736,0.0181 -0.0424,-0.22582 0.0463,-0.51637 0.34167,-1.11937 0.37728,-0.77025 0.84674,-1.52958 1.49621,-2.42 0.76136,-1.04382 1.46767,-1.84069 2.98989,-3.37322 0.93116,-0.93747 0.89113,-0.88435 0.74741,-0.99179 -0.13119,-0.0981 -0.77637,-0.64106 -0.99799,-0.83991 -0.98885,-0.88728 -1.7187,-1.76581 -2.28464,-2.75008 l -0.14662,-0.255 h -4.71058 c -2.59082,0 -4.70683,0.004 -4.70225,0.008 0.005,0.004 0.10733,0.0408 0.22833,0.0811 0.81079,0.27014 1.51113,0.83533 1.83527,1.4811 0.16611,0.33092 0.24241,0.68053 0.24225,1.11 -1.3e-4,0.36179 -0.0352,0.58809 -0.13939,0.9 -0.15183,0.45444 -0.36532,0.79681 -0.71801,1.15145 -0.54718,0.55023 -1.18381,0.83158 -1.95012,0.86185 -0.73729,0.0291 -1.36914,-0.22321 -1.91092,-0.76313 -0.36228,-0.36104 -0.60059,-0.7573 -0.77997,-1.29693 l -0.0875,-0.26324 -8e-4,6.015 -8e-4,6.015 2.315,8e-5 c 2.53954,9e-5 2.50637,-0.001 2.8692,0.12026 0.34214,0.11463 0.63506,0.29848 0.90694,0.56925 0.3717,0.37019 0.6015,0.8346 0.66823,1.35041 0.0121,0.0939 0.0196,2.35001 0.0199,6.03 5.5e-4,6.45709 0.008,6.07439 -0.1197,6.45448 -0.12437,0.37122 -0.32527,0.6835 -0.6214,0.96589 -0.32628,0.31115 -0.68479,0.49786 -1.15817,0.60316 -0.13429,0.0299 -0.39769,0.0341 -2.515,0.0408 l -2.365,0.007 3.1e-4,0.80408 3.1e-4,0.80409 0.0729,-0.13 c 0.094,-0.16767 0.33895,-0.41015 0.50078,-0.49581 l 0.12431,-0.0658 1.79569,0.006 c 2.00261,0.007 1.88085,-10e-4 2.18569,0.14993 0.11237,0.0557 0.19275,0.11714 0.32036,0.24482 0.1865,0.1866 0.26744,0.31894 0.34283,0.56046 l 0.0468,0.15 v 7.7 c 0,6.46674 -0.004,7.71762 -0.0275,7.81 -0.0984,0.39358 -0.36311,0.71604 -0.73307,0.893 -0.26795,0.12816 -0.23525,0.12627 -2.18699,0.12665 l -1.76757,3.5e-4 -0.11117,-0.0636 c -0.15832,-0.0906 -0.38196,-0.31082 -0.47205,-0.46487 -0.0423,-0.0723 -0.0802,-0.13153 -0.0843,-0.13153 -0.004,0 -0.007,5.56875 -0.007,12.375 l 8e-4,12.375 0.0875,-0.26309 c 0.36064,-1.08491 1.14088,-1.82607 2.12675,-2.02023 0.23455,-0.0462 0.70907,-0.0458 0.95419,7.5e-4 0.92529,0.17579 1.70217,0.75869 2.11873,1.58968 0.36028,0.71873 0.40467,1.56974 0.11695,2.2423 -0.32787,0.76643 -0.9804,1.33496 -1.87259,1.63154 l -0.26309,0.0874 12.565,8e-4 c 6.91075,4.4e-4 12.565,-0.003 12.565,-0.007 z m -21.26,-22.71222 c 0,-0.10675 -0.10274,-0.21471 -0.18075,-0.18995 -0.0358,0.0113 -0.0395,0.002 -0.0418,-0.10389 -0.0178,-0.82099 0.21348,-1.97833 0.58542,-2.92992 0.0722,-0.18471 0.12052,-0.27704 0.17792,-0.34 l 0.0788,-0.0864 0.0399,0.0469 c 0.0608,0.0714 0.0866,0.19587 0.0731,0.35311 -0.0452,0.52929 -0.54973,2.95911 -0.66484,3.2017 -0.0402,0.0848 -0.0679,0.10451 -0.0679,0.0485 z m -0.13332,-6.95163 c -0.0246,-0.0642 0.0115,-0.38301 0.0631,-0.55643 0.0999,-0.33587 0.28371,-0.66058 0.65156,-1.15081 0.50432,-0.6721 0.81476,-1.00626 1.03889,-1.11826 0.12306,-0.0615 0.25166,-0.0979 0.27246,-0.0771 0.0159,0.0159 -0.1349,0.32888 -0.25514,0.52935 -0.16031,0.26726 -0.3105,0.48686 -0.73091,1.0687 -0.21223,0.29372 -0.48036,0.67755 -0.59585,0.85296 -0.18674,0.28363 -0.35772,0.48301 -0.4142,0.48301 -0.01,0 -0.0232,-0.0141 -0.0299,-0.0314 z m 13.07773,-17.69356 c -0.0958,-0.1168 -0.14628,-0.96091 -0.10566,-1.765 0.0261,-0.51704 0.0528,-0.7157 0.11994,-0.89318 0.061,-0.1612 0.0829,-0.17313 0.15875,-0.0867 0.0901,0.10263 0.13782,0.20674 0.18414,0.40178 0.0854,0.35964 0.0864,1.21097 0.002,1.95809 l -0.0338,0.3 -0.0924,0.006 c -0.0672,0.004 -0.10502,0.0194 -0.13849,0.055 -0.0524,0.0557 -0.0659,0.0592 -0.0947,0.024 z m -3.50406,-3.44135 c -0.0603,-0.02 -0.11707,-0.047 -0.12613,-0.06 -0.0275,-0.0395 -9.8e-4,-0.7669 0.0351,-0.96365 0.11218,-0.61091 0.33324,-1.17521 0.54229,-1.38425 0.13219,-0.1322 0.18506,-0.13635 0.22386,-0.0176 0.0323,0.0988 0.0117,0.26239 -0.0973,0.77184 -0.12865,0.60139 -0.29384,1.20954 -0.4319,1.59 l -0.0363,0.1 z m 4.33145,-4.96617 c -0.0217,-0.0566 -0.0114,-0.33606 0.0175,-0.47233 0.0778,-0.3669 0.34678,-0.98468 0.58538,-1.34425 0.12869,-0.19394 0.42561,-0.51752 0.52242,-0.56933 0.0468,-0.025 0.047,-0.0247 0.0333,0.0616 -0.0322,0.20363 -0.16181,0.57492 -0.40741,1.16681 -0.34806,0.83884 -0.50158,1.14812 -0.5629,1.13401 -0.0143,-0.003 -0.0599,0.008 -0.10127,0.0241 -0.0674,0.0269 -0.0765,0.0269 -0.087,-6.5e-4 z m 52.91511,55.68347 c -0.96866,-0.322 -1.67709,-0.98972 -1.94258,-1.83095 -0.0875,-0.27736 -0.11303,-0.45458 -0.11223,-0.78 10e-4,-0.58543 0.17168,-1.12524 0.51321,-1.62746 0.15915,-0.23403 0.51253,-0.58769 0.74469,-0.74529 0.95104,-0.64558 2.12228,-0.69364 3.01122,-0.12356 0.55954,0.35883 0.98926,0.93976 1.22927,1.66182 l 0.0879,0.26449 8e-4,-2.29398 8e-4,-2.29398 -2.625,-0.008 c -2.82445,-0.008 -2.73205,-0.005 -3.355,-0.1153 -1.04471,-0.18484 -2.10113,-0.63723 -2.98,-1.27613 -1.28123,-0.9314 -2.24573,-2.27247 -2.70629,-3.76293 -0.43744,-1.41561 -0.43744,-2.90439 0,-4.32 0.22059,-0.71386 0.58661,-1.45114 1.02681,-2.06832 1.09211,-1.5312 2.73362,-2.59194 4.56501,-2.94993 0.66974,-0.13092 0.6037,-0.12832 3.46947,-0.1365 l 2.605,-0.007 -8e-4,-25.79391 -8e-4,-25.79391 -0.0875,0.26324 c -0.22033,0.66281 -0.57961,1.18509 -1.06788,1.55231 -0.34239,0.25751 -0.73281,0.42327 -1.1464,0.48672 -0.24586,0.0377 -0.65683,0.0278 -0.91294,-0.022 -1.18147,-0.22973 -2.11668,-1.18056 -2.33652,-2.37556 -0.0463,-0.25168 -0.0464,-0.72503 -1.7e-4,-0.96024 0.19106,-0.97228 0.95671,-1.78046 2.00301,-2.11425 0.11,-0.0351 0.218,-0.0714 0.24,-0.0807 0.0222,-0.009 -0.60365,-0.0172 -1.41,-0.0176 l -1.45,-6.8e-4 0.076,0.0621 c 0.13394,0.10939 0.16433,0.19325 0.1619,0.4466 -0.002,0.20498 -0.009,0.24321 -0.10587,0.56 -0.2219,0.72712 -0.31357,1.17253 -0.39143,1.90195 -0.30901,2.89505 -0.68038,4.82329 -1.17061,6.07805 -0.22033,0.56395 -0.66515,1.48384 -0.93584,1.93533 -0.25348,0.42279 -0.69796,1.00425 -1.09131,1.42765 -0.073,0.0786 -0.13283,0.14815 -0.13283,0.15448 0,0.006 1.14525,0.0143 2.545,0.0177 l 2.545,0.006 0.15772,0.0444 c 0.80181,0.22547 1.40675,0.78883 1.66036,1.54624 0.1202,0.35899 0.11279,-0.1968 0.10712,8.03802 l -0.005,7.53 -0.0528,0.19101 c -0.21709,0.78479 -0.76069,1.37632 -1.50474,1.63738 -0.35711,0.12529 -0.26274,0.12161 -3.11505,0.12161 h -2.59738 v 0.0556 c 0,0.0305 0.0174,0.1813 0.0387,0.335 0.0858,0.61902 0.11053,1.22755 0.11091,2.72945 6.1e-4,2.38044 -0.0928,3.6007 -0.40196,5.25 -0.54265,2.89503 -1.49393,5.71289 -2.85938,8.47 -0.87794,1.77275 -1.89156,3.48775 -2.79016,4.72084 -0.12392,0.17004 -0.55045,0.72766 -0.94786,1.23916 -1.42419,1.83308 -1.58283,2.05894 -2.64088,3.76 -1.15022,1.84925 -2.14073,3.15343 -3.58857,4.725 l -0.12437,0.135 3.55677,3.5e-4 c 2.18877,2.1e-4 3.62859,0.008 3.7435,0.02 0.54283,0.0572 1.01119,0.28275 1.40595,0.67714 0.39499,0.39461 0.62048,0.86588 0.67539,1.41155 0.03,0.29766 0.0309,10.21939 9.9e-4,10.51078 -0.0429,0.41826 -0.19702,0.75974 -0.50857,1.12699 -0.0982,0.11575 -0.379,0.36704 -0.51081,0.45713 -0.0468,0.032 0.28975,0.034 5.77032,0.0342 l 5.82,2.5e-4 z m -15.03834,-15.08439 c -0.0747,-0.0806 -0.0809,-0.13911 -0.0306,-0.28617 0.25102,-0.73363 1.06977,-1.81973 1.60379,-2.12751 0.0917,-0.0528 0.20545,-0.0698 0.22762,-0.0339 0.0181,0.0292 -0.0633,0.25421 -0.15235,0.42101 -0.27848,0.52186 -1.45862,2.08 -1.5754,2.08 -0.0129,0 -0.0458,-0.024 -0.0731,-0.0534 z m 10.39796,-18.29839 c -0.0206,-0.0537 0.009,-0.34949 0.0524,-0.51556 0.0917,-0.35462 0.40908,-1.04854 0.6358,-1.39011 0.10588,-0.15951 0.30628,-0.3825 0.34375,-0.3825 0.0424,0 0.0651,0.19466 0.0412,0.3525 -0.0916,0.60419 -0.48597,1.4313 -0.86901,1.8225 -0.14524,0.14833 -0.18263,0.16907 -0.20409,0.11317 z m 0.39418,-5.94686 c -0.0721,-0.13468 0.0534,-0.6258 0.31458,-1.23131 0.33802,-0.78361 0.70555,-1.49 0.77523,-1.49 0.0124,0 0.0434,0.0222 0.0688,0.0493 0.099,0.10537 0.0518,0.33755 -0.21348,1.05069 -0.25286,0.67972 -0.52255,1.22924 -0.63873,1.30151 -0.0383,0.0238 -0.0878,0.0878 -0.12658,0.1638 -0.0979,0.19167 -0.14085,0.22889 -0.17986,0.156 z m -8.11457,38.58886 c 0.34928,-0.091 0.63274,-0.37357 0.72324,-0.721 0.0271,-0.10411 0.0306,-0.71194 0.0306,-5.30917 0,-4.59723 -0.004,-5.20506 -0.0306,-5.30917 -0.0908,-0.34854 -0.37167,-0.62942 -0.72021,-0.72021 -0.1051,-0.0274 -1.80642,-0.0306 -16.03837,-0.0304 -13.73576,2e-4 -15.93553,0.004 -16.02817,0.0288 -0.33901,0.0902 -0.60214,0.34248 -0.70784,0.67855 l -0.0448,0.1424 v 5.21 5.21 l 0.0444,0.14 c 0.10693,0.337 0.36857,0.58698 0.71087,0.67917 0.0897,0.0242 2.3913,0.0284 16.02551,0.0295 14.05064,0.001 15.93425,-0.002 16.03534,-0.0285 z m -58.41386,-0.28936 c 0.54134,-0.12979 0.96156,-0.51404 1.15509,-1.05622 0.0602,-0.16862 0.0623,-0.18588 0.0623,-0.50459 0,-0.31871 -0.002,-0.33597 -0.0623,-0.50459 -0.15556,-0.43581 -0.47634,-0.78891 -0.87814,-0.9666 -0.38561,-0.17053 -0.91105,-0.17133 -1.29404,-0.002 -0.46387,0.20514 -0.82317,0.64359 -0.92635,1.13039 -0.0337,0.15901 -0.0372,0.48961 -0.007,0.65408 0.11048,0.601 0.62369,1.12786 1.22637,1.25899 0.18822,0.0409 0.53249,0.0364 0.72409,-0.01 z m 71.93905,0.0174 c 0.60571,-0.11134 1.1307,-0.62617 1.25984,-1.23543 0.0155,-0.073 0.0281,-0.22725 0.0281,-0.34275 0,-0.35233 -0.0895,-0.64635 -0.27808,-0.91382 -0.3122,-0.44275 -0.78057,-0.6859 -1.32123,-0.6859 -0.75479,0 -1.38543,0.49594 -1.56081,1.22745 -0.0764,0.31847 -0.0405,0.72729 0.0896,1.0215 0.20086,0.45416 0.63918,0.81466 1.11835,0.9198 0.15229,0.0334 0.50571,0.0383 0.66417,0.009 z m -47.65133,-9.23466 c 0,-1.87968 0.002,-1.92696 0.11072,-2.24563 l 0.047,-0.13814 -0.13633,-0.22488 c -0.075,-0.12368 -0.23039,-0.39411 -0.34535,-0.60096 -0.22549,-0.40569 -0.28218,-0.48465 -0.36247,-0.50481 -0.12558,-0.0315 -0.3944,0.12673 -1.86196,1.09604 -1.52736,1.00882 -2.12576,1.3891 -2.8216,1.79311 -0.176,0.10218 -0.37913,0.22032 -0.4514,0.26253 -0.16194,0.0946 -0.2986,0.22731 -0.2986,0.29004 0,0.1151 0.16284,0.21972 0.7,0.44973 1.17163,0.50168 2.4495,0.91246 3.82881,1.23079 0.43819,0.10113 1.50063,0.32438 1.55619,0.32701 0.0331,0.002 0.035,-0.0937 0.035,-1.73483 z m -7.02181,-1.02634 c 1.10333,-0.41738 1.99611,-0.92839 3.79819,-2.174 0.31549,-0.21807 0.71312,-0.4893 0.88362,-0.60272 0.39092,-0.26005 0.83125,-0.5885 0.87168,-0.65021 0.0279,-0.0426 0.0279,-0.0531 -5.4e-4,-0.10805 -0.0406,-0.0784 -0.192,-0.15059 -0.74114,-0.35312 -2.00373,-0.73904 -3.0972,-1.29568 -5.46,-2.77952 -0.4957,-0.31131 -0.62,-0.37499 -0.71398,-0.36586 -0.11116,0.0108 -0.20679,0.20212 -0.27126,0.5427 -0.0508,0.26823 -0.0497,1.95146 0.002,2.4236 0.14852,1.36809 0.47834,2.59686 1.02267,3.81 0.11935,0.26598 0.19365,0.36 0.28453,0.36 0.0291,0 0.17519,-0.0463 0.32468,-0.10282 z m -1.96269,-0.63726 c 0.0828,-0.0505 0.0956,-0.0867 0.11257,-0.31749 0.0133,-0.18131 0.0124,-0.18722 -0.0265,-0.17706 -0.0265,0.007 -0.0435,-7.4e-4 -0.0497,-0.0224 -0.005,-0.0181 -0.0497,-0.16795 -0.0988,-0.33295 -0.13601,-0.45704 -0.14574,-0.49503 -0.22041,-0.86 -0.19769,-0.96634 -0.25235,-1.71412 -0.25255,-3.455 l -1.3e-4,-1.135 -1.365,-5.6e-4 c -1.49148,-6.1e-4 -2.29972,-0.0198 -2.96107,-0.0703 -0.42344,-0.0323 -0.43123,-0.0322 -0.52047,0.007 -0.16027,0.0709 -0.1641,0.20126 -0.0158,0.53822 0.3384,0.76898 1.09816,2.08709 1.49015,2.58527 0.33926,0.43115 1.09561,1.21608 1.62221,1.68351 0.97242,0.86316 1.9686,1.5968 2.16782,1.59651 0.0287,-4e-5 0.0817,-0.018 0.11768,-0.04 z m 9.78311,-1.64868 c 0.28821,-0.25597 0.69431,-0.45292 1.097,-0.53201 0.0691,-0.0136 0.12299,-0.0273 0.11978,-0.0305 -0.0107,-0.0107 -0.80239,-0.11116 -1.02539,-0.1301 -0.43983,-0.0374 -0.59921,0.0126 -0.62373,0.19536 -0.009,0.0683 -8.6e-4,0.10197 0.0442,0.18 0.0627,0.10846 0.26804,0.40602 0.2802,0.40602 0.004,0 0.0529,-0.0399 0.1079,-0.0888 z m 14.01248,-0.75624 c 0.0754,-0.22882 0.22071,-0.59009 0.38009,-0.945 0.25267,-0.56263 0.38763,-0.87787 0.37937,-0.88612 -0.005,-0.005 -0.10423,0.0385 -0.22156,0.0957 -1.11126,0.54138 -3.1875,1.33202 -4.56899,1.7399 -0.1925,0.0568 -0.386,0.11549 -0.43,0.13036 -0.0682,0.023 0.25143,0.0272 2.16336,0.0286 l 2.24336,0.002 z m 4.3362,0.12 c -0.22949,-0.26021 -0.33556,-0.38938 -0.53787,-0.655 -0.12986,-0.1705 -0.35011,-0.4495 -0.48944,-0.62 -0.13934,-0.1705 -0.36329,-0.472 -0.49769,-0.67 -0.13439,-0.198 -0.25255,-0.36289 -0.26258,-0.36642 -0.01,-0.004 -0.0232,0.019 -0.0293,0.05 -0.006,0.031 -0.0206,0.0924 -0.0322,0.13642 -0.0116,0.044 -0.0283,0.13016 -0.0371,0.19146 -0.009,0.0613 -0.0251,0.12881 -0.0364,0.15 -0.0113,0.0212 -0.0808,0.2047 -0.15448,0.40779 -0.13836,0.38136 -0.35004,0.88047 -0.50274,1.18535 -0.0481,0.096 -0.0874,0.18828 -0.0874,0.205 0,0.0269 0.15582,0.0304 1.35349,0.0304 h 1.35349 z m 3.28574,-0.145 c 0.0634,-0.47163 0.0923,-0.90313 0.0926,-1.38 5.4e-4,-0.83714 -0.0904,-2.03516 -0.20744,-2.73296 -0.0917,-0.54704 -0.287,-1.28876 -0.40841,-1.55155 -0.0687,-0.1487 -0.0689,-0.14888 -0.13431,-0.13483 -0.036,0.008 -0.0808,0.0221 -0.0996,0.0319 -0.0595,0.0312 -0.29289,0.21504 -0.74592,0.5877 -1.05873,0.87092 -1.58203,1.2705 -2.2,1.6799 -0.35226,0.23337 -0.83221,0.51621 -1.055,0.62171 -0.0412,0.0195 -0.0748,0.0406 -0.0746,0.0468 2.4e-4,0.006 0.0356,0.0362 0.0785,0.0665 0.23967,0.16951 0.61429,0.70599 1.42089,2.03478 0.19029,0.3135 0.39971,0.64881 0.46537,0.74514 l 0.11937,0.17514 1.36215,-0.005 1.36214,-0.005 z m 2.66131,-0.055 c 0.57091,-0.58113 1.50398,-1.69528 2.21082,-2.63985 0.72032,-0.9626 1.65453,-2.38384 2.02245,-3.07684 0.12019,-0.22638 0.13729,-0.31215 0.0831,-0.41692 -0.10493,-0.20292 -0.41186,-0.27592 -1.24072,-0.29507 -1.0693,-0.0247 -2.84877,0.0664 -4.2,0.21515 -0.89251,0.0982 -1.01675,0.12668 -1.10194,0.25238 -0.0605,0.0892 -0.0503,0.43485 0.0205,0.69615 0.20595,0.76026 0.29087,1.23649 0.37271,2.09 0.0514,0.5361 0.0422,2.74118 -0.0138,3.305 l -0.0114,0.115 h 0.80878 0.80878 z m -15.93751,-0.28368 c 0.42738,-0.0542 0.37261,-0.0374 1.70317,-0.52144 1.60017,-0.58209 3.00141,-1.12983 4.31,-1.68477 0.67506,-0.28627 1.3813,-0.69233 2.3972,-1.37829 1.31945,-0.89093 2.45817,-1.83137 3.52332,-2.90981 1.25562,-1.2713 2.37095,-2.66318 3.51537,-4.38701 0.62947,-0.94817 0.93816,-1.5039 1.02204,-1.84 0.0782,-0.31334 0.0989,-0.51008 0.0977,-0.93 -0.002,-0.56632 -0.0675,-1.13015 -0.21853,-1.87 -0.35843,-1.7552 -1.01176,-3.35847 -1.95634,-4.8008 -1.23669,-1.88837 -2.99995,-3.48858 -5.0141,-4.55044 -0.89962,-0.47429 -1.70583,-0.78238 -2.68666,-1.02673 -0.44762,-0.11151 -0.46971,-0.10576 -0.13,0.0338 1.84377,0.75761 3.3737,1.86347 4.64424,3.35692 1.74957,2.05652 2.76364,4.74628 2.78288,7.38139 0.003,0.3659 0.01,0.42921 0.0429,0.37583 0.007,-0.011 0.021,-0.02 0.0315,-0.02 0.0105,0 -0.002,0.0427 -0.0285,0.095 -0.0414,0.0826 -0.0507,0.14329 -0.071,0.465 -0.13183,2.08842 -0.77845,4.03713 -1.91128,5.76 -1.73786,2.64304 -4.44379,4.47796 -7.53368,5.10863 -0.46651,0.0952 -1.0884,0.17877 -1.50709,0.20248 -0.121,0.007 -0.31072,0.0336 -0.4216,0.0595 -0.54513,0.12713 -0.83889,0.14826 -2.0684,0.14873 -1.62784,6.2e-4 -2.10664,-0.0489 -2.98694,-0.30872 -2.01107,-0.59365 -3.75351,-1.58378 -5.11756,-2.90805 -1.76457,-1.71309 -2.88597,-4.01439 -3.1394,-6.44253 -0.0353,-0.33777 -0.0352,-2.17713 1e-4,-2.58 0.0557,-0.63633 0.11903,-1.02898 0.24341,-1.51 0.40742,-1.57553 1.10937,-3.20825 1.8659,-4.34 0.53219,-0.79616 1.06124,-1.43806 1.76396,-2.14026 0.58213,-0.58169 1.20065,-1.10784 1.89465,-1.61169 1.29474,-0.94 2.83083,-1.66006 4.66588,-2.18721 0.99647,-0.28625 1.55487,-0.38343 2.73,-0.4751 0.44827,-0.035 2.36306,-0.0348 2.68,1.8e-4 1.74623,0.19295 3.47324,0.73008 5.00982,1.55814 2.30465,1.24198 4.15549,3.00219 5.48447,5.21594 0.8402,1.39956 1.4364,2.85958 1.84549,4.51939 0.2246,0.91127 0.25598,0.99061 0.39179,0.99061 0.13697,0 0.25752,-0.15874 0.50881,-0.67 0.77666,-1.58019 1.61644,-4.04502 1.95905,-5.75 0.33176,-1.65101 0.56019,-3.87744 0.56019,-5.46 0,-1.15192 -0.11214,-2.53591 -0.3016,-3.72212 l -0.0243,-0.15212 -0.13186,-0.0239 c -0.47796,-0.0867 -0.89174,-0.30608 -1.2436,-0.65934 -0.27624,-0.27735 -0.44837,-0.55215 -0.56611,-0.9038 -0.1128,-0.33688 -0.11216,-0.32187 -0.11216,-2.61389 v -2.10995 l -0.19284,-0.36243 c -0.48558,-0.91257 -0.9804,-1.69858 -1.59428,-2.53243 -0.22335,-0.30339 -1.00681,-1.20117 -1.22039,-1.39849 l -0.0525,-0.0485 v 4.23204 c 0,2.90267 -0.007,4.28047 -0.0214,4.38624 -0.0701,0.50419 -0.33324,1.02348 -0.70866,1.39869 -0.26073,0.26057 -0.53043,0.42982 -0.86403,0.54221 -0.32877,0.11076 -0.15213,0.10634 -4.27669,0.10709 l -3.82082,7e-4 -0.21918,0.17152 c -1.51543,1.18594 -3.66483,1.8537 -5.62759,1.74834 -1.79187,-0.0962 -3.33597,-0.70329 -4.54355,-1.78638 -1.04274,-0.93525 -1.72123,-2.31899 -1.87985,-3.83388 -0.0333,-0.31812 -0.0133,-0.90307 0.0417,-1.21703 0.19407,-1.10856 0.77956,-2.2003 1.55223,-2.8944 0.18869,-0.16949 0.49767,-0.41229 0.64301,-0.50526 l 0.10487,-0.0671 v -2.51792 c 0,-1.38661 -0.008,-2.51791 -0.0172,-2.51791 -0.0372,0 -0.68018,0.22613 -0.91935,0.32332 -1.43901,0.58477 -2.63935,1.38342 -3.72147,2.47609 -0.78069,0.78831 -1.41071,1.65827 -1.87963,2.59547 -0.63626,1.27164 -1.02521,2.42976 -1.18054,3.51512 -0.089,0.62177 -0.14532,1.7977 -0.19164,4 -0.0644,3.06489 -0.13314,3.81827 -0.4721,5.17851 -0.4298,1.72475 -0.98463,3.11023 -1.75462,4.38149 -0.42154,0.69598 -0.76844,1.14356 -1.48809,1.92 l -0.25952,0.28 -0.0685,0.26938 c -0.40515,1.59392 -1.73911,2.84909 -3.34742,3.14971 -0.1485,0.0278 -0.30188,0.0551 -0.34084,0.0608 -0.0889,0.013 -0.59377,0.44238 -1.00995,0.859 -0.34887,0.34925 -0.90656,0.97546 -1.10528,1.24109 -0.31295,0.41834 -0.88127,1.32275 -1.09666,1.7452 -0.13385,0.26252 -0.17752,0.44553 -0.17534,0.7348 0.002,0.24192 0.016,0.3105 0.12151,0.58719 0.19222,0.50418 0.70322,1.33926 1.16436,1.90281 0.57822,0.70665 1.38817,1.50569 2.2922,2.26134 1.88556,1.57608 3.8221,2.93915 5.36,3.77275 1.62878,0.88285 3.68776,1.67162 5.75,2.20275 1.46689,0.3778 4.35616,0.77044 6.49,0.88196 0.51271,0.0268 1.72871,0.0103 2.02683,-0.0275 z m -14.73653,-6.9509 c -0.0815,-0.1145 -0.15621,-0.31198 -0.19303,-0.51042 -0.0324,-0.17443 -0.0369,-0.29973 -0.0351,-0.98 0.002,-0.78342 0.0152,-0.97711 0.0799,-1.175 0.0171,-0.0522 0.0333,-0.095 0.0359,-0.095 0.003,0 0.0457,0.0139 0.0956,0.0309 l 0.0907,0.0309 0.0128,0.13407 c 0.0501,0.52416 0.0667,2.4024 0.0227,2.56908 -0.0188,0.0713 -0.0566,0.0697 -0.10957,-0.005 z m -4.92816,-3.75206 c -0.0352,-0.0919 0.006,-0.42784 0.0866,-0.70552 0.17998,-0.62009 0.5207,-1.32163 0.74804,-1.54023 l 0.0701,-0.0674 0.0142,0.0949 c 0.0297,0.19773 -0.0378,0.555 -0.19446,1.02991 -0.16946,0.51375 -0.40077,0.97023 -0.59539,1.175 -0.0498,0.0524 -0.11165,0.0588 -0.12907,0.0134 z m 4.13068,-3.73932 c -0.0244,-0.031 -0.0428,-0.0833 -0.0428,-0.12128 0,-0.15183 0.18166,-0.52664 0.43512,-0.89776 0.27969,-0.40955 0.75332,-0.99733 0.9778,-1.21347 0.11657,-0.11225 0.3062,-0.23944 0.33262,-0.22311 0.0419,0.0259 9.1e-4,0.22355 -0.0822,0.39666 -0.29705,0.61906 -0.88657,1.4321 -1.41874,1.95665 l -0.15901,0.15674 z m 5.83718,-11.34516 c 0,-0.14709 0.2165,-0.61327 0.43834,-0.94388 0.25304,-0.37709 0.70129,-0.94339 0.9011,-1.13839 0.12371,-0.12074 0.25618,-0.20167 0.32948,-0.2013 0.11993,6e-4 0.12186,0.019 0.0226,0.21673 -0.12208,0.24307 -0.21365,0.39119 -0.47786,0.77296 -0.48626,0.70261 -0.79532,1.07767 -1.03887,1.26076 -0.13926,0.10468 -0.17476,0.11141 -0.17476,0.0331 z m 24.4274,-1.67127 c -0.12545,-0.0574 -0.10482,-0.10197 0.1126,-0.24303 0.43425,-0.28173 1.17803,-0.45269 1.98,-0.45511 0.36729,-0.001 0.53914,0.0231 0.695,0.098 0.0827,0.0397 0.105,0.0605 0.105,0.0975 0,0.0652 -0.11064,0.10323 -0.63,0.21656 -1.14112,0.24901 -2.08326,0.36811 -2.2626,0.28602 z m -12.0774,23.02661 c 1.24873,-0.0741 2.31143,-0.30588 3.3934,-0.74018 0.31188,-0.12518 0.98663,-0.44772 1.25403,-0.59943 0.0811,-0.046 0.14024,-0.072 0.13146,-0.0578 -0.0175,0.0284 0.0269,0.003 0.37822,-0.21821 1.1072,-0.69635 2.12168,-1.65498 2.90121,-2.74152 0.88289,-1.2306 1.51308,-2.69972 1.78151,-4.15306 0.0561,-0.30393 0.0606,-0.35782 0.028,-0.33769 -0.0143,0.009 -0.0184,3.8e-4 -0.0116,-0.0238 0.006,-0.0206 0.0215,-0.1185 0.035,-0.2175 0.0134,-0.099 0.0364,-0.18984 0.0511,-0.20186 0.045,-0.0368 0.069,-0.32967 0.0812,-0.98814 0.007,-0.40576 0.003,-0.74034 -0.0119,-0.94 -0.17065,-2.24871 -0.98292,-4.26186 -2.42089,-6 -0.25842,-0.31236 -0.99516,-1.05085 -1.30069,-1.30378 -1.74833,-1.44734 -3.78557,-2.27294 -6.01,-2.43559 -0.35948,-0.0263 -1.14008,-0.0263 -1.5,-3e-5 -2.21331,0.16152 -4.26113,0.98842 -5.99,2.41871 -0.3217,0.26615 -1.05453,0.99899 -1.32068,1.32069 -1.36197,1.64627 -2.13899,3.48068 -2.39321,5.65 -0.0443,0.37806 -0.051,1.72552 -0.0104,2.09 0.1494,1.34076 0.46278,2.45676 1.00279,3.57111 0.74004,1.52713 1.81167,2.82677 3.16893,3.84318 1.60963,1.20541 3.52573,1.92194 5.52257,2.0652 0.31604,0.0227 0.6923,0.0349 0.81,0.0262 0.0385,-0.003 0.232,-0.0148 0.43,-0.0265 z m -22.68,9e-5 c 0.95777,-0.0702 1.20423,-0.17408 1.00629,-0.424 -0.0715,-0.0902 -0.39968,-0.36753 -0.71629,-0.60514 -0.81972,-0.61522 -1.6034,-1.30294 -2.14463,-1.88205 -0.76306,-0.81647 -1.18561,-1.40865 -1.757,-2.46237 -0.15844,-0.29219 -0.21379,-0.37844 -0.23101,-0.36 -0.024,0.0257 -0.12589,0.40294 -0.19025,0.70425 -0.0987,0.46199 -0.14076,1.21343 -0.14449,2.58 -0.003,0.99721 0.0245,1.62722 0.0786,1.82247 0.0334,0.12062 0.14773,0.24606 0.2897,0.318 0.31695,0.16061 0.97028,0.26104 2.05907,0.31652 0.30516,0.0155 1.50496,0.0103 1.75,-0.008 z m 34.76,-2.37936 c 0.30062,-0.0323 1.11555,-0.0975 1.55,-0.12402 0.47127,-0.0288 2.75046,-0.0348 3.755,-0.01 l 0.645,0.016 -1.2e-4,-0.066 c -1.9e-4,-0.10635 -0.0961,-0.84106 -0.15081,-1.15564 -0.25108,-1.44289 -0.76599,-3.16558 -1.36951,-4.58177 -0.35994,-0.84464 -0.47957,-1.01801 -0.66954,-0.97033 -0.0662,0.0166 -0.10877,0.0866 -0.42055,0.69179 -0.3934,0.76358 -0.78053,1.40844 -1.41081,2.35 -0.76861,1.14821 -1.04032,1.52475 -1.78504,2.4737 -0.51769,0.65965 -0.82502,1.07966 -0.85377,1.16676 -0.0289,0.0876 -0.007,0.16441 0.0575,0.19931 0.063,0.0343 0.38222,0.0392 0.65268,0.0102 z m 7.03406,-0.70158 c 0.0873,-0.0411 1.00152,-1.23618 1.60525,-2.09837 0.3649,-0.52111 1.09098,-1.61198 1.32453,-1.99 0.63535,-1.02836 1.63635,-2.99902 1.97358,-3.88535 0.11138,-0.29274 0.11637,-0.36394 0.0315,-0.44884 -0.07,-0.07 0.004,-0.0702 -0.72889,0.002 -0.231,0.0229 -0.564,0.0558 -0.74,0.073 -0.63621,0.0623 -1.77489,0.28445 -2.76,0.53853 -1.22776,0.31666 -2.40126,0.71081 -2.74,0.9203 -0.30324,0.18753 -0.30898,0.2487 -0.0718,0.76567 0.0641,0.13983 0.19304,0.42073 0.28642,0.62423 0.64638,1.40866 1.16178,3.1285 1.51638,5.06 0.0482,0.26241 0.0997,0.38816 0.17597,0.4296 0.0651,0.0353 0.0699,0.0357 0.12708,0.009 z m 1.60474,-4.8864 c -0.0464,-0.0484 -0.11241,-0.14517 -0.1467,-0.215 -0.097,-0.19755 -0.15751,-0.55272 -0.10018,-0.58815 0.0421,-0.026 0.37894,0.34371 0.48976,0.53752 0.0654,0.11441 0.0651,0.23869 -7.7e-4,0.30457 -0.0752,0.0752 -0.14325,0.0642 -0.24211,-0.0389 z m -55.7888,-9.00197 v -7.51 h -1.7 -1.7 v 7.51 7.51 h 1.7 1.7 z m 52.67,5.81271 c 0.143,-0.0428 0.51012,-0.15554 0.81581,-0.25047 1.23523,-0.38359 2.00617,-0.57688 2.91419,-0.73066 0.54502,-0.0923 0.78606,-0.12228 1.54,-0.19153 0.3025,-0.0278 0.703,-0.069 0.89,-0.0916 0.30286,-0.0366 0.34539,-0.0464 0.38929,-0.0895 0.0403,-0.0396 0.0491,-0.0676 0.0485,-0.15365 -0.002,-0.23109 -0.41766,-1.1547 -0.82413,-1.83014 -0.66959,-1.11268 -1.6539,-2.23551 -2.94365,-3.3579 -0.61496,-0.53517 -1.00662,-0.80722 -1.1621,-0.80722 -0.0705,0 -0.15089,0.10308 -0.19601,0.25145 -0.0232,0.0762 -0.11433,0.51655 -0.20258,0.97855 -0.44569,2.33333 -0.64094,2.99711 -1.55067,5.27169 -0.19175,0.47942 -0.34864,0.89845 -0.34864,0.93117 0,0.18575 0.17734,0.20541 0.63,0.0699 z m 2.84396,-2.45159 c -0.1592,-0.0568 -0.37294,-0.25272 -0.48832,-0.44762 -0.044,-0.0744 -0.0472,-0.0905 -0.0231,-0.11466 0.0375,-0.0375 0.30456,-0.008 0.45797,0.0501 0.14861,0.0566 0.29644,0.16903 0.33103,0.2518 0.0443,0.10594 0.0371,0.22093 -0.016,0.25817 -0.054,0.0378 -0.15928,0.0387 -0.26159,0.002 z m -42.81396,0.54207 c 0.38644,-0.0913 0.67159,-0.21506 0.99107,-0.43015 0.85198,-0.5736 1.42983,-1.59424 1.42846,-2.52304 -0.002,-1.32774 -0.779,-2.41115 -2.02937,-2.82949 -0.35146,-0.11759 -0.63465,-0.15674 -1.05016,-0.14518 -0.52638,0.0146 -0.91526,0.10456 -1.35056,0.31227 -0.80606,0.38463 -1.32586,1.05993 -1.50892,1.96032 -0.12023,0.59134 -0.0918,1.18651 0.0819,1.71208 0.32826,0.99358 1.26619,1.75941 2.42762,1.98219 0.22471,0.0431 0.74804,0.0229 1.01,-0.039 z m 47.47505,-0.61854 c 0.0549,-0.0528 0.0867,-0.12848 0.20369,-0.48362 0.34835,-1.05778 0.60055,-2.03178 0.90914,-3.51103 0.25207,-1.20834 0.33698,-1.77956 0.42216,-2.84 0.0444,-0.55297 0.0618,-1.386 0.0312,-1.4973 -0.034,-0.12357 -0.0992,-0.1827 -0.20177,-0.1827 -0.19844,0 -0.401,0.0968 -2.46419,1.17708 -1.37483,0.71989 -2.5183,1.30807 -2.99005,1.53803 -0.46443,0.22639 -0.48969,0.25244 -0.4025,0.41519 0.0866,0.16156 0.24078,0.3341 0.86695,0.96993 0.88566,0.89932 1.26781,1.31599 1.73321,1.88977 0.61166,0.7541 1.12045,1.52746 1.45394,2.21 0.0779,0.1595 0.15328,0.30415 0.16745,0.32145 0.077,0.094 0.16842,0.0917 0.2708,-0.007 z m -50.57342,-5.79851 c 0.38031,-0.26951 0.7499,-0.45539 1.20338,-0.60522 l 0.25501,-0.0843 -0.0827,-0.11833 c -0.28756,-0.41152 -0.77365,-0.87979 -1.19734,-1.15347 -0.42075,-0.27177 -1.42688,-0.61045 -2.54,-0.85498 -0.2035,-0.0447 -0.586,-0.13002 -0.85,-0.18959 -0.52303,-0.11801 -1.00058,-0.21029 -1.08823,-0.21029 -0.0306,0 -0.0717,0.0178 -0.0914,0.0396 -0.0725,0.0802 -0.004,0.30729 0.30349,1.00037 0.25423,0.5737 0.4463,0.93298 0.71639,1.34 0.23964,0.36115 0.47045,0.65217 0.73268,0.92381 0.31292,0.32415 0.45181,0.36422 1.37667,0.39722 0.31374,0.0112 0.58843,0.0224 0.61043,0.0248 0.026,0.003 0.11566,-0.0632 0.25682,-0.18955 0.11925,-0.1067 0.29692,-0.25076 0.39481,-0.32014 z m 4.48874,-0.77008 c 0.0196,-0.57435 7e-5,-1.45634 -0.0361,-1.63073 -0.0366,-0.17658 -0.18146,-0.69482 -0.1943,-0.69504 -0.0188,-3.2e-4 -0.29679,0.72938 -0.36941,0.96971 -0.0815,0.26962 -0.35046,1.34061 -0.35054,1.39563 -2e-5,0.0196 0.0112,0.0389 0.0249,0.0429 0.25736,0.0753 0.53392,0.17667 0.68952,0.25266 0.10752,0.0525 0.20124,0.0962 0.20827,0.0971 0.007,9.1e-4 0.0194,-0.19362 0.0276,-0.43229 z m 40.61349,0.24253 c 0.50327,-0.0926 1.02384,-0.29641 1.99614,-0.78159 1.18468,-0.59115 2.53547,-1.32409 3.44,-1.86655 0.61008,-0.36588 0.72403,-0.43898 0.71621,-0.45951 -0.011,-0.0289 -0.69965,-0.64596 -0.90621,-0.81205 -1.08218,-0.87017 -2.44203,-1.55786 -4.26295,-2.15581 -0.67883,-0.22291 -1.11726,-0.30054 -1.26522,-0.22402 -0.0506,0.0262 -0.072,0.0608 -0.11018,0.17817 -0.007,0.0205 0.001,0.11498 0.0172,0.21 0.0494,0.29173 0.0712,1.44163 0.0712,3.76093 0,1.21101 0.005,2.20184 0.0122,2.20184 0.007,0 0.13796,-0.0231 0.29164,-0.0514 z m -42.20731,-0.35359 c 0.012,-0.0467 0.0543,-0.247 0.0942,-0.445 0.1278,-0.63504 0.35939,-1.49789 0.66565,-2.48 l 0.11849,-0.38 -0.14994,-0.29 c -0.20627,-0.39893 -0.32431,-0.59136 -0.52754,-0.86 -0.32092,-0.4242 -0.78954,-0.89711 -1.44346,-1.45666 -0.47287,-0.40464 -0.62858,-0.47677 -0.74094,-0.34325 -0.0283,0.0337 -0.0577,0.10184 -0.0668,0.155 -0.0371,0.21701 -0.004,1.94922 0.0549,2.83491 0.0484,0.73394 0.14249,1.13508 0.36352,1.55 0.16438,0.30856 0.43905,0.75683 0.78813,1.28623 l 0.3272,0.49623 0.085,-0.0112 c 0.0468,-0.006 0.13453,-0.003 0.19503,0.006 0.20916,0.0332 0.21226,0.0324 0.23655,-0.0625 z m -3.44011,-2.24177 c 0.0717,-0.0649 0.0717,-0.12686 6e-5,-0.24014 -0.084,-0.1328 -0.38586,-0.55066 -0.78961,-1.09309 -1.10551,-1.48522 -1.91087,-2.71503 -2.52478,-3.85541 -0.34748,-0.64546 -0.53428,-0.90459 -0.65206,-0.90459 -0.0677,0 -0.14124,0.0752 -0.16852,0.17245 -0.0663,0.2364 -0.13361,1.04669 -0.16319,1.96547 -0.0242,0.751 0.005,2.6337 0.042,2.7027 0.0384,0.0718 0.35313,0.30237 0.53302,0.39048 0.27597,0.13518 0.58791,0.23005 1.57664,0.47949 1.64577,0.4152 2.03399,0.4844 2.14644,0.38264 z m 0.6921,-0.97995 c 0.0461,-0.0461 0.0469,-0.0544 0.0621,-0.645 0.0245,-0.95331 -0.0374,-2.84026 -0.1004,-3.05828 -0.0404,-0.1399 -0.0668,-0.17078 -0.29101,-0.34057 -0.42355,-0.32076 -0.87524,-0.59726 -1.95925,-1.19935 -0.3025,-0.16802 -0.631,-0.35247 -0.73,-0.4099 -0.24904,-0.14445 -0.37566,-0.20645 -0.54821,-0.26841 -0.20393,-0.0732 -0.27515,-0.0735 -0.33726,-10e-4 -0.062,0.0721 -0.0544,0.16222 0.0369,0.43755 0.17494,0.52758 1.05595,2.13097 1.70338,3.10006 0.60868,0.91109 1.45897,1.96904 1.86074,2.31517 0.15395,0.13264 0.22418,0.14887 0.30302,0.07 z m 51.97471,-0.32597 c 0.0801,-0.18101 0.087,-0.89027 0.0158,-1.62731 -0.0303,-0.31388 -0.10133,-0.88745 -0.11205,-0.9048 -0.0122,-0.0198 -4.20722,-0.0199 -4.20646,-2e-4 3.2e-4,0.008 0.11057,0.0639 0.245,0.12376 0.3771,0.16779 1.18716,0.57809 1.56442,0.79239 0.61098,0.34705 1.06183,0.66837 1.56738,1.11705 0.3882,0.34453 0.6102,0.52964 0.67262,0.56087 0.033,0.0165 0.0943,0.0302 0.13613,0.0305 0.0715,4.3e-4 0.0786,-0.005 0.11712,-0.0922 z m -28.29325,-1.98792 c 0.48363,-0.0407 0.88403,-0.11163 1.2587,-0.22294 0.25901,-0.0769 0.8313,-0.29665 0.8313,-0.31914 0,-0.01 -1.14803,-0.0173 -2.59779,-0.0173 -2.78275,0 -2.73721,10e-4 -3.03022,-0.0993 -0.18964,-0.0652 -0.12456,-0.0133 0.14301,0.1141 0.73631,0.35064 1.20428,0.46517 2.255,0.55189 0.1919,0.0158 0.92061,0.0112 1.14,-0.007 z m -4.75706,-1.53755 c -0.11014,-0.14961 -0.26203,-0.44277 -0.32437,-0.62606 -0.11058,-0.32512 -0.10857,-0.27466 -0.10857,-2.71799 0,-1.24178 -0.007,-2.25779 -0.0156,-2.25779 -0.0184,0 -0.22324,0.24281 -0.33747,0.4 -0.30651,0.42182 -0.50175,0.91959 -0.60009,1.53 -0.0433,0.26872 -0.0491,0.91273 -0.0105,1.17731 0.0142,0.0975 0.0575,0.28202 0.0962,0.41 0.18621,0.61525 0.44343,1.12447 0.8137,1.61087 0.12743,0.1674 0.52641,0.59182 0.55635,0.59182 0.01,0 -0.0218,-0.0532 -0.0696,-0.11816 z m 17.21405,-0.43816 c 0.36467,-0.1787 0.60354,-0.45368 0.64798,-0.74595 0.0251,-0.16518 -0.0263,-14.72731 -0.0524,-14.83967 -0.0778,-0.335 -0.33162,-0.63803 -0.63806,-0.76181 l -0.1145,-0.0462 -7.63633,-0.005 c -8.40723,-0.006 -7.75556,-0.0152 -8.01748,0.11705 -0.24929,0.12585 -0.46271,0.4137 -0.51588,0.69581 -0.0135,0.0717 -0.0203,2.56947 -0.0203,7.4608 0,6.5384 0.003,7.36627 0.0306,7.47227 0.0932,0.36282 0.3838,0.65517 0.73632,0.74086 0.0817,0.0199 1.68036,0.0244 7.73304,0.0217 l 7.63,-0.003 z m 22.57895,0.0865 c 0.38577,-0.10048 0.68317,-0.41619 0.75255,-0.79889 0.0303,-0.16741 0.0303,-14.69525 0,-14.86266 -0.0514,-0.28346 -0.25931,-0.56892 -0.51281,-0.70403 -0.25186,-0.13424 0.40333,-0.12405 -7.97568,-0.12405 -8.38367,0 -7.72288,-0.0104 -7.97787,0.12491 -0.25366,0.13454 -0.45872,0.41694 -0.51061,0.70317 -0.0151,0.0833 -0.0214,2.30108 -0.0212,7.44 3.8e-4,7.93448 -0.006,7.46278 0.10653,7.68517 0.13518,0.26675 0.42472,0.48916 0.70735,0.54333 0.057,0.0109 3.1804,0.0193 7.70657,0.0206 6.68076,0.002 7.62477,-0.001 7.72514,-0.0275 z m -17.54594,-10.59327 v -2.86305 l -0.22986,0.0131 c -0.72704,0.0415 -1.58724,0.22041 -2.49763,0.51939 l -0.32251,0.10591 -0.005,0.8737 -0.005,0.8737 0.22293,0.21513 c 0.245,0.23644 1.08362,1.12833 1.49163,1.5864 0.35222,0.39543 0.64379,0.74818 0.92647,1.12084 0.23484,0.30961 0.33614,0.4179 0.39093,0.4179 0.0245,0 0.0285,-0.40005 0.0285,-2.86305 z m -40.73368,-0.67991 c 0.11148,-0.0586 0.58736,-0.50772 1.55368,-1.4663 2.26074,-2.24263 2.71274,-2.67017 3.45,-3.26331 0.35275,-0.28378 1.27476,-0.94732 1.36425,-0.98179 0.0133,-0.005 0.0747,-0.10465 0.13635,-0.22114 0.65835,-1.24389 1.84719,-2.09569 3.1994,-2.29238 0.60756,-0.0884 1.13444,-0.0497 1.75815,0.12917 l 0.21815,0.0625 0.25185,-0.0414 c 0.35877,-0.0589 0.54433,-0.0788 0.94185,-0.10097 1.63535,-0.0911 3.0389,0.0121 4.38,0.32204 0.55154,0.12746 1.17674,0.31412 2.16903,0.64761 0.50546,0.16987 0.95096,0.30883 0.99,0.30878 0.039,-4e-5 0.098,-0.0165 0.13097,-0.0367 0.094,-0.0574 0.35377,-0.28242 0.67,-0.58053 0.5462,-0.51488 0.81065,-0.73064 1.43,-1.16668 0.88883,-0.62577 1.66836,-1.03362 2.53855,-1.32818 0.72771,-0.24633 1.35868,-0.405 2.06003,-0.51802 0.57944,-0.0934 0.677,-0.11893 0.76273,-0.19978 0.11533,-0.10877 0.0861,-0.21112 -0.085,-0.29753 -0.19376,-0.0979 -5.30003,-0.57348 -7.26636,-0.67679 -0.67071,-0.0352 -3.48217,-0.0348 -3.95,5.8e-4 -3.07346,0.2326 -6.29743,1.44536 -9.55,3.59242 -0.81491,0.53794 -1.24061,0.84753 -1.98,1.43997 -0.76677,0.61437 -1.32622,1.11681 -2.07184,1.86073 -1.42119,1.41793 -2.17527,2.40331 -2.92372,3.82056 -0.3438,0.65102 -0.42306,0.86045 -0.366,0.96707 0.026,0.0485 0.11551,0.058 0.18788,0.02 z m 10.79368,-0.98766 c 1.30354,-0.20893 2.2515,-1.13363 2.48232,-2.42141 0.0558,-0.31158 0.062,-0.88804 0.0124,-1.15797 -0.0811,-0.44132 -0.2609,-0.87271 -0.49631,-1.19081 -0.41983,-0.5673 -1.08193,-0.9775 -1.84548,-1.14335 -0.17258,-0.0375 -0.26582,-0.0442 -0.62296,-0.0445 -0.36015,-3.8e-4 -0.44759,0.006 -0.61365,0.0432 -1.37138,0.30888 -2.31862,1.42135 -2.38882,2.80551 -0.078,1.53696 1.03979,2.89463 2.5672,3.11825 0.1975,0.0289 0.7003,0.024 0.90527,-0.009 z m 27.39,-1.61715 c 0.88372,-0.21982 1.70266,-0.38627 2.285,-0.46441 l 0.265,-0.0356 v -0.65351 c 0,-0.71948 0.0143,-0.86096 0.11882,-1.17185 0.0325,-0.0967 0.0523,-0.18058 0.044,-0.18637 -0.008,-0.006 -0.13159,-0.10125 -0.27395,-0.21214 -0.14237,-0.11088 -0.34885,-0.26477 -0.45885,-0.34197 -1.64572,-1.15497 -1.93411,-1.34759 -2.51082,-1.67701 -0.76056,-0.43443 -0.99635,-0.52938 -1.08775,-0.43798 -0.0242,0.0242 -0.0315,0.076 -0.0318,0.225 -5.2e-4,0.28618 0.0455,1.38012 0.0589,1.39809 0.006,0.009 0.0814,0.0683 0.16678,0.13283 0.4688,0.35424 0.7975,0.90671 0.88506,1.48762 0.0226,0.15028 0.0294,0.40988 0.0295,1.13138 1.1e-4,0.8824 0.002,0.93574 0.0351,0.92584 0.0192,-0.006 0.233,-0.0598 0.475,-0.11996 z m 3.81531,-3.65025 c 0.0576,-0.0319 0.16319,-0.0784 0.23469,-0.10324 0.0715,-0.0249 0.13765,-0.0519 0.14699,-0.06 0.0158,-0.0137 -0.0571,-0.38981 -0.17616,-0.90878 -0.0711,-0.30984 -0.12554,-0.62347 -0.15281,-0.88 -0.0287,-0.26977 -0.0122,-1.06216 0.0315,-1.52 0.15393,-1.61046 0.68629,-2.87943 1.68228,-4.01 0.66725,-0.7574 1.63154,-1.4615 2.80819,-2.05045 0.96211,-0.48157 1.47469,-0.67793 4.16,-1.59367 2.87262,-0.97962 4.81702,-1.61784 5.105,-1.67564 0.0632,-0.0127 0.115,-0.0269 0.115,-0.0317 0,-0.005 -2.62575,-0.008 -5.835,-0.007 l -5.835,10e-4 -0.24438,0.37392 c -0.39713,0.60762 -0.77634,1.07061 -1.38532,1.69136 -1.12543,1.14719 -2.39753,2.07901 -3.9103,2.86435 -1.62798,0.84515 -3.87022,1.64465 -5.57095,1.9864 -0.78601,0.15794 -0.93591,0.20346 -1.00772,0.30598 -0.0484,0.0691 -0.0392,0.15045 0.0237,0.20879 0.12573,0.11674 0.29909,0.19441 1.35994,0.60932 0.97967,0.38316 1.39462,0.56228 1.97285,0.85161 1.41606,0.70854 2.90536,1.5858 4.38221,2.58132 0.61671,0.41571 0.80907,0.55432 1.42,1.02324 0.286,0.21952 0.53139,0.39967 0.54531,0.40034 0.0139,6.6e-4 0.0724,-0.0249 0.13,-0.0568 z m -6.33433,-0.47924 c -0.0222,-0.37133 -0.0817,-0.84542 -0.11632,-0.92641 -0.019,-0.0445 -0.0572,-0.087 -0.0964,-0.10722 -0.057,-0.0295 -0.0829,-0.0306 -0.21347,-0.01 -0.29349,0.0474 -1.03968,0.29912 -1.61482,0.54487 -0.46138,0.19713 -1.37,0.66137 -1.37,0.69997 0,0.008 0.74475,0.0177 1.655,0.0206 0.91025,0.003 1.68091,0.007 1.71257,0.0101 l 0.0576,0.005 z m -7.71098,0.20149 c 0,-0.009 -0.022,-0.21792 -0.049,-0.465 -0.10572,-0.96953 -0.13911,-1.65134 -0.0915,-1.86923 0.0309,-0.14178 0.0426,-0.15583 0.1085,-0.13078 0.0301,0.0114 0.11605,0.0208 0.19112,0.0208 0.20089,0 0.20469,0.005 0.27882,0.4 0.0869,0.46268 0.18701,1.07141 0.2639,1.605 l 0.0656,0.455 h 0.81277 0.81278 l 0.15854,-0.11601 c 1.01852,-0.74525 2.13426,-1.37564 3.15854,-1.78457 0.57878,-0.23108 0.85447,-0.36049 0.89685,-0.42099 0.088,-0.1256 0.0124,-0.21037 -0.35839,-0.402 -0.29981,-0.15494 -0.58877,-0.27515 -0.96846,-0.4029 -0.46503,-0.15647 -0.97171,-0.20846 -2.21,-0.22677 -1.75915,-0.026 -2.8279,0.0617 -3.97,0.32577 -1.95868,0.45292 -3.35408,1.11933 -4.55206,2.17395 -0.31672,0.27883 -0.418,0.38999 -0.48292,0.53009 -0.0529,0.11404 -0.0513,0.19038 0.006,0.27738 l 0.0302,0.046 h 2.94953 c 1.62225,0 2.94954,-0.007 2.94954,-0.0158 z m 17.32434,-0.17923 c 0.0726,-0.10725 0.14991,-0.23122 0.1719,-0.27549 0.10163,-0.20461 0.10666,-0.53477 0.0152,-0.99951 -0.1187,-0.60331 -0.15195,-1.06139 -0.20033,-2.76 -0.0323,-1.13342 -0.0418,-1.37866 -0.073,-1.88 -0.0327,-0.52592 -0.0624,-0.63022 -0.18839,-0.66185 -0.19382,-0.0486 -0.69103,0.56234 -1.20607,1.48206 -0.64777,1.15673 -0.85229,2.60228 -0.57325,4.05164 0.0492,0.25547 0.278,1.18328 0.301,1.22049 0.006,0.01 0.37183,0.0177 0.81594,0.0177 h 0.80503 z m 6.66566,0.0113 c 0.121,-0.10079 0.32125,-0.28375 0.445,-0.40658 0.2165,-0.2149 0.225,-0.22656 0.225,-0.30853 0,-0.0695 -0.012,-0.0972 -0.0652,-0.1504 -0.071,-0.071 -0.23308,-0.11846 -0.61432,-0.17981 -0.64953,-0.10453 -1.88725,-0.0833 -2.91357,0.05 -0.94278,0.12246 -1.77671,0.36527 -2.12336,0.61823 -0.11057,0.0807 -0.38349,0.34123 -0.4872,0.46511 l -0.0801,0.0956 2.69686,-2.3e-4 2.69686,-2.3e-4 z m -5.58519,-1.44711 c 0.0785,-0.0519 0.15822,-0.15345 0.48111,-0.61252 0.10573,-0.15033 0.38448,-0.53283 0.61943,-0.85 0.74232,-1.00207 0.99294,-1.37389 1.05641,-1.56729 0.0233,-0.0712 0.10383,-0.28304 0.17884,-0.47084 0.075,-0.1878 0.15986,-0.4218 0.18855,-0.52 0.10868,-0.37194 0.40637,-2.73381 0.38724,-3.07235 -0.0135,-0.23968 -0.10056,-0.29898 -0.38316,-0.26114 -0.33746,0.0452 -0.74107,0.19978 -1.50323,0.57575 -0.54234,0.26753 -0.843,0.44669 -1.14,0.67929 -0.27438,0.2149 -0.24373,0.12063 -0.29966,0.92169 -0.0706,1.01104 -0.0902,1.55308 -0.0901,2.48822 7e-5,0.87266 0.0208,1.47868 0.0704,2.05876 0.0407,0.47579 0.0738,0.59957 0.17777,0.66438 0.0747,0.0466 0.14974,0.0366 0.2564,-0.034 z m 1.62519,0.0115 c 0.121,-0.0214 0.328,-0.0611 0.46,-0.0881 0.95062,-0.19481 1.62867,-0.27229 2.38,-0.27195 0.5034,2.2e-4 0.76222,0.0211 1.58916,0.12824 0.66845,0.0866 0.75787,0.0886 0.89466,0.0205 0.12983,-0.0647 0.16571,-0.11752 0.4614,-0.67934 0.19659,-0.37353 0.41022,-0.82921 0.62705,-1.3375 0.28604,-0.67054 0.37773,-0.97548 0.37773,-1.25616 0,-0.13656 -0.002,-0.14345 -0.0757,-0.21677 -0.10322,-0.10322 -0.20107,-0.12718 -0.50428,-0.1235 -0.72568,0.009 -1.74439,0.10862 -2.41,0.23614 -0.62266,0.1193 -1.39076,0.35575 -1.78,0.54795 -0.31976,0.1579 -0.51076,0.30581 -0.80623,0.62437 -0.6311,0.68042 -1.69074,2.0397 -1.71721,2.2028 -0.0191,0.1179 0.006,0.17103 0.0992,0.21352 0.10525,0.0478 0.1332,0.0478 0.40429,-1.8e-4 z m 1.86779,-4.33062 c 0.0672,-0.0495 0.36294,-0.30401 0.6572,-0.56565 0.29426,-0.26164 1.16951,-1.03283 1.94501,-1.71377 1.73644,-1.5247 2.13157,-1.8828 2.50514,-2.27034 0.32067,-0.33267 0.39206,-0.44049 0.36171,-0.54632 -0.01,-0.035 -0.0417,-0.0764 -0.0711,-0.0929 -0.11128,-0.0625 -0.33737,0.004 -2.25578,0.66489 -1.51798,0.52281 -2.17014,0.75286 -2.37042,0.83616 -0.31017,0.129 -0.47587,0.25183 -0.53672,0.39785 -0.11753,0.28205 -0.52183,2.9693 -0.48211,3.20441 0.0123,0.0727 0.0759,0.17559 0.10851,0.17559 0.009,0 0.0713,-0.0405 0.13853,-0.0899 z m 2.25339,0.0119 c 0.31597,-0.0587 0.83038,-0.1141 1.49882,-0.1615 0.86827,-0.0616 1.29156,-0.12183 1.38152,-0.19668 0.10345,-0.0861 0.12219,-0.1503 0.22687,-0.77758 0.0635,-0.38042 0.12198,-0.83037 0.1711,-1.3162 0.0403,-0.39885 0.15045,-1.75673 0.14308,-1.7641 -0.01,-0.01 -0.35787,0.29656 -0.74257,0.65246 -0.198,0.18317 -0.4725,0.43679 -0.61,0.56358 -0.2702,0.24918 -1.3503,1.22901 -1.98,1.7962 -0.62737,0.5651 -0.92424,0.88162 -0.94859,1.01137 -0.0149,0.0795 0.0262,0.1948 0.0817,0.22934 0.0547,0.034 0.51345,0.0122 0.77805,-0.0369 z m -24.65118,-0.16243 c 2.78881,-0.0955 4.99119,-0.48316 7.57,-1.3326 1.46016,-0.48096 2.66627,-1.02365 3.86,-1.73683 1.23178,-0.73591 2.4047,-1.69822 3.26769,-2.68095 0.21669,-0.24675 0.54231,-0.67398 0.54231,-0.71153 0,-0.0101 -6.61485,-0.0176 -15.59,-0.0176 -8.93063,0 -15.59,0.007 -15.59,0.0175 0,0.0279 0.33821,0.50348 0.59898,0.84234 1.52156,1.97713 3.56903,3.48044 6.00102,4.40612 1.40781,0.53585 3.03258,0.88877 4.94,1.07302 1.40883,0.13609 3.02299,0.18763 4.4,0.1405 z m -12.00283,-0.35897 c 0.22611,-0.0187 0.29816,-0.0427 0.3572,-0.11906 0.0371,-0.0479 0.0306,-0.0995 -0.0243,-0.19319 -0.0542,-0.0924 -0.19177,-0.19082 -0.73688,-0.52693 -1.04794,-0.64616 -1.79937,-1.23367 -2.66094,-2.08046 -0.90677,-0.89121 -1.75822,-1.93114 -2.42243,-2.95865 l -0.1566,-0.24227 h -4.85661 c -2.67113,0 -4.85661,0.007 -4.85661,0.016 0,0.0234 0.40789,0.55885 0.61828,0.81166 0.73327,0.88112 1.46209,1.54159 2.31713,2.09982 1.85665,1.21215 4.06069,2.09654 6.65459,2.67024 1.26377,0.2795 2.56688,0.45055 4.03,0.52899 0.28102,0.0151 1.53435,0.0106 1.73717,-0.006 z m -26.64088,-1.88134 c 0.0845,-0.0212 0.23921,-0.0811 0.34371,-0.1332 0.16081,-0.0802 0.2192,-0.12402 0.38005,-0.28538 0.34252,-0.34359 0.479,-0.66828 0.47947,-1.14064 7.1e-4,-0.7252 -0.44551,-1.31869 -1.16022,-1.54312 -0.12788,-0.0401 -0.1909,-0.0469 -0.4393,-0.0469 -0.24839,0 -0.31142,0.007 -0.43929,0.0469 -0.71556,0.22469 -1.16093,0.81705 -1.16022,1.54312 4.7e-4,0.47278 0.13648,0.79596 0.481,1.14295 0.17087,0.17209 0.21411,0.20383 0.40005,0.29356 0.18475,0.0891 0.35482,0.14037 0.56846,0.17117 0.10859,0.0157 0.38983,-0.009 0.54629,-0.0485 z m 71.97362,0.008 c 0.077,-0.0169 0.2339,-0.0759 0.34856,-0.13118 0.18608,-0.0897 0.22905,-0.12119 0.40005,-0.29341 0.34452,-0.34699 0.48053,-0.67017 0.481,-1.14295 7.1e-4,-0.72607 -0.44466,-1.31843 -1.16022,-1.54312 -0.12788,-0.0401 -0.1909,-0.0469 -0.4393,-0.0469 -0.24839,0 -0.31142,0.007 -0.43929,0.0469 -0.71471,0.22443 -1.16093,0.81792 -1.16022,1.54312 4.7e-4,0.47235 0.13694,0.79702 0.47947,1.14066 0.14693,0.14741 0.22634,0.20938 0.35004,0.27314 0.37447,0.19303 0.73738,0.24197 1.13991,0.15374 z"
         id="path14"
         inkscape:export-filename="top.svg"
         inkscape:export-xdpi="1270.0039"
         inkscape:export-ydpi="1270.0039" /></g></g></svg>
