<?xml version="1.0" encoding="UTF-8" standalone="no"?>
<!-- Created with Inkscape (http://www.inkscape.org/) -->

<svg
   width="60mm"
   height="60mm"
   viewBox="0 0 60 60"
   version="1.1"
   id="svg1"
   xml:space="preserve"
   sodipodi:docname="wheel.svg"
   inkscape:version="1.4 (86a8ad7, 2024-10-11)"
   xmlns:inkscape="http://www.inkscape.org/namespaces/inkscape"
   xmlns:sodipodi="http://sodipodi.sourceforge.net/DTD/sodipodi-0.dtd"
   xmlns="http://www.w3.org/2000/svg"
   xmlns:svg="http://www.w3.org/2000/svg"><sodipodi:namedview
     id="namedview1"
     pagecolor="#505050"
     bordercolor="#eeeeee"
     borderopacity="1"
     inkscape:showpageshadow="0"
     inkscape:pageopacity="0"
     inkscape:pagecheckerboard="0"
     inkscape:deskcolor="#505050"
     inkscape:document-units="mm"
     inkscape:zoom="1.4142136"
     inkscape:cx="86.974134"
     inkscape:cy="109.9551"
     inkscape:window-width="1920"
     inkscape:window-height="1009"
     inkscape:window-x="-8"
     inkscape:window-y="-8"
     inkscape:window-maximized="1"
     inkscape:current-layer="layer1" /><defs
     id="defs1" /><g
     inkscape:label="Calque 1"
     inkscape:groupmode="layer"
     id="layer1"
     transform="translate(-28.25954,-65.825718)"><g
       id="g18"
       transform="matrix(0.85436352,0,0,0.86422978,7.8573933,11.930591)"><path
         style="display:inline;fill:#000000;stroke-width:0.273998"
         d="m 57.960993,127.94534 c -2.876307,-0.2075 -5.299013,-0.70139 -8.228242,-1.67741 -3.195575,-1.06476 -5.810836,-2.40385 -8.590715,-4.3987 -1.063325,-0.76306 -1.367043,-1.00743 -2.609838,-2.09993 -2.458996,-2.16161 -4.7932,-5.09192 -6.439894,-8.0845 -2.734371,-4.96924 -4.100712,-10.75087 -3.789115,-16.033525 0.09231,-1.56485 0.306994,-3.346407 0.553711,-4.594771 0.470124,-2.378806 1.472107,-5.283714 2.591091,-7.511974 0.240278,-0.478468 0.482896,-0.967815 0.539149,-1.087438 0.409859,-0.871485 1.830753,-3.033613 2.903089,-4.417525 5.048854,-6.515867 12.656426,-10.899148 20.750907,-11.956126 2.486448,-0.324673 5.68098,-0.344384 7.938259,-0.04892 5.242573,0.6861 10.006177,2.546385 14.207438,5.548302 7.353373,5.254171 12.026585,13.027566 13.11844,21.821132 0.410672,3.30746 0.271728,6.794445 -0.391415,9.823135 -0.449314,2.05211 -0.724663,3.00275 -1.364869,4.71222 -2.562966,6.84354 -7.845727,12.87001 -14.315951,16.33137 -3.815544,2.0412 -7.684431,3.19855 -12.051095,3.605 -1.157099,0.10772 -3.770461,0.14548 -4.82095,0.0697 z m 4.182665,-1.88266 c 4.548248,-0.35739 8.838237,-1.67254 12.63703,-3.87402 4.907394,-2.84393 8.770084,-6.87201 11.439735,-11.92955 1.620221,-3.06943 2.709125,-6.68462 3.103085,-10.302325 0.14482,-1.32984 0.16311,-4.25308 0.03442,-5.50169 -0.09552,-0.92684 -0.343175,-2.547173 -0.432123,-2.827269 -0.06535,-0.205787 -0.153357,1.386539 -0.154261,2.791019 -0.0025,3.66056 -0.804891,7.000195 -2.259638,9.403165 -0.763957,1.26191 -2.184805,2.90531 -3.382509,3.91233 -1.804062,1.51686 -4.308756,2.74245 -6.62663,3.24253 -0.608241,0.13124 -2.672829,0.39628 -3.570751,0.4584 -0.253742,0.0176 -0.320524,0.0635 -0.543715,0.37361 -1.542534,2.14359 -2.260309,2.95426 -3.337924,3.76987 -0.793111,0.60028 -1.3146,0.89233 -2.014361,1.12805 -0.443656,0.14946 -1.100525,0.20267 -1.100525,0.0892 0,-0.0331 0.455354,-0.47664 1.011896,-0.98557 1.234891,-1.12922 1.918406,-1.83998 2.556796,-2.65871 0.998733,-1.28086 1.452362,-2.18964 1.445822,-2.89647 -0.0021,-0.2258 -0.150362,-0.98658 -0.337569,-1.73205 -0.432453,-1.72206 -0.543751,-2.49089 -0.544273,-3.75979 -5.49e-4,-1.14219 0.06961,-1.73253 0.328885,-2.77069 0.788185,-3.155895 2.979263,-5.909775 6.267779,-7.877685 1.530273,-0.91575 3.047738,-1.56467 6.814576,-2.914172 2.231315,-0.799378 2.732072,-0.998797 3.683892,-1.467017 0.650714,-0.320113 0.940673,-0.427191 1.069308,-0.39491 0.130173,0.03261 0.176493,0.01476 0.176493,-0.0682 0,-0.154784 -0.719127,-2.311127 -1.051375,-3.152618 -0.988245,-2.502916 -2.678666,-5.347989 -4.63042,-7.79326 -0.673878,-0.844276 -3.066229,-3.257195 -3.960106,-3.994156 -1.842165,-1.51877 -4.0323,-2.950568 -6.088745,-3.980491 -2.772575,-1.388578 -5.76625,-2.280691 -9.2803,-2.765539 -1.153754,-0.159176 -5.415297,-0.185398 -6.597089,-0.04059 -3.663776,0.448949 -6.797368,1.354239 -10.000101,2.888995 -4.163523,1.995179 -8.157297,5.306711 -10.960238,9.08795 -0.476361,0.642619 -1.337631,1.925488 -1.615601,2.406432 l -0.196685,0.340312 0.385119,0.223451 c 0.211815,0.122908 0.646103,0.34912 0.965082,0.502714 2.403243,1.157152 3.731767,1.835396 4.38598,2.23915 3.678718,2.270348 5.647147,5.318935 5.845922,9.053819 -0.213979,1.522292 -0.233217,4.128749 0.323044,0.89315 0.108208,-0.70155 0.04281,-2.918997 -0.113183,-3.837868 -0.13586,-0.800235 -0.236716,-2.416657 -0.207219,-3.321077 0.125646,-3.852441 2.191162,-7.861642 5.356529,-10.397112 1.353182,-1.083903 3.201563,-2.1029 4.816439,-2.655272 3.030815,-1.036685 6.239821,-1.19079 9.262389,-0.444795 2.891418,0.713619 5.371709,2.197288 7.238057,4.329671 2.032718,2.32247 3.290827,5.46547 3.290827,8.221118 0,3.214167 -1.441848,6.397845 -3.881026,8.569535 -2.179747,1.9407 -4.965701,3.00897 -7.899044,3.02886 -2.589449,0.0176 -4.943896,-0.79012 -6.814955,-2.33781 -1.952405,-1.61497 -3.019866,-3.844619 -3.017329,-6.302435 5.48e-4,-0.498405 0.01852,-0.98774 0.04004,-1.087426 0.02151,-0.09963 0.07602,-0.360666 0.121138,-0.579963 0.356164,-1.731128 1.378911,-3.349739 2.783585,-4.405349 1.447815,-1.088033 3.270523,-1.565989 5.06251,-1.327517 2.274064,0.302616 3.981257,1.644274 4.651841,3.655807 0.150719,0.452116 0.189164,0.705347 0.187092,1.232426 -0.0046,1.175816 -0.363705,2.085902 -1.122354,2.84455 -1.227007,1.227009 -3.047983,1.384543 -4.079597,0.352929 -0.55799,-0.55799 -0.69739,-1.120528 -0.443818,-1.791011 0.04147,-0.109625 0.10096,-0.19936 0.13221,-0.19936 0.03125,0 0.142337,0.14594 0.246865,0.324303 0.500618,0.854239 1.696655,0.973231 2.411321,0.239901 0.437416,-0.448842 0.625199,-0.973124 0.584293,-1.631323 -0.147553,-2.374307 -3.262017,-3.493418 -5.680851,-2.041279 -0.589368,0.353822 -1.479928,1.331932 -1.793306,1.969612 -0.579738,1.179672 -0.758776,2.510201 -0.489131,3.634965 0.168071,0.70105 0.582606,1.585498 1.021722,2.1799 0.412855,0.55887 1.34109,1.37996 1.97033,1.7429 1.338375,0.77198 2.352951,1.01384 4.227947,1.00791 1.106327,-0.004 1.310303,-0.0244 1.993626,-0.20413 1.956405,-0.51466 3.436283,-1.36845 4.757731,-2.7449 0.719575,-0.749528 1.109236,-1.317707 1.549859,-2.259919 0.708739,-1.515533 1.00298,-3.468362 0.770329,-5.112505 -0.325251,-2.298522 -1.341934,-4.284869 -3.029687,-5.919239 -1.086166,-1.051825 -1.864076,-1.59946 -3.087217,-2.173364 -0.971375,-0.45577 -2.371266,-0.895101 -3.208378,-1.006892 -0.179426,-0.02393 -0.521967,-0.0713 -0.761201,-0.105102 -1.003929,-0.142024 -3.038124,-0.04892 -4.05975,0.185779 -1.302529,0.299248 -2.583687,0.720999 -3.443534,1.133609 -0.439031,0.210667 -1.859301,1.043742 -2.174866,1.275692 -1.112243,0.817506 -2.183559,1.87264 -3.011186,2.965672 -0.841017,1.11072 -1.873404,3.37983 -2.133725,4.689766 -0.04754,0.239234 -0.113933,0.565465 -0.147531,0.724951 -0.23423,1.111814 -0.259877,2.482455 -0.09991,5.339717 0.09532,1.702535 -0.282605,3.689105 -0.951491,5.001605 -0.922222,1.80961 -1.923608,2.851535 -5.006242,5.208965 -0.899269,0.68771 -2.244913,1.9764 -2.716093,2.60114 -0.545262,0.72297 -1.058387,1.80889 -1.237331,2.61854 -0.19661,0.88959 -0.162034,2.34928 0.07523,3.17592 0.790547,2.75426 3.35822,5.09782 7.108786,6.48831 2.213679,0.82071 4.760241,1.20634 7.322043,1.10877 1.307068,-0.0498 1.739893,-0.0952 1.739893,-0.18276 0,-0.0277 -0.236516,-0.11105 -0.525593,-0.1851 -1.458597,-0.37364 -2.754767,-1.14359 -3.891291,-2.31152 -1.122141,-1.15314 -1.815711,-2.56003 -2.149445,-4.36011 -0.15485,-0.83523 -0.104042,-2.46006 0.105626,-3.37783 0.373421,-1.63459 1.228295,-3.15163 2.50592,-4.44698 1.044251,-1.05873 2.053158,-1.77986 3.374818,-2.4122 1.836757,-0.8788 4.326253,-1.32326 6.245968,-1.11514 3.51933,0.38155 6.343534,2.15076 7.77889,4.87307 0.488936,0.92732 0.709783,1.8354 0.70299,2.89055 -0.0054,0.83308 -0.128267,1.52517 -0.27981,1.57568 -0.0466,0.0155 -0.177195,-0.28677 -0.311061,-0.72008 -0.744867,-2.41103 -2.280083,-4.27718 -4.386333,-5.33188 -1.522679,-0.76248 -3.565992,-1.08435 -5.426868,-0.85486 -1.928064,0.23777 -3.4192,0.81908 -4.843916,1.88834 -1.615905,1.21275 -2.599475,2.67402 -3.004347,4.46348 -0.162418,0.71784 -0.180968,0.92437 -0.139501,1.55292 0.11272,1.7085 0.767468,3.07104 2.003762,4.16979 1.179751,1.04849 2.62493,1.59038 4.2472,1.59252 0.890247,0.001 1.55739,-0.11414 2.254424,-0.38984 0.640264,-0.25319 0.923143,-0.43957 1.48715,-0.97979 0.556269,-0.5328 0.818324,-0.95141 1.104303,-1.76402 0.182375,-0.51823 0.194711,-0.62354 0.16133,-1.37742 -0.04045,-0.91349 -0.177486,-1.34514 -0.624881,-1.96829 -0.731021,-1.01821 -2.140917,-1.50215 -3.326828,-1.14194 -0.866622,0.26323 -1.462304,0.93852 -1.466014,1.66195 -0.0043,0.83347 0.687713,1.52701 1.442976,1.44624 0.182363,-0.0195 0.388659,-0.0593 0.458436,-0.0882 0.169564,-0.0706 0.164939,0.0806 -0.01131,0.36967 -0.331059,0.54291 -1.451483,0.74697 -2.187477,0.39839 -0.989053,-0.46845 -1.580954,-1.70004 -1.385879,-2.88368 0.253375,-1.53735 1.518297,-2.70557 3.280131,-3.02935 1.753047,-0.32216 3.635906,0.40884 4.802788,1.86464 1.719563,2.14534 1.689683,5.25355 -0.07337,7.63138 -0.739215,0.99697 -1.3206,1.43937 -3.065596,2.33276 -1.616298,0.82749 -3.244135,1.30877 -5.260728,1.55535 -0.956716,0.117 -3.430306,0.11593 -4.381175,-0.002 -3.257752,-0.40361 -6.211116,-1.39849 -8.302474,-2.79681 -0.391149,-0.26153 -0.724967,-0.46171 -0.741818,-0.44487 -0.0765,0.0765 0.830377,1.28168 1.722583,2.28917 0.311674,0.33055 0.142287,0.68041 0.558544,1.08356 0.864001,0.8368 3.40707,2.18831 5.313257,3.00653 3.338377,1.43299 6.824203,2.28586 10.040625,2.45662 1.065861,0.0565 3.444014,0.0442 4.29141,-0.0225 z m -22.420645,-7.6808 c -0.388999,-0.42043 -1.221141,-1.5468 -1.578247,-2.13628 -0.538377,-0.88869 -0.721208,-1.3455 -1.61211,-4.02784 -0.487608,-1.46809 -0.522098,-3.3365 -0.08902,-4.82259 0.475606,-1.63201 1.825727,-3.38628 3.84658,-4.998 0.388758,-0.31005 0.706832,-0.58916 0.706832,-0.62024 0,-0.0311 -0.122336,-0.079 -0.271859,-0.10641 -0.499785,-0.0918 -1.649645,-0.46889 -2.33798,-0.76675 -3.601982,-1.558715 -6.077872,-4.780965 -6.817657,-8.872845 -0.109197,-0.603971 -0.146193,-1.134263 -0.149703,-2.145821 -0.0025,-0.738984 0.01808,-1.464839 0.04588,-1.613029 0.05484,-0.292284 0.0098,-0.349251 -0.105708,-0.133537 -0.226696,0.423584 -0.849797,3.04091 -1.080843,4.540077 -0.662023,4.29556 -0.314654,8.752395 1.00586,12.905505 0.264239,0.83104 0.935514,2.53674 1.358247,3.45129 1.023616,2.21449 2.738602,4.86205 4.364297,6.73751 0.650483,0.75042 2.809734,2.89533 2.914691,2.89533 0.03612,0 -0.05354,-0.12886 -0.199255,-0.28635 z m 34.34761,-8.45313 c 0.44994,-0.0619 0.915937,-0.12956 1.035554,-0.15039 0.119619,-0.0208 0.469143,-0.0826 0.776721,-0.13738 2.317635,-0.41234 4.909356,-1.69899 6.563448,-3.25839 0.368821,-0.3477 0.670585,-0.65742 0.670585,-0.68829 0,-0.0718 -0.900826,-0.0277 -1.558653,0.0762 -0.369345,0.0583 -0.624553,0.0586 -0.937632,5.5e-4 -0.667817,-0.12355 -1.372959,-0.0945 -2.370706,0.0976 -1.248292,0.24032 -2.189603,0.56614 -2.972906,1.02901 -0.361826,0.21381 -0.681251,0.38874 -0.709831,0.38874 -0.13244,0 -0.399773,0.41948 -0.981782,1.54053 -0.554535,1.06814 -0.612507,1.2143 -0.48164,1.2143 0.08183,0 0.516907,-0.0506 0.966842,-0.11248 z m 1.202869,-1.34117 c -0.1386,-0.0332 -0.06777,-0.0882 0.41265,-0.32098 l 0.579964,-0.28098 1.219454,-0.0415 c 0.688422,-0.0234 1.288241,-0.0124 1.377417,0.0255 0.15608,0.0662 0.1558,0.0673 -0.02329,0.0946 -0.09969,0.0152 -0.282446,0.0594 -0.406143,0.0982 -0.123699,0.0388 -0.335747,0.0871 -0.47122,0.10736 -0.135474,0.0202 -0.311561,0.0483 -0.391306,0.0623 -0.07975,0.0139 -0.370765,0.0632 -0.646708,0.10939 -0.275944,0.0462 -0.536318,0.10534 -0.578609,0.13154 -0.09508,0.0588 -0.844722,0.0689 -1.072217,0.0144 z m -2.663063,-0.14689 c 0.20271,-0.41555 0.579996,-1.13564 0.838417,-1.60023 0.498637,-0.89644 0.483674,-0.83895 0.59806,-2.29769 0.06206,-0.79143 -0.01107,-1.52044 -0.239493,-2.3874 -0.225565,-0.85613 -0.31387,-1.77286 -0.249822,-2.593495 0.03292,-0.42192 0.07868,-0.79756 0.101674,-0.83476 0.110243,-0.17837 -0.105864,-0.039 -0.260446,0.16797 -0.875054,1.171605 -1.416229,2.371075 -1.7529,3.885145 -0.128721,0.57888 -0.155995,0.93882 -0.157437,2.0776 -0.0011,0.82696 0.03441,1.55125 0.08871,1.81239 0.166827,0.8022 0.602408,2.58817 0.629352,2.56122 0.01466,-0.0146 0.201169,-0.37521 0.403878,-0.79075 z m 2.89189,-2.34913 c 0.534635,-0.27092 1.758171,-0.66108 2.602764,-0.82997 0.838918,-0.16775 2.278976,-0.20582 3.018217,-0.0798 0.417894,0.0713 1.755463,0.0955 2.283606,0.0413 0.28862,-0.0296 0.5875,-0.33157 1.279967,-1.29332 0.70724,-0.98227 1.660062,-2.86191 1.521161,-3.00081 -0.02727,-0.0273 -0.301661,0.0674 -0.609773,0.21018 -1.619591,0.75096 -1.980704,0.84518 -3.568768,0.93111 -2.185754,0.11831 -3.035537,0.2838 -4.305272,0.83855 -0.561228,0.24521 -0.611834,0.28744 -1.10459,0.92176 -0.4966,0.63929 -1.622201,2.30138 -1.622201,2.3954 0,0.0855 0.149598,0.0456 0.504889,-0.1344 z m 0.37037,-2.9094 c 0.176504,-0.24378 0.52106,-0.7018 0.765681,-1.01783 0.592719,-0.76574 0.728862,-1.29639 0.685304,-2.671155 -0.07282,-2.29837 -0.04972,-2.93655 0.130689,-3.60978 0.09395,-0.35061 0.156613,-0.65168 0.139247,-0.66904 -0.04217,-0.0421 -1.217183,0.72684 -1.762482,1.15348 -0.239236,0.18718 -0.720425,0.61813 -1.06931,0.95767 l -0.634334,0.61734 9.3e-5,1.24638 c 7.9e-5,1.064445 0.02542,1.352195 0.173687,1.971335 0.327589,1.36808 0.429538,2.18115 0.380824,3.03719 l -0.04495,0.78984 0.457314,-0.68109 c 0.251522,-0.37461 0.601726,-0.88055 0.778232,-1.12434 z m 3.184487,-1.28087 c 1.039387,-0.2896 2.018478,-0.41374 3.283267,-0.41627 1.116145,-0.002 1.349356,-0.057 2.35977,-0.55402 0.659885,-0.3246 0.913918,-0.41176 1.287512,-0.44176 l 0.465422,-0.0374 0.188783,-0.618915 c 0.20157,-0.66085 0.475421,-1.90946 0.428975,-1.95591 -0.02767,-0.0276 -0.473957,0.0595 -1.742868,0.34044 -0.358853,0.0795 -1.109179,0.24533 -1.667395,0.36861 -1.448984,0.32003 -1.933244,0.47341 -2.767834,0.87669 -0.405876,0.19612 -0.769092,0.35658 -0.807142,0.35658 -0.119519,0 -1.947671,1.955705 -2.127647,2.276095 -0.0655,0.11665 -0.05671,0.13147 0.05787,0.0978 0.0743,-0.0218 0.54288,-0.15321 1.041286,-0.29208 z m 0.503964,-2.922835 1.054692,-1.0947 0.272403,-0.89893 c 0.149823,-0.49443 0.272161,-0.93919 0.27186,-0.98837 -2.74e-4,-0.0492 0.193331,-0.66902 0.43029,-1.37741 0.236963,-0.7084 0.406787,-1.31228 0.37739,-1.34196 -0.065,-0.0656 -2.180348,0.77431 -3.049886,1.21103 l -0.627792,0.31529 -0.177979,0.71374 c -0.186932,0.74963 -0.217828,1.49707 -0.149364,3.61354 0.02529,0.78212 0.0061,1.043535 -0.1121,1.522405 -0.02315,0.0939 0.08614,0.0171 0.31001,-0.21748 0.190182,-0.19936 0.820396,-0.855085 1.40048,-1.457155 z m -37.728903,1.151895 c -0.07789,-0.519435 -0.319628,-1.110835 -0.591712,-1.447615 -0.259995,-0.32181 -1.030581,-0.869 -1.512158,-1.07378 -0.310319,-0.13195 -1.247984,-0.37446 -1.689065,-0.43685 -0.37991,-0.0537 -2.582394,-0.16996 -2.616352,-0.13806 -0.01551,0.0145 0.212863,0.2546 0.507472,0.53343 1.446967,1.36947 2.908633,2.17346 4.885378,2.687195 1.106914,0.28767 1.078736,0.29112 1.016437,-0.12432 z m 1.22162,-0.548135 c 1.282111,-2.78081 1.514476,-5.19453 0.739635,-7.683066 -0.129064,-0.414526 -0.631054,-1.483062 -0.791785,-1.685409 -0.110184,-0.138703 -0.115278,-0.132216 -0.11748,0.149463 -0.0033,0.428774 -0.246741,1.292439 -0.648454,2.301093 -0.193691,0.486319 -0.419877,1.128909 -0.50263,1.427949 -0.194663,0.70343 -0.366705,1.80811 -0.289066,1.8561 0.03323,0.0206 0.06043,0.10034 0.06043,0.17742 0,0.077 0.09511,0.36056 0.211354,0.63006 0.395783,0.91754 0.818618,2.14214 0.936508,2.71226 0.06469,0.31284 0.134643,0.568085 0.155459,0.567235 0.02083,-8.2e-4 0.131528,-0.204745 0.246029,-0.453105 z m -0.362952,-1.9495 c -0.03432,-0.0533 -0.05874,-0.31051 -0.05428,-0.57156 0.0064,-0.37477 0.07083,-0.63093 0.306229,-1.21766 0.423711,-1.05611 0.450667,-1.08586 0.437236,-0.48258 -0.0062,0.27911 -0.03538,0.54009 -0.0648,0.57997 -0.02942,0.0399 -0.143057,0.43135 -0.252516,0.86995 -0.210623,0.84395 -0.271325,0.97812 -0.371877,0.82188 z m 38.622172,1.09588 c 0.684265,-0.2697 1.87649,-0.57138 3.135578,-0.79338 0.683024,-0.12044 1.33973,-0.2478 1.459347,-0.28304 0.119617,-0.0352 0.429535,-0.10486 0.688707,-0.15488 0.259173,-0.05 0.493858,-0.11069 0.521527,-0.1349 0.110256,-0.0967 0.215845,-1.45547 0.271021,-3.48763 0.03194,-1.176237 0.05099,-2.147325 0.04234,-2.157966 -0.0087,-0.01071 -0.267407,0.323648 -0.575017,0.742888 -0.79284,1.080548 -1.668565,2.029828 -4.029297,4.367798 -1.136552,1.12558 -2.026889,2.04719 -1.978522,2.04799 0.04836,8.3e-4 0.257306,-0.0653 0.464318,-0.14688 z m -40.466572,-1.46466 c -0.152327,-0.39063 -1.055216,-2.0805 -1.335843,-2.50022 -0.08632,-0.12909 -0.258892,-0.30852 -0.383507,-0.39871 -0.124615,-0.0902 -0.499065,-0.36571 -0.832113,-0.61221 -0.663747,-0.49128 -1.918155,-1.07812 -3.232149,-1.51206 C 34.638466,92.10058 34.026712,91.872606 33.703438,91.734153 33.380163,91.5957 33.0784,91.482409 33.032853,91.482409 c -0.135624,0 -0.09563,0.392709 0.131733,1.293261 0.291982,1.156545 0.694089,2.072495 1.322321,3.012105 0.547194,0.8184 0.400008,0.75984 1.80409,0.71776 1.982386,-0.0594 3.428409,0.27274 4.522815,1.03889 0.07865,0.0551 0.151573,0.1001 0.162056,0.1001 0.01047,0 -0.04773,-0.17127 -0.129363,-0.38059 z m 41.980443,-1.44882 c 2.140857,-1.93274 4.701178,-4.671494 4.23686,-4.532149 -0.07748,0.02321 -0.581275,0.225975 -1.119554,0.450485 -1.04031,0.433892 -3.045593,1.190885 -3.314906,1.251363 -0.119205,0.02678 -0.172585,0.105101 -0.204356,0.299971 -0.02365,0.14506 -0.199214,0.75309 -0.390139,1.35118 -0.31106,0.97443 -0.535492,1.77036 -0.642759,2.2795 l -0.03732,0.17714 0.210495,-0.16426 c 0.115778,-0.0903 0.683528,-0.59129 1.261679,-1.11323 z m -41.763602,-1.19174 c 0.111053,-0.91915 0.374091,-1.77655 0.873342,-2.846741 0.518462,-1.111386 0.714175,-1.999559 0.517764,-2.349715 -0.196356,-0.350061 -1.284267,-1.46115 -1.94983,-1.991383 -0.616601,-0.491215 -2.32191,-1.572059 -2.383365,-1.510605 -0.01702,0.01702 0.0217,0.238698 0.08601,0.492656 0.07461,0.294594 0.138722,1.012807 0.177126,1.984134 0.04937,1.248863 0.09644,1.684147 0.261904,2.422572 0.195602,0.872914 0.220525,0.930059 0.823131,1.887316 0.34178,0.542926 0.817157,1.349856 1.056394,1.793186 0.239234,0.44333 0.439956,0.8011 0.44605,0.79503 0.0061,-0.006 0.04725,-0.31048 0.09147,-0.67645 z m -2.381832,-1.39263 c -0.0728,-0.13602 -0.641209,-0.984939 -2.286824,-3.415355 -0.472451,-0.697777 -1.112249,-1.643845 -1.421771,-2.102376 -0.309522,-0.458531 -0.80508,-1.300188 -1.101239,-1.870343 l -0.538469,-1.036637 -0.049,0.34793 c -0.349326,2.48048 -0.505771,4.457626 -0.427117,5.397958 0.03468,0.414573 0.06203,0.487835 0.193534,0.518461 0.08424,0.01964 0.483068,0.16458 0.886298,0.322149 0.403233,0.157569 1.006759,0.359166 1.341169,0.447984 1.197698,0.318102 1.897688,0.616005 2.891623,1.230639 0.531863,0.32889 0.616525,0.35529 0.511796,0.15959 z m -0.5452,-2.540811 c -0.108637,-0.17578 -0.236028,-1.288606 -0.249046,-2.17547 -0.01242,-0.844693 -0.169556,-2.543481 -0.259756,-2.807842 -0.016,-0.0469 -0.283872,-0.205335 -0.595265,-0.352096 -1.081107,-0.509546 -2.284246,-1.123384 -2.78551,-1.421192 -0.277221,-0.164686 -0.51891,-0.284559 -0.53709,-0.266384 -0.06173,0.06178 1.172244,2.483741 1.636648,3.21237 0.752635,1.18085 2.674939,3.86595 2.773333,3.873818 0.03226,0.0024 0.03977,-0.02583 0.01669,-0.0632 z"
         id="path1"
         sodipodi:nodetypes="cssssssscsscsssssscccssssscsssccssssssscsssscsssssssssscscssssssssssscscssssscssssssssssssccsssssccsscssssssssssssssssssssccsssssssccssssscsccssssssscscssscccssssssccscscssssssssccssccsssssscccccssccscccsssssssscscsscscsssccssscsssscsscscscsssccsscscccssscccccscssscssccscsssccssscsscsscsssccsssssssssscscsssscsssssssssssscssscsssssccssssssssssscsssssscsscssssscssscscss" /><path
         id="path3"
         style="display:inline;fill:#d45500;fill-opacity:1;stroke:#000000;stroke-width:0.920017;stroke-linecap:round;stroke-linejoin:round"
         d="m 221.27539,254.27344 c -10.29547,-0.24266 -20.40172,2.38378 -30.17578,5.35742 -17.95674,5.80538 -34.37273,16.22831 -47.2832,29.99414 -6.13548,6.09611 -11.34742,13.12287 -15.59766,20.63868 -0.47503,1.96027 2.36541,2.24826 3.47461,3.20117 9.6677,5.31573 20.50647,9.26591 28.29102,17.34375 6.09363,6.13275 10.54814,14.40004 11.21679,23.13867 0.1928,3.80468 -0.31936,7.67978 0.20508,11.44336 1.35219,1.50724 2.31669,-0.7849 2.34375,-1.95508 1.67585,-8.04316 0.27866,-16.34961 -0.27734,-24.38281 -0.47794,-7.70425 0.23524,-15.58671 3.35742,-22.79297 7.33369,-18.41175 25.07013,-31.61264 44.42383,-34.64258 16.90059,-2.73298 35.24852,1.50547 47.88672,13.46875 7.55715,7.23506 12.96292,16.85135 14.97461,27.13281 1.43972,8.96711 0.13505,18.6332 -4.41016,26.59571 -6.08222,11.91473 -18.14709,20.41785 -31.26953,22.55273 -9.32041,1.31192 -19.15286,0.48785 -27.39453,-4.40625 -10.05968,-5.49075 -17.12184,-17.0061 -16.19141,-28.70508 0.61544,-10.7344 8.10203,-21.22744 18.75586,-24.1875 7.61335,-2.11428 16.52082,-1.04423 22.41992,4.57227 4.67728,4.36535 7.14017,11.49513 4.57032,17.60742 -1.97665,5.68446 -8.53399,9.75767 -14.44532,7.72461 -2.73322,-1.09187 -5.38604,-4.00389 -4.27929,-7.11914 1.98036,3.42685 7.06409,4.44048 9.99609,1.60742 4.78017,-4.14922 3.13533,-12.38009 -2,-15.50586 -6.82185,-4.51815 -16.84395,-2.79575 -21.85742,3.66211 -5.93154,6.07261 -7.12963,16.03591 -2.97461,23.41406 2.65628,5.55728 7.83735,9.62248 13.34961,12.1211 6.37231,2.47828 13.47812,2.37423 20.14648,1.4082 12.80545,-3.10937 24.32306,-13.16815 26.99414,-26.38476 2.55274,-11.1891 -0.28623,-23.47577 -7.82617,-32.18555 -5.63722,-6.96373 -13.37927,-12.11636 -22.02344,-14.50781 -23.54559,-6.85866 -51.23499,5.24232 -61.60742,27.60546 -3.05035,6.54591 -5.11128,13.69363 -4.72851,20.97657 -0.2187,7.39509 0.34441,14.84318 -0.56055,22.14648 -1.54407,8.64741 -6.83455,16.1411 -13.5918,21.61914 -6.62574,5.6274 -13.87447,10.72264 -19.24219,17.66016 -6.19226,9.14986 -5.77246,22.19863 1.29102,30.76562 9.03236,11.50922 23.51207,17.42017 37.68945,19.3086 6.5555,0.50677 13.27529,1.01686 19.76758,-0.0117 1.85633,-1.74942 -1.82605,-2.32335 -3.04101,-2.7168 -10.68479,-3.10402 -19.36667,-12.40896 -21.08204,-23.49218 -1.22887,-7.50622 -0.32674,-15.45308 3.66016,-22.03321 11.48952,-20.28797 41.28398,-27.2337 60.28711,-13.72461 7.88665,5.55975 13.86567,15.19645 12.0586,25.1211 -0.99259,-2.6973 -2.2616,-6.14147 -3.99415,-8.82618 -5.91053,-9.96042 -17.46589,-16.42251 -29.09765,-15.66406 -5.3877,-0.29594 -10.81797,0.44883 -15.76563,2.67578 -10.72224,4.30955 -19.94149,14.38986 -20.22265,26.3711 -0.48387,10.24827 6.73031,20.04075 16.52148,22.92187 7.51828,2.2852 16.83487,1.80014 22.53906,-4.2207 3.8603,-3.45607 5.66724,-8.85306 4.83594,-13.94922 -0.22218,-6.53779 -6.6846,-12.04241 -13.17773,-11.22852 -4.5917,-0.31729 -9.72201,4.04 -8.55078,8.86133 0.71254,2.96089 3.74761,5.43428 6.87304,4.64063 -2.73725,2.74885 -7.7553,1.79797 -9.78906,-1.39453 -4.19673,-5.09218 -1.27723,-13.2041 4.19727,-16.09961 6.65444,-4.02879 15.70712,-2.63591 21.12695,2.83984 4.55763,4.24021 6.83599,10.71868 6.14648,16.9375 -0.33203,6.043 -3.43301,11.90597 -7.76953,16.09961 -7.6549,5.93822 -17.21225,9.25301 -26.60937,10.68555 -6.56632,0.64385 -13.27533,0.27545 -19.75391,-0.0977 -10.58588,-1.58362 -20.76864,-4.93383 -29.80859,-10.66406 -0.95077,-1.07036 -3.22327,-0.41267 -2.29493,1.16015 2.43187,4.07717 6.12226,7.23661 8.56836,11.28907 0.55234,1.9555 3.07263,2.60234 4.51953,3.83984 15.67638,9.85769 33.78667,15.91141 52.24219,17.42383 11.63437,0.3169 23.42544,0.20167 34.77735,-2.67773 29.64445,-6.58046 56.04876,-25.97629 71.4414,-52.11719 13.33132,-22.34446 18.55275,-49.66371 13.49805,-75.25196 -0.76144,-1.62894 -2.64251,-0.0414 -2.10547,1.3125 -0.44727,11.92596 -0.34774,24.14998 -4.87304,35.36719 -7.17825,18.43579 -24.86193,32.33721 -44.50196,35.16406 -3.74733,0.80515 -7.72795,0.61655 -11.37305,1.73829 -4.91435,5.6443 -8.81012,12.27905 -15.26757,16.37695 -2.30818,1.58072 -4.83783,2.97593 -7.62696,3.44531 6.13619,-6.43555 13.59318,-12.37537 17.08985,-20.83789 1.46004,-5.29884 -1.30223,-10.62839 -1.93164,-15.80078 -2.61971,-13.14296 1.52215,-27.30192 10.72265,-37.0293 8.82939,-9.81789 21.15421,-15.23948 33.375,-19.57031 7.68302,-2.73702 15.32384,-5.77754 22.8086,-8.94531 2.23413,-0.22148 1.34091,-2.8071 0.79883,-4.12305 -8.31166,-27.05143 -27.12889,-50.61072 -51.46485,-64.99414 -13.45271,-8.17612 -28.77995,-13.10988 -44.38672,-14.90039 -5.66491,-0.28384 -11.34753,-0.15229 -17.01758,-0.19141 z M 118.35742,332.5293 c -0.21617,0.0142 -0.42998,0.11451 -0.70312,0.29883 -6.97856,22.01377 -7.07624,46.27744 0.42969,68.18945 5.79685,17.22933 15.88856,33.08405 29.36718,45.31055 1.61578,0.76156 2.00107,-1.50732 0.91602,-2.32422 -3.74201,-4.89585 -6.41217,-10.4832 -8.2207,-16.36133 -2.62126,-6.72352 -3.46628,-14.29924 -1.62305,-21.21679 2.66978,-8.8534 9.97922,-15.19577 16.92969,-21.02344 1.18674,-2.16218 -2.34002,-2.02485 -3.625,-2.58789 -12.07716,-3.10418 -22.57934,-11.77386 -27.76172,-23.10352 -3.04468,-6.31953 -4.60104,-13.32883 -4.46875,-20.34375 -0.26542,-2.18351 0.24796,-4.55109 -0.51563,-6.61719 -0.28983,-0.16301 -0.50844,-0.2349 -0.72461,-0.2207 z"
         transform="scale(0.26458333)" /><path
         id="path5"
         style="display:inline;fill:#008000;fill-opacity:1;stroke:#000000;stroke-width:0.325275;stroke-linecap:round;stroke-linejoin:round"
         d="m 127.47409,316.26301 0.0757,0.2853 c 0.15315,0.55998 3.88703,7.94568 4.97574,9.84393 1.88173,3.28098 7.68038,11.69353 10.68421,15.49938 0.36393,0.4611 0.68688,0.81458 0.71638,0.78508 0.0295,-0.0295 -0.003,-0.30843 -0.0737,-0.62118 -0.35122,-1.56724 -0.58425,-4.04921 -0.74298,-7.94799 -0.21213,-5.21056 -0.70123,-9.82477 -1.0848,-10.24861 -0.11314,-0.12502 -2.5281,-1.39036 -5.36871,-2.81255 -2.8406,-1.42218 -5.77313,-2.92943 -6.51696,-3.35078 -0.74382,-0.42135 -1.64703,-0.91805 -2.0079,-1.10074 z m -1.47163,4.76919 c -0.0153,0.005 -0.0263,0.025 -0.0327,0.0546 -0.19432,0.88493 -1.08057,8.25094 -1.35907,11.29876 -0.55623,6.08744 -0.57056,10.99476 -0.0348,11.51123 0.34816,0.33558 6.00765,2.33782 9.54211,3.37506 4.2939,1.26011 6.43298,2.18599 10.03538,4.34225 1.08193,0.64759 2.01076,1.17875 2.06316,1.17965 0.23363,0.004 -0.19956,-0.65635 -11.93685,-18.08733 -3.52129,-5.22944 -4.60993,-7.01729 -6.82602,-11.2239 -0.99294,-1.88483 -1.34382,-2.48776 -1.45117,-2.45036 z m 17.99737,3.89104 c -0.0294,-0.0101 0.22794,0.58874 0.39298,1.39211 0.36924,1.79736 0.50407,3.24922 0.74299,7.97631 0.26374,5.21809 0.43865,6.67425 1.17076,9.73871 0.48612,2.03481 0.81894,3.03062 1.88509,4.7692 2.37173,3.8676 4.06483,6.60336 5.2459,8.75533 0.71001,1.29369 1.15605,2.64218 1.40205,2.63044 0.15212,-0.007 0.13364,-1.18946 0.24971,-2.10233 0.48088,-3.78205 1.34446,-6.41248 3.2155,-10.67758 2.10879,-4.80702 2.72566,-7.58488 2.21052,-9.02849 -0.25113,-0.70374 -1.05277,-1.67707 -3.14386,-3.82021 -3.15661,-3.23517 -5.1218,-4.81196 -9.27807,-7.45023 -1.93445,-1.22792 -3.75069,-2.06609 -4.09357,-2.18326 z m 18.23685,15.7604 -0.0942,0.97933 c -0.19916,2.10217 -0.77767,4.10477 -2.56667,8.88483 -0.74879,2.0007 -1.55276,4.33224 -1.78684,5.184 -0.78084,2.84118 -1.32379,6.37278 -1.06638,6.93425 0.0682,0.1488 0.18958,0.54815 0.27018,0.88626 0.0805,0.3381 0.60843,1.77494 1.17281,3.19497 1.6832,4.23512 2.68424,7.2596 3.26666,9.86821 0.15475,0.69311 0.33139,1.25857 0.39299,1.25857 0.26194,0 2.24435,-4.62438 3.16228,-7.37536 1.58726,-4.75693 2.1715,-8.52632 2.06111,-13.32016 -0.0887,-3.85074 -0.63114,-7.0693 -1.71521,-10.16363 -0.50203,-1.43299 -2.02654,-4.69532 -2.61374,-5.59272 z m 166.90503,4.39486 c -0.24138,0.0452 -1.33018,0.47839 -5.60819,2.2116 -3.32763,1.34816 -8.73354,3.39452 -10.47544,3.9659 -0.55474,0.18196 -1.06661,0.40164 -1.13801,0.48764 -0.0714,0.086 -0.32661,0.86876 -0.56491,1.74014 -0.2383,0.87137 -0.84063,2.91361 -1.34065,4.5365 -0.50002,1.62289 -1.05047,3.42147 -1.22193,3.99625 -0.29632,0.99328 -1.18099,4.43548 -1.18099,4.59518 0,0.19858 0.31719,-0.0428 2.02836,-1.53779 6.61059,-5.77555 14.49212,-13.5693 18.07106,-17.87285 0.88005,-1.05823 1.56821,-2.04034 1.48801,-2.12054 -0.007,-0.007 -0.0229,-0.008 -0.0573,-0.002 z m -204.24247,0.80128 v 0.002 c -0.15742,8.1e-4 -0.16613,0.15953 -0.14942,1.07241 0.0341,1.86288 1.23555,6.24513 2.57895,9.40485 1.30877,3.07825 3.99884,7.4195 4.98597,8.04511 0.38525,0.2442 0.62236,0.25754 5.62866,0.33184 5.42042,0.0804 6.23439,0.14674 8.89941,0.72438 2.43105,0.52691 5.37608,1.73331 7.02457,2.8773 0.75122,0.52101 0.84861,0.5336 0.74298,0.10117 -0.31596,-1.29351 -4.62888,-9.39426 -5.70439,-10.714 -0.45746,-0.56133 -3.45849,-2.86078 -5.23772,-4.01243 -2.66008,-1.7218 -5.91847,-3.18643 -11.19386,-5.03629 -1.4875,-0.52161 -3.7268,-1.35244 -4.97778,-1.84738 -1.25098,-0.49495 -2.3864,-0.91899 -2.52164,-0.94089 -0.0289,-0.005 -0.0532,-0.008 -0.0757,-0.008 z m 205.36411,1.07443 c -0.0679,0.0676 -0.85227,1.09096 -1.74386,2.27432 -3.63817,4.82875 -5.01598,6.32878 -15.98743,17.39735 -3.28433,3.31341 -6.16081,6.23147 -6.39211,6.48505 -0.23125,0.25358 -0.35427,0.46134 -0.27427,0.46134 0.08,0 0.73255,-0.21974 1.45117,-0.48967 2.85882,-1.07382 6.75532,-2.04145 12.64913,-3.13832 2.02862,-0.37754 4.38224,-0.8461 5.22749,-1.04003 0.84526,-0.19394 2.07154,-0.47166 2.72631,-0.61715 0.65477,-0.14549 1.24973,-0.33357 1.32223,-0.42087 0.17819,-0.2147 0.45685,-2.30393 0.61608,-4.62148 0.33626,-4.89361 0.62497,-16.50945 0.40526,-16.29054 z m -20.66024,5.67771 c -0.0914,-7.8e-4 -0.26868,0.0524 -0.60994,0.15783 -2.38989,0.7386 -7.17184,2.71416 -10.50205,4.33618 l -2.54416,1.23833 -0.49122,2.03961 c -0.7989,3.31263 -0.81958,3.58062 -0.78188,11.10856 0.0311,6.21254 -3.9e-4,7.18916 -0.29064,8.56918 l -0.0901,0.42694 0.30497,-0.24079 c 0.16727,-0.13205 2.49429,-2.51603 5.17223,-5.29528 l 4.8693,-5.05248 0.80848,-2.69114 c 0.44443,-1.48083 0.96713,-3.3299 1.16462,-4.10754 0.19749,-0.77763 0.78658,-2.71473 1.30585,-4.30381 1.06308,-3.25322 1.78275,-5.68673 1.78275,-6.02169 0,-0.10836 -0.007,-0.16313 -0.0983,-0.1639 z m -145.76994,6.24224 c 0.0268,-0.003 0.0527,0.005 0.0778,0.0202 0.20607,0.12736 0.0463,3.31087 -0.19445,3.87687 -0.10489,0.24662 -0.50214,1.62595 -0.88216,3.06345 -0.38002,1.43751 -0.77841,2.79682 -0.88626,3.02299 -0.10785,0.22616 -0.26759,0.41278 -0.35409,0.41278 -0.35612,0 -0.46748,-0.54395 -0.45848,-2.21362 0.0103,-1.90421 0.16541,-2.50186 1.53099,-5.85578 0.72082,-1.77039 0.97915,-2.30407 1.16667,-2.32693 z m 129.33835,1.11693 c -0.25231,0.0443 -1.36249,0.70666 -2.99035,1.79073 -3.31127,2.20515 -4.86575,3.48367 -8.25059,6.78856 l -1.77046,1.728 0.0737,4.55674 c 0.0804,4.93749 0.0898,5.01272 0.92924,8.73712 0.62319,2.76469 0.95472,4.81383 1.12369,6.94437 0.12111,1.52701 0.10824,2.33276 -0.0757,4.9513 -0.0368,0.52405 -0.041,0.95101 -0.0102,0.95101 0.031,0 0.68152,-0.92518 1.44503,-2.05782 1.91342,-2.83849 3.19286,-4.63367 5.14971,-7.22765 3.35978,-4.4537 3.56195,-5.28423 3.33216,-13.62772 -0.13406,-4.86718 -0.0524,-8.14916 0.24357,-9.72657 0.0761,-0.40572 0.30036,-1.40184 0.49737,-2.21159 0.19701,-0.80975 0.35819,-1.51937 0.35819,-1.57827 0,-0.0195 -0.0192,-0.0246 -0.0553,-0.0182 z m -159.2214,6.80273 1.60058,1.57624 c 4.13219,4.0675 8.29979,6.77488 13.58451,8.8302 1.9225,0.74769 3.0918,1.11531 5.90088,1.85143 1.11574,0.29238 2.24911,0.52097 2.51959,0.50787 l 0.49123,-0.0243 -0.0205,-0.75473 c -0.0394,-1.46081 -1.0482,-4.18859 -2.06111,-5.56845 -0.75267,-1.02534 -3.33532,-2.98414 -5.11082,-3.87687 -1.2471,-0.62705 -4.14461,-1.48098 -6.45351,-1.90403 -0.98349,-0.18021 -5.08435,-0.46741 -8.0541,-0.56251 z m 194.80475,3.21319 c -0.3633,0 -2.6483,0.47718 -8.89942,1.85952 -8.77479,1.94041 -10.1877,2.3366 -13.13012,3.68464 -0.8981,0.41145 -2.13206,0.96957 -2.74064,1.23834 -0.60859,0.26877 -1.23497,0.5532 -1.39386,0.6313 -0.83241,0.40933 -7.99347,8.21548 -8.00907,8.73105 -0.002,0.0553 0.0946,0.0726 0.21286,0.0384 7.20592,-2.08288 9.56802,-2.48122 15.76843,-2.65674 5.22628,-0.14794 5.42956,-0.19417 9.40293,-2.05984 2.82185,-1.32499 3.63398,-1.59144 5.28889,-1.74824 0.73568,-0.0697 1.37741,-0.16935 1.42661,-0.22055 0.23712,-0.24681 1.43841,-4.65936 2.00789,-7.3794 0.39093,-1.86713 0.39936,-2.11852 0.0655,-2.11852 z m -50.33657,2.87325 c -0.0756,0.0236 -0.2285,0.13895 -0.4462,0.34196 -0.86369,0.80543 -2.75845,3.71587 -3.9421,6.05407 -1.85739,3.6691 -3.35326,8.60802 -3.68012,12.15669 -0.11129,1.20838 -0.15395,6.30277 -0.0696,8.26566 0.12137,2.82281 0.16313,3.0982 1.05409,6.91807 0.33743,1.4467 1.18742,4.85416 1.44913,5.81125 0.0414,0.15136 0.10165,0.27519 0.13508,0.27519 0.0335,0 0.54771,-0.97673 1.14211,-2.17113 1.23161,-2.47485 2.37034,-4.65547 3.5307,-6.76428 1.09794,-1.99539 1.25079,-2.30891 1.50644,-3.06548 0.25254,-0.74741 0.43642,-1.909 0.58538,-3.70083 0.40039,-4.81655 0.27827,-6.64048 -0.71638,-10.71602 -0.77189,-3.16284 -1.03562,-5.1702 -1.03772,-7.89943 -10e-4,-2.05555 0.25277,-4.8891 0.47486,-5.29933 0.088,-0.1625 0.0899,-0.22999 0.0143,-0.20639 z m 47.26435,8.69868 c -0.29378,-0.0183 -1.2255,0.34133 -3.33217,1.2788 -4.87469,2.16922 -6.41354,2.57345 -10.98918,2.88337 -1.08192,0.0733 -2.76921,0.18785 -3.74971,0.25495 -5.77672,0.3951 -8.92916,1.01931 -12.54065,2.48071 -3.25343,1.31651 -3.63152,1.60806 -5.75351,4.43735 -2.09717,2.7962 -5.80468,8.27717 -5.80468,8.58334 0,0.19592 0.27655,0.11261 1.71111,-0.52406 3.90618,-1.7336 8.54104,-3.08016 11.9962,-3.48433 3.37001,-0.3942 6.57015,-0.37468 10.08451,0.0668 0.60858,0.0765 2.62698,0.14576 4.48655,0.15176 3.16123,0.0106 3.41898,-0.005 3.94211,-0.24079 0.75545,-0.34108 1.30082,-0.84155 2.37018,-2.17517 1.46601,-1.82828 2.52166,-3.3439 3.74356,-5.36813 2.01811,-3.34326 4.22116,-8.0147 3.92164,-8.31422 -0.0175,-0.0175 -0.044,-0.0277 -0.086,-0.0303 z m -12.16813,17.82226 c -0.93373,-0.0171 -3.04431,0.13295 -4.97983,0.37636 -2.15407,0.27087 -2.22145,0.27236 -3.68012,0.0647 -2.29151,-0.32602 -3.31596,-0.37006 -5.04942,-0.21245 -3.69375,0.33584 -7.97946,1.30667 -11.25117,2.5495 -1.38052,0.52442 -2.77274,1.20353 -5.04123,2.46048 -0.91288,0.50582 -1.74068,0.96091 -1.84211,1.01171 -0.31567,0.1581 -1.04274,1.2035 -1.91783,2.75792 -1.2702,2.25624 -3.61667,6.9342 -3.61667,7.21146 0,0.30277 -0.14851,0.30737 2.71608,-0.0648 7.4569,-0.96844 11.35548,-1.8022 15.54942,-3.32245 5.41109,-1.96145 10.68655,-4.88619 14.93129,-8.27983 1.26397,-1.01054 4.67077,-4.27707 4.67077,-4.47782 0,-0.0456 -0.17794,-0.0692 -0.48918,-0.0749 z m -18.05264,8.48621 c 2.06225,0.0157 3.10107,0.14918 3.019,0.39862 -0.0257,0.0782 -0.18215,0.15716 -0.3459,0.17806 -0.16376,0.0209 -0.8231,0.17751 -1.4655,0.346 -0.64239,0.1685 -2.32968,0.49933 -3.74971,0.7345 -1.42003,0.23518 -3.14209,0.56337 -3.82749,0.73046 -1.00628,0.24527 -1.52802,0.3002 -2.70585,0.2853 -2.79442,-0.0353 -2.8067,-0.16449 -0.14941,-1.50542 l 1.92398,-0.97124 2.50117,-0.0971 c 1.95674,-0.0767 3.56236,-0.10853 4.79971,-0.0992 z"
         transform="scale(0.26458333)" /></g></g></svg>
